<svg width="120" height="120" viewBox="0 0 120 120" xmlns="http://www.w3.org/2000/svg"><path fill="#4a4797" d="M60 26.156c-21.966 0-39.844 17.878-39.844 39.844S38.034 105.844 60 105.844 99.844 87.966 99.844 66 81.966 26.156 60 26.156z"/><path fill="#1e1e40" d="M60 108c-23.156 0-42-18.844-42-42s18.844-42 42-42 42 18.844 42 42-18.844 42-42 42zm0-80.444c-21.196 0-38.444 17.248-38.444 38.444S38.804 104.444 60 104.444 98.444 87.196 98.444 66 81.196 27.556 60 27.556z"/><path fill="#b2a7a5" d="M40.708 76.514c0-3.808-1.932-6.524-5.866-7.07v-7.546c3.654-.546 5.866-3.066 5.866-7.21v-5.852c0-10.332 8.274-11.494 12.208-11.494 1.246 0 2.142.07 2.142.07v6.398s-.546-.07-1.246-.07c-1.862 0-5.586.616-5.586 5.782v7.42c0 4.074-2.268 7.35-5.726 8.638v.14c3.178 1.162 5.726 3.808 5.726 8.568v8.162c0 5.236 3.724 5.782 5.586 5.782.686 0 1.246-.07 1.246-.07v6.398s-.896.14-2.142.14c-3.934 0-12.208-1.162-12.208-11.564v-6.622z"/><path fill="#1e1e40" d="M52.902 95.4c-3.892 0-12.95-1.204-12.95-12.292v-6.594c0-3.626-1.848-5.88-5.222-6.356a.75.75 0 0 1-.644-.728v-7.546c0-.364.266-.672.63-.728 3.374-.504 5.236-2.8 5.236-6.482v-5.852c0-11.032 9.058-12.222 12.95-12.222 1.26 0 2.156.07 2.198.07.392.028.686.35.686.728v6.398c0 .21-.098.406-.252.546s-.364.21-.588.182c0 0-.518-.056-1.148-.056-2.212 0-4.844.882-4.844 5.054v7.42c0 3.78-1.82 6.986-4.844 8.694 3.136 1.666 4.844 4.69 4.844 8.652v8.162c0 3.346 1.624 5.054 4.844 5.054.63 0 1.148-.056 1.148-.056a.744.744 0 0 1 .84.728v6.398a.737.737 0 0 1-.63.728c-.042-.042-.966.098-2.254.098zM35.584 68.814c3.738.77 5.866 3.542 5.866 7.686v6.594c0 9.422 7.182 10.836 11.466 10.836.56 0 1.036-.028 1.4-.056v-4.956l-.504.014c-4.018 0-6.328-2.38-6.328-6.51V74.26c0-4.942-2.842-7.014-5.236-7.882a.737.737 0 0 1-.49-.686v-.14c0-.308.196-.574.476-.686 3.234-1.218 5.25-4.256 5.25-7.952v-7.42c0-5.88 4.424-6.51 6.328-6.51l.504.014v-4.914c-.364-.014-.84-.028-1.4-.028-4.284 0-11.466 1.4-11.466 10.766v5.852c0 4.2-2.128 7.014-5.866 7.812v6.328z"/><path fill="#847d7c" d="M66.272 88.204c1.862 0 5.586-.546 5.586-5.782V74.26c0-3.808 1.932-7.42 5.656-8.568v-.14c-2.898-1.022-5.656-4.214-5.656-8.638v-7.42c0-5.166-3.724-5.782-5.586-5.782-.756 0-1.246.07-1.246.07v-6.398s.826-.07 2.142-.07c3.864 0 12.138 1.162 12.138 11.494v5.852c0 3.668 1.932 6.734 5.866 7.21v7.546c-3.724.336-5.866 3.402-5.866 7.07v6.594c0 10.402-8.274 11.564-12.138 11.564-1.316 0-2.142-.14-2.142-.14v-6.398c0 .028.49.098 1.246.098z"/><path fill="#1e1e40" d="M67.168 95.4c-1.358 0-2.226-.14-2.254-.14a.725.725 0 0 1-.616-.728v-6.398c0-.21.098-.42.252-.546a.753.753 0 0 1 .588-.168s.448.056 1.134.056c3.22 0 4.844-1.694 4.844-5.054V74.26c0-3.878 1.82-7.126 4.746-8.68-2.478-1.47-4.746-4.522-4.746-8.666v-7.42c0-4.172-2.632-5.054-4.844-5.054-.686 0-1.134.056-1.134.056a.738.738 0 0 1-.588-.168.697.697 0 0 1-.252-.546v-6.398c0-.378.294-.7.686-.728.042 0 .868-.07 2.198-.07 3.878 0 12.88 1.19 12.88 12.222v5.852c0 3.668 1.946 6.09 5.208 6.482.378.042.644.35.644.728v7.546c0 .378-.294.7-.672.728-3.108.28-5.194 2.828-5.194 6.342v6.594c-.014 11.116-9.016 12.32-12.88 12.32zm-1.4-1.526c.35.028.826.056 1.4.056 4.256 0 11.396-1.414 11.396-10.836V76.5c0-4.06 2.324-7.07 5.866-7.714V62.5c-3.626-.728-5.866-3.668-5.866-7.826v-5.852c0-9.366-7.14-10.766-11.396-10.766-.574 0-1.05.014-1.4.028v4.914l.504-.014c1.904 0 6.328.63 6.328 6.51v7.42c0 4.214 2.674 7.07 5.166 7.952.294.098.49.378.49.686v.14c0 .322-.21.602-.518.7-3.122.966-5.138 4.06-5.138 7.868v8.162c0 4.144-2.31 6.51-6.328 6.51l-.504-.014v4.956z"/></svg>