<svg width="120" height="120" viewBox="0 0 120 120" xmlns="http://www.w3.org/2000/svg"><path fill="#4a4797" d="M60 26.156c-21.966 0-39.844 17.878-39.844 39.844S38.034 105.844 60 105.844 99.844 87.966 99.844 66 81.966 26.156 60 26.156z"/><path fill="#1e1e40" d="M60 108c-23.156 0-42-18.844-42-42s18.844-42 42-42 42 18.844 42 42-18.844 42-42 42zm0-80.444c-21.196 0-38.444 17.248-38.444 38.444S38.804 104.444 60 104.444 98.444 87.196 98.444 66 81.196 27.556 60 27.556z"/><path fill="#847d7c" d="M71.205 82.148l-4.972 12.43 20.32-18.422 5.266-12.863"/><path fill="#1e1e40" d="M66.233 95.305a.77.77 0 0 1-.42-.126.73.73 0 0 1-.264-.868l4.97-12.43a.725.725 0 0 1 .95-.405c.377.154.56.573.405.95l-3.8 9.483L85.94 75.74l5.196-12.71a.73.73 0 1 1 1.355.546L87.228 76.44a.88.88 0 0 1-.182.264l-20.32 18.422a.71.71 0 0 1-.49.182z"/><path fill="#847d7c" d="M16.974 39.9l-4.246 13.17 53.505 41.508 4.972-12.43"/><path fill="#1e1e40" d="M66.233 95.305a.75.75 0 0 1-.447-.154L12.28 53.645a.755.755 0 0 1-.25-.796l4.246-13.156c.126-.39.53-.6.922-.474s.6.53.475.922l-4.078 12.668L65.927 93.42l4.61-11.522a.725.725 0 0 1 .95-.405.726.726 0 0 1 .404.95l-4.97 12.43a.725.725 0 0 1-.49.433h-.195z"/><path fill="#b2a7a5" d="M71.205 82.148L91.82 63.293 38.313 22.357 16.973 39.9z"/><path fill="#1e1e40" d="M71.205 82.888a.75.75 0 0 1-.447-.154L16.526 40.486a.713.713 0 0 1-.28-.573c0-.223.1-.433.266-.573l21.34-17.542a.736.736 0 0 1 .91-.014L92.265 62.72a.7.7 0 0 1 .28.545.764.764 0 0 1-.238.573L71.694 82.693a.723.723 0 0 1-.49.196zm-53.06-43.003l53.032 41.313 19.51-17.85-52.36-40.055-20.18 16.592z"/><path fill="#847d7c" d="M51.122 35.905l-1.55 2.947c-1.047 1.83 0 4.385 2.332 5.726 2.332 1.34 4.888 1.243 5.936-.587l1.997-3.783"/><path fill="#1e1e40" d="M54.99 46.073c-1.047 0-2.22-.32-3.366-.978-1.243-.712-2.193-1.774-2.682-2.975-.517-1.257-.46-2.514.14-3.56l1.536-2.92a.59.59 0 0 1 .796-.237.59.59 0 0 1 .237.796l-1.55 2.945c-.417.74-.445 1.648-.07 2.556.393.965 1.175 1.817 2.18 2.403 1.845 1.06 4.19 1.27 5.14-.363l1.984-3.77a.61.61 0 0 1 .796-.25.61.61 0 0 1 .25.795L58.383 44.3c-.712 1.16-1.94 1.774-3.394 1.774z"/><ellipse cx="249.359" cy="370.535" fill="#b2a7a5" transform="rotate(-60 10.148 74.836) scale(.26)" rx="14.741" ry="18.845"/><path fill="#1e1e40" d="M56.57 42.47c-1.076 0-2.166-.308-3.157-.867-1.243-.712-2.193-1.774-2.682-2.975-.515-1.257-.46-2.514.14-3.56.714-1.23 2.11-1.97 3.773-1.97 1.075 0 2.165.307 3.156.866 1.242.712 2.192 1.774 2.68 2.975.518 1.255.46 2.512-.14 3.56-.71 1.242-2.11 1.97-3.77 1.97zm-1.942-8.2c-1.243 0-2.25.504-2.75 1.384-.42.726-.434 1.62-.07 2.528.39.964 1.172 1.816 2.178 2.402a5.15 5.15 0 0 0 2.584.712c1.243 0 2.25-.503 2.75-1.383.42-.726.434-1.62.07-2.528-.39-.964-1.172-1.816-2.178-2.402-.824-.46-1.718-.712-2.584-.712z"/><path fill="#847d7c" d="M67.518 66.38l-1.55 2.947c-1.047 1.83 0 4.385 2.332 5.726 2.332 1.34 4.888 1.243 5.936-.587l1.997-3.785"/><path fill="#1e1e40" d="M71.373 76.534c-1.047 0-2.22-.32-3.366-.978-1.243-.712-2.193-1.774-2.682-2.975-.517-1.255-.46-2.512.14-3.56L67 66.1a.58.58 0 0 1 .797-.236.59.59 0 0 1 .237.796l-1.55 2.947c-.42.74-.447 1.648-.07 2.556.39.964 1.173 1.816 2.18 2.402 1.843 1.06 4.19 1.27 5.14-.363l1.982-3.77a.61.61 0 0 1 .796-.252.61.61 0 0 1 .25.796l-1.996 3.785c-.698 1.16-1.94 1.776-3.394 1.776z"/><ellipse cx="312.709" cy="488.289" fill="#b2a7a5" transform="rotate(-60 26.638 105.408) scale(.26)" rx="14.741" ry="18.845"/><path fill="#1e1e40" d="M72.965 72.93c-1.075 0-2.165-.307-3.156-.866-1.245-.712-2.195-1.774-2.684-2.975-.517-1.26-.46-2.516.14-3.563.712-1.23 2.11-1.97 3.77-1.97 1.076 0 2.166.308 3.157.867 1.243.712 2.193 1.774 2.682 2.975.517 1.256.46 2.513-.14 3.56-.712 1.243-2.123 1.97-3.77 1.97zm-1.955-8.198c-1.243 0-2.25.503-2.75 1.383-.42.726-.434 1.62-.07 2.528.39.964 1.172 1.816 2.178 2.402a5.15 5.15 0 0 0 2.584.712c1.243 0 2.25-.503 2.75-1.383.42-.726.434-1.62.07-2.528-.39-.964-1.172-1.816-2.178-2.402-.824-.46-1.704-.712-2.584-.712z"/><path fill="#847d7c" d="M78.58 56.953L77.03 59.9c-1.047 1.83 0 4.385 2.332 5.726 2.332 1.34 4.888 1.243 5.936-.587l1.997-3.787"/><path fill="#1e1e40" d="M82.476 67.12c-1.09 0-2.277-.35-3.394-.992-1.243-.712-2.193-1.774-2.682-2.975-.517-1.257-.46-2.514.14-3.56l1.536-2.92a.59.59 0 0 1 .796-.237.59.59 0 0 1 .237.796l-1.55 2.947c-.42.74-.45 1.646-.07 2.554.39.964 1.17 1.816 2.177 2.402 1.06.6 2.165.894 3.115.824.642-.055 1.508-.292 2.025-1.186l1.983-3.77a.61.61 0 0 1 .797-.252c.293.14.39.503.25.796l-1.996 3.785c-.6 1.06-1.646 1.69-2.945 1.788h-.42z"/><ellipse cx="355.521" cy="451.901" fill="#b2a7a5" transform="rotate(-60 37.75 95.943) scale(.26)" rx="14.741" ry="18.845"/><path fill="#1e1e40" d="M84.027 63.517c-1.075 0-2.165-.307-3.156-.866-1.24-.71-2.19-1.772-2.68-2.973-.517-1.257-.46-2.514.14-3.56.71-1.23 2.11-1.97 3.77-1.97 1.076 0 2.166.307 3.157.866 1.243.712 2.193 1.774 2.682 2.975.516 1.257.46 2.514-.14 3.56-.713 1.23-2.11 1.97-3.77 1.97zm-1.94-8.198c-1.244 0-2.25.5-2.752 1.38-.42.727-.433 1.62-.07 2.53.39.963 1.173 1.815 2.18 2.4a5.15 5.15 0 0 0 2.583.713c1.243 0 2.25-.503 2.75-1.383.42-.725.434-1.62.07-2.527-.39-.964-1.172-1.816-2.178-2.402-.824-.46-1.718-.71-2.584-.71z"/><path fill="#847d7c" d="M64.725 46.436l-1.55 2.947c-1.047 1.83 0 4.385 2.332 5.726 2.332 1.34 4.888 1.24 5.936-.59l1.983-3.784"/><path fill="#1e1e40" d="M68.58 56.59c-1.047 0-2.22-.32-3.366-.978-1.243-.712-2.193-1.774-2.682-2.975-.517-1.257-.46-2.514.14-3.56l1.536-2.92a.59.59 0 0 1 .796-.237.59.59 0 0 1 .237.796l-1.55 2.947c-.417.74-.445 1.648-.07 2.556.393.962 1.175 1.814 2.18 2.4 1.845 1.06 4.19 1.27 5.14-.363l1.984-3.77a.61.61 0 0 1 .796-.252.61.61 0 0 1 .25.796l-1.997 3.786c-.698 1.173-1.94 1.774-3.394 1.774z"/><ellipse cx="301.919" cy="411.179" fill="#b2a7a5" transform="rotate(-60 23.813 85.38) scale(.26)" rx="14.741" ry="18.845"/><path fill="#1e1e40" d="M70.172 53c-1.075 0-2.165-.307-3.156-.866-1.243-.712-2.193-1.774-2.682-2.975-.517-1.26-.46-2.516.14-3.563.712-1.23 2.11-1.97 3.77-1.97 1.076 0 2.166.308 3.157.867 1.245.712 2.195 1.774 2.684 2.975.517 1.256.46 2.513-.14 3.56-.712 1.23-2.123 1.97-3.77 1.97zm-1.94-8.198c-1.244 0-2.25.503-2.752 1.383-.42.726-.433 1.62-.07 2.528.39.964 1.173 1.816 2.18 2.402a5.15 5.15 0 0 0 2.583.712c1.243 0 2.25-.503 2.75-1.383.42-.726.434-1.62.07-2.528-.39-.964-1.172-1.816-2.178-2.402-.838-.475-1.718-.712-2.584-.712z"/><path fill="#847d7c" d="M53.677 55.78l-1.55 2.946c-1.047 1.83 0 4.385 2.332 5.726 2.33 1.34 4.886 1.243 5.934-.587l1.997-3.785"/><path fill="#1e1e40" d="M57.56 65.947c-1.09 0-2.277-.35-3.394-.992-1.243-.712-2.193-1.774-2.682-2.975-.517-1.257-.46-2.514.14-3.56l1.536-2.92a.59.59 0 0 1 .796-.237.59.59 0 0 1 .237.796l-1.55 2.945c-.42.74-.447 1.648-.07 2.556.39.965 1.173 1.817 2.18 2.403 1.06.6 2.164.894 3.114.824.642-.056 1.508-.293 2.025-1.187l1.983-3.77a.61.61 0 0 1 .796-.25.61.61 0 0 1 .253.795l-1.997 3.785c-.6 1.06-1.648 1.69-2.947 1.788h-.42z"/><ellipse cx="259.26" cy="447.324" fill="#b2a7a5" transform="rotate(-60 12.74 94.78) scale(.26)" rx="14.741" ry="18.845"/><path fill="#1e1e40" d="M59.124 62.344c-1.075 0-2.165-.307-3.156-.866-1.243-.712-2.193-1.774-2.682-2.975-.517-1.257-.46-2.514.14-3.56.712-1.23 2.11-1.97 3.77-1.97 1.076 0 2.166.307 3.157.866 1.243.71 2.193 1.772 2.682 2.973.517 1.257.46 2.514-.14 3.56-.712 1.23-2.11 1.97-3.77 1.97zm-1.94-8.198c-1.244 0-2.25.503-2.752 1.383-.42.724-.433 1.62-.07 2.526.39.964 1.173 1.816 2.18 2.402a5.15 5.15 0 0 0 2.583.71c1.243 0 2.25-.502 2.75-1.382.42-.726.434-1.62.07-2.528-.39-.964-1.172-1.816-2.178-2.402-.824-.46-1.718-.712-2.584-.712z"/><path fill="#847d7c" d="M26.862 34.886l-1.55 2.947c-1.047 1.83 0 4.385 2.332 5.726 2.332 1.34 4.888 1.24 5.936-.59l1.997-3.784"/><path fill="#1e1e40" d="M30.745 45.04c-1.09 0-2.277-.35-3.394-.993-2.61-1.494-3.755-4.427-2.554-6.522l1.536-2.92a.59.59 0 0 1 .797-.236.59.59 0 0 1 .236.794l-1.55 2.947c-.894 1.565.056 3.77 2.11 4.945 1.06.6 2.164.894 3.114.824.642-.057 1.508-.294 2.025-1.188l1.983-3.77a.61.61 0 0 1 .796-.252.61.61 0 0 1 .25.797l-1.996 3.785c-.6 1.06-1.648 1.69-2.947 1.788h-.405z"/><ellipse cx="155.519" cy="366.532" fill="#b2a7a5" transform="rotate(-60 -14.232 73.822) scale(.26)" rx="14.741" ry="18.845"/><path fill="#1e1e40" d="M32.31 41.436c-1.076 0-2.166-.307-3.157-.88-1.243-.712-2.193-1.774-2.682-2.975-.515-1.255-.46-2.512.14-3.56.714-1.23 2.11-1.97 3.773-1.97 1.075 0 2.165.31 3.156.868 2.61 1.494 3.756 4.427 2.555 6.522-.726 1.27-2.137 1.996-3.785 1.996zm-1.956-8.198c-1.243 0-2.25.503-2.75 1.383-.42.728-.434 1.62-.07 2.53.39.964 1.172 1.816 2.178 2.4a5.15 5.15 0 0 0 2.584.714c1.243 0 2.25-.503 2.75-1.383.88-1.535-.07-3.756-2.122-4.93-.81-.46-1.704-.71-2.57-.71z"/><path fill="#847d7c" d="M40.046 45.15l-1.55 2.948c-1.047 1.83 0 4.385 2.332 5.726 2.332 1.34 4.888 1.243 5.936-.587l1.997-3.785"/><path fill="#1e1e40" d="M43.915 55.32c-1.047 0-2.22-.322-3.366-.98-1.245-.71-2.195-1.773-2.684-2.974-.517-1.257-.46-2.514.14-3.56l1.536-2.92a.59.59 0 0 1 .796-.237.59.59 0 0 1 .236.794l-1.564 2.92c-.42.74-.447 1.647-.07 2.555.39.963 1.173 1.815 2.18 2.4 1.843 1.06 4.19 1.27 5.14-.362l1.982-3.772a.61.61 0 0 1 .796-.25.61.61 0 0 1 .25.795l-1.996 3.786c-.684 1.187-1.927 1.802-3.38 1.802z"/><ellipse cx="206.542" cy="406.274" fill="#b2a7a5" transform="rotate(-60 -.966 84.132) scale(.26)" rx="14.741" ry="18.845"/><path fill="#1e1e40" d="M45.507 51.715c-1.075 0-2.165-.307-3.156-.866-1.24-.714-2.19-1.776-2.68-2.977-.517-1.257-.46-2.514.14-3.56.71-1.23 2.11-1.97 3.77-1.97 1.076 0 2.166.307 3.157.866 1.243.71 2.193 1.773 2.682 2.974.516 1.257.46 2.514-.14 3.56-.713 1.244-2.124 1.97-3.77 1.97zm-1.955-8.198c-1.243 0-2.25.503-2.75 1.383-.42.726-.434 1.62-.07 2.528.39.964 1.172 1.816 2.178 2.402a5.15 5.15 0 0 0 2.584.712c1.243 0 2.25-.503 2.75-1.383.42-.728.434-1.62.07-2.53-.39-.964-1.172-1.816-2.178-2.4-.824-.463-1.718-.714-2.584-.714z"/><path fill="#847d7c" d="M37.756 25.584l-1.55 2.947c-1.047 1.83 0 4.387 2.332 5.728 2.332 1.34 4.888 1.243 5.936-.587l1.997-3.784"/><path fill="#1e1e40" d="M41.624 35.752c-1.047 0-2.22-.32-3.366-.978-1.243-.712-2.193-1.774-2.682-2.975-.517-1.26-.46-2.516.14-3.563l1.536-2.92a.58.58 0 0 1 .796-.236.59.59 0 0 1 .237.797l-1.55 2.947c-.42.74-.447 1.648-.07 2.556.39.965 1.173 1.817 2.18 2.403 1.843 1.06 4.19 1.27 5.14-.363l1.982-3.77a.61.61 0 0 1 .796-.252.61.61 0 0 1 .25.796l-1.996 3.785c-.712 1.157-1.955 1.772-3.394 1.772z"/><ellipse cx="197.633" cy="330.611" fill="#b2a7a5" transform="rotate(-60 -3.302 64.48) scale(.26)" rx="14.741" ry="18.845"/><path fill="#1e1e40" d="M43.203 32.148c-1.075 0-2.165-.307-3.156-.866-2.612-1.494-3.757-4.427-2.556-6.522.714-1.23 2.11-1.97 3.773-1.97 1.075 0 2.165.308 3.156.88 1.242.713 2.192 1.775 2.68 2.976.518 1.257.46 2.514-.14 3.56-.697 1.216-2.11 1.942-3.756 1.942zm-1.94-8.198c-1.244 0-2.25.503-2.752 1.383-.88 1.536.07 3.757 2.125 4.93a5.15 5.15 0 0 0 2.584.712c1.242 0 2.25-.503 2.75-1.383.42-.726.433-1.62.07-2.528-.39-.964-1.173-1.816-2.18-2.402-.837-.46-1.73-.712-2.597-.712z"/></svg>