<svg width="120" height="120" viewBox="0 0 120 120" xmlns="http://www.w3.org/2000/svg"><circle fill="#4A4999" cx="32.4" cy="33.6" r="29.8" transform="matrix(1.34855 0 0 1.34855 15.588 20.465)"/><path fill="#17193F" d="M59.28 107.58c-23.06 0-41.804-18.744-41.804-41.804S36.22 23.97 59.28 23.97s41.806 18.746 41.806 41.806S82.34 107.58 59.28 107.58zm0-80.372c-21.306 0-38.568 17.26-38.568 38.568s17.262 38.57 38.57 38.57S97.85 86.948 97.85 65.775 80.588 27.208 59.28 27.208z"/><path fill="#FFF" d="M39.323 75.62v1.08l4.315 10.788c.54 1.348 1.888 2.023 3.236 1.618l35.602-9.44c.944-.27 2.427-.81 2.023-1.753l-3.642-5.933-41.535 3.64z"/><path fill="#232B41" d="M46.2 89.78c-1.348 0-2.697-.81-3.236-2.157l-4.316-10.79v-1.348c0-.404.27-.673.675-.673l41.535-3.642c.27 0 .54.135.674.27l3.64 5.934c.27.404.27.81.136 1.213-.405.81-1.483 1.35-2.427 1.484l-35.6 9.44c-.54.27-.81.27-1.08.27zm-6.203-13.215l4.315 10.653c.405.944 1.484 1.484 2.428 1.214l35.6-9.44c1.08-.27 1.485-.674 1.62-.81l-3.372-5.528-40.456 3.506v.405z"/><path fill="#FFF" d="M47.144 98.68l34.523-9.17c.81-.27 1.483-.943 1.618-1.752l1.214-8.63L44.716 89.78l.944 7.822c0 .674.675 1.214 1.484 1.08z"/><path fill="#232B41" d="M46.874 99.355c-.404 0-.81-.135-1.078-.404-.54-.27-.81-.81-.81-1.348l-1.078-7.822c0-.27.134-.674.54-.674l39.916-10.653c.27 0 .405 0 .674.134.135.135.27.405.27.54l-1.214 8.63c-.135 1.08-.944 2.023-2.157 2.428l-34.523 9.17h-.54zm-1.483-9.17l.81 7.282c0 .135.135.405.27.405.135.135.27.135.54.135l34.522-9.17c.54-.135 1.08-.675 1.08-1.214l1.078-7.552-38.3 10.115z"/><path fill="#FFF" d="M60.225 85.465l.27 9.575"/><path fill="#232B41" d="M60.495 95.714c-.405 0-.675-.27-.675-.674l-.404-9.575c0-.405.27-.674.674-.674.405 0 .674.27.674.675l.405 9.575c0 .404-.27.674-.675.674z"/><path fill="#FFF" d="M36.49 72.924l8.9 25.217c0 .136.27.136.27 0l-.943-8.36-6.608-17.935-1.62 1.08z"/><path fill="#232B41" d="M45.526 98.816c-.27 0-.674-.27-.674-.54l-8.9-25.218c-.136-.27 0-.54.27-.81l1.482-1.078c.135-.134.405-.134.54-.134s.404.27.404.404l6.608 18.07v.136l.944 8.36c0 .405-.27.81-.54.81h-.134zM37.3 73.193l7.012 19.96-.404-3.238-6.204-16.99-.404.268z"/><path fill="#A74D3A" d="M42.964 71.845l9.844 9.035c.944.81 2.427.944 3.506.27l30.073-18.88c.135-.135.27-.27.404-.54 0-.27 0-.54-.268-.808l-8.63-7.013-34.928 17.935z"/><path fill="#232B41" d="M54.696 82.094c-.81 0-1.753-.27-2.293-.944l-9.844-8.9c-.136-.136-.27-.27-.136-.54 0-.135.135-.405.27-.405l34.658-17.8c.27-.135.404-.135.674 0l8.63 7.012c.405.27.54.81.54 1.348 0 .405-.27.675-.674.944L56.45 81.69c-.405.27-1.08.404-1.754.404zM44.042 71.98l9.17 8.36c.81.675 1.89.81 2.698.27l30.072-18.88.135-.134v-.135l-8.36-6.742L44.04 71.98z"/><path fill="#FF4E23" d="M86.252 71.17l.405-9.44L56.45 81.016c-1.215.81-1.89 2.158-1.89 3.64l.406 6.34c0 .673.81 1.078 1.348.673l28.724-18.34c.81-.54 1.214-1.348 1.214-2.158z"/><path fill="#232B41" d="M55.91 92.343c-.27 0-.405 0-.675-.135-.54-.27-.81-.674-.81-1.214l-.403-6.338c-.135-1.753.674-3.37 2.157-4.18L86.386 61.19c.135-.134.404-.134.674 0 .136.136.27.27.27.54l-.404 9.44c0 1.08-.54 2.023-1.483 2.563L56.72 92.208c-.27.135-.54.135-.81.135zM85.982 62.81L56.72 81.553c-1.08.675-1.62 1.888-1.62 3.102l.405 6.338c0 .135.135.135.135.27h.27l28.724-18.34c.54-.405.944-.944.944-1.62l.404-8.495z"/><path fill="#FF4E23" d="M32.85 70.9l21.172 20.5c.404.403 1.08.134.944-.406l-.54-7.282c0-.944-.404-1.753-1.08-2.293l-13.89-12.812L32.85 70.9z"/><path fill="#232B41" d="M54.426 92.073c-.27 0-.54-.135-.81-.405l-21.17-20.363c-.136-.135-.27-.404-.136-.54 0-.27.135-.404.405-.404l6.742-2.29c.27-.136.405 0 .675.134l13.89 12.81c.81.675 1.213 1.62 1.348 2.698l.54 7.282c0 .54-.27.944-.675 1.214-.404-.135-.674-.135-.81-.135zM33.928 71.036L54.426 90.86l-.54-7.283c0-.674-.404-1.348-.943-1.888l-13.62-12.542-5.395 1.888z"/><path fill="#232B41" d="M39.323 78.048c-.27 0-.54-.27-.54-.54l-.81-9.98c0-.268.27-.673.54-.673s.675.27.675.54l.81 9.98c0 .403-.27.673-.675.673z"/><path fill="#877F7E" d="M29.613 58.9l1.214 10.652c.135.54.54.944 1.08 1.08l41.13 7.146c.673.135 1.348-.404 1.348-1.078v-8.227c0-1.078-.81-2.022-1.753-2.157L29.612 58.9z"/><path fill="#232B41" d="M73.306 78.453h-.27L31.77 71.305c-.808-.135-1.483-.81-1.618-1.618l-1.078-10.653c0-.27 0-.405.27-.54.134-.135.404-.27.54-.135l42.883 7.416c1.348.27 2.427 1.35 2.427 2.832v8.226c0 .54-.27 1.08-.674 1.35-.405.134-.81.27-1.214.27zM30.422 59.708l1.08 9.844c0 .27.27.405.404.405l41.265 7.147c.136 0 .27 0 .406-.135 0 0 .134-.136.134-.27v-8.227c0-.674-.54-1.348-1.213-1.483l-42.075-7.282z"/><path fill="#877F7E" d="M82.61 52.29l-8.36 24.814.135-10.384 8.09-26.162.136 11.733z"/><path fill="#232B41" d="M74.25 77.778c-.405 0-.674-.404-.674-.674l.134-10.384v-.135l8.092-26.16c.135-.27.404-.54.81-.406.27 0 .403.134.538.808v.135c.135.81.135 2.427.135 5.53v6.068l-8.36 24.68c-.136.27-.405.538-.675.538zm.81-10.923v6.07l7.01-20.634c0-1.752 0-4.72-.133-7.28L75.06 66.854z"/><path fill="#B3A7A4" d="M29.883 58.224l13.62-22.25c.27-.54.944-.81 1.483-.675l36.41 4.45c.81.134 1.35.943 1.08 1.752l-7.282 22.52c-.54 1.485-2.023 2.563-3.64 2.294l-40.862-6.07c-.81-.134-1.35-1.212-.81-2.022z"/><path fill="#232B41" d="M72.092 66.99h-.54l-40.86-6.068c-.674-.135-1.214-.54-1.484-1.08s-.27-1.348.135-1.887l13.62-22.25c.405-.676 1.35-1.08 2.158-1.08l36.412 4.45c.54.135 1.08.405 1.483.944s.405 1.078.27 1.752l-7.282 22.52c-.674 1.62-2.158 2.698-3.91 2.698zm-27.24-31.017c-.27 0-.54.135-.675.405l-13.755 22.25c-.135.136-.135.406 0 .54.135.135.27.27.54.405l40.726 6.068c1.348.136 2.562-.538 2.966-1.752l7.283-22.52c.134-.27 0-.405-.135-.54 0-.135-.27-.27-.54-.27l-36.41-4.585z"/><path fill="#232B41" d="M44.852 73.463c-.27 0-.54-.27-.54-.54L42.83 62.136v-.404L56.044 36.38c.134-.27.54-.405.81-.27.268.135.403.54.268.81L43.908 62.134 45.39 72.79c0 .403-.134.673-.538.673z"/><g><path fill="#232B41" d="M59.955 76.16c-.27 0-.54-.27-.54-.54l-1.078-11.057v-.27L69.53 38.13c.135-.27.54-.403.81-.27.27.136.404.54.27.81L59.415 64.564l1.08 10.923c.134.27-.136.674-.54.674.134 0 0 0 0 0z"/></g><g><path fill="#FFF" d="M73.576 81.96v9.843"/><path fill="#232B41" d="M73.576 92.477c-.405 0-.675-.27-.675-.674V81.96c0-.406.27-.675.676-.675s.674.27.674.674v9.843c0 .405-.405.674-.674.674z"/></g><g><path fill="#232B41" d="M46.874 85.06c-.27 0-.54-.27-.54-.54l-.808-9.978c0-.27.27-.674.54-.674s.674.27.674.54l.81 9.978c0 .405-.27.674-.676.674z"/></g><g><path fill="#232B41" d="M65.62 86.14c-.27 0-.54-.27-.54-.54l-.81-9.305c0-.27.27-.674.54-.674s.674.27.674.54l.81 9.305c0 .27-.27.54-.675.674.134 0 .134 0 0 0z"/></g><g><path fill="#232B41" d="M77.486 78.857c-.27 0-.54-.27-.54-.54l-.404-9.71c0-.268.27-.673.54-.673s.54.27.54.54l.404 9.71c0 .403-.27.673-.54.673z"/></g><g><path fill="#232B41" d="M78.16 66.45h-.27c-.27-.134-.538-.404-.404-.81 0-.538-.404-4.314-.944-7.955L33.928 51.75c-.404 0-.674-.403-.54-.808 0-.404.406-.674.81-.54l43.154 6.07c.27 0 .54.27.54.54 1.213 8.225 1.078 8.764 1.078 8.9-.27.27-.54.54-.81.54z"/></g><g><path fill="#232B41" d="M80.588 59.034h-.27c-.27-.135-.54-.405-.404-.81 0-.54-.135-6.203-.27-10.114l-39.512-4.99c-.405 0-.675-.404-.54-.808 0-.405.405-.675.81-.54l39.916 5.26c.27 0 .54.27.54.674.404 10.653.404 10.788.27 11.058 0 .135-.27.27-.54.27z"/></g><g><path fill="#232B41" d="M62.922 55.797s-.135 0 0 0l-14.97-2.023c-.268 0-.403-.135-.538-.404-.135-.135-.135-.405 0-.675l4.585-8.9c.134-.27.403-.405.673-.405l14.16 1.754c.27 0 .404.134.54.27.134.134.134.404 0 .54l-3.91 9.17c0 .538-.27.673-.54.673zm-13.89-3.236l13.35 1.888 3.372-7.82-12.81-1.62-3.912 7.553z"/></g></svg>