<svg width="120" height="120" viewBox="0 0 120 120" xmlns="http://www.w3.org/2000/svg"><path fill="#4a4797" d="M59.048 26.156c-21.966 0-39.844 17.878-39.844 39.844s17.878 39.844 39.844 39.844S98.892 87.966 98.892 66 81.028 26.156 59.048 26.156z"/><path fill="#e94e1b" d="M50.844 70.018l-10.766 1.33-18.704 4.396A37.592 37.592 0 0 0 32.112 93.44l15.554-2.744c1.008-.182 1.372 1.274.406 1.596l-12.39 4.06a41.88 41.88 0 0 0 2.604 1.722c7.56-1.54 9.8-3.878 17.668-4.48a26.72 26.72 0 0 0 8.652-2.17c2.898-1.274 5.236-3.542 6.664-6.37l3.024-6.006-8.302-3.99-15.148-5.04z"/><path fill="#1e1e40" d="M60 108c-23.156 0-42-18.844-42-42s18.844-42 42-42 42 18.844 42 42-18.844 42-42 42zm0-80.444c-21.196 0-38.444 17.248-38.444 38.444S38.804 104.444 60 104.444 98.444 87.196 98.444 66 81.196 27.556 60 27.556z"/><path fill="#878787" d="M50.872 51.888c.882.952 26.432 13.51 26.432 13.51.434.21 3.388 2.086 4.13.756a102.418 102.418 0 0 0 2.716-5.222c.336-.7.07-1.68-.686-2.002a343.92 343.92 0 0 1-28.406-13.692c-.434-.238-1.092-.21-1.484.098-1.596 1.26-4.676 4.438-2.702 6.552z"/><path fill="#d03f18" d="M48.562 54.87c-2.856 5.824-6.258 18.088-9.534 19.32 1.792.63 3.612 1.414 5.418 2.24.756-.098 1.568-1.106 1.568-1.106s-.56 1.078-1.064 1.344c9.086 4.242 17.752 9.744 21.98 6.048.602 1.176-.07 2.492-1.806 3.556 3.528.084 8.036-4.2 14.644-16.086A46482.81 46482.81 0 0 1 48.562 54.87z"/><path fill="#d03f18" d="M48.296 54.1l32.27 15.834-.294.532c-8.078 14.518-12.376 16.296-14.896 16.38h-.252l-1.946-.042 1.652-1.022c.56-.336 1.666-1.134 1.736-2.086-.84.504-1.848.784-2.982.812-3.78.112-8.862-2.408-14.238-5.068a179.23 179.23 0 0 0-4.648-2.254l-.35-.168-.154-.07c-2.03-.938-3.78-1.666-5.362-2.226l-1.484-.532 1.484-.56c1.988-.742 4.396-6.986 6.314-11.998 1.022-2.646 1.974-5.138 2.898-7.028l.252-.504zM78.97 70.438L48.828 55.654c-.826 1.778-1.694 4.032-2.618 6.412-1.988 5.166-3.878 10.08-5.936 11.97a64.85 64.85 0 0 1 4.214 1.792c.35-.126.812-.56 1.064-.868l.966.63a5.46 5.46 0 0 1-.574.91c1.33.63 2.646 1.274 3.92 1.918 5.25 2.59 10.192 5.054 13.692 4.942 1.232-.042 2.212-.392 2.996-1.064l.56-.49.336.658c.462.91.35 1.876-.294 2.786 3.15-1.456 7.042-6.342 11.816-14.812z"/><path fill="#e94e1b" d="M40.26 73.028c-.518.868.182 1.918 1.064 2.128 0 0 13.23 6.58 17.626 7.602 1.848.434 3.836 1.106 5.74.966.714-.056 1.512-.966 2.212-1.134l-.028.056c.63 1.078-.868 3.626 1.064 3.08 1.638-.476 6.244-6.384 6.342-6.664.518-.378 1.232-1.75 1.358-1.82 1.078-.63-3.206-2.436-4.508-2.548-5.138-.434-6.608 2.87-11.228.602-9.142-4.494-3.122-10.654-7.77-12.082-3.626-1.554-5.334 3.598-7.168 4.032-.518-.252-1.134-.196-1.582.434-.28.392-2.338 4.06-3.122 5.348z"/><path fill="#1e1e40" d="M81.275 52.563c-.22.452-.75.647-1.18.436-.43-.213-.6-.75-.38-1.2.22-.454.75-.65 1.18-.438.43.21.6.748.38 1.2zM62.888 43.55c-.22.452-.75.647-1.18.436-.43-.21-.6-.748-.38-1.2.22-.452.75-.647 1.18-.436.43.21.6.748.38 1.2zm22.13-21.485c-.22.452-.75.647-1.18.436-.43-.21-.6-.746-.38-1.2.22-.45.75-.645 1.18-.434.43.21.6.748.38 1.2z"/><path fill="#13110c" d="M87.426 56.032l.14-.28.042-.084-.182.364zM58.474 41.374l-.042.084-.14.28c.056-.14.112-.252.182-.364z"/><path fill="#312783" d="M56.08 42.998c4.606 2.492 9.226 4.984 13.93 7.308a177.12 177.12 0 0 0 7.392 3.444c2.338 1.022 6.16 2.212 8.316 3.612 1.302.854-.07-6.356-.91-6.832-1.778-1.036-2.982-2.394-4.732-3.5-.182-.168-1.414-2.268-.84-4.368 1.218-2.898 10.136-19.614 9.87-20.552-.098-.35-.112-3.178-1.946-4.116-1.064-.546-5.908-3.388-8.946 2.87-1.498 3.094-2.884 6.244-4.326 9.38-.77 1.68-1.512 3.332-2.002 5.068-.238.35-1.414 6.888-8.106 4.214a24.44 24.44 0 0 0-5.6-.742c-.826-.014-1.302.658-1.344 1.372-1.554-.252-2.114 2.114-.756 2.842z"/><path fill="#1e1e40" d="M50.13 52.924l.014-.042 30.03 14.742-.014.042 1.246.616.168-.336.182-.378.014-.028c.21-.462 4.746-9.8 4.872-10.234 1.428-4.62-1.092-7.812-4.2-9.338-.966-.476-2.24-1.54-2.73-2.982-.294-.91-.196-1.778.294-2.604 7.854-13.188 10.99-18.886 9.926-21.98-1.218-3.57-5.138-5.222-8.372-4.116-3.094 1.05-5.684 7.014-11.312 21.294-.35.896-.98 1.498-1.89 1.82-1.442.504-3.066.14-4.032-.336-3.038-1.498-7-1.568-9.786 2.156-.322.434-4.998 9.814-5.292 10.36l-.014.028-.196.378-.168.336 1.26.602zM63.752 40.24c1.596.784 3.598.938 5.124.406 1.26-.434 2.17-1.33 2.66-2.548 5.25-13.3 7.882-20.104 10.556-20.566 4.326-.756 6.37 2.688 6.538 3.206.84 2.562-2.506 8.638-9.814 20.93-.672 1.134-.812 2.394-.392 3.654.504 1.526 1.862 3.024 3.458 3.808 1.61.784 4.872 3.01 3.5 7.602-.084.266-4.536 9.422-4.648 9.702l-29.96-14.7c.224-.364 4.802-9.59 5.04-9.884 2.758-3.57 6.384-2.38 7.938-1.61z"/><path fill="#fff" d="M49.752 52.168l31.094 15.26c.574.28.798.966.518 1.54l-.224.448c-.28.574-.966.798-1.54.518l-31.08-15.26a1.144 1.144 0 0 1-.518-1.54l.224-.448a1.14 1.14 0 0 1 1.526-.518z"/><path fill="#1e1e40" d="M49.22 51.566c.28-.014.546.056.798.168L81 66.938c.84.406 1.19 1.428.784 2.268l-.168.336c-.28.574-.84.938-1.47.952a1.742 1.742 0 0 1-.798-.168l-30.982-15.19a1.697 1.697 0 0 1-.77-2.282l.168-.336c.266-.56.826-.924 1.456-.952zm30.898 17.962a.705.705 0 0 0 .616-.392l.168-.336a.72.72 0 0 0-.322-.952L49.584 52.644a.733.733 0 0 0-.952.322l-.168.336a.72.72 0 0 0 .322.952l30.982 15.204c.112.042.224.07.35.07z"/><path fill="#fff" d="M54.68 42.13l31.094 15.26c.574.28.798.966.518 1.54l-.224.448c-.28.574-.966.798-1.54.518l-31.094-15.26a1.144 1.144 0 0 1-.518-1.54l.224-.448c.28-.56.966-.798 1.54-.518z"/><path fill="#1e1e40" d="M54.148 41.542c.28-.014.546.056.798.168l30.982 15.204c.84.406 1.19 1.428.784 2.268l-.168.336c-.28.574-.84.938-1.47.952a1.742 1.742 0 0 1-.798-.168L53.28 45.112a1.697 1.697 0 0 1-.77-2.282l.168-.336c.266-.574.84-.938 1.47-.952zM85.032 59.49a.705.705 0 0 0 .616-.392l.168-.336a.72.72 0 0 0-.322-.952L54.512 42.606a.73.73 0 0 0-.952.322l-.168.336a.72.72 0 0 0 .322.952L84.71 59.42c.098.056.21.07.322.07zM48.296 54.1l32.27 15.834-.294.532c-8.078 14.518-12.376 16.296-14.896 16.38h-.252l-1.946-.042 1.652-1.022c.56-.336 1.666-1.134 1.736-2.086-.84.504-1.036.896-2.982.812-3.78-.154-8.862-2.408-14.238-5.068a179.23 179.23 0 0 0-4.648-2.254l-.35-.168-.154-.07c-2.03-.938-3.78-1.666-5.362-2.226l-1.484-.532 1.484-.56c1.988-.742 4.396-6.986 6.314-11.998 1.022-2.646 1.974-5.138 2.898-7.028l.252-.504zM78.97 70.438L48.828 55.654c-.826 1.778-1.694 4.032-2.618 6.412-1.988 5.166-3.878 10.08-5.936 11.97a64.85 64.85 0 0 1 4.214 1.792c.35-.126 1.26-.196 1.512-.504l.504.266a5.46 5.46 0 0 1-.574.91c1.33.63 2.646 1.274 3.92 1.918 5.25 2.59 10.192 5.054 13.692 4.942 1.232-.042 2.212-.392 2.996-1.064l.98-1.176-.084 1.344c.462.91.35 1.876-.294 2.786 3.164-1.456 7.056-6.342 11.83-14.812z"/><path fill="#1e1e40" d="M45.356 77.55l-.826-1.764c1.652-.77 6.174-7.504 7.056-8.792 0 0 .742 2.394-6.23 10.556zm19.642 6.902s.028-1.33.042-1.33c1.274 0 4.354-5.236 6.118-9.142l.07.392c0 2.226-3.262 10.08-6.23 10.08z"/></svg>