<svg width="120" height="120" viewBox="0 0 120 120" xmlns="http://www.w3.org/2000/svg"><path fill="#4a4797" d="M58.484 26.216c-22.198 0-40.265 18.067-40.265 40.265s18.065 40.267 40.263 40.267S98.75 88.68 98.75 66.48 80.695 26.217 58.483 26.217z"/><path fill="#1e1e40" d="M32.367 72.848h-.113a.63.63 0 0 1 .015-1.26h.026c.58 0 1.075-.084 1.542-.254a.62.62 0 1 1 .41 1.174 5.11 5.11 0 0 1-1.883.34zm-2.476-.637a.553.553 0 0 1-.295-.083 5.692 5.692 0 0 1-1.57-1.273.63.63 0 0 1 .07-.89.63.63 0 0 1 .892.07c.34.396.764.736 1.23.99.312.17.41.552.242.85-.14.225-.355.34-.567.34zm6.227-.99a.598.598 0 0 1-.424-.17.627.627 0 0 1-.028-.89 4.41 4.41 0 0 0 .863-1.33l.085-.14.028-.156c.157-.467.24-.962.24-1.457-.012-.34.27-.68.61-.693a.55.55 0 0 1 .637.566v.126c0 .637-.1 1.26-.31 1.868l-.1.184-.042.198a5.844 5.844 0 0 1-1.104 1.698.584.584 0 0 1-.452.198zm-8.743-2.332a.632.632 0 0 1-.608-.48 5.93 5.93 0 0 1-.116-2.024.63.63 0 0 1 .694-.552.63.63 0 0 1 .552.694c-.028.184-.028.368-.028.552 0 .34.042.693.113 1.033a.612.612 0 0 1-.465.75l-.14.028zm9.48-3.664a.615.615 0 0 1-.553-.325 4.637 4.637 0 0 0-.99-1.23.63.63 0 0 1-.07-.893.63.63 0 0 1 .89-.07c.51.438.95.975 1.274 1.57a.626.626 0 0 1-.24.848.55.55 0 0 1-.312.1zm-8.702-.44a.654.654 0 0 1-.353-.112.633.633 0 0 1-.157-.876 5.28 5.28 0 0 1 1.43-1.43.633.633 0 0 1 .877.157.633.633 0 0 1-.156.878 4.67 4.67 0 0 0-1.117 1.12.662.662 0 0 1-.523.27zm5.377-2.08l-.14-.013a4.893 4.893 0 0 0-1.57-.084.634.634 0 0 1-.71-.538.634.634 0 0 1 .538-.707 5.726 5.726 0 0 1 2.023.1c.34.085.553.41.468.75a.63.63 0 0 1-.608.495zm16.765-15.776a.62.62 0 0 0 .566.354.607.607 0 0 0 .27-.057c.31-.14.44-.523.298-.835l-1.047-2.165a.62.62 0 0 0-.834-.283.62.62 0 0 0-.283.835l1.033 2.15zm4.725 10.33a.62.62 0 0 0 .82.31.64.64 0 0 0 .326-.82c-.325-.737-.65-1.47-.962-2.194a.62.62 0 0 0-1.132.51c.297.722.623 1.457.948 2.193zm5.575 13.524c.297.75.58 1.486.863 2.235.1.24.325.396.58.396l.226-.042a.616.616 0 0 0 .354-.804c-.283-.736-.566-1.486-.863-2.235a.616.616 0 0 0-.806-.353.646.646 0 0 0-.356.806zm-3.353-8.305c.1.24.325.382.58.382l.24-.044a.626.626 0 0 0 .34-.806c-.31-.75-.622-1.485-.933-2.206a.618.618 0 0 0-.823-.325.618.618 0 0 0-.325.82c.31.706.623 1.43.92 2.18zm-11.56-25.325a.75.75 0 0 0 .298-.07.625.625 0 0 0 .24-.85 122.61 122.61 0 0 0-1.173-2.094.622.622 0 0 0-1.075.623 68.09 68.09 0 0 1 1.16 2.08.63.63 0 0 0 .552.313zM34.676 26.91h.014c.34 0 .606-.27.62-.61.043-1.315.31-1.725.425-1.852a.622.622 0 0 0 0-.877.622.622 0 0 0-.877 0c-.496.497-.75 1.374-.78 2.69-.013.354.256.65.595.65zm24.717 40.816c.1.24.325.396.58.396l.226-.042a.626.626 0 0 0 .34-.806l-.89-2.22a.626.626 0 0 0-.807-.34.626.626 0 0 0-.34.805l.893 2.205zm11.474 29.598a.628.628 0 0 0-.764-.44.628.628 0 0 0-.44.765c.213.79.41 1.57.595 2.304a.62.62 0 0 0 .608.467l.156-.013a.615.615 0 0 0 .455-.75l-.608-2.334zm-8.248-21.237c.283.75.552 1.5.82 2.235.086.255.326.41.58.41l.213-.042a.603.603 0 0 0 .37-.792l-.82-2.25a.635.635 0 0 0-.807-.368.64.64 0 0 0-.354.806zM47.776 41.85c.113.21.325.34.552.34.1 0 .198-.03.283-.072a.614.614 0 0 0 .27-.835 97.597 97.597 0 0 0-1.103-2.136.613.613 0 0 0-.835-.255.602.602 0 0 0-.254.835c.354.68.722 1.387 1.09 2.122zm-8.63-14.573a.64.64 0 0 0 .495.24.65.65 0 0 0 .384-.126.627.627 0 0 0 .113-.875 19.877 19.877 0 0 0-1.613-1.868.622.622 0 0 0-.877 0 .622.622 0 0 0 0 .877c.453.467.962 1.06 1.5 1.754zM52.7 52.064a.62.62 0 0 0 .82.31.62.62 0 0 0 .312-.82c-.34-.736-.665-1.457-1.005-2.18a.616.616 0 0 0-.82-.296.614.614 0 0 0-.298.82c.323.708.663 1.444.99 2.166zm19.765 55.94a.622.622 0 0 0-.566.68c.04.566.07 1.075.07 1.528 0 .27-.015.523-.03.764a.617.617 0 0 0 .567.665h.042a.62.62 0 0 0 .622-.564c.014-.27.028-.552.028-.863 0-.495-.027-1.033-.084-1.627-.014-.354-.34-.623-.65-.58zm-1.485 4.36c-.298-.14-.836-.496-1.642-1.373a.61.61 0 0 0-.877-.026.61.61 0 0 0-.026.877c.778.836 1.443 1.373 2.037 1.656a.61.61 0 0 0 .82-.31.623.623 0 0 0-.31-.822zm-1.005-18.21c-.212-.75-.44-1.514-.68-2.306a.627.627 0 0 0-.777-.41.627.627 0 0 0-.41.778c.24.778.467 1.542.68 2.292a.63.63 0 0 0 .593.453l.17-.026a.654.654 0 0 0 .426-.778zm-1.67-5.46c-.24-.75-.48-1.515-.736-2.28a.613.613 0 0 0-.78-.395.613.613 0 0 0-.396.776c.255.764.495 1.528.736 2.278a.62.62 0 0 0 .595.44l.184-.03a.628.628 0 0 0 .394-.79zM42.13 87.97c-.876.184-1.74.368-2.588.523a.682.682 0 0 0-.552.806c.057.34.354.568.68.568l.126-.014c.863-.156 1.74-.34 2.632-.523a.714.714 0 0 0 .538-.82c-.07-.37-.453-.61-.835-.54zm18.11-5.32c-.834.31-1.668.608-2.503.89a.694.694 0 0 0-.424.878c.1.283.368.467.65.467l.227-.042c.835-.297 1.67-.594 2.518-.905a.696.696 0 0 0 .41-.89.686.686 0 0 0-.877-.397zm-11.997 3.834c-.863.226-1.726.453-2.56.665a.697.697 0 0 0-.51.837c.085.31.368.523.665.523l.17-.015c.85-.212 1.712-.44 2.59-.68a.69.69 0 0 0 .48-.848.674.674 0 0 0-.835-.48zm-24.73 3.056a23.694 23.694 0 0 1-2.547-.44.697.697 0 0 0-.835.51.698.698 0 0 0 .51.835c.82.198 1.74.354 2.703.467h.085c.34 0 .65-.255.68-.608a.666.666 0 0 0-.595-.764zm-8.12-6.282a8.2 8.2 0 0 1 .706-2.333.7.7 0 0 0-.34-.92.705.705 0 0 0-.92.34c-.44.962-.724 1.882-.823 2.745a.697.697 0 0 0 .594.778h.086a.71.71 0 0 0 .693-.608zm20.557 5.815c-.892.127-1.77.24-2.618.325a.686.686 0 0 0-.608.764c.042.354.34.623.693.623h.07c.864-.1 1.755-.212 2.66-.34a.684.684 0 0 0 .58-.778c-.04-.384-.395-.64-.777-.596zM17.77 87.86c-.75-.454-1.33-.977-1.727-1.57a.698.698 0 0 0-.962-.185.698.698 0 0 0-.182.962c.51.764 1.245 1.43 2.165 1.98.113.072.24.1.354.1.24 0 .467-.113.594-.34a.693.693 0 0 0-.24-.948zm36.515-3.156c-.85.27-1.698.538-2.532.792a.692.692 0 0 0-.467.863.696.696 0 0 0 .665.493l.2-.028c.85-.255 1.698-.523 2.56-.792a.69.69 0 0 0 .454-.863.7.7 0 0 0-.877-.466zM91.79 67.882a.73.73 0 0 0 .41-.127 70.393 70.393 0 0 0 2.15-1.613.695.695 0 0 0-.862-1.09c-.68.524-1.372 1.062-2.108 1.586a.684.684 0 0 0-.156.962c.14.184.354.283.566.283zm8.178-20.925c.85.325 1.57.736 2.136 1.188.127.1.283.156.44.156.197 0 .41-.083.537-.253a.696.696 0 0 0-.11-.976c-.68-.537-1.53-1.02-2.505-1.4a.684.684 0 0 0-.89.396.69.69 0 0 0 .395.89zm5.136 3.565a.702.702 0 0 0-.806-.566.702.702 0 0 0-.566.806 4.9 4.9 0 0 1 .07.792c0 .48-.07 1.005-.21 1.542a.7.7 0 0 0 .494.85l.184.027a.68.68 0 0 0 .665-.51c.17-.65.27-1.286.27-1.895a7.87 7.87 0 0 0-.1-1.047zM86.542 71.42a.594.594 0 0 0 .368-.114 56.77 56.77 0 0 0 2.25-1.457.7.7 0 0 0 .198-.964.7.7 0 0 0-.962-.198c-.722.48-1.457.96-2.22 1.428a.676.676 0 0 0-.213.948c.127.226.34.354.58.354zm-5.462 3.196a.753.753 0 0 0 .34-.085c.793-.437 1.57-.875 2.335-1.314a.71.71 0 0 0 .255-.948.71.71 0 0 0-.948-.255c-.75.44-1.528.877-2.306 1.316a.682.682 0 0 0-.27.933.664.664 0 0 0 .595.354zm-5.602 2.944c.1 0 .212-.03.31-.072.807-.396 1.614-.806 2.392-1.203a.696.696 0 0 0 .297-.934.696.696 0 0 0-.934-.295c-.778.396-1.57.806-2.363 1.203-.34.17-.48.58-.31.92.098.24.353.382.607.382zm-2.688.593a.694.694 0 0 0-.92-.34c-.792.368-1.6.736-2.42 1.09a.696.696 0 0 0 .283 1.33.67.67 0 0 0 .284-.058c.82-.368 1.64-.736 2.433-1.104a.678.678 0 0 0 .34-.92zM19.452 45.386l.1-.014c.692-.113 1.47-.198 2.305-.226a.628.628 0 0 0 .594-.65.628.628 0 0 0-.65-.595c-.89.044-1.71.13-2.447.243a.618.618 0 0 0-.51.707.61.61 0 0 0 .61.537zm-4.994 2.646l.255.057a.62.62 0 0 0 .566-.37c.24-.55.705-1.02 1.37-1.4a.622.622 0 0 0-.623-1.076c-.905.523-1.528 1.188-1.882 1.98a.61.61 0 0 0 .31.807zm.156 2.05a.616.616 0 0 0-.354.807c.27.69.68 1.44 1.217 2.22.113.17.31.27.51.27.126 0 .24-.03.353-.115a.616.616 0 0 0 .156-.863 9.777 9.777 0 0 1-1.075-1.967.616.616 0 0 0-.804-.354zm66.368 35.442a91.316 91.316 0 0 1-2.32-.552.61.61 0 0 0-.75.453.61.61 0 0 0 .453.75c.792.198 1.57.382 2.334.566l.14.016a.632.632 0 0 0 .607-.48.633.633 0 0 0-.467-.75zm5.532 1.104a83.2 83.2 0 0 1-2.334-.424.606.606 0 0 0-.722.495c-.07.34.156.663.495.72.806.156 1.6.297 2.377.424l.1.014a.61.61 0 0 0 .607-.524.632.632 0 0 0-.523-.707zm-11.022-2.504c-.75-.212-1.514-.424-2.292-.665a.623.623 0 0 0-.778.422c-.1.325.085.68.424.778.778.227 1.556.454 2.306.666l.17.028a.62.62 0 0 0 .594-.453.617.617 0 0 0-.424-.776zm26.868 1.216c-.37.467-.935.877-1.67 1.188a.618.618 0 0 0-.325.82.61.61 0 0 0 .566.383l.243-.04c.948-.396 1.67-.934 2.18-1.57a.63.63 0 0 0-.114-.877.625.625 0 0 0-.878.1zm.537-5.234a.62.62 0 0 0-.85-.212.624.624 0 0 0-.21.85c.438.72.735 1.4.904 2.008a.618.618 0 0 0 .596.467l.156-.03a.628.628 0 0 0 .44-.764c-.184-.722-.538-1.5-1.033-2.32zm-35.483 2.83c.764.254 1.528.51 2.278.75l.184.027c.27 0 .51-.17.594-.44a.615.615 0 0 0-.41-.777c-.75-.24-1.5-.48-2.264-.736a.628.628 0 0 0-.792.396c-.1.325.085.68.41.778z"/><path fill="#1e1e40" d="M97.662 87.264c-.467.057-.976.085-1.514.113a42.556 42.556 0 0 0 3.877-9.097.63.63 0 0 0 .368.14c.14 0 .297-.056.41-.155a.625.625 0 0 0 .057-.877l-.44-.48a41.987 41.987 0 0 0 .723-17.474h.028a.698.698 0 0 0 .54-.255c.623-.75 1.16-1.5 1.613-2.223a.685.685 0 0 0-.212-.948.705.705 0 0 0-.96.21c-.37.58-.793 1.175-1.274 1.77a42.213 42.213 0 0 0-4.372-11.914l.07.014.114.015a.69.69 0 0 0 .1-1.372l-1.147-.156a42.528 42.528 0 0 0-14.29-14.304c-.012-4.655-1.03-7.88-3.365-8.87-2.25-.95-5.235.367-8.857 3.89a42.415 42.415 0 0 0-9.635-1.118c-8.758 0-16.893 2.66-23.627 7.23-.113-.665-.226-1.316-.297-1.91a.63.63 0 0 0-.694-.538.62.62 0 0 0-.538.693c.1.736.226 1.542.382 2.39l.04.128c-7.652 5.546-13.382 13.582-15.97 22.934l-.24-.255a.61.61 0 0 0-.878-.028.61.61 0 0 0-.028.875c.24.27.51.538.778.806a42.25 42.25 0 0 0-.198 18.916 32.81 32.81 0 0 0-1.372 1.655.682.682 0 0 0 .14.963c.128.1.27.14.41.14a.72.72 0 0 0 .553-.268c.212-.27.424-.552.665-.82 2.702 10.37 9.253 19.17 18.01 24.83-.028 5.135 1.104 8.233 3.367 9.195a3.84 3.84 0 0 0 1.542.312c2.25 0 4.823-1.74 7.285-4.145 3.41.89 6.99 1.358 10.682 1.358 2.094 0 4.16-.156 6.17-.453l.692.99a.622.622 0 0 0 .862.142.613.613 0 0 0 .14-.863l-.34-.493c11.984-2.15 22.213-9.352 28.41-19.34a24.16 24.16 0 0 0 2.405-.156.62.62 0 0 0 .538-.692.67.67 0 0 0-.722-.51zM77.487 22.537c1.6.68 2.476 3.14 2.59 7.003a41.463 41.463 0 0 0-9.537-3.89c2.9-2.675 5.348-3.793 6.947-3.114zm-48.16 68.547l.467-.014a.695.695 0 0 0 .665-.722c-.016-.382-.37-.665-.724-.665-.51.028-.99.028-1.47.042a38.788 38.788 0 0 1-7.754-23.316c0-15.24 8.8-28.454 21.562-34.863l.226.368a.635.635 0 0 0 .524.297.548.548 0 0 0 .325-.1.608.608 0 0 0 .196-.848l-.17-.27a38.677 38.677 0 0 1 16.284-3.578c7.514 0 14.545 2.15 20.5 5.843a58.513 58.513 0 0 1-.58 4.91 5.655 5.655 0 0 0-.848-.087 5.76 5.76 0 0 0-5.306 3.523 5.763 5.763 0 0 0 3.056 7.555c.212.086.424.14.637.2-1.74 6.35-4.23 13.54-7.515 21.306-1.457 3.452-3 6.79-4.57 9.988-.028.014-1.627-.538-2.377-.82a.634.634 0 0 0-.807.367.634.634 0 0 0 .37.807l1.36.495a.674.674 0 0 0-.143.707c.1.254.34.41.594.423-3.522 6.904-7.23 13.044-10.836 17.84a66.77 66.77 0 0 1-3 3.708c-8.233-2.022-15.45-6.72-20.67-13.1zM40.46 110c-1.612-.68-2.517-3.268-2.602-7.272a42.142 42.142 0 0 0 9.55 4.188c-2.9 2.674-5.306 3.778-6.947 3.084zm31.82-6.777l-.07-.34a.617.617 0 0 0-.737-.48.617.617 0 0 0-.48.735l.098.48a39.057 39.057 0 0 1-19.722.92A76.125 76.125 0 0 0 54 101.27c3.707-4.924 7.498-11.205 11.092-18.293l.24.707a.624.624 0 0 0 .595.424l.198-.028a.62.62 0 0 0 .382-.792l-.48-1.4.607-.256a.68.68 0 0 0 .368-.905c-.1-.255-.34-.396-.594-.424a195.116 195.116 0 0 0 4.145-9.125c3.042-7.2 5.66-14.657 7.555-21.576l.424.042a5.76 5.76 0 0 0 5.306-3.523c1.23-2.927-.127-6.31-3.056-7.553l-.198-.057c.255-1.57.44-3.057.566-4.458 9.012 6.055 15.35 15.79 16.907 27.01a40.23 40.23 0 0 1-1.783 1.654.693.693 0 0 0-.057.976.7.7 0 0 0 .523.24.67.67 0 0 0 .453-.17c.368-.324.722-.65 1.075-.975a38.743 38.743 0 0 1-5.97 24.575l-.212-.058a51.058 51.058 0 0 1-2.35-.226.62.62 0 0 0-.154 1.23c.68.085 1.316.14 1.967.184a39.11 39.11 0 0 1-19.27 14.728z"/><path fill="#1e1e40" d="M59.18 79.893c.24 0 .48-.156.58-.396a.615.615 0 0 0-.354-.806c-.736-.28-1.47-.58-2.22-.89a.62.62 0 0 0-.807.34.62.62 0 0 0 .34.807l2.233.89c.07.043.14.058.226.058zM33.6 67.543a.643.643 0 0 0 .538-.298.618.618 0 0 0-.212-.85c-.693-.41-1.372-.82-2.037-1.23a.634.634 0 0 0-.865.198.614.614 0 0 0 .198.85c.665.41 1.358.834 2.05 1.244a.692.692 0 0 0 .326.085zm-4.47-4.16c-.68-.453-1.33-.89-1.968-1.33a.616.616 0 0 0-.863.156.616.616 0 0 0 .154.86c.637.454 1.302.906 1.995 1.36.1.07.225.1.34.1a.64.64 0 0 0 .522-.285c.17-.297.1-.68-.184-.863zm9.72 5.8a73.1 73.1 0 0 1-2.08-1.16.626.626 0 0 0-.85.24.626.626 0 0 0 .24.85c.694.382 1.388.778 2.11 1.16.098.057.197.07.296.07.226 0 .44-.112.552-.324a.644.644 0 0 0-.27-.837zm5.022 2.617c-.722-.353-1.43-.72-2.122-1.074a.614.614 0 0 0-.835.27.614.614 0 0 0 .27.834c.706.368 1.414.722 2.135 1.09a.61.61 0 0 0 .835-.27.657.657 0 0 0-.283-.85zm9.804 5.9l.24.057a.61.61 0 0 0 .567-.382.628.628 0 0 0-.325-.82c-.736-.312-1.47-.638-2.193-.95a.622.622 0 0 0-.51 1.132c.736.326 1.47.638 2.22.963zm-4.696-3.452l-2.166-1.02a.638.638 0 0 0-.835.298.636.636 0 0 0 .295.835c.722.34 1.443.68 2.18 1.02a.61.61 0 0 0 .82-.31.62.62 0 0 0-.297-.82zm-26.33-15.59a.626.626 0 0 0-.877.084.626.626 0 0 0 .085.877c.608.493 1.23.99 1.896 1.5a.62.62 0 0 0 .382.125.642.642 0 0 0 .495-.24.63.63 0 0 0-.11-.878c-.65-.495-1.274-.99-1.87-1.47zm68.078 14.388l-.113-.028a.612.612 0 0 1-.467-.75.64.64 0 0 1 .736-.48h.028a4.58 4.58 0 0 0 1.57.056.624.624 0 0 1 .707.538.624.624 0 0 1-.54.707 5.49 5.49 0 0 1-1.924-.044zm-2.32-1.104a.6.6 0 0 1-.283-.14 5.766 5.766 0 0 1-1.302-1.557.642.642 0 0 1 .226-.863.642.642 0 0 1 .86.226c.27.453.61.863 1.02 1.203a.646.646 0 0 1 .085.893.593.593 0 0 1-.608.24zm6.31.226a.55.55 0 0 1-.382-.255.63.63 0 0 1 .14-.877 4.91 4.91 0 0 0 1.105-1.132l.1-.127.058-.14a4.32 4.32 0 0 0 .523-1.388c.07-.34.397-.61.737-.554h.014c.326.07.567.325.51.665l-.014.07a5.502 5.502 0 0 1-.68 1.84l-.126.157-.086.184a5.71 5.71 0 0 1-1.4 1.458c-.157.098-.34.126-.496.098zm-8.15-3.976a.633.633 0 0 1-.508-.594 5.78 5.78 0 0 1 .1-1.316c.04-.226.098-.453.183-.68a.648.648 0 0 1 .792-.41.65.65 0 0 1 .41.793 7.11 7.11 0 0 0-.14.538c-.072.34-.1.68-.086 1.033a.63.63 0 0 1-.61.65l-.14-.013zm10.018-1.783a.636.636 0 0 1-.48-.426c-.17-.51-.41-.976-.737-1.387a.627.627 0 0 1 .097-.877.627.627 0 0 1 .877.1c.424.538.736 1.132.948 1.783a.625.625 0 0 1-.41.792.53.53 0 0 1-.297.014zm-8.46-2.096a.576.576 0 0 1-.326-.184.626.626 0 0 1 .014-.89c.48-.48 1.047-.85 1.67-1.132a.633.633 0 1 1 .51 1.16c-.482.212-.92.51-1.303.89a.648.648 0 0 1-.564.157zm5.672-1.005l-.14-.043c-.312-.14-.624-.198-.977-.31a3.723 3.723 0 0 0-.55-.072.628.628 0 0 1-.58-.665.628.628 0 0 1 .665-.58c.24.015.467.058.722.1.424.085.85.212 1.245.396.312.14.454.51.312.835a.636.636 0 0 1-.693.34z"/><path fill="#e94e1b" d="M83.767 43.717a5.023 5.023 0 1 1-10.045 0 5.023 5.023 0 0 1 10.045 0z"/></svg>