<svg width="120" height="120" viewBox="0 0 120 120" xmlns="http://www.w3.org/2000/svg"><circle cx="59.293" cy="65.805" r="39.703" fill="#4A4797"/><path d="M59.293 107.657c-32.217 0-52.353-34.877-36.244-62.777 16.108-27.9 56.38-27.9 72.488 0 3.673 6.362 5.607 13.58 5.607 20.925 0 23.114-18.738 41.852-41.852 41.852zm0-80.146c-29.49 0-47.92 31.925-33.175 57.463 14.744 25.54 51.606 25.54 66.35 0 3.366-5.827 5.136-12.44 5.133-19.168-.03-21.142-17.165-38.27-38.307-38.294z" fill="#1E1E40"/><path fill="#B7B4B3" d="M63.674 84.527l8.05 10.17-32.757-14.9-8.802-10.74"/><path d="M71.723 95.394c-.092.02-.187.02-.28 0l-32.77-14.97c-.094-.047-.18-.113-.25-.194l-8.788-10.728c-.246-.298-.21-.738.083-.99.304-.235.74-.192.99.097L39.4 79.225 69.393 92.87l-6.263-7.91c-.37-.39-.177-1.034.346-1.158.284-.068.58.05.742.292l8.05 10.17c.343.398.127 1.02-.39 1.118-.05.01-.103.014-.155.012z" fill="#1D1F3F"/><path fill="#B7B4B3" d="M97.77 35.658l5.3 12.737-31.347 46.302-8.384-10.393"/><path d="M71.723 95.394c-.21.003-.41-.09-.544-.25l-8.37-10.408c-.298-.448.002-1.048.538-1.08.2-.013.394.06.535.2l7.812 9.67L102.29 48.31l-5.163-12.43c-.154-.357.016-.772.377-.92.354-.136.753.03.906.377l5.302 12.75c.11.205.11.453 0 .657L72.31 95.087c-.127.186-.334.3-.56.307z" fill="#1D1F3F"/><path fill="#D8D3D2" d="M97.77 35.658l-34.096 48.87-33.51-15.472 33.79-47.404 33.815 14.006"/><path d="M63.674 85.224c-.097.02-.197.02-.293 0L29.9 69.754c-.184-.09-.32-.25-.377-.447-.053-.2-.017-.414.098-.586l33.803-47.43c.188-.266.533-.37.837-.252l33.802 13.95c.198.083.348.253.404.46.06.2.025.418-.097.587L64.273 84.862c-.12.22-.35.358-.6.362zm-32.45-16.447l32.254 14.87 33.23-47.682-32.504-13.448z" fill="#1D1F3F"/><ellipse cx="69.822" cy="32.002" rx="2.093" ry="1.632" transform="rotate(-46.94 87.742 15.905)" fill="#E94F1C"/><path d="M86.818 42.564c-.517 0-1.016-.194-1.396-.544-.934-1.066-.848-2.682.196-3.64.467-.51 1.09-.85 1.77-.964.662-.123 1.343.067 1.843.516.485.473.726 1.14.657 1.814-.077.685-.376 1.327-.85 1.827-.57.626-1.374.985-2.22.99zM86.315 41c.377.35 1.13.17 1.646-.375.263-.276.43-.628.476-1.005.03-.243-.047-.487-.21-.67-.193-.15-.444-.206-.683-.153-.373.07-.71.26-.963.544-.516.545-.64 1.313-.265 1.66z" fill="#1D1F3F"/><path d="M42.97 52.622l1.773 1.786c1.14 1.407.954 3.465-.42 4.645-1.394 1.48-3.25 1.98-4.407.893l-2.274-2.288" fill="#847D7C"/><path d="M41.423 61.257c-.736.016-1.448-.26-1.98-.767l-2.29-2.288.99-.976 2.275 2.288c.893.837 2.386.195 3.404-.88 1.09-.914 1.286-2.518.447-3.668l-1.8-1.786.99-.99 1.77 1.77c1.385 1.666 1.213 4.126-.39 5.58-.856 1.017-2.09 1.637-3.417 1.717z" fill="#1D1F3F"/><ellipse cx="22.711" cy="47.013" rx="3.683" ry="2.874" transform="rotate(-46.94 40.628 30.924)" fill="#B2A7A5"/><path d="M39.358 59.025c-.808.01-1.59-.283-2.19-.823-.745-.725-1.102-1.76-.963-2.79.128-1.092.62-2.11 1.395-2.888.735-.81 1.715-1.353 2.79-1.548 1-.187 2.032.102 2.79.78 1.395 1.66 1.23 4.125-.376 5.58-.862 1.02-2.112 1.634-3.446 1.69zm1.59-6.654h-.39c-1.567.32-2.76 1.597-2.972 3.182-.075.587.12 1.177.53 1.604 1.204.764 2.794.458 3.628-.698 1.104-.908 1.3-2.522.446-3.67-.346-.29-.79-.44-1.242-.417z" fill="#1D1F3F"/><path d="M54.146 58.202l1.77 1.786c1.14 1.407.955 3.465-.417 4.645-1.396 1.48-3.238 1.98-4.396.893L48.83 63.21" fill="#847D7C"/><path d="M52.61 66.782c-.738.01-1.452-.266-1.994-.768L48.328 63.7l.99-.978 2.275 2.288c.892.837 2.4.195 3.404-.88.543-.56.886-1.287.976-2.064.082-.588-.114-1.18-.53-1.604l-1.73-1.785.977-.99 1.77 1.77c.746.726 1.104 1.76.964 2.79-.132 1.092-.623 2.107-1.395 2.89-.87.988-2.104 1.582-3.42 1.645z" fill="#1D1F3F"/><ellipse cx="33.9" cy="52.551" rx="3.683" ry="2.874" transform="rotate(-46.94 51.806 36.446)" fill="#B2A7A5"/><path d="M50.532 64.55c-.8.026-1.58-.248-2.19-.768-1.384-1.665-1.212-4.124.39-5.58.73-.814 1.714-1.36 2.79-1.548 1-.18 2.03.11 2.79.78 1.388 1.662 1.222 4.12-.376 5.58-.88.954-2.108 1.508-3.404 1.536zm-1.227-1.842c1.203.764 2.793.46 3.627-.697 1.093-.915 1.282-2.524.432-3.668-.452-.38-1.052-.535-1.632-.42-.765.145-1.462.537-1.98 1.117-1.105.907-1.3 2.522-.447 3.668z" fill="#1D1F3F"/><path d="M65.962 63.475l1.77 1.786c1.144 1.404.965 3.462-.403 4.647-1.396 1.478-3.252 1.98-4.41.892l-2.232-2.288" fill="#847D7C"/><path d="M64.427 72.153c-.734.006-1.443-.268-1.98-.768l-2.303-2.315.99-.977 2.344 2.218c.408.35.964.47 1.48.322.746-.198 1.417-.616 1.924-1.2.55-.558.893-1.286.977-2.064.08-.588-.115-1.18-.53-1.605l-1.787-1.785.99-.99 1.772 1.77c.74.728 1.092 1.763.95 2.79-.133 1.092-.624 2.108-1.396 2.89-.704.79-1.627 1.353-2.652 1.617-.256.062-.518.095-.78.098z" fill="#1D1F3F"/><ellipse cx="45.716" cy="57.839" rx="3.683" ry="2.874" transform="rotate(-46.94 63.63 41.752)" fill="#B2A7A5"/><path d="M62.362 69.85c-.808.013-1.59-.28-2.19-.822-.75-.722-1.112-1.758-.976-2.79.13-1.092.62-2.108 1.395-2.888.735-.81 1.716-1.353 2.79-1.55 2.145-.46 4.09 1.362 3.767 3.53-.28 2.45-2.283 4.34-4.743 4.48zm1.59-6.654h-.404c-1.56.325-2.748 1.6-2.957 3.18-.077.585.12 1.17.53 1.592 1.204.764 2.794.458 3.628-.698.54-.564.884-1.29.976-2.065.076-.587-.12-1.177-.53-1.604-.35-.283-.792-.428-1.24-.404z" fill="#1D1F3F"/><path d="M73.662 33.44l1.995 2.065c2.693 2.51 2.26 7.338-.948 10.77-3.21 3.43-7.52 4.59-10.213 2.078l-3.153-3.25" fill="#BE3E17"/><path d="M67.998 50.404c-1.475.016-2.9-.54-3.976-1.55l-3.18-3.207.99-.977L65 47.92c1.142 1.007 2.71 1.383 4.184 1.005 1.914-.512 3.632-1.58 4.94-3.07 2.942-3.152 3.39-7.546.99-9.764L73.09 34l1.005-.976 1.995 2.064c2.943 2.79 2.525 8.022-.95 11.733-1.478 1.68-3.418 2.888-5.58 3.472-.514.098-1.038.136-1.562.112z" fill="#1D1F3F"/><ellipse cx="49.719" cy="30.9" rx="8.524" ry="6.654" transform="rotate(-46.94 67.618 14.805)" fill="#E94F1C"/><path d="M65.306 47.28c-1.638.05-3.233-.536-4.45-1.633-1.483-1.455-2.205-3.518-1.953-5.58.252-2.31 1.268-4.47 2.887-6.14 3.46-3.71 8.692-4.49 11.663-1.714 1.48 1.456 2.203 3.517 1.953 5.58-.593 4.718-4.15 8.52-8.817 9.43-.426.053-.855.072-1.284.056zm3.683-15.346c-2.377.096-4.61 1.16-6.18 2.943-1.378 1.412-2.26 3.234-2.512 5.19-.582 3.515 2.6 6.492 6.068 5.677 4.036-.807 7.11-4.094 7.645-8.175.227-1.645-.337-3.3-1.52-4.465-.946-.832-2.172-1.275-3.43-1.24z" fill="#1D1F3F"/><path fill="#696565" d="M95.495 46.944l-5.93 8.23 1.55 3.46 5.914-8.23-1.535-3.46"/><path d="M91.114 59.332h-.07c-.25-.022-.467-.177-.57-.404l-1.55-3.516c-.12-.212-.12-.47 0-.683l5.93-8.232c.145-.204.392-.31.64-.28.244.03.455.183.56.405l1.547 3.46c.126.21.126.473 0 .684l-5.928 8.23c-.117.2-.327.325-.558.335zm-.753-4.073l.894 1.98 4.98-6.976-.893-1.98z" fill="#1D1F3F"/><path fill="#1D1F3F" d="M95.718 46.916l-2.958 4.116 1.55 3.46 2.956-4.116-1.548-3.46M83.497 29.925c-.14 0-.277-.043-.39-.126-.322-.22-.404-.658-.182-.977l12.64-18.248c.212-.32.647-.402.962-.18.322.217.404.656.18.976L84.07 29.633c-.135.18-.347.29-.573.293z"/><circle cx="96.569" cy="9.989" r="1.311" fill="#1D1F3F"/><path d="M96.57 11.984c-.88.01-1.662-.556-1.926-1.395-.154-.512-.1-1.064.153-1.535.253-.463.672-.812 1.172-.977.51-.153 1.062-.098 1.534.154.468.244.82.666.976 1.172.313 1.075-.315 2.2-1.395 2.497-.168.05-.34.078-.516.084zm0-2.608h-.182c-.322.094-.504.433-.405.753.04.157.147.29.293.362.145.07.315.07.46 0 .407-.22.423-.797.03-1.04-.06-.036-.127-.062-.197-.076z" fill="#1D1F3F"/></svg>
