<svg width="120" height="120" viewBox="0 0 120 120" xmlns="http://www.w3.org/2000/svg"><path fill="#E94E1B" d="M52 92h7V44H38v12h14"/><path fill="#4A4797" d="M58.4 26c-21.9 0-39.6 17.8-39.6 39.6s17.8 39.6 39.6 39.6S98 87.5 98 65.6 80.3 26 58.4 26z"/><path fill="#C12C18" d="M80.4 90.4c-1.1-2.6-2.8-5.7-4.2-8.3-1-1.8-1.7-3.2-1.7-3.2s-.9.3-2.1.5c-1.2.3-5.4 3.5-6.9 4-1.8.7-3.8.2-5.7.2-.6 0-5.6-2.2-5.7-2.3-1.1-.9-8.4-2.7-8.7-2.1-.1.3-1.6 3.6-3.1 7.1-.9 2-7.5-3.6-9.5 5.2-.4 2 5.4 8.3 6.7 6.5-.5 3.1 16.8 7.6 17.7 7.8.5.1 3.8.3 3.8.3.6.7 14.4-4.8 14.4-5.9 0 0 7.7-1.8 6.9-4.3l-1.9-5.5z"/><path fill="#171831" d="M74.2 79.7c2.2 5.4 6.2 11.8 7.5 17.4.2.8 1.6.5 1.5-.3-1.3-5.8-5.7-12.3-8-17.7-.1-.6-1 .6-1 .6z"/><path fill="#E14619" d="M70.5 84.1c-.2-.1-.4-.1-.5.1l-6 .7-4.6 1.3-.9 1.5c-2.4 4-3.6 9.2-2.6 14.5.1.6.6.7.8.4 1.2-1.2 2.8-1.7 4.2-2.7.3 2 .9 3.8 1.3 5.9.1.5.6.7.8.4 1.2-1.3 2.5-2.5 3.4-4.1.5 1.9 3 4.2 3 3.9.4-1.9.8-2.7.5-4.6 1.5 1.1 2 1.2 3.6 1.8.3.2 2.1-1 2-1.4-.4-2-.8-2.8-1.4-4.7 1.7.3 3.3.1 4.9.6.3.2.7-.2.6-.7-1.3-5.9-5-10.3-9.1-12.9z"/><g fill="#393E88" stroke="#171831" stroke-width=".8" stroke-linecap="round" stroke-linejoin="round" stroke-miterlimit="10"><path d="M51.9 82.1v4.8c0 1.3.5 2.5 1.5 3.3l3.3 3 7.6-4.3s.4-1.2.3-2.3c-.1-1.2-.8-2.4-.9-2.4-.5 0-4.7-2.5-11.8-2.1zM76.2 81.3l.7 3.4c.1.8.1 2.8-.3 3.6l-2.4 4.4-7.3-4.3s-.4-1.1-.4-2.3c0-1.2.5-2.5.7-2.5.3 0 2.5-2.2 9-2.3z"/><path d="M63.5 84.5s1.5 1.3.8 3.5c-.7 2.3 2.8 1.3 3.1.5.3-.8.5-2.8-.1-3.8-.4-.9-3.8-.2-3.8-.2z"/></g><path fill="#E14619" d="M39.5 77.3c-2 6.4-6.2 10.1-7 16.7"/><path fill="#171831" d="M38.9 77.2c-1.9 5.9-6.2 10.6-7 16.8-.1.8.8 2.3 1.2 0 .8-6.1 5.2-10.8 7-16.5.2-.7-1-1-1.2-.3z"/><path fill="none" stroke="#171831" stroke-width=".8" stroke-linecap="round" stroke-linejoin="round" stroke-miterlimit="10" d="M59.9 86.4l4.7.2M61 87.9l3.4-.6M67.8 86.1l4.1-.9M70.3 87.4l-2.4-.4"/><path fill="#1E1E40" d="M59.3 107.4c-23 0-41.8-18.7-41.8-41.8s18.7-41.8 41.8-41.8 41.8 18.7 41.8 41.8-18.7 41.8-41.8 41.8zm0-80C38.2 27.4 21 44.6 21 65.7S38.2 104 59.3 104s38.3-17.2 38.3-38.3-17.2-38.3-38.3-38.3z"/><path fill="#DF3918" d="M85.9 53.5c.5 5.8.4 11.9-2.1 17.3-1.1 2.4-1.5 4.2-3.4 6-1.7 1.5-5.8 1.2-8.4 3.8 0 0-3.7 3.9-7.2 4-3.4.1-7-2.3-7-2.3-1.9-1.4-5.9-1.3-8.5-1.9-3-.8-8.6-9.2-9.1-10.8L39 66.8c-1.3-2.3-1.8-4.8-3.2-7-1.1-1.4-1.9-2.6-2.4-4-1-3.2-2.2-6.4-3.1-9.6-1.5-4.7-4.4-12.4-1.6-16.8 0 0 3.6-1.2 10.8 4.9 3.4 2.5 7 6.4 11 7.5 0 0 1.4-.5 2-1.9 1 .7 2.7-.5 4.1-.9.9-.1 1.5-1 2.1-1.1.6-.1 1.5.4 1.7.4 2.5.7 2.1-.7 3.4-.7 1.1-.1 1.5.8 3 .6 1-.2 2.1.1 2.7.9l.1.2c3.3-4.3 9.6-15 16-14.2 5.8.8 1.4 23.2.1 28.6"/><path fill="#171831" d="M88.8 27c-1.6-4.5-6.8-2.2-9.5 0-2.4 2-4.4 4.5-6.2 7-.8 1.1-1.6 2.2-2.5 3.4l-1 1.4s0-.2-.1-.4c-.4-.8-1.4-1.1-2.2-.8-.3.1-.5.2-.9.1-.5-.2-.9-.2-1.3-.4-.7-.5-1.7-.4-2.3.2-.5.6-.8.8-1.7.6.9.2-1.1-.5-2.1-.5-.7 0-1.2.4-1.6.7-.4.3-1.4.4-1.9.7-1 .5-1.6 1.1-2.3.7-.4-.2-.8-.1-1 .2-.5.9-1 .4-1.6 1.2-3.2-1.2-5.5-2.5-7.7-4.8-2.1-2-4.5-3.7-6.8-5.3-1.1-.8-2.3-1.5-3.7-1.9-1.3-.4-2.2-.2-3.4-.1-1 .1-1.3 1.7-1.6 2.5-.4 1.4-.4 3.2-.3 4.7.3 3.2 1.4 6.4 2.4 9.6.7 1.9 1.1 3.9 1.8 5.8.7 2.1 1.2 4.3 2.3 6.3 1.1 2 2.4 3.7 3.3 5.7.6 1.5 1.3 2.9 1.8 4.4.6 1.6 1.2 3 2 4.4 1.8 2.7 3.8 5.6 6.3 7.7 2.4 2 5.9 1.2 8.7 2.2 2.8 1.5 5.8 3.1 9 3.2 3.3 0 6.1-2.6 8.5-4.9 2-1.2 4.4-1.4 6.5-2.5 2.2-1 3.1-3.6 3.9-5.5 1.3-3 2.2-5.7 2.7-8.9.4-2.6.4-5.3.2-8 0-.5.1-1.6.1-1.6 1.1-4.3 1.8-8.6 2.4-13 .6-4.8 1.3-9.9-.2-14.1zm-.5 5.8c.1 2.7-.2 5.4-.5 8-.5 4.1-1.2 8.1-2.1 12.1-.2.1-.3 1.8-.3 2.5.1 2.4.1 4.8-.2 7.3-.4 3.1-1.3 5.8-2.5 8.7-.9 2.2-1.8 4.8-4.3 5.7-1.1.4-2.2.7-3.2 1 0-.4-.5-.7-.9-.3-.9.8-3 2.6-3 2.7-2 1.7-4.2 3.4-6.8 3.6-1.9.1-3.9-.8-5.5-1.6-.5-.2-1.9-1.1-2.2-1.2-1-.6-1.8-1-2.8-1.5-.5-.3-.9.2-.8.8-.9-.1-1.7-.1-2.5-.3-2.4-.3-3.8-1.9-5.4-3.7-2.5-2.9-4.3-6-5.7-9.5-.5-1.2-1-2.3-1.5-3.5-.7-1.8-1.4-3.2-2.5-4.7-1.3-1.7-1.9-3.6-2.5-5.6-.7-1.9-1.3-3.9-1.9-5.9-.9-3-1.9-5.8-2.5-8.9-.5-2.7-.8-5.7.5-8.2.7-.1 1.3-.3 2.1-.1 1.2.2 2.2.8 3.2 1.5 1.7 1 3.2 2.3 4.8 3.4 3.7 2.5 7.5 7.2 11.4 7.5.8-.8 1.7-.5 2.3-1.5 1.1.5 2.1-.6 3.4-.7.7 0 1.2-.6 1.8-1 .9-.6 1.2-.6 2.2-.1.9.3 2 .3 2.7-.4.3-.3.8-.4 1.2-.4.3 0 .8.2 1 .3.7.4 1.4.6 2.2.5.7-.1 1.3.4 1.6 1.1 0 .1.1.1.2 0 .3 0 .9-.1 1.1-.3 1.7-2.3 3.2-4.6 4.9-6.7 1.9-2.5 4.1-5 7-6.5 1.7-.9 4-1.4 5 .5 1 1.3 1 3.5 1 5.4z"/><path fill="#EA9A44" d="M78.1 55.3c-.4-1-1.3-1.7-2.5-1.8-.9-.1-1.8.2-2.6.2 0-.8.3-3.2-1.3-2.8-.9.1-1.5 2.8-2 3.5-.8 1.4-1.4 1.1-1.6-.4-.4-1.5.2-3.6-1.1-3.8-.9 0-1.4 1.8-1.6 2.9 0 .5-.6 1-.8-2.8-.1-1-.4-3.6-.9-3.6h-.2c-1.6.3-2 6.4-2.3 8.2-.5-1.7-3.1-8.8-4.3-7.1-.2 1 0 1.4 0 2.4.1.5.3 4.2-.2 3.6-.3-1-1.8-3.1-2.4-2.7-1.1 1.2.1 2.6-.1 4.2-.1 1.5-.6 1.9-1.5.6-.5-.6-1.6-3.1-2.5-3.1-1.6-.1-.9 2.3-.8 3-.8.1-1.7 0-2.6.2-1.1.3-1.8 1.1-2.1 2.2-.1.2.9 8.3 8.3 7.6 1.2-.1 2.1-.3 3.1-.9.7-.3 1.2-.9 1.8-.5l7.7-.3c.5-.5 1-.9 1.6-.7 1.1.3 2.6.9 3.8.8 3.8-.4 7-2.3 7.8-5.8.2-.2-.5-2.9-.7-3.1z"/><path fill="#FFF" d="M47.3 59.8s4.7-.9 6-.4c2.6.9 3.2 3.6 3.2 3.3 0 0-1.4.7-1.8.7-.8.2-1.8.4-2.3.5-3.9-.1-5.1-4.1-5.1-4.1z"/><g fill="#FFF"><path d="M76.8 57.3s-4.7-.2-5.9.5c-2.5 1.4-2.6 4.1-2.6 3.8 0 0 1.5.4 1.9.5 1.3.2 1.8.1 2.4.1 3.7-.7 4.2-4.9 4.2-4.9z"/><path d="M68.4 61.5c.3.1 1.5.4 1.9.5.9.1 1.5.2 2.1.1h.2c3.4-.5 4.1-4 4.2-4.6-.5-.1-2.5-.1-4 .1-.9.1-1.4.3-1.8.4-2.1 1-2.6 3-2.6 3.5z"/></g><path fill="#E65B2B" d="M59.2 70.2c-.5-1.6-.2-3.2-.1-4.9 0 0 .8-3.6 2.5-4.1 4.5-1.3 6 8.2 6 8.2-5.1 2.8-8.4.8-8.4.8z"/><path fill="#EA9A44" d="M70.6 70c-5.3-1.8-7.6.9-7.6.9v.1c0-.7-3-2-5.8.3-.4.3-2.6 2.1-5.1 2.4 0 1 .1 1.6.8 2.7.8 1.2 2.3 1.5 4 2.3.7.4 1.9.5 2.5.4 5.6-.5 4.8-3.4 4.8-3.3V75c.2 0 .7 2 6.2 1.4.7-.1 2-.3 2.6-.7 1.5-1.1 2-.6 2.5-2 .4-1.2 1.3-3-.2-4.5 0 0-.7.9-4.7.8z"/><path fill="#C12C18" d="M59.1 70.4c.2-.7 4.5-.4 4.5-.4s3.6-1.3 4.3-.3c.1.2-.3 1-.3 1s-1.6.1-1.9.4c-.4.5-.4 2.5-.3 2.5.1 0-.7 1.2-1.1 1.2-.3 0-1.4-.6-1.3-.7.1-.1-.3-2.3-1-2.6-.4-.3-1.6.3-2 .1-.3-.3-.9-1.2-.9-1.2z"/><path fill="#C12C18" d="M67.8 69.8c.1.2-.3 1-.3 1s-1.6.1-1.9.4c-.4.5-.4 2.5-.3 2.5.1 0-.7 1.2-1.1 1.2-.3 0-1.4-.6-1.3-.7.1-.1-.3-2.3-1-2.6-.4-.3-1.6.3-2 .1-.3-.1-.8-1-.8-1"/><path fill="#171831" d="M64.2 75.4c-.6.1-2-1.2-1.8-1.3 0-.4-.4-1.9-.7-2.2l-.8.1c-.4 0-.9.2-1.1 0-.5-.2-.9-.9-1-1.2-.1-.2 0-.4.2-.6s.4 0 .6.2c.2.4.5.8.7.8l.7-.1c.6-.1 1-.2 1.4.1.7.5 1 2.3 1 2.4v.4c.3.2.6.4.8.4.2-.1.5-.6.7-.8 0-.2-.1-.5 0-1.1.1-1.2.4-1.6.5-1.7.3-.4 1.3-.5 2-.5.4 0 .8-1.1.9-.9.1.1.4.5-.4 1.6-.1.1-.2.2-.3.1-.7.1-1.4.2-1.6.3-.2.2-.3 1.6-.3 2v.2c-.1.3-.8 1.6-1.5 1.8zM53.4 58.9c-.6-.2-1.5-.2-3.1 0s-3 .4-3.1.4h-.5v.4s1.4 4.3 5.4 4.3c.1 0 1.9-.2 2.6-.4.3-.1 2.1-.8 2.1-.8s-.3-3.2-3.4-3.9zm1.1 3.9c-.5.3-1.7.4-2.1.4-1.5.1-2.7-.6-3.6-1.8-.4-.5-.7-1-.8-1.4.6-.1 1.4-.3 2.6-.5.3 0 .5 0 .7-.1 0 .9 0 3.1.9 2.8.8-.2.8-1.9.8-2.8h.1c1.7.6 2.5 2 2.8 2.6-.6.5-1.2.8-1.4.8zM76.9 56.8c-.1 0-2.4-.1-4.2.1-1 .1-1.6.3-2 .4-1.8 1-2.5 2.7-2.8 3.6l-.1 1 2.3.5c.9.1 1.6.2 2.2.1l.3-.1c4-.7 4.7-5.2 4.7-5.2l.1-.4h-.5zm-1.3 2.5c-.5 1.8-3.4 2.4-3.5 2.4-.4 0-1.1 0-1.9-.1-.2-.1-.8-.2-1.4-.4.2-.7.8-2.1 2.3-3 .1.8.4 2.4 1.3 2.5.8.1.6-2 .4-2.9 1.2-.1 2.7-.2 3.5-.2-.1.5-.5 1-.7 1.7z"/><path fill="#EA9A44" d="M44.5 71.3c1.2 1.4 2.8 2.3 4.7 2.5 1.3.3 1.7-1.7.4-2-1.3-.3-2.5-.8-3.3-1.7-.8-1-2.6.2-1.8 1.2zM79.1 69.2c1.4-.7 2.8-1.2 3.8-2.5.8-1-.8-2.3-1.6-1.2-.7.9-1.9 1.3-3 1.8-.5.3-.8.7-.5 1.3.1.5.8.8 1.3.6z"/><path fill="#FFF" d="M37.6 58.9c1.7-1.9 2.4-5.8 2.6-8.9-.1.4 3.3.2 5-2.1 1.2-1.5.3-2.5-.7-4.2-2.6-4.2-6.5-7.3-10.4-10.1-1-.8-2.1-2.8-3.6-2.1-1.2.6-.7 4.1-.3 5.2 2.3 9.1 7.4 22.2 7.4 22.2zM84 52.9c-2-1.5-4.3-4.9-4.9-7.8 0 .4-3.2.8-5.2-1.1-1.4-1.3-.7-2.3 0-3.9 1.9-4.2 5.3-7.8 8.6-11.1.9-.9 1.8-2 3.3-1.6 1.3.4 1.2 2.8 1.1 3.8-.7 10.6-2.9 21.7-2.9 21.7z"/><path fill="#E14619" d="M82.7 38.9c-2.4.9-4.9 2.6-5.9 5-.8-2.7 1.4-6 3.4-7.7.6-.5-.2-1.5-.8-1-2.5 2.2-4.9 6.2-3.7 9.4.1.4.5.4.8.3l-.1.4c0 .8 1.2 1 1.3.2.3-2.7 2.9-4.6 5.4-5.5.9-.3.4-1.4-.4-1.1zM37.5 40.8c-.7-.4-1.2.7-.6 1.1 1.9 1.1 4.4 3.4 4.9 5.7-1.4-2.2-4.2-3.3-6.8-3.6-.8-.1-1 1.1-.2 1.2 2.6.4 5.6 1.6 6.4 4.2.2.4.7.5 1 .2.3.2.8.1.9-.4.6-3.4-2.7-6.9-5.6-8.4z"/><path fill="#171831" d="M43.9 42c-2.2-3-5.2-5.4-8.2-7.7l-3.3-2.9c-.6-.5-1.8-.6-2.4.2-1.3 1.4-.7 4.2-.3 5.9.8 3.3 1.8 6.4 3 9.6 1.3 4.1 2.8 8.1 4.3 12 0 .2.3.3.4.3.1.1.3 0 .5-.2 1.9-2.3 2.5-5.5 2.6-8.4 1.4.1 3.5-1.1 4-1.5 3.2-2.3 1.1-5.1-.6-7.3zm-.1 6.7c-.5.4-1.2.7-1.8.8-.2 0-1.2.1-1.2.2-.2-.4-.9-.4-1 .1-.2 2.6-.5 5.6-2 7.8-2.6-6.8-5.1-13.8-7-20.8-.3-1.2-1-6.4 1.4-4.4l2.4 2.3 3.3 2.7c2.4 1.9 4.4 4.2 6 6.8.4.6.8 1.1 1 1.7.7 1.1-.3 2.2-1.1 2.8zM84.5 26.8c-1 .2-1.8 1.1-2.4 1.8-1.2 1.3-2.4 2.5-3.7 3.9-2.2 2.5-4 5.2-5.3 8.2-1.1 2.4.2 4.1 2.7 4.9.5.2 2.1.5 3.1.3.9 2.8 2.6 5.5 4.9 7.3.2.1.3.1.6 0 .1 0 .2-.1.3-.4.8-4 1.4-8.1 2-12.2.4-3.3.8-6.8.9-10.2-.2-1.7-.6-3.9-3.1-3.6zm1.9 3.7c.1 4.9-.8 10-1.6 14.9-.3 2.2-.7 4.4-1.1 6.5-2-1.9-3.4-4.3-4.2-7-.2-.5-.9-.3-1 .1.1-.3.2-.2-.2-.1-.4 0-.9 0-1.4-.1-1.3-.2-3.1-.9-3.4-2.2-.2-1 .8-2.4 1.2-3.3.7-1.3 1.4-2.4 2.2-3.6 1.5-2 3.1-3.7 4.8-5.5.7-.7 1.4-1.6 2.4-2.2 2-1.3 2.3 1.4 2.3 2.5z"/><path fill="none" stroke="#171831" stroke-width=".8" stroke-linecap="round" stroke-linejoin="round" stroke-miterlimit="10" d="M76.8 72.6s-.7.7-2 .3M55.9 78.3c4.5 2.1 8-.3 8.6-2.4 0 0 5.2 1.5 7.2 1.1 1.8-.4 3.8-2.1 4.1-4.1"/><path fill="#C12C18" stroke="#171831" stroke-width=".8" stroke-linecap="round" stroke-linejoin="round" stroke-miterlimit="10" d="M43.8 79.9s1.3-2.1 3.4-1.5c2.2.6 3.6 4.2 1.4 6.1-2.2 1.9-6.2 1.6-6.2 1.6l1.4-6.2z"/><path fill="none" stroke="#171831" stroke-width=".8" stroke-linecap="round" stroke-linejoin="round" stroke-miterlimit="10" d="M56 39.9s6.7-1.3 7.3 3.2M48 46.7s1.9 1.9 3.1 0c.6-1.1 1.5-3.2 3.2-3.7.5-.2 3.1-1.2 4.2 1.3M67.3 41.8s.3-3.2-2.9-3.6"/><path fill="#FFF" stroke="#171831" stroke-width=".8" stroke-linecap="round" stroke-linejoin="round" stroke-miterlimit="10" d="M29.3 75s5.4-3.6 12.7-4c13.9-.8 13.8 1.4 13.8 1.4l-.5 2.3c-.4 1.9-1.3 3.8-2.6 5.2-1.4 1.5-2.6 1.9-4.8 3l-.9.3s-1.8 6.3-2.8 6.3c-1.7-.1-3.2-3.8-3.7-4.9-.1-.1-4.1-.8-7-3.1-3.2-2.5-4.2-6.5-4.2-6.5z"/><path fill="#393E88" d="M32.9 77.5s1.4 3.8 7.7 4.5c3.7.4 10.9-.9 12.3-7.1.4-2-1.6.1-8-.3s-13-.5-12 2.9z"/><path fill="#FFF" d="M43.7 76c-4.2-.3-8.4-.6-8.5 1.3.2 1 .9.9.9.9s4.6.4 7.3-1.9l.3-.3z"/><path fill="#C12C18" stroke="#171831" stroke-width=".8" stroke-linecap="round" stroke-linejoin="round" stroke-miterlimit="10" d="M43.9 88.3s1.6-.7 1.5-2.5c-.1-4.2-3.7-2.5-3.7-2.5s-3.8 1.6-4.6 1.1c-.8-.5-1.4-1.5-1.4-1.5-.3.3-1.1 1-1.8 2.7-.7 1.7-.3 3.7 1.1 4.9l.5.4-.2 1.1c.1 2.7 1.9 2.3 2.2 2.8.6 1.1-.6 2 2 3.4 0 0 1.5 0 2.8.4 2.1.7 3-.1 3-.1.5-.7-.4-1.7.4-1.9 1.3-.3 3-1.7 2.2-3.6-.2-.5.4-.9.6-1.7 1.4-5.4-5.6-2.6-5.6-2.6"/><path fill="none" stroke="#171831" stroke-width="1.3" stroke-linecap="round" stroke-linejoin="round" stroke-miterlimit="10" d="M42.1 93.2s.7-.5 1.5-.2c1.8.6 3.7-.3 4.8-1.4"/><path fill="#C12C18" stroke="#171831" stroke-linecap="round" stroke-linejoin="round" stroke-miterlimit="10" d="M47 96.5h-4"/><path fill="none" stroke="#171831" stroke-width="1.3" stroke-linecap="round" stroke-linejoin="round" stroke-miterlimit="10" d="M39.4 88.9s2.9.6 5.3-1.3"/><path fill="#FFF" stroke="#171831" stroke-width=".8" stroke-linecap="round" stroke-linejoin="round" stroke-miterlimit="10" d="M44.7 93.2l1.8-.5c.2 0 1.7 10.9 1.7 10.9.1.3.3.6.7.6 0 0 5-.4 5.9.4.4.4.8 1.3.5 1.4 0 0 2 2.3-10.4 3.8-3.8.4-5-.6-5-.7-.7-1-.3-2.4.9-2.7l4.9-1.6c.2-.1.3-.4.3-.7l-1.8-10.7c-.2-.2.2-.2.5-.2zM39.4 108.5s8.5-2.9 16.5-2.6"/><path fill="none" stroke="#171831" stroke-width=".8" stroke-linecap="round" stroke-linejoin="round" stroke-miterlimit="10" d="M65.6 79.8s.9 3.6-1 3.4"/><circle opacity=".4" fill="#171831" cx="69.7" cy="70.8" r=".6"/><circle opacity=".4" fill="#171831" cx="72.5" cy="71.2" r=".6"/><circle opacity=".4" fill="#171831" cx="70.9" cy="73.6" r=".6"/><circle opacity=".4" fill="#171831" cx="57.1" cy="74" r=".6"/><circle opacity=".4" fill="#171831" cx="59.9" cy="73.6" r=".6"/><circle opacity=".4" fill="#171831" cx="58.7" cy="76.4" r=".6"/><path fill="none" stroke="#171831" stroke-width=".8" stroke-linecap="round" stroke-linejoin="round" stroke-miterlimit="10" d="M67.6 68.2s1.1 1.4.2 2.5"/></svg>
