<svg width="120" height="120" viewBox="0 0 120 120" xmlns="http://www.w3.org/2000/svg"><path d="M270 323.454c-84.726 0-153.684 68.958-153.684 153.684S185.274 630.822 270 630.822s153.684-68.958 153.684-153.684S354.726 323.454 270 323.454z"/><path fill="#4a4797" d="M46.814 26.688l22.673-.763 18.178 10.41H31.56z"/><path fill="#312783" d="M19.61 67.26h80.64l-2.797 15.497H22.915z"/><path fill="#4a4797" d="M22.662 82.757h74.156L84.996 98.253H35.12z"/><path fill="#312783" d="M35.12 98.24h49.748L63.893 107l-11.868-1.145zm-3.56-62.028h56.232l10.17 17.804H21.134z"/><path fill="#4a4797" d="M22.407 51.778H97.96l2.543 15.496H19.228z"/><circle cx="270" cy="393.6" r="7.02" fill="#fff" transform="matrix(.26 0 0 .26 -10 -58.444)"/><path fill="#fff" d="M46.344 28.53v8.97h27.188v-8.97h-1.28v7.69H47.625v-7.69h-1.28zm40.03 8.314v12.78H33.5V37.688h-1.28v13.22h10.155c3.44 6.55 10.128 10.624 17.563 10.624 7.436 0 14.126-4.07 17.594-10.624h10.125V36.843h-1.28zm-42.53 14.063h32.188c-3.31 5.783-9.378 9.344-16.094 9.344-6.73 0-12.794-3.56-16.094-9.342zM60 72.595c-11.083 0-20.138 8.847-20.5 19.844h-8.156v1.373H39.5a20.14 20.14 0 0 0 1.938 8.063l.97-.47c-1.136-2.398-1.724-4.94-1.814-7.593h17.72c.3.587.92 1 1.624 1 .703 0 1.29-.416 1.594-1h17.875c-.088 2.515-.63 4.953-1.656 7.25l.97.47a20.588 20.588 0 0 0 1.75-7.72h8.19V92.44h-8.19c-.362-11-9.386-19.846-20.47-19.846zm0 1.094c10.493 0 19.042 8.342 19.406 18.75h-17.75c-.234-.735-.908-1.283-1.72-1.283-.808 0-1.482.55-1.718 1.28H40.593C40.957 82.034 49.506 73.69 60 73.69z"/><path fill="#1e1e40" d="M60 108c-23.156 0-42-18.844-42-42s18.844-42 42-42 42 18.844 42 42-18.844 42-42 42zm0-80.444c-21.196 0-38.444 17.248-38.444 38.444S38.804 104.444 60 104.444 98.444 87.196 98.444 66 81.196 27.556 60 27.556z"/></svg>