<svg width="120" height="120" viewBox="0 0 120 120" xmlns="http://www.w3.org/2000/svg"><path fill="#4a4797" d="M59.052 26.155c-21.97 0-39.844 17.875-39.844 39.845s17.874 39.845 39.844 39.845c21.97 0 39.845-17.875 39.845-39.845S81.023 26.155 59.052 26.155z"/><path fill="#e94e1b" d="M91.1 92.618l3.29-5.88-7.175-12.955-4.98-3.595-.137-5.096-18.355-8.336s-2.502 1.705-5.288 8.288c-1.987 4.694-1.627 7.6-4.536 12.732-.48.844-2.316 7.89-2.316 7.89l10.272 6.816 2.064 3.084 12.313 5.7L91.1 92.618z"/><path fill="#1e1e40" d="M60 108c-23.16 0-42-18.84-42-42s18.84-42 42-42 42 18.84 42 42-18.84 42-42 42zm0-80.445c-21.2 0-38.445 17.247-38.445 38.445 0 21.2 17.247 38.445 38.445 38.445 21.2 0 38.445-17.247 38.445-38.445 0-21.2-17.247-38.445-38.445-38.445z"/><path fill="#1e1e40" d="M75.643 101.617l1.217-.708-12.53-5.8-1.974-2.95-.16-.16-9.93-6.59c.715-2.717 1.848-6.81 2.155-7.35 1.75-3.088 2.357-5.437 2.943-7.708.403-1.57.823-3.192 1.623-5.085 2.176-5.14 4.175-7.237 4.845-7.84l17.703 8.04.127 4.736c.005.18.093.347.238.452l4.957 3.578 4.3 3.444.007-1.473-3.608-2.888-4.747-3.43-.13-4.81a.578.578 0 0 0-.34-.51l-18.354-8.338a.575.575 0 0 0-.563.048c-.108.073-2.675 1.877-5.495 8.54-.834 1.97-1.263 3.636-1.68 5.246-.59 2.3-1.15 4.472-2.827 7.426-.49.865-2.062 6.84-2.372 8.028a.58.58 0 0 0 .24.626l10.176 6.752 2 2.99a.58.58 0 0 0 .236.202l11.945 5.53z"/><path fill="#e94e1b" d="M71.324 75.218l7.55-16.593-11.218-6.388-7.603 9.695-2.716 5.292z"/><path fill="#1e1e40" d="M71.324 75.794a.573.573 0 0 1-.286-.076L57.05 67.724a.577.577 0 0 1-.226-.764l2.717-5.292 7.664-9.787a.58.58 0 0 1 .74-.144l11.217 6.388c.26.147.365.47.24.74l-7.55 16.594a.57.57 0 0 1-.347.31l-.18.027zm-13.223-8.8L71.06 74.4l7.07-15.535-10.326-5.88-7.295 9.302-2.408 4.71z"/><path fill="#e94e1b" d="M91.142 81.145c-.974-.907-2.14-1.666-3.195-2.222 0 0-4.677-2.493-6.25-3.296-7.316-3.723-10.215-.798-10.215-.798l19.645 10.66.015-4.347z"/><path fill="#1e1e40" d="M93.437 87.162c-.433-2.275-1.156-3.982-2.15-5.075-1.083-1.193-2.56-2.1-3.607-2.654-.003 0-4.673-2.492-6.244-3.29-6.86-3.49-9.52-.933-9.544-.907a.575.575 0 0 1-.818-.812c.13-.133 3.286-3.178 10.885.69 1.576.8 6.26 3.3 6.26 3.3 1.126.593 2.726 1.58 3.92 2.897 1.14 1.253 1.232 2.233 1.705 4.72.06.31-.358 1.407-.41 1.132zm-1.915 3.013a.587.587 0 0 1-.328-.102L77.68 80.75a.577.577 0 1 1 .656-.95l13.513 9.324a.577.577 0 0 1-.33 1.05zm-.898 2.695a.567.567 0 0 1-.326-.1L74.094 81.66a.576.576 0 0 1 .652-.952l16.204 11.11a.58.58 0 0 1-.326 1.052zm-1.07 2.732a.573.573 0 0 1-.324-.1L72.65 84.276a.577.577 0 0 1 .647-.955l16.58 11.23a.577.577 0 0 1-.323 1.053z"/><path fill="#fff" d="M72.14 86.37L87.688 96.9"/><path fill="#1e1e40" d="M87.365 97.378l-15.55-10.53a.577.577 0 0 1 .647-.956l15.55 10.53zm-2.378 1.865a.573.573 0 0 1-.323-.1l-13.912-9.42a.577.577 0 0 1 .647-.955l13.91 9.42a.577.577 0 0 1-.323 1.055z"/><path fill="#e94e1b" d="M52.55 81.998l4.786-14.774 13.987 7.994-9.447 17.262-10.272-6.817z"/><path fill="#1e1e40" d="M61.877 93.056a.583.583 0 0 1-.32-.097l-10.272-6.817a.576.576 0 0 1-.24-.624l.947-3.666 4.795-14.808a.576.576 0 0 1 .834-.324l13.99 7.994c.272.157.37.5.22.777l-9.45 17.263a.575.575 0 0 1-.367.283l-.136.015zm-9.61-7.647l9.407 6.24 8.873-16.216-12.88-7.36-4.565 14.098-.836 3.235z"/><path fill="#e94e1b" d="M83.72 72.32l1.072-9.162-5.92-4.533-3.022 6.644"/><path fill="#1e1e40" d="M83.74 72.875l-.066-.004a.578.578 0 0 1-.507-.64l1.015-8.755L79.1 59.58l-2.724 5.986a.575.575 0 0 1-1.05-.478l3.025-6.644a.575.575 0 0 1 .877-.22l5.918 4.534a.58.58 0 0 1 .223.524l-1.053 9.083a.58.58 0 0 1-.573.51z"/><path fill="#fff" d="M89.02 69.29a5.47 5.47 0 0 1-.077 5.47l-.015.026C82.046 86.29 76.078 93.37 74.1 94.966c-.22.176-.462.336-.72.477-2.026 1.113-4.903.514-6.88-.683l-9.617-5.596-.808 1.533c-.28 1.274 2.34 2.53 3.67 3.398l8.377 5.446c1.228.8 2.63 1.31 4.09 1.416 1.81.13 4.153-.547 5.904-2.817 1.35-1.75 5.558-5.25 15.032-21.03l.63-1.055a5.543 5.543 0 0 0 .146-5.403 6.68 6.68 0 0 1-.06-6.082c2.34-4.687 6.25-13.18 5.104-15.94-.15-.36-.265-2.096-4.378-4.217l-8.148-3.71c-8.002-4.942-15.68 13.325-15.68 13.325l3.5 1.767 4.054-7c1.19-1.97 4.522-4.844 6.615-3.89l5.918 2.7s4.122 1.74 2.31 6.847c-.498 1.4-1.352 2.952-2.464 5.355a197.978 197.978 0 0 1-1.865 3.92 5.918 5.918 0 0 0 .145 5.486l.043.08z"/><path fill="#1e1e40" d="M72.643 101.543l-.472-.017c-1.503-.108-3.012-.63-4.36-1.506l-8.376-5.446c-.232-.15-.503-.314-.79-.486-1.537-.92-3.45-2.066-3.13-3.518l.053-.146.808-1.533c.074-.137.2-.24.35-.284a.584.584 0 0 1 .45.056l9.616 5.597c1.24.75 2.763 1.193 4.086 1.193.854 0 1.603-.173 2.227-.517.238-.132.452-.272.636-.42 1.71-1.382 7.555-8.095 14.693-20.027.91-1.52.934-3.395.083-4.92-1.08-1.94-1.14-4.19-.204-6.1a196.75 196.75 0 0 0 1.862-3.91c.4-.86.764-1.613 1.092-2.29.582-1.2 1.043-2.145 1.352-3.016 1.602-4.51-1.845-6.06-1.992-6.124l-5.93-2.705a1.623 1.623 0 0 0-.674-.136c-1.778 0-4.27 2.25-5.207 3.797l-4.05 6.992a.576.576 0 0 1-.76.224l-3.5-1.768a.578.578 0 0 1-.27-.74c.248-.59 6.187-14.525 13.376-14.525 1.078 0 2.134.315 3.137.935l8.085 3.68c3.94 2.03 4.452 3.772 4.645 4.427.955 2.327-.77 7.85-5.093 16.512a6.125 6.125 0 0 0 .053 5.557 6.157 6.157 0 0 1-.16 5.966l-.63 1.054c-7.8 12.993-12.04 17.69-14.08 19.946-.43.475-.756.834-.99 1.14-1.5 1.947-3.662 3.062-5.933 3.062zm-16.01-10.667c-.028.647 1.676 1.667 2.603 2.223.3.18.584.35.827.506l8.376 5.446c1.184.77 2.504 1.228 3.814 1.322l.39.014c.902 0 3.2-.256 5.018-2.61.25-.322.594-.705 1.047-1.207 2.012-2.23 6.204-6.87 13.946-19.766l.63-1.05a4.996 4.996 0 0 0 .13-4.84 7.276 7.276 0 0 1-.065-6.61c3.994-7.994 5.847-13.63 5.09-15.462l-.07-.21c-.14-.476-.565-1.922-4.04-3.716l-8.125-3.7c-.883-.54-1.735-.796-2.594-.796-5.73 0-10.98 10.865-12.096 13.33l2.526 1.273 3.782-6.53c1.107-1.835 3.874-4.365 6.2-4.365.413 0 .803.08 1.153.24l5.916 2.7c.034.013 4.587 2.01 2.614 7.566-.33.93-.802 1.903-1.4 3.135-.325.67-.687 1.415-1.084 2.27-.625 1.35-1.25 2.66-1.87 3.93a5.343 5.343 0 0 0 .13 4.953c1.096 1.966 1.065 4.283-.038 6.126-6.605 11.04-12.732 18.546-14.976 20.36-.237.19-.507.37-.805.532-1.97 1.084-5.067.752-7.454-.696l-9.09-5.288-.48.915z"/><path fill="#1e1e40" d="M63.365 64.772s1.638-2.89 3.058-2.324c.526.21 1.54.31 1.394 2.38-.043.617-5.534 11.244-7.907 15.836-3.135 6.066-7.06 2.8-5.207-.238"/><path fill="#fff" d="M8.188 49.57c.48-5.788.99-14.52 7.465-15.68l.986.216s-4.663 6.243.844 4.69"/><path fill="#1e1e40" d="M8.19 50.148l-.05-.003a.577.577 0 0 1-.525-.623l.045-.547c.472-5.754 1.182-14.45 7.892-15.655l.227.004.984.216a.578.578 0 0 1 .34.91c-1.064 1.423-2.007 3.356-1.666 3.853.125.182.696.274 1.89-.064a.577.577 0 0 1 .312 1.11c-.6.166-2.418.68-3.157-.395-.78-1.137.367-3.242 1.183-4.474l-.024-.005C9.91 35.602 9.274 43.38 8.81 49.068l-.046.55a.578.578 0 0 1-.574.53z"/><path fill="#fff" d="M8.635 48.08s-2.516 6.932-4.11-2.46l-.84.202c-1.428 9.325 4.662 14.32 9.035 14.67"/><path fill="#1e1e40" d="M12.72 61.068l-.045-.003c-2.533-.203-5.15-1.72-7.003-4.06-1.637-2.07-3.41-5.705-2.555-11.27a.576.576 0 0 1 .435-.474l.84-.2a.574.574 0 0 1 .703.462c.732 4.32 1.543 4.442 1.578 4.445.335.032 1.03-1.004 1.42-2.083a.576.576 0 1 1 1.084.393c-.252.7-1.16 2.99-2.61 2.84-1.07-.098-1.83-1.457-2.42-4.375-.506 4.686 1.014 7.763 2.428 9.548 1.632 2.062 4.004 3.452 6.19 3.627a.577.577 0 0 1-.046 1.153z"/><path fill="#fff" d="M27.183 38.843c.15-2.6 6.192.102 6.192.102l-2-1.604c-5-4.183-9.08-2.81-13.892 1.457"/><path fill="#1e1e40" d="M33.376 39.522a.584.584 0 0 1-.235-.05c-1.635-.73-4.32-1.533-5.156-1.025-.1.062-.207.16-.223.43-.017.318-.245.567-.61.542a.576.576 0 0 1-.54-.61c.035-.595.3-1.06.776-1.35.745-.453 1.935-.37 3.08-.112-4.04-3.09-7.628-2.53-12.595 1.878a.578.578 0 0 1-.766-.864c4.136-3.668 8.77-6.38 14.644-1.466l1.99 1.597a.576.576 0 0 1-.36 1.027z"/><path fill="#fff" d="M37.508 45.587c.74-2.268 5.46 1.534 5.46 1.534l-1.398-1.885c-3.45-4.87-7.385-4.61-12.64-1.953"/><path fill="#1e1e40" d="M42.967 47.7a.574.574 0 0 1-.36-.128c-1.272-1.022-3.44-2.35-4.285-2.1-.097.028-.196.084-.265.296a.576.576 0 1 1-1.097-.357c.174-.53.532-.893 1.035-1.042.72-.216 1.683.077 2.594.524-2.813-3.493-6.085-3.778-11.4-1.09a.58.58 0 0 1-.52-1.03c4.533-2.294 9.294-3.623 13.37 2.133l1.39 1.877a.58.58 0 0 1-.465.92z"/><path fill="#fff" d="M46.566 52.504c.8-2.106 5.08 1.688 5.08 1.688l-1.234-1.84c-3.038-4.747-6.76-4.674-11.834-2.4"/><path fill="#1e1e40" d="M51.647 54.77a.573.573 0 0 1-.382-.147c-1.15-1.016-3.147-2.36-3.917-2.163-.078.02-.17.056-.242.248a.576.576 0 1 1-1.078-.408c.192-.507.553-.837 1.043-.96.67-.16 1.517.12 2.326.548-2.49-3.35-5.454-3.704-10.58-1.408a.577.577 0 1 1-.472-1.053c4.39-1.967 8.953-3.014 12.557 2.614l1.227 1.833a.578.578 0 0 1-.478.897z"/><path fill="#fff" d="M55.844 59.956c.743-1.96 4.725 1.57 4.725 1.57l-1.15-1.71c-2.827-4.415-6.29-4.347-11.008-2.233"/><path fill="#1e1e40" d="M60.57 62.104a.573.573 0 0 1-.38-.146c-1.033-.913-2.886-2.184-3.61-2.003-.065.017-.135.045-.196.206a.576.576 0 1 1-1.078-.406c.183-.484.53-.8.998-.917.59-.146 1.322.077 2.033.433-2.28-2.968-5.015-3.253-9.685-1.16a.577.577 0 0 1-.472-1.053c4.105-1.837 8.363-2.81 11.728 2.448l1.14 1.702a.58.58 0 0 1-.098.756.6.6 0 0 1-.38.14z"/><path fill="#fff" d="M13.4 60.694c3.215 4.784-7.032.822-7.032.822l1.817 1.81c4.52 4.695 8.726 3.768 13.968.04"/><path fill="#1e1e40" d="M14.583 67.098c-2.19 0-4.462-.93-6.814-3.373l-1.81-1.8a.575.575 0 0 1-.075-.722.573.573 0 0 1 .692-.224c3.216 1.24 6.415 1.857 6.845 1.32.055-.07.07-.433-.5-1.284a.578.578 0 0 1 .957-.644c.287.43 1.17 1.74.444 2.646-.85 1.062-3.532.545-5.76-.133l.03.03c3.86 4.01 7.57 4.002 13.226-.02a.578.578 0 0 1 .67.94c-2.513 1.785-5.146 3.26-7.906 3.26z"/><path fill="#4a4797" d="M65.29 67.186l1.473-1.533c-2.318-1.728-4.284-3.31-9.003-1.197"/><path fill="#1e1e40" d="M65.29 67.764a.577.577 0 0 1-.416-.976l1.02-1.06c-2.048-1.512-3.836-2.564-7.9-.744a.577.577 0 0 1-.472-1.053c4.936-2.21 7.126-.574 9.444 1.156l.14.105a.58.58 0 0 1 .23.418.574.574 0 0 1-.16.447l-1.472 1.533a.57.57 0 0 1-.414.178z"/><path fill="#fff" d="M23.942 67.246c.385 2.355-5.554 1.148-5.554 1.148l2.108 1.033c5.305 2.738 8.677.696 12.123-4.08"/><path fill="#1e1e40" d="M24.91 71.233c-1.38 0-2.925-.388-4.678-1.292l-2.097-1.026a.58.58 0 0 1-.293-.704.582.582 0 0 1 .66-.38c1.6.323 4.138.505 4.772-.105.073-.07.134-.165.1-.385a.577.577 0 0 1 1.137-.186c.093.554-.06 1.04-.436 1.403-.546.525-1.532.706-2.544.728 4.1 1.812 7.138.557 10.62-4.274a.578.578 0 0 1 .936.677c-2.142 2.97-4.617 5.548-8.176 5.548z"/><path fill="#fff" d="M46.617 77.318c-.042 2.243-5.35.11-5.35.11l1.78 1.315c4.46 3.44 7.938 2.132 11.947-1.693"/><path fill="#1e1e40" d="M48.055 81.32c-1.632 0-3.403-.61-5.36-2.12l-1.77-1.31a.576.576 0 0 1 .557-1c1.385.557 3.75 1.17 4.42.725.065-.043.136-.108.14-.308a.578.578 0 0 1 .576-.566h.01a.58.58 0 0 1 .567.59c-.01.54-.237.97-.658 1.25-.57.377-1.463.394-2.363.264 3.464 2.306 6.376 1.65 10.423-2.21a.577.577 0 0 1 .797.835c-2.187 2.086-4.56 3.85-7.337 3.85z"/><path fill="#fff" d="M34.953 72.306c-.042 2.094-4.978.106-4.978.106l1.656 1.228c4.146 3.21 7.384 1.982 11.12-1.595"/><path fill="#1e1e40" d="M36.282 76.08c-1.523 0-3.178-.57-5.004-1.984l-1.646-1.22a.578.578 0 0 1-.16-.746.573.573 0 0 1 .718-.253c1.277.514 3.454 1.08 4.07.676.056-.038.112-.088.115-.26a.578.578 0 0 1 .577-.565h.01c.32.006.574.27.567.588-.015.654-.353 1.012-.635 1.198-.504.335-1.267.372-2.06.274 3.142 2.03 5.812 1.382 9.513-2.16a.577.577 0 1 1 .796.832c-2.044 1.96-4.264 3.62-6.864 3.62z"/><path fill="#b2a7a5" d="M65.29 67.186L29.292 40.782C16.692 30.234-.542 51.64 12.522 61.057l1.05.837 43.917 19.97 7.8-14.678z"/><path fill="#1e1e40" d="M57.49 82.44a.57.57 0 0 1-.24-.052l-43.916-19.97-.12-.074-1.05-.837C7.8 58.363 6.252 53.552 7.94 48.327 9.96 42.07 15.94 37.35 21.854 37.35c2.813 0 5.44 1.006 7.808 2.99L65.63 66.72c.233.17.303.484.17.736l-7.804 14.678a.573.573 0 0 1-.508.307zM13.875 61.398l43.358 19.716 7.312-13.758-35.595-26.11c-2.183-1.827-4.56-2.74-7.096-2.74-5.435 0-10.947 4.374-12.82 10.176-1.523 4.718-.13 9.058 3.823 11.907l1.018.807z"/><ellipse cx="21.785" cy="39.054" fill="#4a4797" transform="rotate(30.2 32.908 34.103) scale(1.4)" rx="2.373" ry="3.72"/><path fill="#1e1e40" d="M19.012 56.056a2.85 2.85 0 0 1-1.453-.38c-1.89-1.1-2.094-4.157-.46-6.96 1.21-2.076 3.103-3.42 4.83-3.42.53 0 1.017.128 1.45.38.943.55 1.493 1.606 1.55 2.975.05 1.276-.337 2.693-1.09 3.988-1.21 2.076-3.104 3.42-4.83 3.42zm2.916-9.605c-1.3 0-2.84 1.146-3.832 2.847-1.263 2.17-1.243 4.635.043 5.384.25.15.545.224.87.224 1.3 0 2.84-1.142 3.83-2.845.645-1.11.977-2.303.935-3.36-.04-.963-.386-1.68-.977-2.025a1.704 1.704 0 0 0-.873-.223z"/><path fill="#ce3e17" d="M79.33 67.702l2.403-.694"/><path fill="#969183" d="M81.167 67.87c-.594 1.492-1.845 2.395-2.797 2.017-.952-.378-1.243-1.894-.65-3.387.594-1.492 1.845-2.395 2.797-2.017.892.354 1.203 1.707.752 3.102l-.104.284z"/><path fill="#1e1e40" d="M78.828 70.55c-.232 0-.458-.043-.67-.127-.64-.255-1.1-.875-1.258-1.704-.144-.748-.042-1.61.286-2.435.707-1.778 2.302-2.836 3.546-2.34 1.172.467 1.64 2.107 1.088 3.817l-.115.316c-.587 1.48-1.743 2.47-2.877 2.47zm1.232-5.576c-.54 0-1.354.61-1.803 1.74-.242.61-.325 1.263-.224 1.788.05.255.186.703.552.848.55.22 1.527-.382 2.048-1.694l.09-.248c.35-1.088.164-2.16-.417-2.39a.683.683 0 0 0-.245-.045z"/><path fill="#1e1e40" d="M79.33 68.28a.577.577 0 0 1-.16-1.13l2.402-.696a.577.577 0 0 1 .32 1.107l-2.4.695-.16.024z"/></svg>