<svg width="120" height="120" viewBox="0 0 120 120" xmlns="http://www.w3.org/2000/svg"><circle cx="-1270" cy="50" r="28.652" fill="#4a4797" transform="translate(1827.548 -3.286) scale(1.392)"/><path fill="#1e1e40" d="M59.708 107.96c-22.964 0-41.646-18.682-41.646-41.646 0-22.964 18.682-41.646 41.646-41.646 22.964 0 41.646 18.682 41.646 41.646 0 22.964-18.682 41.646-41.646 41.646zm0-79.767c-21.02 0-38.12 17.1-38.12 38.12 0 21.022 17.1 38.122 38.12 38.122 21.02 0 38.12-17.1 38.12-38.12 0-21.022-17.1-38.122-38.12-38.122z"/><path fill="#e94e1b" d="M56.753 22.924h6.994v6.994h-6.994z"/><path fill="#1e1e40" d="M64.425 30.597h-8.35v-8.35h8.35v8.35zM57.43 29.24h5.64V23.6h-5.64v5.64z"/><path fill="#627e95" d="M100.12 63.587v-21.77"/><path fill="#1e1e40" d="M99.274 41.816h1.695V63.59h-1.697z"/><circle cx="-1241.348" cy="32.591" r="1.675" fill="#1e1e40" transform="translate(1827.548 -3.286) scale(1.392)"/><path fill="#627e95" d="M19.824 63.608V41.83"/><path fill="#1e1e40" d="M18.977 41.83h1.695v21.78h-1.695z"/><circle cx="-1298.652" cy="32.591" r="1.675" fill="#1e1e40" transform="translate(1827.548 -3.286) scale(1.392)"/><path fill="#fff" d="M56.753 62.795h6.994v6.994h-6.994z"/><path fill="#1e1e40" d="M64.425 70.468h-8.35v-8.35h8.35v8.35zM57.43 69.11h5.64v-5.638h-5.64v5.64z"/><path fill="#fff" d="M96.624 62.795h6.994v6.994h-6.994z"/><path fill="#1e1e40" d="M104.296 70.468h-8.35v-8.35h8.35v8.35zm-6.994-1.357h5.64v-5.637H97.3v5.64z"/><path fill="#fff" d="M16.882 62.795h6.994v6.994h-6.994z"/><path fill="#1e1e40" d="M24.555 70.468h-8.35v-8.35h8.35v8.35zM17.56 69.11h5.64v-5.638h-5.64v5.64z"/><path fill="#627e95" d="M85.52 26.42H63.745"/><path fill="#1e1e40" d="M63.747 25.574H85.52v1.695H63.747z"/><circle cx="-1252.26" cy="21.348" r="1.675" fill="#1e1e40" transform="translate(1827.548 -3.286) scale(1.392)"/><circle cx="-1288.368" cy="21.348" r="1.675" fill="#1e1e40" transform="translate(1827.548 -3.286) scale(1.392)"/><path fill="#627e95" d="M56.753 26.42H34.98"/><path fill="#1e1e40" d="M34.98 25.574h21.773v1.695H34.98z"/><path fill="#fff" d="M60.07 26.123L76.138 42.61l-7.832-.18 3.1 8.266-3.024 1.092-3.3-8.042-5.54 5.358z"/><path fill="#1e1e40" d="M68.002 52.648l-3.166-7.716-6.007 5.81.6-26.248 18.353 18.83-8.49-.192 2.99 7.97L68 52.65zm-2.67-10.083l3.432 8.366 1.767-.635-3.21-8.564 7.174.165-13.782-14.14-.45 19.717 5.072-4.906z"/></svg>