<svg width="120" height="120" viewBox="0 0 120 120" xmlns="http://www.w3.org/2000/svg"><path fill="#4a4797" d="M59.048 26.156c-21.966 0-39.844 17.878-39.844 39.844s17.878 39.844 39.844 39.844S98.892 87.966 98.892 66 81.028 26.156 59.048 26.156z"/><path fill="#1e1e40" d="M60 108c-23.156 0-42-18.844-42-42s18.844-42 42-42 42 18.844 42 42-18.844 42-42 42zm0-80.444c-21.196 0-38.444 17.248-38.444 38.444S38.804 104.444 60 104.444 98.444 87.196 98.444 66 81.196 27.556 60 27.556z"/><path fill="#e94e1b" d="M36.625 42.656v15.28h13.97v37h9.624V93H52.56V56h-13.97V44.592H60.22v-1.938H36.624z"/><path d="M237.492 445.17H183.6v-51.462h87.264v194.184h-33.372z"/><path fill="#fff" d="M81.958 50.87c0-.98.042-1.89.112-2.714.07-.825.154-1.51.252-2.07 0-.517-.294-.853-.88-1.02-.588-.17-1.33-.253-2.21-.253h-19.08v47.133h.21c1.693 0 3.386.098 5.106.28 1.705.182 3.51.28 5.384.28.322 0 .573-.112.74-.35.17-.238.253-.49.253-.77s-.084-.544-.252-.81a1.028 1.028 0 0 0-.67-.462c-1.498-.14-2.7-.322-3.595-.53-.895-.21-1.58-.546-2.07-1.022-.49-.462-.81-1.133-.95-2-.14-.867-.21-2.07-.21-3.622V51.723c0-1.734.46-2.825 1.412-3.273.937-.448 2.462-.67 4.573-.67 1.552 0 2.88.125 4.014.39 1.118.253 2.07.728 2.852 1.414.77.685 1.4 1.622 1.86 2.81.46 1.204.84 2.728 1.12 4.602.04.28.194.476.46.56.252.097.53.125.81.11a1.51 1.51 0 0 0 .77-.28c.238-.167.35-.335.35-.53a80.65 80.65 0 0 1-.252-2.95 44.955 44.955 0 0 1-.11-3.036z"/><path fill="#312783" d="M38.58 44.608V55.99h13.972v37.002h7.672V44.608z"/></svg>