<svg width="120" height="120" viewBox="0 0 120 120" xmlns="http://www.w3.org/2000/svg"><path fill="#4a4797" d="M60 26.156c-21.966 0-39.844 17.878-39.844 39.844S38.034 105.844 60 105.844 99.844 87.966 99.844 66 81.966 26.156 60 26.156z"/><path fill="#1e1e40" d="M60 108c-23.156 0-42-18.844-42-42s18.844-42 42-42 42 18.844 42 42-18.844 42-42 42zm0-80.444c-21.196 0-38.444 17.248-38.444 38.444S38.804 104.444 60 104.444 98.444 87.196 98.444 66 81.196 27.556 60 27.556z"/><path fill="#e94e1b" d="M50.33 21.97h18.28v29.742H50.33z"/><path fill="#1e1e40" d="M69.293 52.41h-19.66V21.286h19.66V52.41zm-18.28-1.38h16.9V22.666h-16.9V51.03z"/><path fill="#e94e1b" d="M65.563 21.97l-2.95-6.49c-1.422-2.677-4.906-2.704-6.368-.04l-3.58 6.53h12.898z"/><path fill="#1e1e40" d="M66.63 22.653h-15.1l4.126-7.528c.806-1.462 2.213-2.336 3.77-2.336 1.586 0 3.007.886 3.8 2.375l.013.04 3.39 7.447zM53.827 21.3h10.697l-2.5-5.506c-.56-1.025-1.516-1.64-2.582-1.64-1.052 0-2.022.602-2.582 1.627l-3.03 5.52z"/><path fill="#e94e1b" d="M50.33 33.61v5.984l-31.368 1.093s-5.137.78-5.137-4.058c0-5.18 4.973-4.374 4.973-4.374L50.33 33.61z"/><path fill="#1e1e40" d="M18.196 41.397c-3.156 0-5.04-1.776-5.04-4.768 0-3.185 1.843-5.084 4.93-5.084.384 0 .657.027.766.04l32.12 1.38v7.256l-31.97 1.107c-.095.026-.382.067-.805.067zm-.096-8.525c-1.653 0-3.62.656-3.62 3.757 0 2.853 2.022 3.44 3.716 3.44.396 0 .656-.04.67-.04h.067l30.726-1.066v-4.727l-30.933-1.325h-.04c.013-.014-.233-.04-.588-.04z"/><path fill="#b2a7a5" d="M81.028 54.527H16.215a1.456 1.456 0 0 0-1.27 2.172c1.215 2.143 3.4 5.517 6.407 8.32 2.39 2.225 5.233 2.06 8.976 3.332l.915.915c.683 1.858 2.978 4.18 5.356 5.205l3.59 1.57c.6.26.957.903.86 1.558-.394 2.433-2.143 7.228-2.84 7.87l-1.42 1.325c-1.34 1.243-1.845 3.252-1.285 5.055l.055.19a1.45 1.45 0 0 0 1.395 1.026h6.558a2.82 2.82 0 0 0 2.65-1.844l.11-.232 1.42-2.46c.26-.45.738-.723 1.257-.723h17.077c.52 0 .997.273 1.257.71l1.557 2.637.11.22a2.63 2.63 0 0 0 2.447 1.666h6.626c.642 0 1.202-.41 1.394-1.025l.055-.19c.56-1.818.056-3.813-1.283-5.056l-1.42-1.327c-.835-.765-3.336-7.828-2.844-9.18 2.172-6.012 10.725-9.728 15.602-11.41 1.83-.627 3.197-2.813 3.675-4.917l.233-1.01c.724-.097 3.115-.944 3.13-1.668l.013-1.285a1.458 1.458 0 0 0-1.463-1.476h-14.09v.026z"/><path fill="#1e1e40" d="M77.995 93.778H71.37c-1.38 0-2.61-.833-3.102-2.118l-.055-.123-1.557-2.637a.776.776 0 0 0-.642-.37H48.936a.746.746 0 0 0-.642.37l-1.42 2.46-.056.122a3.56 3.56 0 0 1-3.32 2.31H36.94a2.17 2.17 0 0 1-2.077-1.53l-.055-.192c-.642-2.077-.055-4.345 1.49-5.793l1.42-1.325c.52-.52 2.227-5.055 2.623-7.46a.718.718 0 0 0-.435-.778l-3.593-1.57c-2.43-1.053-4.835-3.376-5.682-5.466l-.683-.683c-1.134-.37-2.172-.615-3.183-.847-2.227-.52-4.14-.956-5.888-2.582-3.033-2.814-5.233-6.175-6.544-8.498a2.138 2.138 0 0 1 .014-2.16 2.163 2.163 0 0 1 1.872-1.078H95.1a2.17 2.17 0 0 1 1.545.642c.41.424.628.97.628 1.557l-.014 1.282c-.016 1.243-2.23 1.967-3.24 2.24l-.137.575c-.492 2.172-1.967 4.7-4.14 5.438-4.768 1.64-13.088 5.246-15.165 10.97-.097.288.067 1.722.928 4.318.738 2.254 1.503 3.853 1.735 4.1l1.42 1.324c1.546 1.435 2.133 3.716 1.49 5.793l-.054.192a2.22 2.22 0 0 1-2.104 1.516zm-29.06-6.68h17.08c.764 0 1.488.41 1.87 1.065l1.558 2.637c.055.096.11.205.15.328a1.928 1.928 0 0 0 1.776 1.216h6.624a.733.733 0 0 0 .71-.52l.055-.19c.477-1.557.054-3.252-1.094-4.317l-1.42-1.325c-.903-.847-3.662-8.184-3.02-9.946 2.282-6.285 11.025-10.11 16.053-11.83 1.42-.493 2.73-2.296 3.21-4.4l.232-1.01.11-.493.49-.055c.657-.082 2.187-.71 2.5-1.066l.015-1.19a.72.72 0 0 0-.22-.532.754.754 0 0 0-.532-.22h-78.87a.743.743 0 0 0-.643.37.716.716 0 0 0 0 .738c1.27 2.227 3.375 5.465 6.27 8.156 1.463 1.366 3.13 1.75 5.247 2.24 1.037.247 2.212.52 3.47.944l.163.055 1.134 1.134.055.15c.642 1.735 2.883 3.894 4.973 4.795l3.593 1.57a2.158 2.158 0 0 1 1.27 2.324c-.37 2.227-2.104 7.39-3.06 8.28l-1.42 1.324c-1.15 1.066-1.572 2.76-1.094 4.317l.055.19c.096.315.383.52.71.52h6.56a2.11 2.11 0 0 0 1.98-1.38l.15-.342 1.42-2.46a2.23 2.23 0 0 1 1.885-1.078z"/><path fill="#b2a7a5" d="M31.066 68.612S29.07 62.505 29.07 55.21"/><path fill="#1e1e40" d="M30.383 68.83c-.082-.26-2.036-6.297-2.036-13.62h1.435c0 7.09 1.94 13.116 1.954 13.184l-1.353.437z"/><path fill="none" d="M71.315 51.097h13.17"/><path fill="#ea5c1c" d="M84.485 51.74h-13.17a.64.64 0 1 1 0-1.284h13.17a.64.64 0 1 1 0 1.284z"/><path fill="none" d="M88.788 51.097h-1.53"/><path fill="#ea5c1c" d="M88.788 51.74h-1.53a.64.64 0 1 1 0-1.284h1.53a.64.64 0 0 1 .642.642.65.65 0 0 1-.642.642z"/><path fill="none" d="M84.936 45.29l1.216-.395"/><path fill="#ea5c1c" d="M84.936 45.933a.615.615 0 0 1-.6-.437.638.638 0 0 1 .41-.806l1.215-.396a.638.638 0 0 1 .808.41.638.638 0 0 1-.41.806l-1.216.396-.204.027z"/><path fill="none" d="M71.192 48.693l10.766-2.664"/><path fill="#ea5c1c" d="M71.178 49.335a.63.63 0 0 1-.15-1.243l10.78-2.664a.63.63 0 0 1 .764.465.63.63 0 0 1-.465.765l-10.78 2.664-.15.014z"/><path fill="none" d="M80.85 39.266l1.067-.71"/><path fill="#ea5c1c" d="M80.85 39.895a.63.63 0 0 1-.532-.287.655.655 0 0 1 .178-.888l1.066-.71a.655.655 0 0 1 .888.178c.19.287.11.683-.178.888l-1.066.71a.572.572 0 0 1-.355.11z"/><path fill="none" d="M71.192 45.496l7.623-4.754"/><path fill="#ea5c1c" d="M71.192 46.138a.643.643 0 0 1-.546-.3.625.625 0 0 1 .205-.875l7.64-4.754a.624.624 0 0 1 .873.203c.19.3.096.697-.205.874L71.52 46.04a.7.7 0 0 1-.327.097z"/><path fill="#b2a7a5" d="M71.97 87.82s2.186-2.622 6.19-1.024"/><path fill="#1e1e40" d="M71.97 88.532a.746.746 0 0 1-.465-.164.73.73 0 0 1-.096-1.01c.107-.124 2.566-2.993 7.007-1.23.37.15.546.56.396.928a.71.71 0 0 1-.93.396c-3.483-1.394-5.368.792-5.382.82a.635.635 0 0 1-.532.26z"/><path fill="#b2a7a5" d="M43.075 87.425s-2.05-2.227-6.052-.628"/><path fill="#1e1e40" d="M43.075 88.135a.706.706 0 0 1-.52-.232c-.08-.082-1.816-1.83-5.26-.45a.71.71 0 0 1-.928-.397.71.71 0 0 1 .396-.93c4.413-1.76 6.75.698 6.845.807a.714.714 0 0 1-.04 1.01.74.74 0 0 1-.493.192z"/><path fill="none" d="M93.42 58.94H43.8"/><path fill="#1e1e40" d="M93.42 59.664H43.8a.705.705 0 0 1-.71-.71c0-.396.313-.71.71-.71h49.62c.396 0 .71.314.71.71 0 .396-.328.71-.71.71z"/><path fill="none" d="M46.463 77.424H66.11"/><path fill="#1e1e40" d="M46.463 76.714h19.632v1.435H46.463z"/></svg>