<svg width="100" height="100" viewBox="0 0 100 100" xmlns="http://www.w3.org/2000/svg"><path fill="#A9A09F" d="M18.11 78.69L50 97.32l31.89-18.63V20.74L50 17.45l-31.89 3.29z"/><path fill="none" d="M67.22 16.68h.3m-1.51 21.43l.49 1.19M63.42 16.06l.29-.01"/><path fill="#4751A2" d="M57.99 34.38c-2.31-3.45-4.46-13.72-5.18-16.07-.51-1.94-5.82-1.91-6.84-.39-.41.51-2.96 14.08-5.01 16.42-1.02 1.22-.51 3.58 1.43 3.47 4.8-.3 9.6-.41 14.3-.3 1.86-.1 2.43-2 1.3-3.13zM70.8 65.37c0-.92.92-1.64.21-2.24-.92-.72-3.17-.92-4.09-1.32-.42-.21-.82-.51-1.13-.81-.3-1.53-.81-2.96-1.43-4.39-2.24-4.1-26.45 3.96-26.64 3.34-.81-2.54-3.02-1.77-2.72.78 0 0 0 1.45-5.68 2.35-1.02.21-2.49-.64-2.18.38.64 4.94 5.08 9.53 5.69 10.43 5.45 5.66 7.11 17.13 10.3 20.27.27.16 5 2.37 6.27 3.44 1.24 1.05 6.77-3.12 8.69-7.52.62-2.35 1.42-4.25 2.33-6.49.92-2.15 8.74-13.48 10.38-18.22z"/><path fill="#0166A9" d="M49.86 36.63H34.28l3.16 31.47 12.42 3.65 12.42-3.65 3.16-31.47H49.86z"/><path fill="#151841" d="M49.86 72.27l-12.93-3.75-3.16-32.39h32.28L62.9 68.52l-13.04 3.75zm-11.91-4.56l11.91 3.45 11.91-3.45 3.06-30.56H34.9l3.05 30.56z"/><path fill="#15A2D2" d="M60.15 66.29l2.54-27.2H49.97v29.84l10.18-2.64z"/><path fill="#fff" d="M49.86 65.27l-7.84-2.24-.62-6.39 3.77-.1.21 3.34 4.38 1.42 4.68-1.93V54.8l-13.23-.19-.41-3.65 9.47-3.97-9.68-.2-.3-3.65h19.24l-.1 3.86-9.37 3.86 8.76.11-.92 11.96-8.04 2.34zM38.11 48.33c-1.43-2.65-5.06-1.6-6.89-3.53.51 0 .67-.14 1.17.17 2.21.99 1.32-.41.92-.92-1.53-2.04-2.46-2.04-4.61-1.22-.92.3-3.08 1.05-3.69 1.87-.92 1.32-2.22 2.82-3.55 3.95-1.19 2.07-.72 10.81-.81 12.03.58 2.42 2.6 2.42 2.6 2.42 2.04.92 8.88-.4 8.88-.59 1.32-.1 2.54-.69 2.72-2.08.21-.41-.51-.96-.92-1.05-.21-.1-.3-.21-.1-.3 2.29-.25 2.61-3.14 1.33-3.47 1.32-.16 2.07-.52 2.18-1.65.21-.21-.13-1.12-.24-1.51-.1-.41-1.64-.72-1.74-.62.72-.3 1.53-.3 2.24-.62 1.12-.54 1.02-1.86.51-2.88z"/><path fill="#A7A9AC" d="M38.21 49.65l-.1-.51c.1-1.43-.92-2.75-2.24-2.96l-1.02-.62c-.41-.21-.81 0-1.02.41 0 .1 0 .1-.1.21-.3.1-.51.41-.41.81l.21.62c0 .92 0 1.64-.41 2.45-.41 1.02-.81 2.14-.3 3.16l.21.3c-.1.62-.21 1.22-.21 1.84 0 .1 0 .3.1.41 0 1.13-.3 2.14-.92 3.07-.21.3-.1.72.21.92v.1l-.1.1c-.3.62-.62 1.13-.92 1.73-.3.51.1 1.02.62.92.3.3 1.53-.41 1.64-.62.72-.51 2.04-1.53.92-2.35-.1-.1-.3-.21-.41-.21.1-.21.3-.41.72-.62.92-.62 1.43-1.53.92-2.65 0-.1-.1-.21-.1-.21l.3-.62c1.02-.62 1.84-1.53 1.53-2.86-.1-.41-.51-.51-.81-.51l-.62.1c.51-.21 1.02-.41 1.32-.62l.21-.1c.21-.1.3-.21.3-.3.29-.05.69-.67.48-1.39z"/><path fill="#fff" d="M78.98 49.56c-.1-.51-.21-1.02-.72-1.32-.81-.51-2.94-3.59-3.45-4.21-1.94-2.35-7.9-2.82-9.12.64-.1.41.81 1.02.41 1.11-.62 0-2.86.82-3.17 1.14-.21.21-.51.51-.62.81-.62.72-1.14 2.4-.42 3.21.62.72.84.56.93 1.37.1.72-.07 1.88.33 2.5.51.81 1.81.67 2.63 1.08-.21-.1-.41-.1-.72-.1s-.72.3-.72.72c.1 1.32-.47 2.29 2.24 3.16h-.1c-.51-.1-1.63-.11-1.31.4-.38 2.63 2.74 2.35 4.17 2.46 2.35.21 3.66.58 6.01.58 1.43 0 3.82-.1 3.93-1.62.12-1.66-.11-11.73-.3-11.93z"/><path fill="#A7A9AC" d="M68.35 61.59v-2.86c-.21-1.13-1.53-2.14-.81-3.37.21-.3.1-.62-.1-.81-.1-.62-.1-1.22.1-1.84.1-.21.3-.92.3-1.02.21-.21.21-.51.1-.81-1.02-1.53-.92-3.37.21-4.8.21-.3.21-.62 0-.92.21-.1-1.32.21-1.32.21-.1.21-.92.21-1.23.41-.81.62-1.94.41-2.66 1.13-.41 0-1.87 1.41-1.02 3.77.29.79 1.02 1.22 1.94 1.43-.41.1-1.14.04-1.14.65-.1 1.13.44 2.39 1.25 2.69.3.41.21 1.01.21 1.61-.05.67 1.13 1.44.87 2.7-.34 1.7 1.42 2.56 3.19 2.94.32-.09.21-.6.11-1.11z"/><path fill="#151841" d="M66.2 45.47c.51-1.43 2.24-3.16 3.88-2.96 1.43.3 3.47 1.02 4.6 1.94 1.02.92 1.53 2.35 2.55 3.37.92.92 2.24 1.43 3.58 1.43.72 0 .72-1.13 0-1.13-2.66.1-3.58-2.35-4.9-4.08-.92-1.22-2.55-1.64-3.98-2.14-1.32-.51-2.66-.92-3.98-.1-1.13.72-2.24 2.04-2.66 3.26-.41.83.71 1.13.91.41zM34.44 86.08c.51-.3 1.02-.51 1.53-.62.41-.1.62-.51.51-.81-.1-.41-.51-.51-.81-.51-.72.1-1.32.41-1.94.72-.63.51-.01 1.73.71 1.22zm44.02-23.77l-.62.62c-.21.3-.3.72 0 .92.21.21.72.3.92 0l.62-.62c.21-.3.3-.72 0-.92-.21-.21-.72-.21-.92 0zM68.05 50.16c-.3-.51-.3-1.13-.21-1.73.21-.72-.81-1.02-1.02-.41-.21.92-.1 1.73.3 2.65.31.62 1.23.11.93-.51zm-.83 2.77c-.1.51-.21 1.13-.1 1.64 0 .3.41.41.72.41.3-.1.41-.41.41-.72-.1-.41 0-.72.1-1.13.1-.62-.92-.92-1.13-.2zm-34.82-4.6c.1.62 0 1.22-.21 1.73-.3.62.62 1.22.92.51.41-.81.51-1.73.3-2.65-.1-.51-1.22-.21-1.01.41zm-.41 4.9c.1.3.1.72.1 1.13 0 .3.1.62.41.72.3.1.62-.1.72-.41.1-.62.1-1.13-.1-1.64-.21-.82-1.34-.52-1.13.2zM21.77 64.75a.95.95 0 0 0 .69-.51h.02c.4-.16.61-.39.68-.72.38.07.76.13 1.15.18v.02c.1.92.28 1.81.53 2.67l-.63.39c-.72.41-.1 1.64.72 1.22l.38-.23c.98 2.68 2.48 5.17 3.71 7.77-.15.33.06.73.41.9.44 1.01.84 2.02 1.13 3.09.21.81 1.53.51 1.32-.41-.28-1.04-.65-2.05-1.08-3.03.22-.12.44-.24.68-.34.81-.41.1-1.64-.72-1.22-.19.07-.38.17-.56.27-1.26-2.59-2.78-5.08-3.74-7.76l.1-.06c.75-.47.21-1.55-.53-1.31-.16-.61-.29-1.22-.38-1.85.38.02.76.02 1.15 0 1.2 7.59 8.59 12.54 10.9 19.69 1.13 3.37 2.66 6.63 4.19 9.9.19.42.39.84.6 1.27L45 96.42c-.33-.66-.67-1.32-.97-1.97-1.64-3.37-3.26-6.84-4.6-10.41-.62-1.64-1.13-3.16-1.94-4.59-1.02-1.84-2.35-3.58-3.58-5.2-2.32-3.11-5.23-6.53-5.8-10.53.93-.13 1.87-.32 2.73-.48 1.94-.3 5.41-.92 4.49-3.67l-.04-.13.55-.39c.91-.54.92-2.13.7-3.2.33-.17.61-.39.83-.68.68-.97 1-2.04.49-3.11.18-.07.36-.16.53-.25.92-.62 1.02-2.24.81-3.16-.44-1.85-2.26-2.65-4.15-3.24.17-.24.32-.5.47-.64.81-1.22 1.53-2.45 2.24-3.67 1.94-3.26 4.09-6.63 5.62-10.2 1.02-2.35 1.53-5.01 2.15-7.45.39-1.77.88-3.54 1.15-5.36L34.8 20.1c-.13.53-.24 1.07-.36 1.6-.3 1.84-1.02 3.67-.81 5.61.1.62.92 1.02 1.23.3.72-1.73 2.66-3.16 4.09-4.29.72-.51 1.02-.62 1.94-.72 1.32 0 2.04.92 2.55 2.04.09.18.27.46.31.64-.41 1.7-.8 3.07-1.44 4.76-1.23 3.26-3.26 6.42-5.01 9.39-.72 1.32-1.53 2.54-2.35 3.88-.15.29-.35.53-.52.8-.25-.46-.56-.9-.9-1.3 1.76-2.25 2.86-4.87 3.06-7.67.1-.92-1.32-.92-1.32 0-.19 2.51-1.12 4.82-2.68 6.79l-.09-.06c-1.32-.81-2.66-.41-3.98.1-1.43.51-3.07.92-3.98 2.14-1.18 1.54-2.11 3.62-4.08 4.02l-.11-.04c-.5-.07-1-.19-1.53-.29v-1.98 3.43c.36.07.73.15 1.13.19.17.04.33.02.45-.04-.35 3.76-.44 7.6-.25 11.34a.86.86 0 0 0 0 .32c.07.46.22.87.45 1.26-.07.17-.06.38.06.52.01.17.05.35.1.51-.65 0-1.28-.04-1.93-.12v1.45c.95.12 1.95.13 2.94.07zm17.16-43.14c-1.29.74-2.8 1.89-3.94 3.19.17-.87.41-1.73.57-2.58.11-.78.25-1.55.46-2.31l9.28-1.58c-.25 1.5-.61 3.01-.96 4.41l-.12.5c-1.17-1.68-3.23-2.79-5.29-1.63zm-17.18 27.3c1.67-.87 2.52-2.82 3.88-4.34.92-1.02 2.96-1.43 4.3-1.84 1.02-.3 1.74-.1 2.45.62.46.52.87 1.04 1.23 1.65-.72-.19-1.38-.39-1.94-.63-.72-.41-1.23.51-.62.81 1.03.46 4.96 1.72 5.62 2.04 1.23.62 1.53 1.43 1.43 2.75-.1 1.64-2.75 1.43-3.77 1.53-.69.1-.69 1.11.01 1.12.8-.12 1.66-.13 2.5-.28l.06.18c.41.81 0 2.04-.92 2.45-.81.3-1.74.41-2.66.62-.72.21-.41 1.22.3 1.02.55-.15 1.25-.23 1.93-.39.11.47.1.9.01 1.31-.1.51-.3.62-.62.92-.3.41-1.13.3-1.53.41-.51.1-.92.41-1.32.72-.51.41 0 1.32.51.92.57-.39 1.15-.58 1.81-.69l.02.09c.81 2.35-4.49 2.45-5.92 2.65-2.28.36-4.23.16-6.45-.33l-.01-.02.02-.06c-.73-.33-.57-1.15-.62-1.32v-.02c-.2-3.95-.1-7.97.3-11.89zm59.18 16.15c-.22 0-2.37-.19-2.05-.81.12-.22 1.16-.53 1.43-2.65.06-.22-.01-8.16-.38-11.91.29.05.59.07.89.07.12 0 .22-.02.3.01v-1.74h-.01c-.09-.11-.23.11-.41.11-2.66.1-3.58-2.35-4.9-4.08-.92-1.22-2.55-1.64-3.98-2.14-1.32-.51-2.66-.92-3.98-.1a7.5 7.5 0 0 0-1.58 1.36c-1.7-2.13-2.61-4.65-3.52-7.17-.1-.92-1.43-.51-1.23.3.92 2.86 1.94 5.61 3.88 7.85l.09.09c-.11.21-.21.4-.28.59-.25-.36-.45-.73-.73-1.1l-2.45-3.98c-1.84-3.07-3.98-6.33-5.2-9.69-.76-1.94-1.24-4.01-1.67-6.12 1.41-1.62 3.17-1.49 4.73-.3 1.43 1.02 3.07 2.45 3.88 4.08.3.72 1.23.21 1.23-.3.21-1.84-.41-3.58-.72-5.4-.16-.88-.29-1.54-.46-2.18l-11.47-1.92c.25 1.63.65 2.85 1.06 4.7 0 0 1.32 6 2.15 8.05 1.32 3.47 3.58 6.84 5.52 10.1.81 1.32 1.64 2.75 2.55 4.08.16.21.33.53.53.84-1.47.54-2.73 1.33-3.08 2.84-.21 1.02-.1 2.35.62 3.07.18.18.4.32.65.42-.52 1.08-.12 2.16.47 3.14.21.29.51.51.85.68-.23 1.07-.18 2.27.57 3.2.11.16.33.29.56.41l-.05.1c-.92 2.75 2.55 3.37 4.49 3.67l1.3.18c-.57 3.9-3.28 7.31-5.48 10.52-1.23 1.64-2.35 3.26-3.37 5.1-.92 1.64-1.53 3.26-2.15 5.01-1.23 3.47-2.86 6.84-4.39 10.1-.62 1.22 1.27.72 1.77-.37 1.53-3.26 3.07-6.53 4.19-9.9 1.32-3.77 3.58-6.93 5.82-10.2 2.17-3.07 4.36-6.22 4.95-10.02l.67.09v.04c.1 1.32.21 2.54 0 3.88-.21 1.43-1.02 2.75-1.74 3.98a46.074 46.074 0 0 0-2.86 6.53c-.81 2.35-1.53 4.8-2.15 7.25-.49 2.16-.49 4.57-.49 4.57l1.37-.73c.12-1.96.04-2 .56-3.93.62-2.45 1.43-4.8 2.15-7.14.81-2.45 2.04-4.8 3.26-7.04 1.23-2.35 1.43-4.48 1.23-7.14v-.11l.11.01c1.1.06 2.26-.12 3.37-.36-.58 1.74 2 2.3 3.77 2.56v-.96l-.19-.09zM53.75 18.15l8.54 1.43c.22.67.3 1.24.44 2.23.17 1.05.49 2.11.68 3.15-1.1-1.22-2.54-2.24-3.75-3.05-1.66-1.1-3.49-.62-4.86.45-.37-1.63-.78-2.77-1.05-4.21zm24.59 43.84l-.07.13c-2.2.53-4.3.76-6.65.39-1.32-.21-6.64-.3-5.92-2.65l.01-.04c.28.04.58.06.8.13.41.1.72.3 1.13.62.62.41 1.13-.51.51-.92-.81-.62-1.53-.72-2.45-.92-.3-.1-.81-.62-.92-.92-.17-.51-.19-1.09-.09-1.62.65.17 1.36.27 1.92.4.72.21 1.02-.92.3-1.02l-2.66-.62c-.92-.21-1.23-1.64-.92-2.45l.06-.19c.86.15 1.81.13 2.5.19.72.1.72-1.02 0-1.13-1.02-.1-2.04-.21-3.07-.41-.81-.21-.72-1.32-.72-1.94 0-1.02.72-1.53 1.53-1.94.47-.25 1.81-.68 1.93-.79 1.23-.4 2.5-.72 3.69-1.25.62-.21 0-1.13-.62-.81-.63.31-1.42.54-2.23.77.32-.64.76-1.02 1.21-1.48.81-.72 1.35-1.43 2.37-1.22 1.43.3 3.46 1.22 4.59 2.14 1.02.92 1.53 2.35 2.55 3.37.39.39.84.69 1.33.92v.1c.41 3.98.51 8.06.3 12.03l.02.21c-.11.37-.26.68-.43.92z"/><path fill="#A9A09F" d="M81.11 48.02c-.05.11-.23.11-.41.11-2.66.1-3.58-2.35-4.9-4.08-.92-1.22-2.55-1.64-3.98-2.14-1.32-.51-2.66-.92-3.98-.1a7.5 7.5 0 0 0-1.58 1.36c-1.7-2.13-2.61-4.65-3.52-7.17-.1-.92-1.43-.51-1.23.3.92 2.86 1.94 5.61 3.88 7.85l.09.09c-.11.21-.21.4-.28.59-.25-.36-.45-.73-.73-1.1l-2.45-3.98c-1.84-3.07-3.98-6.33-5.2-9.69-.76-1.94-1.24-4.01-1.67-6.12 1.41-1.62 3.17-1.49 4.73-.3 1.43 1.02 3.07 2.45 3.88 4.08.3.72 1.23.21 1.23-.3.21-1.84-.41-3.58-.72-5.4-.16-.88-.29-1.54-.46-2.18l17.89 2.78v25.53l-.59-.13zM34.8 20.1c-.13.53-.24 1.07-.36 1.6-.3 1.84-1.02 3.67-.81 5.61.1.62.92 1.02 1.23.3.72-1.73 2.66-3.16 4.09-4.29.72-.51 1.02-.62 1.94-.72 1.32 0 2.04.92 2.55 2.04.09.18.37.43.31.64-.41 1.7-.8 3.07-1.44 4.76-1.23 3.26-3.26 6.42-5.01 9.39-.72 1.32-1.53 2.54-2.35 3.88-.15.29-.35.53-.52.8-.25-.46-.56-.9-.9-1.3 1.76-2.25 2.86-4.87 3.06-7.67.1-.92-1.32-.92-1.32 0-.19 2.51-1.12 4.82-2.68 6.79l-.09-.06c-1.32-.81-2.66-.41-3.98.1-1.43.51-3.07.92-3.98 2.14-1.18 1.54-2.11 3.62-4.08 4.02l-.11-.04c-.5-.07-1.51-.31-2.05-.41V22.6l16.5-2.5z"/><path fill="#151841" d="M50 100L16 80.14V19.5L50 16l34 3.5v60.64L50 100zM19.04 78.44L50 96.53l30.96-18.09V22.19L50 19l-30.96 3.19v56.25z"/></svg>