<svg width="100" height="100" viewBox="0 0 100 100" xmlns="http://www.w3.org/2000/svg"><path fill="#A9A09F" d="M18.11 78.69L50 97.32l31.89-18.63V20.74L50 17.45l-31.89 3.29zm49.11-62.01h.3m5.42 5.89"/><path fill="#fff" d="M60.51 71.75l.41 2.42.41 2.33-11.48 13.11-1.27-1.49 1-11.64 2.63.02 4.21-1.21zm8.01-16.25c-.09-.59-1.95-2.13-2.05-2.71-.2-1.16-4.96-14.14-6.91-14.53-2.34-.39-4.87-.29-7.2-.2-.2-.87-2.93.78-2.83 1.16-.09.77-.09 26.94-.09 26.94 0 1.55.2 7.94.39 9.01 0 0 0 1.57.68 1.65 4.8.54 8.57-3.1 10.61-5.13 1.08-1.07 1.94-2.23 2.62-3.49.88-1.55 0-3.55 1.17-4.9.32-.44 1.88-.55 2.15-1.01 1.19-2.07 1.78-4.34 1.46-6.79zm-7.49-14.53l.09-.09.2.29c-.2-.1-.2-.1-.29-.2z"/><path fill="#151841" d="M54.9 67.51c-.29-.2-1.46-.77-3.02-.68-.49 0-1.26.39-1.85.39v.97c.97 0 1.65-.59 2.43-.59.59 0 1.65.09 2.14-.09-.88.29-2.92.87-4.67.87v1.65c3.51 0 4.19-1.84 4.97-2.52zm5.54-13.07c.09-.09.09-.2 0-.29-.09-.09-2.24-1.55-4.96-.77-1.56.48-2.05 1.16-2.05 1.25-.09.09 0 .2.09.29h.09c.09 0 .2 0 .2-.09 0 0 .29-.48 1.36-.87.2.09 0-.2.09 0-.09.09 0 .48 0 .68 0 .59.59 1.07 1.36 1.07.77 0 1.36-.48 1.36-1.07 0-.29 0-.68-.09-.87-.09-.09-.09 0 0 0 1.26.2 2.24.87 2.24.87l.31-.2zm7.31 2.52c.2 1.65-.88 3.09-.88 3.09s-.49 2.52-1.94 2.52c-.2 0-.49 0-.68-.09-.09.29-.2.59-.2.87l-.68 3.29-.09.2c-1.46 3.58-4.87 6.1-7.69 7.94-2.05 1.36-3.31.87-5.84.87v1.44l.29.09c2.73 0 3.99.29 6.43-1.25 3.11-2.04 6.72-4.84 8.28-8.72l.09-.2c.29-.68.49-2.42.68-3.2 1.56-.29 2.43-1.93 2.82-3.39"/><path fill="#F15A29" d="M73.68 57.05c-.77-.39-1.56-.97-2.05-1.65.59-.29.29-.59.88-.77-2.62-1.16-3.11-.97-3.79-3.77-.49-2.23-.59-6.78-.68-9.1 0-1.84.09-3.77-.59-5.52-.59-1.55-1.17-2.91-2.34-4.17-2.53-2.61-5.26-5.52-8.86-6.1-1.36-.2-4.28-.59-6.81-.68v16.65c.77 1.25.77 3 2.34 3.68 1.08.48 5.26 3.1 5.26 3.1s-.59-4.07.49-4.36c1.17-.29 1.85 4.26 1.85 4.26 1.65.09.85-3.6.37-5.35 3.92.18 2.15 3.79 2.55 4.67 1.76 4.36.68 6.01 2.24 9.49 1.17 2.52 2.43 1.75 4.47 3.58.09-.68.29-1.36.49-2.04.68.39 1.46.59 2.24.48 0-.48-.09-.97-.39-1.36 1.36.03 1.46-.45 2.33-1.04z"/><path fill="#151841" d="M74.17 57.08c.04-.17 0-.34-.19-.42-.63-.32-1.2-.7-1.66-1.2l.5-.44c.29-.2.29-.68 0-.77-1.08-.48-2.53-.77-3.11-1.93-.77-1.45-.77-3.39-.88-5.04-.09-1.75-.2-3.49-.2-5.23 0-2.13 0-4.26-.68-6.29-1.26-3.49-4.18-6.29-7.2-8.42-3.11-2.13-7.4-2.23-10.99-2.42-.29 0-.49.2-.49.48v16.09c0 .87.49 1.55.77 2.42.77 2.04 2.62 2.42 4.09 3.88.59.59.68.68 1.36.97l1.56.48c.39.09.59-.2.59-.59-.09-.48-.09-1.07-.09-1.55 0-.29 0-2.61.49-2.04.77.97.97 2.61 1.17 3.77 0 .2.29.39.39.29 2.26-.17 1.1-3.83.62-5.57.97.13 1.72 2 1.72 2.67 0 .87 0 1.65.29 2.42.68 1.84.88 3.77 1.08 5.72.2 1.45.59 3.2 1.56 4.45.97 1.25 2.73 1.65 3.99 2.72.2.2.68.2.77-.2.07-.5.19-1.01.34-1.51.61.23 1.25.35 2 .35.2 0 .49-.2.49-.48 0-.37-.04-.69-.14-1 .63-.2 1.01-.59 1.68-1.04.21-.14.24-.37.17-.57zm-8.84.65c-.97-1.84-.97-3.88-1.26-5.81-.2-1.16-.49-2.32-.88-3.39-.39-1.07-.09-1.93-.29-3-.29-1.25-1.85-3.2-3.31-2.72-.2.09-.39.29-.29.59.17.59 1.15 3.84.69 4.72-.25-1.38-.78-4.23-2.05-4.14-1.53.16-1.33 2.64-1.1 4.15-.21-.07-.42-.14-.64-.19-.77-.29-.88-.48-1.56-1.07-.77-.68-1.65-1.16-2.53-1.75-.88-.48-1.17-1.84-1.56-2.81-.59-1.25-.44-2.96-.44-4.32l.07-12.36c1.88.1 3.8.3 5.68.57 2.14.29 4.13 1.48 5.78 2.84 1.46 1.25 3.11 2.72 4.28 4.26 1.36 1.93 1.94 4.36 2.05 6.68.09 3.39 0 6.88.49 10.26.2 1.07.39 2.42 1.08 3.2.62.7 1.56 1.08 2.41 1.41l-.27.24c-.29.18-.29.48-.09.68.45.59.94 1 1.54 1.39-.43.34-.85.69-1.45.77-.29 0-.59.39-.39.68.11.16.19.36.23.57-.53-.04-.99-.15-1.51-.37-.29-.09-.59 0-.68.29-.19.45-.3.9-.38 1.35-1.28-.83-2.8-1.33-3.62-2.72zm-5.47-8.24c-1.08 0-6.61.87-6.91 1.55-.09.39.2.77.88.87.59 0 3.99-.87 5.75-.97 1.76-.09 3.02 0 3.02 0s-1.66-1.45-2.74-1.45zm-7 13.96c-.59-.2-.77-.2-1.26-.09l-.39.2c-.39.09-.59.2-.88.2v.48c.39 0 .77-.2 1.08-.29l.29-.2c.29-.09.39-.09.88.09.49.09 1.08.09 1.56-.2.2-.2.39-.48.39-1.07 0-.2-.2-.29-.29-.2-.2 0-.29.09-.2.29 0 .29 0 .48-.2.59-.21.29-.79.2-.98.2zm7.2 8.9c.09 1.55.29 3.09.88 4.56.59 1.46.97 3.58 2.82 3.97 1.17.2 1.65-1.55.49-1.75-.88-.2-1.46-2.52-1.76-3.29-.39-1.16-.49-2.32-.59-3.49-.09-1.16-1.94-1.16-1.84 0z"/><path fill="#A9A09F" d="M76.25 82.64c-.29-.26-.65-.52-.9-.6l-6.91-1.45c-.35-.08-3.24.71-3.51-1.69-.09-.81-1.68-.52-2.32-1.21-.29-.29-.67-.9-.87-.6-.2 0-8.28 9.03-11.87 12.52l-.09.09.09 6.97 26.38-14.03z"/><path fill="#151841" d="M77.29 82.33c-3.63-1.05-7.27-1.71-10.99-2.2-.01-.24-.07-.47-.2-.7-.77-1.45-2.43-1.93-3.11-3.58-.09-.2-.49-.39-.68-.29-.22.08-.44.21-.66.36-.27-.13-.61-.1-.81.23-.68 1.25-1.65 2.23-2.62 3.29l-3.02 3.39c-2.14 2.42-4.28 4.75-6.43 7.17-.59.59.39 1.55.88.87 2.14-2.42 4.28-4.75 6.43-7.17l3.41-3.77c.71-.77 1.47-1.55 2.03-2.47.17-.17.37-.36.57-.49.49.81 1.16 1.44 1.96 2 1.08.77.77 1.65.29 2.72-.49.87-.97 1.75-1.36 2.72-1.65 3.09-3.31 6.2-4.96 9.4-.39.77.68 1.36 1.08.68l5.84-11.14c.33-.6.88-1.36 1.17-2.13 3.7.48 7.3 1.16 10.9 2.23.67.15.96-.93.28-1.12z"/><path fill="#4751A2" d="M50.1 36.75L34.38 42.6l-3.24 4.65-.2 7.5-5.85 17.53-2.73 5.53L50.1 91.32z"/><path fill="#151841" d="M50.1 23.98l-.64-.03c-1.68-.04-8.76.16-13.96 5.93-3.79 4.17-4.46 17.43-4.56 21.59 2.92-6.29 5.25-7.35 6.42-8.03 1.36-.87 3.03-1.08 6.14.58 2.02 1.11 4.31 1.56 6.6 1.55V23.98zm0 73.27V80.53c-.09-.05-.18-.11-.27-.1-.35-.47-.76-1.13-.76-1.13 0-.39-4.2-1.85-4.29-1.85-.12-.05.21-.51.36-.97h4.96v-2.8h-.55v-8.61h.55V63.7h-2.71s.3-3.37 2.71-3.4V50.23c-2.28-.02-4.17-.58-4.56-.58-.55-.07-2.19-1.57-5.08-1.4-.67.04-1.42.17-2.22.43-4.28 1.45-6.13 8.82-6.72 10.86-.59 2.04-1.74 6.47-3.28 11.71-1.41 4.46-4.23 5.98-5.08 6.36-.16-.38-.54-.68-1.06-.55-6.73 1.52-1.64 2.16-2.31 3.98C29.85 86.58 48.88 96.6 50.1 97.25zm-6.99-23.57h-.58l.58-1.19v1.19zm4.01-8.64h.85v8.64h-.85v-8.64zm-2.46 4.56l.88-1.76v5.84h-.88V69.6zm-.49-8.33c-1.17 1.37-6.6 1.46-6.6 1.46l.88 5.9-2.16-6.78c3.22.58 7.88-.58 7.88-.58z"/><path fill="#4751A2" d="M41.36 58.95c-2.05 0-3.79-.2-3.79-.2h-.18c-.09 0-1.76-.68-2.14-2.23-.29-1.07.2-2.32 1.36-3.68 1.36-1.45 3.21-2.23 5.35-2.23 2.43 0 4.87 1.07 5.16 2.42.2.39 1.17 2.61 0 4.56-.6.88-2.45 1.36-5.76 1.36zm-3.7-1.16c.29 0 1.94.2 3.7.2 3.9 0 4.77-.68 4.96-.97.97-1.65 0-3.68 0-3.68v-.09c-.2-.68-1.94-1.75-4.28-1.75-1.26 0-3.21.39-4.67 1.93-.97 1.07-1.36 2.04-1.17 2.81.2.96 1.27 1.45 1.46 1.55zm-1.24 20.62c-.6-.09-.42 1.35-.4 1.55.29 1.45.69 2.9.88 4.44.09.87 0 1.96-.4 2.74-.59 1.16-1.86.68-2.83.49-1.56-.39-3.11-.89-4.47-1.76l-3.59-2.62c-.59-.39-1.19.59-.61.97 1.85 1.07 3.23 2.62 5.17 3.41.88.39 1.74.66 2.71.85.77.2 1.86.59 2.74.4 3.72-.9 2.13-5.98 1.58-8.79 2.34 1.36 4.71 2.8 6.78 4.62 1.85 1.65 2.92 4.08 5.35 5.14.59.29 1.16-.69.58-.97-2.34-1.07-3.5-3.46-5.35-5.11-1.01-.92-2.11-1.74-3.25-2.49-1.5-.99-3.07-1.88-4.62-2.77a.693.693 0 0 0-.27-.1z"/><path fill="#151841" d="M50.1 46.25c-.35 0-3.83.01-6.69-1.55-1.51-.87-2.69-1.21-3.68-1.25a4.12 4.12 0 0 0-2.46.67c-1.36.87-4.95 2.33-8.85 14.54-3.9 12.21-5.14 15.11-5.14 15.11s-.79 2.5-.61 3.07c.18.58 2.64-1.63 4.59-5.9 1.94-4.26 3.88-17.91 8.55-21.59 4.67-3.68 7.61-1.65 9.15-.97.95.38 2.94.75 5.14.76v-2.89zM50 100L16 80.14V19.5L50 16l34 3.5v60.64L50 100zM19.04 78.44L50 96.53l30.96-18.09V22.19L50 19l-30.96 3.19v56.25z"/></svg>