<svg width="100" height="100" viewBox="0 0 100 100" xmlns="http://www.w3.org/2000/svg"><g transform="translate(.92 .202) scale(1.09684)"><path fill="#D7D1D0" d="M16 71.8l29 16.9 29.1-16.9V19L45 16l-29 3"/><path class="st1" fill="#EAE2E1" d="M37.4 16l5.5 31.1 5.3 3.2L52.5 16M20.2 18.6l22.7 33.7-2.2 1.7-24.5-20.7-1.4-14.7"/><path class="st2" d="M58.3 50.6L42.4 34.1l-1.9.5s-.6 3.5-1.9 5.2C36 43 16 48.7 16 48.7l.1 24.8 42.2-22.9z" fill="#17193F"/><path class="st2" d="M58.8 59.5c.2-.1 12.2-4 12.6-7.8.5-3.8.7-6.2.7-6.2l-1.5.2s-2.3 3.4-8.9-.3l-.5.6-.6 1-2.3-1.2L53 59.5h5.8z" fill="#17193F"/><path class="st3" fill="#FF4E23" stroke="#17193F" stroke-linecap="round" stroke-linejoin="round" stroke-miterlimit="10" d="M64.4 37.8L59.5 16l14.2-5.4 5.7 21.5z"/><path class="st2" fill="#17193F" d="M57 50.3L42.9 29.6l11.5-10.1 14.7 20.1"/><path class="st4" fill="#ACA1A1" stroke="#17193F" stroke-linecap="round" stroke-linejoin="round" stroke-miterlimit="10" d="M52.9 60.6L31.8 49.2l8-17.8L59.6 45z"/><path class="st3" fill="#FF4E23" stroke="#17193F" stroke-linecap="round" stroke-linejoin="round" stroke-miterlimit="10" d="M45.3 72.5l-23.1-13 7-20.9L52.5 53z"/><path class="st5" fill="#FFF" stroke="#17193F" stroke-linecap="round" stroke-linejoin="round" stroke-miterlimit="10" d="M42.9 69.7L19.6 59.1 21 42.8l23.1 11.4z"/><path class="st6" d="M74.9 71.4l-.8-27.1h-2.7s-1.9 5.5-3.2 7.2c-2.6 3.3-22.7 10.1-22.7 10.1l.1 27.4 29.3-17.6zM16 51.4v20.7l29 16.6.5-26.9L16 48.7" fill="#4343BF"/><path class="st5" fill="#FFF" stroke="#17193F" stroke-linecap="round" stroke-linejoin="round" stroke-miterlimit="10" d="M24.5 58.4v9.2l9.4 4.9v-9.8z"/><ellipse class="st2" cx="41.8" cy="64.1" rx=".6" ry=".9" fill="#17193F"/><ellipse class="st2" cx="19.5" cy="54.9" rx=".6" ry=".9" fill="#17193F"/><ellipse class="st2" cx="41.8" cy="82.6" rx=".6" ry=".9" fill="#17193F"/><ellipse class="st2" cx="19.5" cy="69.6" rx=".6" ry=".9" fill="#17193F"/><path class="st7" d="M45.3 89.7l.2-27.9s20.4-8.2 21.6-9.2c3.2-2.8 4.2-8.3 4.2-8.3h3.5M14.8 48l30.6 13.6" fill="none" stroke="#17193F" stroke-linejoin="bevel" stroke-miterlimit="10"/><path class="st2" d="M73.4 34.4c-.1 0-.2 0-.2.1v36.7L45 87.7 16.8 71.2V20L45 17.1l15.2 1.6c-.7-.8-.7-2.1-.1-2.8L45 14.3l-31 3.2v55.3l31 18.1 31-18.2V33.2c-.7.5-1.6.9-2.6 1.2z" fill="#17193F"/><path class="st2" fill="#17193F" d="M49.5 73.8v2.4l19.6-9.5v-2.4M49.5 69v2.5l19.6-9.1V60"/></g><path fill="none" d="M68.23 87.88V56.36m5.79-7.48l9.31-6.29M31.7 56.36v31.52m-5.79-39.11l-9.42-6.27"/></svg>
