<svg width="100" height="100" viewBox="0 0 100 100" xmlns="http://www.w3.org/2000/svg"><path fill="none" d="M68.23 87.88V56.36m5.79-7.48l9.31-6.29M31.7 56.36v31.52m-5.79-39.11l-9.42-6.27"/><path d="M45.43 94.002c.33-1.1.77-9.9.88-10.89.11-.33.33-.66.44-.99 1.1-2.53 1.21-4.838 1.978-7.918.33-.11.88-1.87 1.21-2.09.22 0 .33-.11.33-.22 1.43-.55 2.86-1.1 4.07-2.09 2.31-1.1 5.94-5.17 4.95-5.94-2.75-2.2-7.59-5.828-10.56-7.368l-1.87-.88c0 .11-.11.99-.11 1.65-.11-1.1-.66-1.98-1.32-2.97-.55-.55-1.21-1.32-1.87-1.87.44-.11.77-.44 1.1-.77.11.33-.11.77.22.99.22.33 1.76 2.53 3.85 1.98.44.22.77.55 1.1.77.22.11 1.32 1.76 1.98 1.87.11 0 1.65-.22 1.76-.11.99.88.33 1.65 1.21 2.64 1.76 1.65 3.52.77 4.95-.66 1.1-.88 1.43 1.32 1.87.22 1.1 0 2.86-4.73 1.87-5.72-.11-.22-.11-.44-.33-.55l-.11-.33c-.55-.66-1.21-1.43-1.87-1.98-.22-.22-.11-.44-.33-.44 1.21-2.53-.44-5.718-2.86-6.818-.66-.11-1.32-.66-1.87-1.21.33.33-.33-.33-.44-.55l-.88-.88s-.22-.22-.66-.55c0-.11-.22-.11-.22-.11h-.11c-.44 0-.88-.22-1.21-.44-.99.88-2.75.99-3.63-.55-.22-.33-.33-.77-.33-1.21v-.11c-.11 0-.44-.22-.44-.22-.22-.11-.33-.22-.55-.33h-.11c-.33-.11-.55-.11-.88-.22h-.99c-.33.11-.88.11-1.21.11-.33.33-.66.44-.99.55-.22.22-.55.55-.33.99-.11 0-.22.77-.33.99-1.43 1.32-1.1 3.3 0 4.84-2.2.33-4.288 1.54-6.158 2.97-.77-.11-1.54.33-1.87 1.21-.11.33-.11.44-.11.66-.33.33-.44.66-.44.88-.33.33-.55.77-.55 1.32 0 .11 0 .22.11.33 0 .22-.11.55-.11.77-.11 1.318.11 2.968.22 4.288.22 1.65.55 3.08.99 4.73 1.98 2.97-2.64 8.578-3.85 10.448-1.76 2.64-3.63 4.95-5.28 7.7-.88 1.43-.44.55-1.32 1.98L45.43 94z" fill="#FFF"/><path fill="#F1662A" d="M19.056 78.426L50.04 96.664 81.13 78.426V22.063L50.04 18.548l-31.423 3.297"/><path d="M50.04 99.96L16.09 80.074V19.427l34.06-3.516 34.058 3.517v60.647L50.038 99.96zM19.055 78.426L50.04 96.554 81.02 78.426V22.064L49.93 18.877l-30.984 3.187v.44c.11.11.11 55.922.11 55.922zM70.146 66.89zM28.506 37.665z" fill="#17193F"/><path d="M80.033 44.916c-.55-1.977-2.087-3.186-4.065-3.735-1.648-.44-3.186 0-4.724-.11.11-1.427 1.098-5.712-1.978-5.273-1.648 0-3.186 4.725-4.175 6.043-1.647 2.527-2.636 1.648-2.965-.99-.44-2.636.988-6.59-1.1-7.14-1.647-.11-2.966 3.076-3.515 5.054-.11.988-1.1 1.648-.99-5.054 0-1.648 0-6.592-.988-6.702h-.44c-2.965.11-5.053 11.316-5.712 14.392-.55-3.186-3.736-16.48-6.263-13.513-.55 1.648-.11 2.527-.44 4.175 0 .988-.11 7.69-.988 6.592-.44-1.978-2.638-6.043-3.737-5.274-2.197 1.978-.44 4.724-.988 7.36-.44 2.638-1.43 3.187-2.967.66-.99-1.098-2.197-6.042-3.735-6.152-2.967-.44-2.088 4.065-2.088 5.274-1.428 0-3.076-.44-4.724-.11-2.087.44-3.515 1.538-4.174 3.515-.11.44 0 15.052 13.514 15.492 2.197 0 3.735-.11 5.713-.99 1.1-.44 2.197-1.428 3.186-.55l13.952.99c.99-.66 2.088-1.43 3.077-.99 1.976.66 4.613 2.198 6.7 2.198 6.812 0 12.965-2.637 15.053-8.9.66-.768-.33-5.932-.44-6.262z" fill="#E6A460"/><path d="M43.996 69.637c-.44-2.637.11-5.274.88-7.8 0 0 1.867-5.604 4.504-6.154 7.03-1.208 7.69 14.283 7.69 14.283-8.46 3.296-13.074-.33-13.074-.33z" fill="#EA7847"/><path d="M68.827 71.395c-.44-1.1-2.527-2.088-4.175-2.198-3.187-.33-14.393 2.088-14.393 2.088v.11c-1.43-.33-11.318-3.077-14.394-2.637-1.538.11-3.736.99-4.175 2.087-.878 1.538.11 3.736.99 5.604.99 2.086 3.296 5.052 5.713 6.37.99.66 2.087.99 3.186.99 8.68.11 9.118-5.054 9.118-4.725l.11-.988c.33 0-.88 5.273 7.69 5.273.99 0 2.088.33 3.187-.11 2.417-1.428 5.054-4.175 5.823-6.262.99-1.648 2.088-3.736 1.32-5.603z" fill="#E6A460"/><path d="M43.886 69.856c.33-.988 6.812.11 6.812.11s5.604-1.208 6.592.11c.11.33-.88 1.428-.88 1.428s-2.416-.11-2.965.33c-.88.66-.99 3.736-.88 3.736s-1.098 1.538-1.977 1.538c-.44 0-2.087-1.1-1.977-1.21.11-.11-.11-3.515-.988-4.174-.44-.44-2.417.11-3.186-.11.33-.33-.55-1.758-.55-1.758z" fill="#C45143"/><path d="M57.18 70.296c.11.33-.878 1.428-.878 1.428s-2.418-.11-2.637.33c-.88.66-.99 3.735-.88 3.735s-1.098 1.537-1.977 1.537c-.44 0-2.087-1.098-1.978-1.208.11-.11-.11-3.517-.988-4.176-.44-.44-2.417.11-3.187-.11-.44-.11-.988-1.538-.988-1.538" fill="#C45143"/><path d="M50.698 78.206c-.88 0-2.637-2.087-2.527-2.197 0-.66-.328-2.967-.878-3.517h-1.098c-.88 0-1.43.11-1.868-.11-.88-.33-1.1-1.428-1.428-2.087-.11-.33 0-.66.33-.88.33-.11.878 0 .878.33.11.66.88 1.21.88 1.21h.988c.88 0 1.538-.11 2.087.33.99.878 1.1 3.514 1.1 3.734v.66c.33.33.88.66 1.1.878.328-.11.878-.88 1.097-1.098 0-.33 0-.88.11-1.538.33-1.978.88-2.198.99-2.527.44-.44 2.087-.44 3.185-.44.11-.33.33-.44.33-.66 0-.33 0-.44.33-.658.33-.11.878-.11.878.11.11.11.44.878-.878 2.197-.11.11-.33.33-.44.11-.99 0-2.197 0-2.417.11-.33.33-.88 2.197-.88 2.966v.33c.55.77-.768 2.527-1.867 2.746z" fill="#151841"/><g fill="#17193F"><path d="M22.682 26.898v7.03c0 .55-.44 7.692 9.668 7.143s15.382-1.977 15.382 4.725l5.603.11s-.99-11.097-11.536-10.218c-10.658.88-13.845 1.978-13.295-4.285v-4.394h-5.713v-.11z"/><path d="M78.055 26.898v7.03c0 .55.44 7.692-9.668 7.143s-15.382-1.977-15.382 4.725l-5.603.11s.99-11.097 11.536-10.218c10.658.88 13.844 1.978 13.294-4.285v-4.394h5.714v-.11z"/></g><path d="M31.142 50.08s6.152-.55 7.8.33c3.186 1.538 3.626 5.054 3.626 4.724 0 0-1.978.66-2.527.66-.988.11-2.416.33-3.075.33-4.835-.66-5.823-6.044-5.823-6.044zM58.5 55.244c.438.11 1.977.66 2.416.88 1.1.328 1.978.438 2.637.438h.33c4.504-.11 5.822-4.724 6.042-5.493-.55-.11-3.186-.44-5.164-.44-1.097 0-1.976.11-2.416.33-2.637.988-3.625 3.735-3.845 4.284z" fill="#FFF"/><path d="M39.162 49.75c-.66-.33-1.978-.44-3.955-.44-1.978 0-4.065.11-4.175.11h-.55v.55s1.1 5.713 6.373 6.373c.11 0 2.527 0 3.296-.11.44-.11 2.748-.66 2.748-.66s.33-4.394-3.736-5.823zm.99 5.274c-.66.33-2.2.33-2.748.33-1.977-.11-3.296-1.1-4.504-2.747-.44-.66-.66-1.428-.88-1.978.66 0 1.978-.11 3.297-.33h.988c-.11 1.1-.44 4.065.88 3.735 1.098-.11 1.428-2.417 1.428-3.515h.11c2.087.988 2.966 2.966 3.186 3.735-.66.44-1.54.77-1.76.77zM70.255 50.3c-.11 0-3.076-.44-5.494-.44-1.427 0-2.086.11-2.635.33-2.527.99-3.736 3.076-4.175 4.175l-.11 1.428 2.966.99c1.1.33 2.088.44 2.747.44h.44c5.273-.33 6.7-6.044 6.7-6.044l.11-.55-.548-.33zm-1.978 2.966c-.88 2.198-4.724 2.637-4.834 2.637-.55 0-1.538-.11-2.527-.44-.33-.11-.99-.44-1.868-.66.33-.878 1.43-2.635 3.296-3.514 0 1.097.33 3.185 1.43 3.295.987.11.987-2.527.987-3.736 1.65 0 3.517.11 4.506.33-.11.658-.66 1.207-.99 2.086z" fill="#131840"/><g><path d="M43.447 83.7c-.33 0-.66-.33-.66-.55s.11-.55.66-.55c6.043-.438 6.262-4.064 6.592-4.064 0-.33.33-.55.658-.44.33 0 .66.33.66.55 0 .11 0 3.296 6.262 3.626.33 0 .66.33.66.55 0 .328-.33.548-.66.548-3.076 0-5.274-.99-6.592-2.637-.11-.11-.33-.44-.33-.55-1.208 1.43-3.186 3.077-7.25 3.517z" fill="#151841"/></g><path d="M18.507 64.143s3.956 7.582 11.317 7.69c7.36.11 12.305-4.504 14.612-8.9 2.528-4.503-4.614 3.298-4.614 3.298l-7.8 2.198-10.658-2.746-2.857-1.54zM82.56 64.034s-3.954 7.58-11.316 7.69c-7.36.11-12.305-4.504-14.613-9.01-2.416-4.504 4.616 3.297 4.616 3.297l7.91 2.198 10.658-2.747 2.746-1.426z" fill="#D84F1E"/><path d="M19.936 50.63s2.965-3.627 11.206-2.747c8.24.88 12.305 3.626 12.854 6.153.55 2.526.55-3.186.55-3.186s-.99-2.748-1.978-3.187c-.99-.44-10.657-2.417-10.657-2.417l-8.57.988-3.076 2.747-.328 1.65zM81.35 50.3s-2.964-3.625-11.204-2.747c-8.13.99-12.306 3.626-12.855 6.152-.55 2.527-.55-3.186-.55-3.186s.99-2.747 1.98-3.187c.988-.44 10.657-2.417 10.657-2.417l8.57.99 3.185 2.745.22 1.65z" fill="#CC8240"/><path d="M86.516 46.455s-3.297-2.197-13.404-2.638c-10.107-.44-18.678 3.516-19.227 3.516-.33 0-2.088.11-3.186.33-1.1-.11-2.967-.33-3.188-.33-.548.11-9.12-3.955-19.227-3.516-10.217.33-13.624 2.638-13.624 2.638s-.327 4.174.66 4.833c.99.66 1.21 5.494 1.21 5.494.33 4.065 1.098 6.373 1.977 7.91.99 1.54 1.978 2.09 2.966 2.747 1.978 1.428 7.58 3.625 14.943 1.537 7.36-2.087 10.657-10.437 11.317-14.502.438-2.417 1.647-3.076 2.636-3.187.988.11 2.197.88 2.636 3.187.658 4.065 3.735 12.415 11.317 14.502 7.58 2.088 12.964-.33 14.94-1.538 1.98-1.43 4.287-2.527 5.055-10.768 0 0 .33-4.724 1.21-5.493 1.208-.55.988-4.725.988-4.725zm-42.74 11.097c-1.867 8.35-10.327 10.876-17.687 8.35-7.362-2.637-6.594-12.526-6.594-12.526s-.55-7.032 9.67-6.7c0 0 5.82 0 8.348.657 2.198.77 8.02 1.868 6.263 10.22zm31.533 8.46c-7.362 2.636-15.93 0-17.69-8.35-1.757-8.35 4.065-9.45 6.372-10.22 2.418-.658 8.35-.658 8.35-.658 10-.11 9.67 6.702 9.67 6.702s.658 9.78-6.703 12.525z" fill="#151841"/><path d="M29.165 48.542s-6.483-.22-7.252 3.186c-.768 3.407.22 4.285.77 4.175.55-.11 7.14-5.603 7.36-6.592.33-.878-.878-.768-.878-.768z" opacity=".49" fill="#FFF"/></svg>
