<svg width="100" height="100" viewBox="0 0 100 100" xmlns="http://www.w3.org/2000/svg"><path fill="#A9A09F" d="M18.11 78.69L50 97.32l31.89-18.63V20.74L50 17.45l-31.89 3.29z"/><path fill="#151841" d="M50 100L16 80.14V19.5L50 16l34 3.5v60.64L50 100zM19.04 78.44L50 96.53l30.96-18.09V22.19L50 19l-30.96 3.19v56.25z"/><path fill="none" d="M67.22 16.68h.3"/><circle cx="50" cy="55.04" r="26.13" fill="#4751A2"/><path fill="#fff" d="M50 31.97V78.2c12.77 0 23.16-10.39 23.16-23.16S62.77 31.97 50 31.97z"/><path fill="#A9A09F" d="M50.1 31.97c-12.87 0-23.16 10.39-23.16 23.16S37.23 78.2 50 78.2h.1V31.97z"/><path fill="#4751A2" d="M50 35.14c-10.99 0-20 8.91-20 20 0 10.99 8.91 20 20 20s20-8.91 20-20-9.01-20-20-20zm0 36.13c-8.91 0-16.24-7.23-16.24-16.24 0-8.91 7.23-16.24 16.24-16.24s16.24 7.23 16.24 16.24c-.1 9.02-7.33 16.24-16.24 16.24z"/><path fill="#151841" d="M50 81.67c-14.69 0-26.63-11.95-26.63-26.63S35.31 28.4 50 28.4s26.63 11.95 26.63 26.63S64.69 81.67 50 81.67zm0-52.27c-14.13 0-25.63 11.5-25.63 25.63S35.87 80.67 50 80.67s25.63-11.5 25.63-25.63S64.13 29.4 50 29.4z"/><path fill="#4751A2" d="M50 42.46c-7.03 0-12.67 5.64-12.67 12.67S42.97 67.81 50 67.81s12.67-5.64 12.67-12.67S57.03 42.46 50 42.46zm0 21.68c-4.95 0-9.01-4.06-9.01-9.01s4.06-9.01 9.01-9.01 9.01 4.06 9.01 9.01-4.06 9.01-9.01 9.01z"/><circle cx="50.1" cy="55.14" r="5.64" fill="#4751A2"/><circle cx="50.1" cy="55.04" r="2.77" fill="#F15A29"/><path fill="none" d="M66.04 38.11l.49 1.19"/><path fill="#0D0F12" d="M63.83 37.02l.65 1.1"/><path fill="#F15A29" d="M70.28 23.82c-.74-.55-1.84-.37-2.76-.37-1.11 0-3.59-1.83-4.15-.92-.83 1.38-3.04 5.32-2.86 6.14.18.83.92 5.04 1.47 4.13l3.5-5.69c.37-.81 5.72-2.65 4.8-3.29zm-1.57 5.32l-3.69 5.59c-.65.92 3.59-.27 4.42-.46.83-.18 3.41-3.85 4.33-5.23.55-.92-2.21-2.38-2.67-3.3-.37-.83-.74-1.83-1.57-2.29-.91-.55-.27 4.95-.82 5.69z"/><path fill="#151841" d="M73.32 28.86c-.92 1.47-1.84 2.93-2.86 4.31-.37.46-.55.64-1.2.73l-1.11.18-3.23.64c-.55.09-.37 1.01.28.92 1.2-.27 2.4-.55 3.59-.73.74-.09 1.47-.09 1.94-.64 1.29-1.38 2.3-3.3 3.32-4.86.37-.64-.36-1.1-.73-.55zm-2.49-2.84c.83 1.01 1.84 1.93 2.58 3.12.28.46 1.11 0 .83-.46-.74-1.19-1.84-2.2-2.76-3.3-.37-.46-1.02.18-.65.64z"/><path fill="#fff" d="M70.37 23.08c-1.11-.83-1.29-.92-1.75-.27-1.94 2.02-2.67 4.95-4.33 7.06-1.01 1.28-2.3 2.11-2.4 3.58l-.37.46c-2.49 2.2-5.07 4.59-6.82 7.34l-1.84 2.84-2.03 2.02c-.37.37-.37 2.38-.09 2.66-.55.83 0 .83.18 2.02.09.64 3.5 1.47 4.33 1.47 2.21-.18 3.5-4.49 5.07-6.69 1.75-2.57 2.03-5.78 3.69-8.44.09-.18.65-1.28.65-1.47.37-.46.65-1.01.92-1.47 1.75-2.02 2.4-3.67 3.69-5.96.55-1.11 4.69-4.41 1.1-5.15z"/><path fill="#0D0F12" d="M70.09 24.28l-6.91 11c-.09.18-.37.27-.55.09-.18-.09-.28-.37-.09-.55l6.91-11c.09-.18.37-.27.55-.09.18.09.28.36.09.55z"/><path fill="#151841" d="M62.81 35.65c-.09 0-.18 0-.28-.09-.28-.18-.37-.46-.18-.73l6.91-11c.18-.27.46-.37.74-.18.28.18.37.46.18.73l-6.91 11a.5.5 0 0 1-.46.27zm7.01-11.92l-.28.09-6.91 11c0 .09-.09.09 0 .18l.09.18c.09.09.28 0 .37-.09l6.91-11c0-.09.09-.09 0-.18l-.09-.18h-.09zM52.31 51.6c-2.76-2.57-.83-5.5 1.11-7.89 1.66-2.11 3.41-4.22 5.16-6.24 1.2-1.38 2.4-2.66 3.59-4.13 1.75-2.2 3.04-4.77 4.52-7.06l2.58-4.13c.28-.46-.46-.92-.83-.46l-2.3 3.58c-1.57 2.48-3.04 5.23-4.88 7.52-3.04 3.76-6.45 7.24-9.31 11.19-1.94 2.66-3.04 5.59-.28 8.16.45.56 1.1-.08.64-.54zm-.28.92c2.86 1.1 5.16-.27 6.64-2.75 1.38-2.29 2.4-4.68 3.5-7.15 1.01-2.2 1.94-4.4 2.86-6.6 1.11-2.48 2.86-4.77 4.24-7.06l2.95-4.77c.28-.46-.46-.92-.83-.46-.74 1.1-1.38 2.2-2.03 3.3-1.57 2.57-3.41 5.04-4.79 7.79-.83 1.56-1.38 3.12-2.03 4.77-1.11 2.48-2.12 4.86-3.32 7.24-1.38 2.84-3.23 6.33-7 4.95-.47-.36-.75.47-.19.74zM63 22.35c-1.01 1.56-2.3 3.3-3.04 5.04-.28.64 0 1.19.18 1.83.37 1.28.65 2.48.92 3.76.18.55 1.01.37.92-.27l-.74-2.93c-.28-1.01-.65-1.74-.09-2.75.83-1.47 1.66-2.93 2.58-4.31.37-.37-.46-.83-.73-.37zm4.6.64c-1.38-.37-2.76-.83-4.15-1.01-.55-.09-.55.83 0 .92 1.29.18 2.58.64 3.87 1.01.65.18.93-.73.28-.92zm1.02-.64l3.04 1.93c.46.37.92-.46.46-.83l-3.04-1.93c-.46-.27-.92.56-.46.83z"/><path fill="#151841" d="M51.2 45.37c-.55 1.56 1.47 2.93 2.58 3.67 1.11.73 3.41 1.93 4.7 1.01.46-.37 0-1.1-.46-.73-.92.73-2.76-.37-3.59-.83-.74-.46-2.76-1.65-2.4-2.75.18-.65-.65-.92-.83-.37zm.09 8.98l1.2-1.93c.46-.64-.65-1.28-1.01-.64l-1.2 1.93c-.46.64.55 1.29 1.01.64z"/></svg>