<svg width="100" height="100" viewBox="0 0 100 100" xmlns="http://www.w3.org/2000/svg"><path fill="none" d="M68.23 87.88V56.36m5.79-7.48l9.31-6.29M31.7 56.36v31.52m-5.79-39.11l-9.42-6.27"/><path fill="#D7D1D0" d="M19.03 78.494L50.05 96.53l31.016-18.036V22.07l-31.016-3.19-31.017 3.19"/><path d="M50.048 17.12c-.77 0-1.65.11-2.42.11L19.693 50.447l3.41 2.86L53.677 17.12h-3.63zM33.33 19.1c-.11 0-.11 0 0 0L11.333 45.06l3.41 2.86L39.49 18.55c-2.09.22-4.07.55-6.16.55zM18.812 20.09l-1.43 1.65c0 2.31-.11 4.62-.11 6.93l7.81-9.24c-2.09.33-4.18.44-6.27.66zM61.377 17.45L16.613 70.685c0 2.09-.11 4.18 0 6.38l.22.22L66.436 18.44l-.55-.44c-1.54-.22-3.08-.328-4.51-.55zM21.4 80.712l52.348-62.04 3.363 2.838-52.347 62.04zM33.22 89.382L83.156 29.99l-1.21-5.94L29.48 87.073c1.212.66 2.53 1.54 3.74 2.31zM81.945 40.988L38.06 93.012c1.32.77 2.64 1.43 3.96 2.09l39.595-47.075c.22-2.31.22-4.62.33-7.04zM80.735 57.706L47.188 97.63c.11 0 .22.11.22.11 2.64-.878 5.28-1.65 7.7-3.08.11-.11.22-.11.33-.11l25.297-30.025v-6.82z" fill="#EFEFEF"/><path class="st3" d="M50.048 100.05L16.062 80.144V19.43l34.096-3.52 34.096 3.52v60.713L50.048 100.05zM19.032 78.494L50.048 96.64l31.017-18.147V22.07l-31.017-3.19-30.466 3.08-.55.55v55.983z" fill="#17193F"/><path class="st4" d="M14.413 28.56c-6.27 8.028-9.13 16.167-6.38 18.367v.11l16.828 12.648L46.53 30.76l-16.5-12.43c0-.11-.22-.11-.22-.22-2.75-2.2-9.238 2.42-15.397 10.45zM84.364 79.923c6.38-8.138 9.24-16.497 6.49-18.587v-.11l-17.16-12.87L51.7 77.725l16.828 12.65c0 .107.22.107.22.218 2.75 2.2 9.35-2.42 15.618-10.67z" fill="#FF4E23"/><path class="st3" d="M51.918 78.053c-1.76-1.32 1.21-8.58 7.26-16.938 6.158-8.248 12.647-13.858 14.297-12.65 1.65 1.21-1.87 9.02-8.03 17.38-6.048 8.14-11.767 13.418-13.527 12.208zM65.666 65.735zM46.2 30.65c1.758 1.32-1.21 8.578-7.15 16.717-5.94 8.14-12.32 13.748-14.078 12.43-1.76-1.32 1.76-8.91 7.81-17.16C38.938 34.39 44.547 29.33 46.198 30.65z" fill="#17193F"/><path class="st0" fill="none" d="M94.923 81.793"/><path class="st5" d="M45.43 94.002c.33-1.1.77-9.9.88-10.89.11-.33.33-.66.44-.99 1.1-2.53 1.21-4.838 1.978-7.918.33-.11.88-1.87 1.21-2.09.22 0 .33-.11.33-.22 1.43-.55 2.86-1.1 4.07-2.09 2.31-1.1 5.94-5.17 4.95-5.94-2.75-2.2-7.59-5.828-10.56-7.368l-1.87-.88c0 .11-.11.99-.11 1.65-.11-1.1-.66-1.98-1.32-2.97-.55-.55-1.21-1.32-1.87-1.87.44-.11.77-.44 1.1-.77.11.33-.11.77.22.99.22.33 1.76 2.53 3.85 1.98.44.22.77.55 1.1.77.22.11 1.32 1.76 1.98 1.87.11 0 1.65-.22 1.76-.11.99.88.33 1.65 1.21 2.64 1.76 1.65 3.52.77 4.95-.66 1.1-.88 1.43 1.32 1.87.22 1.1 0 2.86-4.73 1.87-5.72-.11-.22-.11-.44-.33-.55l-.11-.33c-.55-.66-1.21-1.43-1.87-1.98-.22-.22-.11-.44-.33-.44 1.21-2.53-.44-5.718-2.86-6.818-.66-.11-1.32-.66-1.87-1.21.33.33-.33-.33-.44-.55l-.88-.88s-.22-.22-.66-.55c0-.11-.22-.11-.22-.11h-.11c-.44 0-.88-.22-1.21-.44-.99.88-2.75.99-3.63-.55-.22-.33-.33-.77-.33-1.21v-.11c-.11 0-.44-.22-.44-.22-.22-.11-.33-.22-.55-.33h-.11c-.33-.11-.55-.11-.88-.22h-.99c-.33.11-.88.11-1.21.11-.33.33-.66.44-.99.55-.22.22-.55.55-.33.99-.11 0-.22.77-.33.99-1.43 1.32-1.1 3.3 0 4.84-2.2.33-4.288 1.54-6.158 2.97-.77-.11-1.54.33-1.87 1.21-.11.33-.11.44-.11.66-.33.33-.44.66-.44.88-.33.33-.55.77-.55 1.32 0 .11 0 .22.11.33 0 .22-.11.55-.11.77-.11 1.318.11 2.968.22 4.288.22 1.65.55 3.08.99 4.73 1.98 2.97-2.64 8.578-3.85 10.448-1.76 2.64-3.63 4.95-5.28 7.7-.88 1.43-.44.55-1.32 1.98L45.43 94z" fill="#FFF"/><path class="st3" d="M58.407 67.825c.33-.55-.44-.88-.88-.22-.77 1.54-3.74 2.42-5.5 2.97-.99.44-1.98.77-2.86 1.43-1.318 1.21-1.868 3.19-2.088 4.95-.44 3.848-2.31 14.187-3.08 17.926-.11.55.99.88 1.1.11.55-3.848 2.31-14.187 3.08-17.926.548-2.64 1.208-4.51 3.958-5.39 2.2-.77 5.06-.66 6.16-2.75l.11-1.1z" fill="#17193F"/><path class="st6" d="M7.703 46.708L24.2 59.025c0-6.158 9.9-18.588 9.9-18.588-4.95 2.75-12.32 3.08-17.267-3.96-3.41-5.058-1.98-8.247-1.98-8.247-10.78 13.088-7.04 18.587-7.15 18.478z" fill="#E0321B"/><path class="st3" d="M37.07 47.147c1.65-.88 3.3-1.54 4.95-2.31l-4.84-3.298-3.63 5.168 2.31 1.65c.22-.22.44-.55.88-.77 0-.11.11-.22.33-.44zM37.95 76.074l-2.75 5.72c-.11.33-.44.33-.77.33-.33-.11-.33-.44-.33-.77l2.75-5.72c.11-.33.44-.33.77-.33.11 0 .22.11.22.22.22.33.11.44.11.55z" fill="#17193F"/><g fill="#17193F"><path class="st3" d="M42.79 72.664c-2.31 1.54-3.41 6.49-3.41 6.49M43.23 73.214c-2.09 1.32-3.19 6.16-3.19 6.16-.11.33-.33.44-.66.33-.33-.11-.44-.33-.33-.66 0-.22 1.1-5.17 3.52-6.82.22-.11.55-.11.77.22.11.22.11.55-.11.77z"/></g><path class="st3" d="M57.527 44.068c-.11-1.54-1.87-3.3-3.08-4.07-1.76-1.1-3.3-1.1-4.4.33.11.44.22.88.11 1.32.99-1.54 2.53-1.43 3.96-.33.66.55 2.2 1.87 2.09 3.08 0-.11 0-.11 0 0 .55-.22.88-.33 1.32-.33z" fill="#17193F"/><path class="st7" d="M45.758 55.617l1.1-.66 8.03 6.05s-1.65 3.518-2.75 1.868c-1.1-1.65-4.95-3.3-4.95-3.3l-1.43-3.958z" opacity=".89" fill="#808285"/><g fill="#17193F"><path class="st3" d="M55.878 61.445c-2.64.44-4.4 2.75-4.4 2.75M56.428 61.445c.11.33-.11.55-.44.66-2.31.44-3.96 2.53-3.96 2.53-.22.22-.55.33-.88.11-.22-.22-.33-.55-.11-.88.11 0 1.87-2.42 4.73-2.97.22 0 .44.11.55.33.11 0 .11 0 .11.22z"/></g><path class="st6" d="M69.185 90.7L52.798 78.275c5.94-1.76 15.068-14.74 15.068-14.74-1.21 5.61.44 12.76 8.69 15.4 5.718 1.98 8.468-.33 8.468-.33C75.564 92.68 69.184 90.7 69.184 90.7z" fill="#E0321B"/><path class="st5" d="M19.142 30.65c1.98 1.21 2.86.658 3.41-.22.66-.44.88-1.1 1.43-1.98.44-.66.99-1.43 1.43-1.98 1.87-2.42 4.398-1.98 7.038-.33l3.08 2.31-1.87 1.65-2.31-1.65c-1.32-.99-2.2-.66-3.08.55-.438.33-.55.77-.99 1.32-.22.66-.658 1.32-1.1 1.76-1.43 1.98-2.75 1.868-4.62 1.21 1.212 1.32 1.54 2.42.11 4.398-.438.55-1.098.99-1.537 1.32-.44.66-.77.88-1.21 1.32-.88.88-.99 1.87.328 2.86l2.202 1.65-1.32 2.42-2.97-2.31c-2.53-1.98-3.52-3.96-1.65-6.27.44-.55.99-1.32 1.65-1.76.44-.77 1.21-1.32 1.65-1.76.44-.66 1.1-1.65-.88-3.08l1.21-1.43zM79.305 76.403c-1.76-.99-3.3-.44-3.85.33-.55.55-.99 1.21-1.32 2.09-.44.66-.99 1.43-1.32 2.09-1.87 2.09-3.41 2.2-5.94.44l-2.86-2.2 1.98-1.76 1.87 1.32c1.32.77 2.2.33 2.97-.66.22-.44.55-.77.99-1.43.33-.66.66-1.32 1.1-1.87 1.54-1.758 2.97-1.978 4.51-1.32-1.21-1.21-1.65-2.64-.11-4.398.66-.44.88-.88 1.43-1.43.55-.55.88-.88 1.21-1.32.99-.99.33-2.53-.88-3.3l-2.53-1.76.99-2.2 3.63 2.42c1.87.88 3.96 3.19 2.42 5.72-.55.55-1.54 1.65-2.09 2.2-.66.88-.99 1.43-1.32 2.09-.55.55-1.1 1.65.66 2.97l-1.54 1.978z" fill="#FFF"/><path class="st3" d="M84.805 80.363c-5.61 7.26-12.98 13.53-16.39 10.78-.11 0-.22-.11-.22-.222L51.26 78.275c-.22-.22-.33-.55-.11-.88l21.998-29.367c.22-.22.55-.33.88-.11l17.158 12.87c0 .108 0 .108.11.22.22.22.55.438.66.77 1.87 3.408-1.87 11.657-7.15 18.586zm5.498-18.808L73.806 49.237 52.468 77.724l16.498 12.318v.22c2.42 1.76 8.69-2.64 14.848-10.558 6.71-8.69 8.91-16.17 6.71-17.82h-.11c0-.22 0-.22-.11-.33zM46.968 31.088L25.412 60.126c-.22.22-.55.33-.88.11L7.7 47.475c0-.11 0-.11-.11-.22-1.43-1.1-1.43-3.848-.22-7.478 1.1-3.52 3.522-7.7 6.6-11.548 3.08-3.85 6.27-7.15 9.13-9.13 3.08-2.09 5.498-2.638 7.04-1.428.108 0 .22.11.22.22L46.967 30.32c0 .11 0 .11.11.22.11.22 0 .33-.11.548zm-38.824 15.4h.11c0 .11 0 .11.11.22L24.53 58.916 45.54 30.87 29.37 18.66v-.22c-1.1-.88-3.08-.33-5.718 1.54-2.75 1.87-5.83 5.06-8.8 8.91-2.86 3.848-5.17 7.808-6.38 11.22-.99 2.748-1.1 4.837-.438 5.827 0 .22.22.44.11.55z" fill="#17193F"/><path class="st3" d="M74.576 49.017c0-.11-.11-.44-.222-.66-.108-.22-.22-.33-.328-.44-1.65-1.21-5.72 1.87-9.9 6.49.22.44.22.99.11 1.43 4.73-5.28 8.25-7.7 9.02-7.15.11 0 .11.33.22.33.22 1.98-2.53 8.25-8.25 16.168-7.148 9.46-11.878 12.868-12.978 12.098 0-.11-.11-.33-.11-.44-.22-.988.33-2.97 1.43-5.498-.22 0-.44 0-.66-.11-.11 0-.22-.11-.33-.11-1.1 2.53-1.65 4.51-1.43 5.83.11.548.33.99.66 1.21 3.08 2.308 12.65-9.9 14.52-12.32 5.278-7.148 8.577-14.078 8.248-16.828zM32.67 54.296c-3.74 3.96-6.49 5.72-7.258 5.17-.22-.11-.22-.22-.22-.22 0-.11-.11-.22-.11-.33-.22-1.98 2.53-8.25 8.14-15.948 5.827-8.03 10.338-11.88 12.207-11.988.22 0 .44 0 .44.108.22.11.22.33.33.55.11.88-.33 2.64-1.32 4.95.33.11.658.33.878.66 1.1-2.53 1.54-4.4 1.54-5.72-.11-.88-.11-.988-.33-1.1-.11-.108-.33-.328-.548-.44-.22-.22-.662-.22-1.32-.22-2.53.332-7.59 5.17-12.87 12.54-5.28 7.04-8.8 13.968-8.358 16.608.11.55.33.99.66 1.1 1.54 1.21 5.058-1.54 8.578-5.06 0-.11-.22-.33-.44-.66zM32.89 42.638z" fill="#17193F"/><path class="st8" d="M61.597 55.726c-5.72 1.87-4.51-2.75-3.63-3.74.66-.66 1.43-1.98 1.43-1.98-8.14 1.54-5.72-3.518-5.72-4.62-3.518.662-4.29-2.31-4.4-2.198-1.648 2.418 9.46 8.36-4.618 8.03-.22.22-.44.44-.66.55 0 .22 0 .438.108.768 1.102 3.96 5.28 2.09 5.28 2.09.11 4.29 4.4 2.53 4.4 2.53-.66 1.76-.22 2.31 1.98 3.52 2.31 1.32 4.288-2.09 5.17-2.86 1.538-1.1 1.87-3.41.66-2.09z" opacity=".24" fill="#808285"/><path class="st3" d="M54.558 57.046c.33-.55-.44-1.21-.99-.55-1.1 1.21-2.75.55-3.3-.77-.44-.99-.11-2.09.33-3.08.55-1.1.99-1.98 1.54-2.86.44-.88.66-1.87 1.21-2.86.88-1.76 3.63-3.628 5.39-1.87 1.43 1.32 2.2 4.07 1.43 5.83-.22.66.77 1.1.99.44.88-2.42.11-6.16-2.2-7.588-2.42-1.65-5.61.33-6.6 2.64-.66 1.65-1.54 3.3-2.42 4.95-.55 1.21-1.32 2.748-.88 4.178.77 2.2 3.74 3.63 5.5 1.54z" fill="#17193F"/><path class="st3" d="M62.367 56.056c.33-.77-.66-1.21-.99-.33-.22 1.32-.77 2.31-1.76 3.3-.77.66-2.09 1.65-3.19 1.54-1.21-.22-2.42-1.1-2.2-2.53.22-1.32 1.32-2.09 1.98-3.3.99-1.76 2.64-4.84 4.95-2.86.77.55 1.21 1.32 1.65 2.2.44 1.21.66 2.86.22 4.07-.22.66.88.33 1.1-.33.55-1.65.44-2.86-.44-4.51-.55-1.21-1.21-2.31-2.42-2.97-3.41-1.98-5.06 2.09-6.71 4.29-.99 1.21-1.87 2.42-1.32 4.07.44 1.21 1.43 2.31 2.75 2.53 2.86.66 5.61-2.53 6.38-5.17zM44.44 52.427c-.44-.66-1.32.11-.88.66 1.32 1.65 3.19 4.29 2.86 6.49-.33 1.648-1.43 2.748-3.08 3.298-.66.22-.22 1.21.44.99 1.65-.55 3.41-1.76 3.74-3.74.44-2.97-1.32-5.5-3.08-7.698z" fill="#17193F"/><path class="st3" d="M63.906 68.154l3.63-5.17-6.49-4.507c-.22.22-.44.328-.66.548 0 .11-.22.33-.33.44-1.21.99-2.86 1.98-4.618 1.43-1.21-.44-2.09-1.76-1.65-2.97 0-.22.22-.55.33-.658 0-.22 0-.44.11-.66-.66.88-1.98 1.208-2.97.66-.55-.11-.99-.44-1.43-1.102-.44-.88-.44-1.65 0-2.31 0-.22 0-.438.11-.548-.44 1.21-2.09 2.09-3.41 1.43-.55-.11-1.21-.44-1.538-1.1-.22-.33-.33-.77-.33-1.21-.112-.44-.112-.88.11-1.21 0-.11-.222-.22-.33-.33 0 .88-.44 1.54-.99 1.98.33.22.658.44.878.77.11.22.11.33.22.44.222.11.442.33.662.66l.108.33 18.588 13.087z" fill="#17193F"/><path class="st3" d="M50.048 53.966c.33-.44-.44-1.21-.77-.66-1.32 1.98-3.74.88-4.51-.99-.22-.66-1.21-.22-.99.44 1.1 2.53 4.51 3.96 6.27 1.21zM47.74 45.277c-.66.44 1.208.33.988.66 1.1-.88 1.43-2.64 1.65-3.96.22-1.65-.22-3.19-1.65-4.18-1.43-.99-3.41-1.538-4.95-.66-2.42.99-2.53 5.17-2.53 6.49 0 .66 1.1.66 1.1-.11 0-1.32-.22-4.95 2.86-5.72 1.54-.11 3.08.44 3.74 1.76.99 1.54 0 4.84-1.21 5.72z" fill="#17193F"/><path class="st5" d="M49.168 50.447h.11c.22.11.55.22.88.11.33-.11.77-.22.99-.55.22-.11.22-.22.22-.44.33-.11.33-.44.33-.66 0-.11 0-.22-.11-.33-.11-.33-.22-.77-.55-.99-.22-.22-.66-.33-1.1-.33-.33.11-.55.11-.77.33h.11-.22c-.22.11-.66.44-.66.77-.22.22-.22.77 0 .99.11.66.44.99.77 1.1z" fill="#FFF"/><path class="st8" d="M43.34 48.357s5.61 2.64 7.918-1.1c0 0 1.54.22.44 2.2-1.1 1.98-4.29 3.85-6.6 1.87-2.09-1.87-1.76-2.97-1.76-2.97z" opacity=".24" fill="#808285"/><path class="st8" d="M43.34 49.017s-.55 2.75-3.85 3.08c0 0 2.64 1.98 4.73.44 1.98-1.54-.88-3.52-.88-3.52z" opacity=".24" fill="#808285"/><path class="st3" d="M45.1 50.777c-.33-.77-1.21-.33-.88.44.22.55-.44.99-.88 1.1-1.21.33-2.64 0-3.85-.44-.66-.22-1.1.77-.44.99 1.54.66 3.63 1.21 5.06.22.77-.44 1.32-1.43.99-2.31z" fill="#17193F"/><path class="st3" d="M43.78 48.247c-.33-.66-1.21.11-.88.11.33.33.33 1.1.55 1.65.11.44.66.88.99 1.1.77.66 1.87.88 2.97.77 1.978.11 4.838-.66 5.278-2.97.33-2.97-2.64-3.96-4.95-4.62-.99-.44-2.31-1.32-3.41-1.32-1.43 0-2.75 1.21-3.85 1.54-3.078 1.32-6.928 2.75-7.588 6.38-.77 4.07 1.21 7.7 1.87 11.548.44 2.31-.22 3.63-1.43 5.5-.55.77-.99 1.54-1.54 2.42-3.41 5.06-4.95 7.478-8.03 12.648-.22.66.66 1.32.88.77 3.08-5.06 4.4-7.04 7.59-11.99 1.1-1.54 2.42-3.298 3.19-4.948 1.32-3.08-.22-6.16-.99-9.02-.44-1.76-1.1-4.07-.66-5.938.55-2.2 1.98-3.52 3.96-4.4 1.87-.77 3.63-1.65 5.39-2.42.55-.33 1.21-.55 1.76-.22.44.22.88.66 1.43.66 1.43.44 3.188.66 4.398 1.65 1.32.99 1.32 2.75-.11 3.63-1.1.55-2.53.88-3.85.66-1.21-.11-2.31-.55-2.64-1.98-.11-.44-.11-.77-.33-1.21z" fill="#17193F"/></svg>
