<svg width="100" height="100" viewBox="0 0 100 100" xmlns="http://www.w3.org/2000/svg"><path fill="#F0522C" d="M18.32 78.965l31.964 18.637 31.863-18.637V20.85l-31.863-3.307L18.32 20.85"/><path d="M50.284 99.907l-34.068-19.94v-60.72l34.068-3.508 34.068 3.506v60.72l-34.068 19.94zM19.222 78.263L50.284 96.4l31.062-18.137V21.95l-31.062-3.205-31.062 3.206v56.313z" fill="#151841"/><g transform="matrix(1.002 0 0 1.002 2.49 7.222)"><clipPath id="a"><path overflow="visible" d="M15.8 71.6l31.9 18.6 31.8-18.6v-58l-31.8-3.3-31.9 3.3z"/></clipPath><path class="st2" d="M48.7 42.2c1.1-.3 2.3.4 2.5 1.6.2 1.1-.4 2.3-1.4 2.9-1 .6-2.4.4-3.3-.2-1-.7-1.6-1.9-1.5-3.1 0-.6.2-1.2.4-1.7s.6-1.1 1-1.5c.4-.4 1-.7 1.6-.9.6-.2 1.2-.3 1.8-.2 1.2 0 2.4.5 3.4 1.3.9.8 1.6 1.9 1.9 3.1.3 1.2.1 2.5-.3 3.6s-1.1 2.2-2 3c-.9.8-2.1 1.5-3.3 1.7-1.2.2-2.5.2-3.7 0-2.4-.6-4.6-2.2-5.8-4.4-.6-1.1-.9-2.4-1.1-3.6-.1-1.2-.1-2.5.2-3.7.6-2.4 2-4.7 4.1-6.1 1-.7 2.2-1.3 3.3-1.7 1.2-.4 2.4-.5 3.6-.6 4.9-.1 9.7 2.7 12 7 .6 1.1 1 2.2 1.3 3.4.3 1.2.4 2.3.4 3.5 0 2.4-.5 4.8-1.5 6.9-2 4.3-5.9 7.6-10.4 9-4.5 1.5-9.6.9-13.7-1.2s-7.6-5.7-9.3-10.1c-.4-1.1-.8-2.2-1-3.4-.2-1.1-.4-2.3-.4-3.4-.1-2.3.1-4.6.7-6.9 1.2-4.5 3.8-8.6 7.5-11.4 3.6-2.9 8.1-4.5 12.6-5s9.2.1 13.4 1.9c4.2 1.8 8 4.7 10.6 8.5 2.7 3.7 4.2 8.2 4.6 12.7.5 4.5.1 9-1.3 13.4-1.4 4.3-3.7 8.4-6.9 11.6-3.2 3.3-7.2 5.7-11.4 7.1-2.1.7-4.3 1.2-6.5 1.6-2.2.3-4.5.5-6.7.4-9-.3-17.8-4.4-23.9-11.1-1.5-1.7-2.9-3.4-4-5.4-1.2-2-2-4.1-2.7-6.2-1.3-4.3-1.8-8.8-1.6-13.3-.8-7.5 1.4-16.8 8.1-25.5 2.3-3.2 6.8-5.9 10.6-8.3 3.8-2.4 7.9-4.2 12.3-5.3 2.2-.5 4.4-1 6.6-1.1C51.8.9 54 .9 56.2 1c1.1.1 2.2.1 3.3.3 1 .1 1.9.1 2.8 0C64.1 1 65.5-.3 66.5-2c1-1.7 1.6-3.8 2.1-5.8.5-2.1.9-4.2 1.4-6.3.3-1.1.6-2.1 1.1-3.1.5-1 1.1-2 2.1-2.6 1-.6 2.2-.7 3.3-.5 1.1.2 2.1.6 3 1.1-1-.4-2-.7-3.1-.8-1-.1-2.1.1-2.9.7-.8.6-1.3 1.5-1.7 2.5-.4 1-.6 2-.8 3-.4 2.1-.6 4.2-1 6.4-.4 2.1-.8 4.3-1.8 6.4-.5 1-1.2 2.1-2.1 2.9-.9.9-2.1 1.5-3.3 1.8-1.2.3-2.5.4-3.6.3-1.1 0-2.1-.1-3.2-.1-2-.1-4 .1-6.1.3-2.1.3.5 1.3-1.5 1.8-8.1 2-19.2 6.1-25.2 13.8-5 6.6-7.7 13.4-8.1 21.6-.2 4.1.1 7.4 1.3 11.3.6 2 1.4 3.8 2.4 5.6 1 1.7 2.3 3.4 3.7 4.9 2.8 3.1 6.4 5.7 10.1 7.6 4.5 2.3 9.1 3.8 16.7 3.2 2-.3 5.3-.8 7.2-1.5 3.9-1.3 7.4-3.5 10.2-6.4 2.8-2.9 4.9-6.5 6.1-10.4 1.2-3.9 1.6-8.1 1.1-12.1-.4-4-1.7-8-4.1-11.2-2.3-3.3-5.6-5.8-9.3-7.4-3.7-1.6-7.8-2.1-11.9-1.7-4 .4-7.9 1.8-11 4.3-3.1 2.5-5.4 5.9-6.4 9.8-.5 1.9-.7 3.9-.6 5.9.1 2 .5 4 1.2 5.8 1.4 3.6 4.3 6.7 7.8 8.5 3.5 1.8 7.7 2.3 11.3 1.1 3.7-1.2 6.9-3.9 8.5-7.4.8-1.7 1.2-3.7 1.2-5.6 0-1-.1-1.9-.3-2.9-.2-.9-.5-1.8-1-2.6-1.8-3.3-5.5-5.5-9.2-5.4-1.9 0-3.7.6-5.1 1.7-1.4 1.1-2.5 2.6-3 4.4-.3.9-.4 1.8-.3 2.7.1.9.2 1.8.6 2.6.7 1.6 2.2 2.9 4 3.4.9.3 1.8.3 2.7.2.9-.1 1.7-.5 2.4-1.1 1.4-1.1 2.3-3.1 2-4.9-.2-1.8-1.9-3.3-3.7-3.5-.9-.1-1.9.1-2.6.7-.4.3-.6.7-.9 1.1-.2.4-.4.9-.4 1.4-.1.9.3 1.9 1 2.5.7.6 1.9.8 2.8.4.9-.4 1.5-1.5 1.4-2.5-.1-1.1-1.2-1.9-2.3-1.7z" clip-path="url(#a)"/></g><path fill="none" d="M68.23 87.88V56.36m5.79-7.48l9.31-6.29M31.7 56.36v31.52m-5.79-39.11l-9.42-6.27"/></svg>
