<svg width="100" height="100" viewBox="0 0 100 100" xmlns="http://www.w3.org/2000/svg"><path fill="#D7D1D0" d="M19.14 78.307l31.02 18.04 31.02-18.04v-56.43l-31.02-3.19-31.02 3.19"/><path fill="#17193F" stroke="#17193F" stroke-linejoin="bevel" stroke-miterlimit="10" d="M44.88 70.387c-.33-.33-25.74 9.02-25.74 9.02l-1.1-5.72-.44-7.92 31.57-11.55v14.74l-4.29 1.43z"/><path fill="#FFF" stroke="#17193F" stroke-linejoin="bevel" stroke-miterlimit="10" d="M42.13 69.288c-.33-.33-23.76 8.47-23.76 8.47l-.22-8.36-.77-6.05 28.38-11.33v15.84l-3.63 1.43z"/><path fill="#4343BF" stroke="#17193F" stroke-linejoin="bevel" stroke-miterlimit="10" d="M43.56 94.147l6.49 3.96 6.71-3.96v-76.56l-6.71-.66-6.49.66z"/><path fill="#17193F" d="M50.16 99.868l-33.99-19.91v-60.72l34.1-3.52 34.1 3.52v60.72l-34.21 19.91zm-31.02-21.56l31.02 18.15 31.02-18.15v-56.43l-31.02-3.19-31.02 3.19v56.43z"/><path fill="#ACA1A1" stroke="#17193F" stroke-linejoin="bevel" stroke-miterlimit="10" d="M55.66 64.997l29.26.44 5.94 6.27-6.38 6.6H55.66z"/><path fill="#17193F" stroke="#17193F" stroke-linejoin="bevel" stroke-miterlimit="10" d="M58.3 78.197l-1.54 1.32 27.61.66-.33-.77z"/><path fill="#17193F" stroke="#17193F" stroke-linejoin="bevel" stroke-miterlimit="10" d="M90.86 71.707v1.87l-6.49 6.6-.33-.77z"/><path fill="#17193F" d="M57.31 94.367l-6.05 3.19v-79.53h6.05M46.64 17.148h2.2v79.97h-2.2z"/><path fill="#17193F" stroke="#17193F" stroke-linejoin="bevel" stroke-miterlimit="10" d="M41.36 41.018L5.83 29.468l-1.76 2.09 7.04 11.55 33.99 16.72 2.86-1.32z"/><path fill="#FF4E23" stroke="#17193F" stroke-linejoin="bevel" stroke-miterlimit="10" d="M41.8 38.818l-25.52-14.63-11 5.5 7.04 11.11 34.54 17.71v-15.95z"/><path fill="#17193F" stroke="#17193F" stroke-linejoin="bevel" stroke-miterlimit="10" d="M54.56 26.828v16.83l30.58-13.64 5.72-10.34-7.26-6.27z"/><path fill="#4343BF" stroke="#17193F" stroke-linejoin="bevel" stroke-miterlimit="10" d="M52.36 24.628v16.94l31.24-13.64 5.39-9.9-7.15-6.71z"/><path fill="#17193F" d="M53.46 41.567l.88 2.09 31.35-13.64-.77-2.09"/><path fill="none" d="M68.23 87.88V56.36m5.79-7.48l9.31-6.29M31.7 56.36v31.52m-5.79-39.11l-9.42-6.27"/></svg>