<svg width="100" height="100" viewBox="0 0 100 100" xmlns="http://www.w3.org/2000/svg"><path fill="none" d="M67.22 16.68h.3m-4.1-.62l.29-.01M63.42 16.06l.29-.01"/><path fill="#F15A29" d="M18.11 78.69L50 97.32l31.89-18.63V20.74L50 17.45l-31.89 3.29z"/><path fill="#151841" d="M50 100L16 80.14V19.5L50 16l34 3.5v60.64L50 100zM19.04 78.44L50 96.53l30.96-18.09V22.19L50 19l-30.96 3.19v56.25z"/><path fill="#4751A2" d="M61.82 49.94l-2.15 3.87-13.3.2-2.22-4.09z"/><path fill="#A9A09F" d="M48.88 26.81l11.19 19.12h-4.99l-6.64-11.24-9.45 15.24 9.44 14.99-4.85.39-6.27-11.51-10.84 19.12-2.39-4.12z"/><path fill="#4751A2" d="M77.22 68.93l-2 3.99H26.47l2.6-5 8.24-14.12 2.25 4.05-6.24 11.08 17.35.11 9-15.23 2.14 3.95-6.58 11.17z"/><path fill="#A9A09F" d="M54.83 53.97l4.39.06-8.39 14.73-2.4-3.68z"/><path fill="#fff" d="M48.74 27.57h3.96l24.52 41.36H55.23l2.22-3.8s12.38-.45 13.31-.11c.42.16-3.86-6.55-8.94-15.09l-17.67-.02 2.34-3.89H59.5c-5.75-9.63-10.76-18.45-10.76-18.45z"/><path fill="#A9A09F" d="M61.82 49.94l8.94 15.08-4.75-.14-6.25-11.21z"/><path fill="#fff" d="M35.33 65.02l13.1.06 2.16 3.85H33.32zm4.23-15.07l4.72-.03 6.31 11.41-2.16 3.59z"/><path fill="#4751A2" d="M39.56 49.95l8.88-15.26 2.15 4.1-6.31 11.13z"/><path fill="#151841" d="M57.49 65.66l14.09.03-8.61-14.78-.83-1.49H45.02l1.67-2.89h13.73L49.68 28.12l-.8-1.31-.85.52 10.64 18.2h-3.31l-6.93-11.84-9.45 16.24 8.55 14.73h-3.36l-6.28-10.83-.58-1.03-11.59 19.88.86.5L37.3 54.8l5.71 9.85h-7.69v1h12.79l2.12 3.64.86-.5L49 65.21l6.52-11.16-.86-.5-3.98 6.82-5.67-9.95h16.54l8.28 14.26-12.34-.02v1zM47.26 45.53l3.45-5.96 3.49 5.96h-6.94zm2.84 15.84l-1.67 2.86-8.24-14.13-.07-.14 7.95-13.64.37-.64 1.69 2.89-6.56 11.34 6.53 11.46zm3.18-34.8h-5.11l-24.6 42.16 2.36 4.7h49.59l2.58-4.38-24.82-42.48zm21.66 45.85h-48.4l-1.84-3.67 24.04-41.19h3.96l23.94 40.98H56.1l5.76-9.87 3.93 6.74.86-.5-6.75-11.56-13.52-.05v1l12.41.04-6.24 10.7-2.15 3.5H33.96L40 58.1l-.87-.5-6.91 11.94h18.73l2.45-3.98 6.24-10.7 1.65 2.82-6.92 11.86h22.27l-1.7 2.88z"/><path fill="none" stroke="#5854A4" stroke-miterlimit="10" d="M37.24 46.03000000000001"/></svg>