<svg width="100" height="100" viewBox="0 0 100 100" xmlns="http://www.w3.org/2000/svg"><path fill="#F15A29" d="M18.11 78.69L50 97.32l31.89-18.63V20.74L50 17.45l-31.89 3.29"/><path fill="#151841" d="M50 100L16 80.14V19.5L50 16l34 3.5v60.64L50 100zM19.04 78.44L50 96.53l30.96-18.09V22.19L50 19l-30.96 3.19v56.25z"/><circle fill="#4751A2" cx="49.98" cy="55.04" r="26.13"/><path fill="#FFF" d="M49.98 31.97V78.2c12.77 0 23.16-10.39 23.16-23.16S62.75 31.97 49.98 31.97z"/><path fill="#A9A09F" d="M50.07 31.97c-12.87 0-23.16 10.39-23.16 23.16S37.21 78.2 49.98 78.2h.1V31.97h-.01z"/><path fill="#4751A2" d="M49.98 35.14c-10.99 0-20 8.91-20 20 0 10.99 8.91 20 20 20s20-8.91 20-20-9.02-20-20-20zm0 36.13c-8.91 0-16.24-7.23-16.24-16.24 0-8.91 7.23-16.24 16.24-16.24s16.24 7.23 16.24 16.24c-.11 9.02-7.33 16.24-16.24 16.24z"/><path fill="#151841" d="M49.98 81.67c-14.69 0-26.63-11.95-26.63-26.63S35.29 28.4 49.98 28.4s26.63 11.95 26.63 26.63-11.95 26.64-26.63 26.64zm0-52.27c-14.13 0-25.63 11.5-25.63 25.63s11.5 25.63 25.63 25.63 25.63-11.5 25.63-25.63S64.11 29.4 49.98 29.4z"/><path fill="none" d="M67.22 16.68h.3"/><path fill="#4751A2" d="M49.98 42.46c-7.03 0-12.67 5.64-12.67 12.67S42.95 67.8 49.98 67.8s12.67-5.64 12.67-12.67S57 42.46 49.98 42.46zm0 21.68c-4.95 0-9.01-4.06-9.01-9.01s4.06-9.01 9.01-9.01 9.01 4.06 9.01 9.01-4.06 9.01-9.01 9.01z"/><circle fill="#4751A2" cx="50.07" cy="55.14" r="5.64"/><circle fill="#F15A29" cx="50.07" cy="55.04" r="2.77"/><path fill="none" d="M66.01 38.11l.49 1.19"/><path fill="#4751A2" d="M81.36 12.37c-1.78.2-1.39-.3-3.07.3-.4-.2-1.68.2-2.08.3-.49.1-.89.99-1.29 1.48-1.29 1.78-1.58 3.56-2.57 5.54-.4.69-1.78 2.57-2.28 2.47-.89-.2-2.77-2.38-2.97-2.87.49-.79 3.27-5.54 4.06-7.23.69-1.58 0-2.47-.49-4.16-.4-1.48-.89-2.28-1.09-3.86-.59-4.75-2.87-.49-3.37 1.39-.59 2.08-5.35 9.31-5.05 10.69.4 1.88 2.71 8.54 3.6 7.85.79.89 2.51 1.1 3.5 1.79 1.29.79 2.5.56 6.76-.33 1.39-.3.49-.4 1.78-.79 1.39-.49 2.28-2.57 2.87-3.86l2.28-3.66c.79-1.48 2.47-4.65 3.07-6.24.89-1.78-.49.79-3.66 1.19z"/><path fill="#F15A29" d="M76.73 7.04c-1.88-1.29-1.71-1.2-2.5-.21-2.97 3.37-3.96 8.32-6.53 11.98-1.48 2.18-2.87 3.56-2.87 5.94l-1.09 1.48c-2.47 3.76-3.76 7.52-6.34 12.18l-2.38 4.26c-1.09 1.29-1.19 3.37-2.38 4.45-.59.59-1.48 1.58-.99 2.08-.89 1.39-.3 1.39-1.29 2.67-2.57 3.17-.47 4.59.59 4.06 1.68-1.39 5.84-8.81 8.22-12.67 2.67-4.36 4.85-8.91 7.42-13.36.2-.3 1.48-1.78 1.48-2.08.49-.79.79-1.88 1.29-2.77 1.29-4.06 3.37-5.44 5.54-9.9.91-2.28 6.48-8.41 1.83-8.11z"/><g fill="#151841"><path d="M67.99 1.38c-1.88 3.66-3.86 7.23-5.84 10.89-.69 1.19-1.88 2.77-1.58 4.16.69 2.87 2.18 5.54 3.07 8.41.2.69 1.29.4.99-.3-.89-2.67-2.08-5.25-2.87-7.92-.3-1.09.2-1.78.69-2.67.3-.59.59-1.19.99-1.78 1.88-3.46 3.76-6.83 5.54-10.3.2-.59-.69-1.18-.99-.49z"/><path d="M72.2 9.62c-.69-1.19-2.59-6.4-3.18-7.98-.2-.59-1.21-.46-.92.23.69 1.68 2.67 7.82 3.37 9.01.3.49 1.18-.21.88-.79l-.15-.47zM70.32 13.15c-.69-1.19-2.43-6.52-3.02-8.11-.2-.59-1.29-.4-.99.3.69 1.68 2.67 7.82 3.37 9.01.3.59 1.09-.26.79-.85l-.15-.35zM68.49 17.32c-.69-1.19-1.09-2.57-1.48-3.86l-1.78-4.85c-.2-.59-1.29-.4-.99.3.69 1.68 1.29 3.46 1.88 5.15.49 1.29.79 2.67 1.48 3.86.29.59 1.28-.01.89-.6zM66.51 20.98c-.69-1.19-1.09-2.57-1.48-3.86l-1.78-4.85c-.2-.59-1.29-.4-.99.3.69 1.68 1.29 3.46 1.88 5.15.49 1.29.79 2.67 1.48 3.86.29.49 1.28 0 .89-.6z"/></g><g fill="#151841"><path d="M52.14 55.43c1.19-1.48 1.89-3.17 2.88-4.75l6.34-10.99 13.96-24.35 3.58-6.2c.3-.59-.8-.83-1.1-.14-2.97 5.05-5.94 10.1-8.91 15.25L54.93 48.7c-.79 1.39-2.97 5.05-3.27 5.54-.1.1 0 1.88.4 1.39l.08-.2z"/><path d="M85.63 10.89c0-.27-.15-.48-.48-.37-1.68.4-3.29.68-5.07 1.08l-3.96.93c-.69 0-.35 1.11-.35 1.11 1.19-.14 6.05-1.2 8.45-1.72-1.74 3.01-3.35 5.98-5.04 9.08-.3.59-.59 1.09-.99 1.68-.49.89-.79 1.68-1.88 1.98-2.67.79-5.54 1.09-8.22 1.78-.69.2-.4 1.19.3.99 2.87-.79 5.94-.99 8.71-1.98 1.39-.49 1.98-2.28 2.57-3.46 1.83-3.39 3.38-6.4 5.25-9.65.09-.15.31-.51.48-.83.09-.13.22-.6.23-.62z"/><path d="M74.03 16.83c.62-.04 2.77-.49 4.06-.79 1.78-.4 2.97-.67 4.85-1.06.69-.1.99-1.31.3-1.11-1.68.4-3.37.69-5.15 1.09-1.29.3-2.5.59-3.76.78-.69.08-.99 1.09-.3 1.09zM72.05 20.49c1.1-.17 2.77-.49 4.06-.79 1.78-.4 2.95-.66 4.83-1.05.69-.1 1.01-1.32.32-1.13-1.68.4-3.37.69-5.15 1.09-1.29.3-2.61.53-3.89.68-.69.08-.86 1.2-.17 1.2zM70.17 24.15c1.39 0 2.77-.49 4.06-.79 1.78-.4 2.95-.66 4.83-1.05.69-.1 1.01-1.32.32-1.13-1.68.4-3.37.69-5.15 1.09-1.29.3-2.77.79-4.06.79-.69 0-.69 1.09 0 1.09z"/></g><path fill="#151841" d="M77.99 9.5c-.59 0-1.48-.3-2.28-.69-1.29-.69-2.54-1.87-2.14-2.66.1-.2.35-.61 1.15-.51.59.07 1.48.3 2.28.69.69.4 1.19.79 1.58 1.19.59.69.49 1.19.4 1.48-.1.2-.39.5-.99.5zm-3.56-2.97c0 .2.49.89 1.58 1.48.69.4 1.39.59 1.88.59h.2c.21-.11-.49-.89-1.58-1.48-.7-.39-1.8-.69-2.08-.59zM49.38 52.23c-1.14 1.68-.8 2.92.09 3.61.99.69 2.17.49 2.76-.49.4-.69.15-2.49-.15-1.79-1.24 2.04-1.51 1.65-2 1.35-.4-.3-.58-.84.38-2.4.56-1.13-.21-1.68-.61-.99l-.47.71zM64.73 27.22l9.6-17.23c.1-.2.4-.3.59-.2.2.1.3.4.2.59l-9.5 17.32c-.71.75-1.14.06-.89-.48z"/><path fill="#151841" d="M49.89 53.59s1.87-3.6 2.56-4.89C54.43 44.94 67 20.88 71.36 12.57c.99-1.98 2.08-3.96 3.07-5.84.3-.59-.59-1.19-.89-.49-2.87 5.25-5.54 10.59-8.41 15.94-4.46 8.41-8.82 16.82-13.17 25.23-1.09 2.08-2.47 4.16-3.17 6.34-.2.49.57.9.77.21l.33-.37z"/><path fill="#F1662A" d="M81.52 37.99c.41.91.46 1.86.38 2.03-.18 0-1.05-.58-1.58-1.45.27-.19.88-.48 1.2-.58zM57.99 51.58c-.51-.39-.01-.63-.02-.77 5.3-2.42 9.47-4.52 14.59-7.24 1.85-1.01 3.8-2.02 5.56-3.22.66-.38 1.31-.87 1.88-1.34.29.44.59.82.88 1.09l.43.27c-7.37 3.73-15.02 7.76-22.48 11.3l-.84-.09z"/><path fill="#A9A09F" d="M38.02 17.84c-.09.09 6.01 5.2 6.3 5.01.4-.1.7-10.79.53-14.52 0 0-6.26-5.76-6.75-5.85l-.08 15.36z"/><path fill="#FFF" d="M85.24 45.98c-1.69-.75-6.47-2.82-7.06-2.81-.6.01-12.69 6.06-13.48 6.37-.78.21-.84.95-.74 1.04 1.6.75 4.73 1.72 6.52 2.18.7.18 1.63.56 2.32.44.6-.11 2.04-.6 2.52-.9 3.42-1.94 6.23-3.7 9.95-5.14.28-.21.56-1-.03-1.18z"/><g><path fill="#F15A29" d="M65.31 58.23c-4.62-.11-9.33-.21-13.96-.67-.2-.01-.37.04-.49.12-.07.02-.14.05-.2.09-.59.35-1.56.99-.66 1.45.5.27 1.28.25 1.88.3 1.09.04 2.17.09 3.15.14 2.27.09 4.44.25 6.71.34.89.05 2.27.02 3.05-.2.59-.15.77-.63 1.16-.98.38-.3-.18-.78-.64-.59z"/><path fill="#151841" d="M62.51 60.53c-.29 0-.56-.01-.79-.02-1.12-.05-2.22-.11-3.33-.17-1.12-.06-2.23-.13-3.38-.17l-.65-.03c-.8-.04-1.65-.08-2.5-.11l-.41-.03c-.56-.03-1.2-.07-1.69-.33-.5-.26-.62-.61-.63-.85-.02-.61.6-1.07 1.27-1.47.06-.04.14-.09.24-.12.18-.11.41-.17.65-.17h.11c4.56.45 9.25.56 13.78.67h.05c.52-.15 1.14.15 1.31.61.11.31.02.65-.25.87-.09.08-.18.19-.26.29-.24.29-.53.65-1.1.79-.73.21-1.83.24-2.42.24zm-12.33-1.77c.01.01.03.02.05.03.3.16.83.19 1.29.22l.41.03c.83.03 1.68.07 2.48.11l.65.03c1.15.05 2.27.11 3.39.17 1.1.06 2.2.12 3.32.17.23.01.48.02.75.02.91 0 1.7-.07 2.15-.2.25-.06.37-.2.58-.46.04-.04.07-.09.11-.13l-.18-.01c-4.56-.11-9.27-.22-13.87-.67-.09 0-.14.02-.15.03l-.17.08c-.53.3-.73.48-.81.58z"/></g><g><path fill="none" d="M63.42 16.06l.29-.01"/></g><path fill="#151841" d="M87.22 45.96c-.01-.15-.11-.28-.31-.33l-4.97-1.96c-.98-.39-1.97-.65-2.91-1.11 1.08-.55 2.16-1.09 3.25-1.65.24-.13.54-1.14.46-1.77-.01-.42-.65-2.14-1.03-2.14-1.38.12-2.25 1.32-3.31 2.03-1.85 1.22-3.7 2.34-5.65 3.36-5.46 2.96-9.85 5.21-15.53 7.79-.61 1.48 1 2.28 1.32 2.27.15 0 .66-.01.78-.06l4.04-1.98.07.03c2.78.92 5.38 2.44 8.15 3.27 1.49.46 3.04-.75 4.41-1.47 3.71-1.85 7.31-3.78 11.03-5.54.28-.18.31-.49.2-.74zm-5.69-7.84c.41.93.41 1.54.33 1.72-.18 0-.66-.37-1.2-1.25.26-.2.54-.37.87-.47zM58.78 51.49c-.25.04-.53.05-.67-.07-.1-.07-.13-.21-.14-.35 5.3-2.44 9.47-4.57 14.59-7.31 1.85-1.02 3.8-2.04 5.56-3.25.66-.39 1.31-.88 1.88-1.36.29.45.59.83.88 1.1l.19.14c-7.37 3.77-14.83 7.52-22.29 11.1zm15.44.3l-.4.21c-.97.51-1.57.72-2.56.34-1.29-.57-5.72-2.21-6.59-2.58L67 48.6c1.08.62 6.2 2.52 7.5 3.03l-.28.16zm1.75-.92l-.28.15c-1.55-.6-6.68-2.44-7.66-2.92.9-.45 1.82-.9 2.72-1.36 1.05.57 6.14 2.47 7.48 3-.76.38-1.51.75-2.26 1.13zm3.45-1.75c-1.59-.62-3.11-1.24-4.71-1.86-.97-.38-1.98-.61-2.93-1.05l2.7-1.35c1.04.54 2.32.94 3.36 1.35 1.39.54 2.73 1.08 4.1 1.62-.84.43-1.67.86-2.52 1.29zm3.74-1.9l-4.83-1.91c-.98-.39-1.83-.59-2.72-1.02.78-.39 1.55-.78 2.33-1.18 1.07.58 2.42 1.01 3.52 1.44l3.95 1.55c-.76.39-1.51.75-2.25 1.12z"/><g><path fill="#CF4A27" d="M47.58 3.49c.09-.39-.22-.87-.61-.76-1.43.02-1.71.81-1.7.91-.09.09-.19 37.55.82 48.31.11.77.84.95.82.07-.32-10.77-.7-33.44-.63-35.2.39-9.99 1.19-13.13 1.3-13.33z"/><path fill="#151841" d="M48.14 2.51c-.13-.42-.6-.46-.88-.27-.63.04-1.19.13-1.68.22-.89.21-1.26.79-1.25 1.09l-.01.1-.05 3.57c-.79-.64-5.9-5.27-5.9-5.29-.07-.37-.54-.5-.86-.36-.28.1-.79 15.83.02 16.79.41.58 2.71 2.67 3.32 3.14 1.07 1.02 2.33 1.84 3.33 2.86.04 6.56.21 13.13.58 19.69.17 3.58.35 7.18 1.11 10.66.04.22.4 1.05.81 1.06.07 0 1.01-.03 1.18-.22.28-.59-.04-1.75-.05-2.33l-.18-4.17c-.17-3.88-.5-7.77-.44-11.64.13-8.86-.45-17.29.06-25.83.06-1.75.22-3.41.49-5.16.16-1.28.82-2.95.4-3.91zm-3.97 20.35c-1.77-1.59-3.64-3.09-5.37-4.8-.59-.61-.71-1.61-.7-2.61 1.1.97 1.85 1.66 3.07 2.65.97.82 1.94 1.83 2.99 2.57l.01 2.19zm-.01-3.57c-.83-.65-4.8-4.25-5.98-5.28l.04-.51.01-2.12c1.04.92 4.93 4.4 5.94 5.14-.01.92-.01 1.85-.01 2.77zm.02-4.15c-.8-.64-1.56-1.46-2.33-2.1l-3.6-3.14.05-2.72c1.16 1.03 4.96 4.41 5.9 5.13-.01.93-.01 1.88-.02 2.83zm.03-4.18c-.76-.57-4.65-4.09-5.89-5.17.02-.8.03-1.6.03-2.39 1.01.91 2.01 1.82 3.05 2.66.92.78 1.84 1.73 2.84 2.46l-.03 2.44zm2.91-7.86c.05.3.04.63-.02.97-.99-.06-1.53-.36-1.62-.53.1-.18.68-.42 1.64-.44zm-.43 49.95l.03.21-.03-.21zm.13 1.68l.03-.13v.01l.03.14-.06-.02zm-.64-33.2c.3 8.32-.07 16.28.2 24.53l.2 5.25c.01.58.02 1.08.09 1.64-.15-1.16-.69-5.42-.82-7.84-.29-4.17-.37-8.35-.46-12.52-.16-7.86-.13-15.73-.09-23.7.01-.14.03-2.59.06-4.29.46.16 1.01.27 1.58.33-.11.48-.24.94-.31 1.32-.15 1.34-.59 11.6-.45 15.28z"/></g></svg>
