<svg width="100" height="100" viewBox="0 0 100 100" xmlns="http://www.w3.org/2000/svg"><path fill="#F15A29" d="M18.11 78.69L50 97.32l31.89-18.63V20.74L50 17.45l-31.89 3.29"/><path fill="#151841" d="M50 100L16 80.14V19.5L50 16l34 3.5v60.64L50 100zM19.04 78.44L50 96.53l30.96-18.09V22.19L50 19l-30.96 3.19v56.25z"/><circle fill="#4751A2" cx="49.98" cy="55.04" r="26.13"/><path fill="#FFF" d="M49.98 31.97V78.2c12.77 0 23.16-10.39 23.16-23.16S62.75 31.97 49.98 31.97z"/><path fill="#A9A09F" d="M50.07 31.97c-12.87 0-23.16 10.39-23.16 23.16S37.21 78.2 49.98 78.2h.1V31.97h-.01z"/><path fill="#4751A2" d="M49.98 35.14c-10.99 0-20 8.91-20 20 0 10.99 8.91 20 20 20s20-8.91 20-20-9.02-20-20-20zm0 36.13c-8.91 0-16.24-7.23-16.24-16.24 0-8.91 7.23-16.24 16.24-16.24s16.24 7.23 16.24 16.24c-.11 9.02-7.33 16.24-16.24 16.24z"/><path fill="#151841" d="M49.98 81.67c-14.69 0-26.63-11.95-26.63-26.63S35.29 28.4 49.98 28.4s26.63 11.95 26.63 26.63-11.95 26.64-26.63 26.64zm0-52.27c-14.13 0-25.63 11.5-25.63 25.63s11.5 25.63 25.63 25.63 25.63-11.5 25.63-25.63S64.11 29.4 49.98 29.4z"/><path fill="none" d="M67.22 16.68h.3"/><path fill="#4751A2" d="M49.98 42.46c-7.03 0-12.67 5.64-12.67 12.67S42.95 67.8 49.98 67.8s12.67-5.64 12.67-12.67S57 42.46 49.98 42.46zm0 21.68c-4.95 0-9.01-4.06-9.01-9.01s4.06-9.01 9.01-9.01 9.01 4.06 9.01 9.01-4.06 9.01-9.01 9.01z"/><circle fill="#4751A2" cx="50.07" cy="55.14" r="5.64"/><circle fill="#F15A29" cx="50.07" cy="55.04" r="2.77"/><path fill="none" d="M66.01 38.11l.49 1.19"/><path fill="#FFF" d="M81.36 12.37c-1.78.2-1.39-.3-3.07.3-.4-.2-1.68.2-2.08.3-.49.1-.89.99-1.29 1.48-1.29 1.78-1.58 3.56-2.57 5.54-.4.69-1.78 2.57-2.28 2.47-.89-.2-2.77-2.38-2.97-2.87.49-.79 3.27-5.54 4.06-7.23.69-1.58 0-2.47-.49-4.16-.4-1.48-.89-2.28-1.09-3.86-.59-4.75-2.87-.49-3.37 1.39-.59 2.08-5.35 9.31-5.05 10.69.4 1.88 2.71 8.54 3.6 7.85.79.89 2.51 1.1 3.5 1.79 1.29.79 2.5.56 6.76-.33 1.39-.3.49-.4 1.78-.79 1.39-.49 2.28-2.57 2.87-3.86l2.28-3.66c.79-1.48 2.47-4.65 3.07-6.24.89-1.78-.49.79-3.66 1.19z"/><path fill="#F15A29" d="M76.73 7.04c-1.88-1.29-1.71-1.2-2.5-.21-2.97 3.37-3.96 8.32-6.53 11.98-1.48 2.18-2.87 3.56-2.87 5.94l-1.09 1.48c-2.47 3.76-3.76 7.52-6.34 12.18l-2.38 4.26c-1.09 1.29-1.19 3.37-2.38 4.45-.59.59-1.48 1.58-.99 2.08-.89 1.39-.3 1.39-1.29 2.67-2.57 3.17-.47 4.59.59 4.06 1.68-1.39 5.84-8.81 8.22-12.67 2.67-4.36 4.85-8.91 7.42-13.36.2-.3 1.48-1.78 1.48-2.08.49-.79.79-1.88 1.29-2.77 1.29-4.06 3.37-5.44 5.54-9.9.91-2.28 6.48-8.41 1.83-8.11z"/><g fill="#151841"><path d="M67.99 1.38c-1.88 3.66-3.86 7.23-5.84 10.89-.69 1.19-1.88 2.77-1.58 4.16.69 2.87 2.18 5.54 3.07 8.41.2.69 1.29.4.99-.3-.89-2.67-2.08-5.25-2.87-7.92-.3-1.09.2-1.78.69-2.67.3-.59.59-1.19.99-1.78 1.88-3.46 3.76-6.83 5.54-10.3.2-.59-.69-1.18-.99-.49z"/><path d="M72.2 9.62c-.69-1.19-2.59-6.4-3.18-7.98-.2-.59-1.21-.46-.92.23.69 1.68 2.67 7.82 3.37 9.01.3.49 1.18-.21.88-.79l-.15-.47zM70.32 13.15c-.69-1.19-2.43-6.52-3.02-8.11-.2-.59-1.29-.4-.99.3.69 1.68 2.67 7.82 3.37 9.01.3.59 1.09-.26.79-.85l-.15-.35zM68.49 17.32c-.69-1.19-1.09-2.57-1.48-3.86l-1.78-4.85c-.2-.59-1.29-.4-.99.3.69 1.68 1.29 3.46 1.88 5.15.49 1.29.79 2.67 1.48 3.86.29.59 1.28-.01.89-.6zM66.51 20.98c-.69-1.19-1.09-2.57-1.48-3.86l-1.78-4.85c-.2-.59-1.29-.4-.99.3.69 1.68 1.29 3.46 1.88 5.15.49 1.29.79 2.67 1.48 3.86.29.49 1.28 0 .89-.6z"/></g><g fill="#151841"><path d="M52.14 55.43c1.19-1.48 1.89-3.17 2.88-4.75l6.34-10.99 13.96-24.35 3.58-6.2c.3-.59-.8-.83-1.1-.14-2.97 5.05-5.94 10.1-8.91 15.25L54.93 48.7c-.79 1.39-2.97 5.05-3.27 5.54-.1.1 0 1.88.4 1.39l.08-.2z"/><path d="M85.63 10.89c0-.27-.15-.48-.48-.37-1.68.4-3.29.68-5.07 1.08l-3.96.93c-.69 0-.35 1.11-.35 1.11 1.19-.14 6.05-1.2 8.45-1.72-1.74 3.01-3.35 5.98-5.04 9.08-.3.59-.59 1.09-.99 1.68-.49.89-.79 1.68-1.88 1.98-2.67.79-5.54 1.09-8.22 1.78-.69.2-.4 1.19.3.99 2.87-.79 5.94-.99 8.71-1.98 1.39-.49 1.98-2.28 2.57-3.46 1.83-3.39 3.38-6.4 5.25-9.65.09-.15.31-.51.48-.83.09-.13.22-.6.23-.62z"/><path d="M74.03 16.83c.62-.04 2.77-.49 4.06-.79 1.78-.4 2.97-.67 4.85-1.06.69-.1.99-1.31.3-1.11-1.68.4-3.37.69-5.15 1.09-1.29.3-2.5.59-3.76.78-.69.08-.99 1.09-.3 1.09zM72.05 20.49c1.1-.17 2.77-.49 4.06-.79 1.78-.4 2.95-.66 4.83-1.05.69-.1 1.01-1.32.32-1.13-1.68.4-3.37.69-5.15 1.09-1.29.3-2.61.53-3.89.68-.69.08-.86 1.2-.17 1.2zM70.17 24.15c1.39 0 2.77-.49 4.06-.79 1.78-.4 2.95-.66 4.83-1.05.69-.1 1.01-1.32.32-1.13-1.68.4-3.37.69-5.15 1.09-1.29.3-2.77.79-4.06.79-.69 0-.69 1.09 0 1.09z"/></g><path fill="#151841" d="M77.99 9.5c-.59 0-1.48-.3-2.28-.69-1.29-.69-2.54-1.87-2.14-2.66.1-.2.35-.61 1.15-.51.59.07 1.48.3 2.28.69.69.4 1.19.79 1.58 1.19.59.69.49 1.19.4 1.48-.1.2-.39.5-.99.5zm-3.56-2.97c0 .2.49.89 1.58 1.48.69.4 1.39.59 1.88.59h.2c.21-.11-.49-.89-1.58-1.48-.7-.39-1.8-.69-2.08-.59zM49.38 52.23c-1.14 1.68-.8 2.92.09 3.61.99.69 2.17.49 2.76-.49.4-.69.15-2.49-.15-1.79-1.24 2.04-1.51 1.65-2 1.35-.4-.3-.58-.84.38-2.4.56-1.13-.21-1.68-.61-.99l-.47.71zM64.73 27.22l9.6-17.23c.1-.2.4-.3.59-.2.2.1.3.4.2.59l-9.5 17.32c-.71.75-1.14.06-.89-.48z"/><path fill="#151841" d="M49.89 53.59s1.87-3.6 2.56-4.89C54.43 44.94 67 20.88 71.36 12.57c.99-1.98 2.08-3.96 3.07-5.84.3-.59-.59-1.19-.89-.49-2.87 5.25-5.54 10.59-8.41 15.94-4.46 8.41-8.82 16.82-13.17 25.23-1.09 2.08-2.47 4.16-3.17 6.34-.2.49.57.9.77.21l.33-.37z"/></svg>
