<svg width="100" height="100" viewBox="0 0 100 100" xmlns="http://www.w3.org/2000/svg"><path fill="#B2A7A5" d="M17.245 78.458l32.6 18.6 32.6-18.6v-57.9l-32.6-3.3-32.6 3.3"/><path d="M50.045 99.958l-34-19.9v-60.6l34-3.5 34 3.5v60.6l-34 19.9zm-31-21.6l31 18.1 31-18.1v-56.2l-31-3.2-31 3.2v56.2z" fill="#141840"/><g transform="translate(.045 -.042)"><path d="M65.2 82.5H33.1c-1 0-1.8-.8-1.8-1.8V57c0-1 .8-1.8 1.8-1.8h32.1c1 0 1.8.8 1.8 1.8v23.7c0 1-.8 1.8-1.8 1.8z" fill="#4752A1" stroke="#1D1D3F" stroke-miterlimit="10" stroke-width="1.4"/><path d="M65.6 55h-33c-.7 0-1.3.6-1.3 1.3v3.6H67v-3.6c0-.7-.6-1.3-1.4-1.3z" fill="#FFF" stroke="#1D1D3F" stroke-miterlimit="10" stroke-width="1.4"/><circle cx="36" cy="57.5" r=".8" fill="#B2A7A5"/><circle cx="33.9" cy="57.5" r=".8" fill="#F1663C"/><path d="M25 31.1l1.7 1.1c.9.6 1.3 1.7 1 2.8l-.2.7-.6-.1c-1-.2-1.7-1.1-1.7-2.2l-.2-2.3zM66 41.7v2c0 1.1-.7 2-1.8 2.3l-.7.2-.2-.6c-.3-1 0-2.1.9-2.7l1.8-1.2zM44.4 22.6l-1.8 1.1c-.9.5-1.4 1.7-1.1 2.9l.2.7.7-.1c1-.2 1.8-1.1 1.9-2.3l.1-2.3zM32.8 24.8l.3 2.3c.1 1.2 1.1 2.1 2.3 2.3l.8.1.2-.7c.3-1.1-.3-2.3-1.4-2.9l-2.2-1.1zM52.1 28.1l-.2 2.3c-.1 1.2.6 2.3 1.7 2.8l.7.3.3-.7c.5-1.1.2-2.3-.8-3.1l-1.7-1.6zM49.7 33.3l-2.2-.4c-1.1-.2-2.3.4-2.8 1.6l-.3.7.6.4c1 .6 2.2.4 3.1-.5l1.6-1.8zM60.8 23.6l.3 2.4c.1 1.2 1.1 2.2 2.4 2.4l.8.1.2-.8c.3-1.2-.3-2.4-1.4-3l-2.3-1.1zM69 31.2l-2.8.2c-1.4.1-2.7 1.3-3 2.8l-.2 1 .9.3c1.4.4 2.9-.3 3.6-1.6l1.5-2.7zM77.7 43.7L76 41.4c-.9-1.2-2.5-1.6-3.9-1.1l-.9.4.2.9c.4 1.4 1.7 2.3 3.3 2.3l3-.2zM36.3 34.1l2.7.4c1.4.2 2.6 1.5 2.8 3l.1 1-.9.2c-1.4.3-2.8-.5-3.5-1.9l-1.2-2.7zM48 45l2.4 1.3c1.3.7 1.9 2.3 1.6 3.8l-.2 1-.8-.1c-1.4-.2-2.5-1.4-2.7-3l-.3-3zM58.9 37l-.4 2.8c-.2 1.5-1.4 2.6-2.9 2.8l-1 .1-.2-.9c-.3-1.4.5-2.9 1.8-3.6l2.7-1.2zM33.7 39.1l-.4 2.9c-.2 1.5-1.4 2.6-2.9 2.8l-1 .1-.2-.9c-.3-1.4.5-2.9 1.8-3.6l2.7-1.3z" fill="#4752A1"/><g fill="none" stroke="#1D1D3F" stroke-linecap="round" stroke-linejoin="round" stroke-miterlimit="10" stroke-width="1.7"><path d="M49.3 59.6v-5.1l-10.2-6.4v-5.9M44.4 36.9l-5.3 5.3-5.2-5.3M49.3 55.6l6.8-9.7M65.3 28.1l-2.8 4.2-2.9-4.2M62.5 41.5v-9.2M56.1 31.8l-3.6 5.3-3.6-5.3"/><path d="M62.5 41.9l-6.4 4-3.6-4.6v-4.2M40.8 26.6l3.6 5.3 3.6-5.3M44.4 36.9v-5M30.2 28.1l3.7 5.3 3.6-5.3M33.9 36.9v-3.5M70.3 44.8v-3.7M66.7 36.5l3.6 5.3 3.7-5.3M53.3 49.9l17-5.1M25.5 44v-4.9M29.2 33.8l-3.7 5.3-3.6-5.3M39.1 48.1L25.5 44"/></g><path d="M49.3 76.5c-1.2 0-2.8.3-2.8-1l.6-20.9c0-1.3 1-.2 2.2-.2s2.2-1.2 2.2.2l.5 21c0 1.3-1.5.9-2.7.9z" fill="#1D1D3F"/><circle cx="38.2" cy="57.5" r=".8" fill="#B2A7A5"/><path fill="#F1663C" stroke="#1D1D3F" stroke-miterlimit="10" stroke-width="1.4" d="M49.1 74h-7.8l2.1 8.5h11.5l2-8.5zM39.2 68.9h20V74h-20z"/></g></svg>
