<svg width="100" height="100" viewBox="0 0 100 100" xmlns="http://www.w3.org/2000/svg"><path d="M18.4 78.5l31 18.2 31.1-18.2V22.1l-31.1-3.5L18 21.9z" fill="#f1662a"/><path d="M82.1 79.4V66.9L58 55.9 21.2 76.8l32.4 19z" fill="#d3471c"/><path d="M51.5 77.7l9.4-4.2-31.5-17.6-8.2 4.1z" fill="#e25827"/><path d="M51.5 78.2c-.1 0-.2 0-.3-.1L20.9 60.5c-.2-.1-.3-.3-.2-.4 0-.2.1-.3.3-.4l8.2-4.2c.1-.1.3-.1.5 0l31.5 17.7c.2.1.3.3.3.5s-.1.4-.3.4l-9.4 4.2c-.2-.1-.2-.1-.3-.1zM22.2 60.1l29.3 17.1 8.3-3.7-30.4-17.1z" fill="#17193f"/><path d="M49.5 98.4l10.8-6.6L28.2 73l-11.4 6.4z" fill="#f1662a"/><path d="M49.5 98.9c-.1 0-.2 0-.3-.1l-32.7-19c-.2-.1-.3-.3-.2-.4s.1-.3.3-.4L28 72.6c.2-.1.3-.1.5 0l32.1 18.8c.2.1.2.3.2.4s-.1.3-.2.4l-10.8 6.6c-.1 0-.2.1-.3.1zM17.8 79.4l31.7 18.4 9.8-6-31.1-18.2z" fill="#17193f"/><path d="M22.5 46l6.9 9.9 31.5 17.6-6.4-9.7z" fill="#bc310c"/><path d="M60.9 74c-.1 0-.2 0-.2-.1L29.2 56.3c-.1 0-.1-.1-.2-.1l-6.9-9.9c-.1-.2-.1-.4 0-.6.2-.2.4-.2.6-.1l32 17.8c.1 0 .1.1.2.2l6.5 9.8c.1.2.1.4-.1.6h-.4zM29.8 55.5l29.6 16.6-5.3-7.9-29.9-16.7z" fill="#17193f"/><path d="M21.2 60l7 13 32.1 18.8-8.8-14.1z" fill="#bc310c"/><path d="M60.3 92.3c-.1 0-.2 0-.3-.1L28 73.4c-.1 0-.1-.1-.2-.2l-7-13c-.1-.2-.1-.4.1-.6s.4-.2.6-.1l30.3 17.7c.1 0 .1.1.2.2l8.8 14.1c.1.2.1.4-.1.6-.2.1-.3.2-.4.2zM28.6 72.6l30.2 17.7-7.6-12.2-28.7-16.7z" fill="#17193f"/><path d="M49.4 100L15.5 80.1V19.5l34-3.5 34 3.5v60.6zm-31-21.5l31 18.1 31-18.1V22.1L49.3 19l-31 3.2v.4c.1.1.1 55.9.1 55.9z" fill="#17193f"/><path d="M54.5 57.8L91.1 40 58.3 24.3 22.5 40z" fill="#d5d6db"/><path d="M54.5 58.3c-.1 0-.2 0-.2-.1l-32-17.8c-.2 0-.3-.2-.3-.4s.1-.4.3-.4l35.8-15.7c.1-.1.3-.1.4 0l32.8 15.7c.2.1.3.3.3.4 0 .2-.1.4-.3.5L54.7 58.3h-.2zM23.6 40.1l30.8 17.2L90 40 58.3 24.9z" fill="#17193f"/><path d="M77.1 46.5c-.1 0-.1 0-.2-.1l-16.7-8.1c-.2-.1-.4-.4-.2-.7.1-.2.4-.3.7-.2L78.2 46c.2.1-.6 0-.7.2s-.2.3-.4.3z" fill="#17193f"/><path d="M91.1 40v6L54.5 63.8v-6z" fill="#abadba"/><path d="M54.5 64.3c-.1 0-.2 0-.3-.1-.2-.1-.2-.3-.2-.4v-5.9c0-.2.1-.4.3-.5L91 39.6c.2-.1.3-.1.5 0 .1.1.2.3.2.4v6c0 .2-.1.4-.3.4L54.7 64.2c-.1 0-.2.1-.2.1zm.5-6.2V63l35.7-17.3v-4.8z" fill="#17193f"/><path d="M49.4 28.9l-7.6 17.4 8.1-3.9 6.7-16.7zM49.5 43.7l-3.5 9 5.3 2.9L57 40.2z" fill="#efeded"/><path d="M38.4 48.9c-.2 0-.4-.1-.5-.3s-.5-.3-.2-.4l34.8-16.7c.2-.1.5 0 .7.2.1.2.9.2.7.3L38.6 48.8c0 .1-.1.1-.2.1z" fill="#17193f"/><path d="M22.5 40v6l32 17.8v-6z" fill="#abadba"/><path d="M54.5 64.3c-.1 0-.2 0-.2-.1l-32-17.8c-.2-.1-.3-.2-.3-.4v-6c0-.2.1-.3.2-.4.2-.1.3-.1.5 0l32 17.8c.2.1.3.3.3.4v5.9c0 .2-.1.3-.2.4-.2.1-.3.2-.3.2zM23 45.7l31 17.2v-4.8L23 40.9z" fill="#17193f"/></svg>
