<svg width="100" height="100" viewBox="0 0 100 100" xmlns="http://www.w3.org/2000/svg"><path fill="#A9A09F" d="M17.17 79.07l31.9 18.63 31.89-18.63V21.11l-31.9-3.28-31.89 3.28z"/><g fill="#fff"><circle cx="33.54" cy="78.36" r="1.82"/><circle cx="22.26" cy="64.53" r="1.82"/><circle cx="44.83" cy="64.53" r="1.82"/><circle cx="56.1" cy="78.36" r="1.82"/><circle cx="78.66" cy="78.36" r="1.82"/><circle cx="67.38" cy="64.53" r="1.82"/><circle cx="44.83" cy="92.01" r="1.82"/><circle cx="33.54" cy="23.18" r="1.82"/><circle cx="56.1" cy="23.18" r="1.82"/><circle cx="78.66" cy="23.18" r="1.82"/><path d="M52.97 56.69h.1"/><circle cx="33.54" cy="50.66" r="1.82"/><circle cx="22.26" cy="36.83" r="1.82"/><circle cx="44.83" cy="36.83" r="1.82"/><circle cx="78.66" cy="50.66" r="1.82"/><circle cx="67.38" cy="36.83" r="1.82"/></g><path fill="#A9A09F" stroke="#F15A29" stroke-width="4" stroke-miterlimit="10" d="M62.29 10.450000000000003"/><path fill="none" d="M21.4 62.59h.3"/><path fill="#fff" d="M56.82 93.44l18.17-10.71c-.1-.19-.94-.97-1.12-1.06-1.17-.88-8.01-5.66-10.35-7.23-1.66-1.08-3.49-2.21-4.98-3.32-2.39-1.48-1.89-10.09-3.81-12.5 0-.09-.7-4.27-9.87-3.13.39-1.66-.68-3.32-2.34-4-.2-.09.27-.58.16-.58.2-1.17-3.13-2.57-4.98-.17-1.54 1.52-1.06 3.45-.84 3.21-.65-.03-.88 0-1.27 0-.78 0-1.46.2-2.05.68-.29.29-1.67 2.83-1.76 3.91 0 .29 0 .68.2.98-1.66 1.76-1.66 4.98.2 6.55-.2.09-3.59 4.24.16 6.86.78.78 5.81 5.53 11.48 7.35 5.6.5 5.63 1.68 5.92 1.79 1.66 2.33 6.43 10.4 7.08 11.37z"/><path fill="#818285" d="M48.32 65.01c-.39 3.23 2.83 4.6 1.46 5.86-8.49-.93-3.69 5.34-9.5 5.94-.58.06-1.9-.52-2.45-.71-2.57-.89-2.61-.28-4.54-2.81-.15-.19.26-.52.16-.75-.92-2.03-1-4.43.31-7.25 2.63-5.66 2.75-15.98 9.1-13.24.66 1.06 2.04 2.3 1.75 2.4-.88.49-1.55.62-2.32 1.4-1.27 1.17-5.46 4.5-4.31 5.44-.16.56.32 1.5.82 1.72 1.67.75 3.92.34 5.58-1.02.68-.59 1.16-2.01 1.23-3.04.88-.68 2.44.78 3.23.39 2.42-1.36-.32 3.62-.52 5.67z" opacity=".6"/><path fill="#151841" d="M50 100L16 80.14V19.5L50 16l34 3.5v60.64L50 100zM19.04 78.44L50 96.53l30.96-18.09V22.19L50 19l-30.96 3.19v56.25z"/><path fill="none" stroke="#29323B" stroke-width=".75" stroke-miterlimit="10" d="M51.46000000000001 45.74"/><path fill="none" d="M45.08 64.2l-1.12-.21-1.41.97c1.03.54 1.96.07 2.53-.76zm-5.47 4.48c1.27.67 2.44-.5 2.44-1.76 0-.48-.13-.91-.32-1.29l-.06-.06-2.48 1.71-.4.88c.22.14.44.28.64.44l.18.08zm-7.17 3.13l.26.88.16-.43c-.15-.15-.29-.3-.42-.45zm.59-.79c1.08 1.37 4.6 3.23 6.06 1.46 1.24-1.42.43-2.49-.73-3.37l-.65 1.43-4.15-1.23-1.7.49.41 1.4c.11-.31.49-.51.76-.18z"/><path fill="#818285" d="M62 42.05c-.62-.56-5-1.78-5.86-2.12-1.14-.41-2.2-.81-3.36-1.3-2.11-.82-4.2-1.56-6.32-2.39 0 0-5.29-2.23-5.73-1.28-.5 1.15-.98 2.38-1.47 3.62-.21.48-.06.8.51 1.01 6.74 2.15 13.43 4.77 19.87 7.51.29.15.74.09.99-.12 1.01-.94 2.08-4.79 1.37-4.93z"/><path fill="#F15A29" d="M63.4 40.39c1.51-3.99 3.04-12.31 5.18-13.39-1.22-.3-2.46-.69-3.79-1.16-.53.15-.99.84-.99.84s.28-.75.6-.98c-6.3-2.21-12.42-5.34-15.01-2.67-.46-.76-.11-1.62.97-2.47-2.35.2-5.07 3.25-8.78 11.58 15.98 5.99 21.82 8.25 21.82 8.25z"/><path fill="#151841" d="M63.63 40.81l-22.47-8.42.14-.39c4.49-10.14 7.24-11.56 8.94-11.77l.18-.02 1.27-.07-1 .76c-.34.23-1.08.85-1 1.48.5-.43 1.2-.6 1.92-.69 2.52-.31 6.06 1.06 9.8 2.49 1.06.42 2.11.82 3.25 1.23 0 0 3.03.98 4.08 1.3l1.04.24-.95.48c-1.29.61-2.49 4.92-3.45 8.29-.51 1.78-1.02 3.56-1.51 4.79l-.24.3zm-21.42-8.83l20.95 7.9c.49-1.23.84-2.73 1.37-4.42 1.02-3.56 1.97-6.94 3.17-8.26l-2.94-.9c-.26.12-.5.43-.65.63l-.6-.38c-.01-.08.14-.38.29-.67l-2.77-1.01c-3.63-1.35-7.09-2.74-9.42-2.45-.81.1-1.42.36-1.9.87l-.31.49-.24-.42c-.34-.59-.34-1.23.03-1.91-2.03 1.15-4.35 4.59-6.98 10.53z"/><path fill="#F15A29" d="M67.77 27.83c.3-.58-.24-1.24-.81-1.35 0 0-9.16-3.66-12.13-4.11-1.3-.2-2.64-.44-3.89-.2-.45.06-1.08.9-1.53 1.04.12-.34.27-1.86.05-2.13-.27-.34-.98.6-1.39.85-1.02.58-4.08 5.39-4.15 5.49-.67.45 2.28 1.44 3.19 1.41 3.46-.06 4.19-2.32 7.44-1.1 6.4 2.38 2.76 6.8 5.94 7.49 2.47.78 3.32-2.67 4.55-3.1.39.14.74.09 1.04-.4.13-.26 1.27-2.94 1.69-3.89z"/><path fill="#151741" d="M63.63 40.81l-22.47-8.42.14-.39c4.49-10.14 7.24-11.56 8.94-11.77l.18-.02 1.27-.07-1 .76c-.34.23-1.08.85-1 1.48.5-.43 1.2-.6 1.92-.69 2.52-.31 6.06 1.06 9.8 2.49 1.06.42 2.11.82 3.25 1.23l.39.14 3.7 1.18 1.04.24-.95.48c-1.29.61-2.49 4.92-3.45 8.29-.51 1.78-1.02 3.56-1.51 4.79l-.25.28zm-21.42-8.83l20.95 7.9c.49-1.23.84-2.73 1.37-4.42 1.02-3.56 1.97-6.94 3.17-8.26l-2.94-.9c-.26.12-1.61 2.16-1.75 2.37l.52-2.13c-.01-.08.14-.38.29-.67l-2.77-1.01c-3.63-1.35-7.09-2.74-9.42-2.45-.81.1-1.42.36-1.9.87l-.31.49-.24-.42c-.34-.59-.34-1.23.03-1.91-2.05 1.16-4.37 4.6-7 10.54z"/><path fill="#4751A2" d="M45.05 64.32c-.11.5-.39.9-1.06 1.25-.01-.04-1.91-.14-1.71 1.31.32 2.24-2.47 2.61-2.34 2.9-.06.58-.17 1.81.22 2.03.68.37 1.05-.46 1.89-.39 1.95.31 3.11-5.28 3.75-6.81l.05-.15-.8-.14zm14.54-15.35l-.45-.28c-3.26-1.32-18.92-6.8-20.47-7.61-.89-.52-.64 3.61.85 4.51 1.25.57 4.91 2.41 4.16 4.91-1.99.85 1.01 2.91 1.4 4.23l.1.37 3.82.25c.49-1.56 1-3.19 1.22-3.57.16-.2 2.23-1.15 4.07-.32 4.03 1.27 6.25-2.14 5.3-2.49z"/><path fill="#fff" d="M62.88 41.92l-21.61-8.09c-.39-.14-.63-.64-.5-1.02l.06-.19c.14-.38.65-.63 1.03-.49l21.63 8.09c.39.14.63.64.5 1.02l-.06.19c-.23.47-.65.71-1.05.49z"/><path fill="#151741" d="M63.3 42.32l-.55-.02-21.63-8.17c-.58-.2-.84-.9-.64-1.46l.06-.19c.14-.38.47-.69.92-.75l.55.02 21.61 8.09c.58.2.84.9.64 1.46l-.06.19c-.12.46-.55.79-.9.83zm-21.74-9.88c-.18.02-.35.13-.42.32l-.06.19c-.05.28.07.54.26.6l21.61 8.09c.19.06.54-.07.61-.26l.06-.19c.05-.28-.07-.54-.26-.6L41.83 32.4l-.27.04z"/><path fill="none" d="M67.82 18.35h.2"/><path fill="#151741" d="M75.64 82.74c-4.29-3.32-8.89-6.35-13.38-9.48-.68-.49-1.37-1.08-2.05-1.46-1.66-1.08-2.54-2.05-2.94-4.11-.68-3.42-.29-7.03-2.25-10.17-1.76-2.74-5.47-2.63-8.4-2.74-.31 0-.67-.05-1.06-.09l-.02-.1c-.49-1.38-1.37-2.36-2.45-3.2v-.02c0-.2.09-.29.09-.39l.09-.2s0-.09.09-.09h.09c.59-.59.08-1.38-.51-.8-2.54-1.76-5.84-.68-6.72 2.26-.14.46-.15.88-.08 1.29-1.29-.46-2.58.02-3.54 1.36-.72 1-1.61 3.01-1.2 4.38-.24.19-.46.42-.66.71-1.27 1.81-.94 4.81.36 6.63l-.16.21c-.68.97-.88 2.25-.88 3.42 0 1.57.88 2.05 1.86 3.12l.12.11.5.48c.01.03.15.17.29.28.98.8 4.11 3.33 4.59 3.67 2.02 1.44 5.3 3.26 8.43 3.29 2.54-.09 3.81 1.27 5.08 3.23 1.76 2.83 3.52 5.66 5.28 8.6.29.49 1.17 0 .88-.49-1.76-2.83-3.61-5.66-5.28-8.6-.78-1.37-1.86-2.94-3.42-3.42-.97-.29-1.86-.29-2.94-.29-1.3.07-5.12-1.8-7.28-3.12-.5-.31-3.37-2.57-4.44-3.44v-.14l.02.01.15-.38c1.76 1.1 4.25 1.69 5.69.32.88-.78 1.17-1.86.98-3.03-.03-.2-.1-.38-.19-.56 1.53-.1 2.68-1.78 2.53-3.45l-.02-.16c.84.17 1.62-.09 2.26-.64-.17 1.56-.03 3.12.82 4.35l.92.97c.95.65 2.19.93 3.3.85.59 0 .59-.97 0-.97-.97.09-1.95-.09-2.74-.68-2.25-1.42-1.44-4.99-.77-7.09 1.39 0 2.74-1.03 3.69-1.9.49-.39-.2-1.08-.68-.68-.78.78-1.86 1.57-3.03 1.66-.36 0-.96-.16-1.06-.57.17-.29.37-.7.37-1.09 0-.49-.2-1.08-.09-1.46.09-.59-.78-.78-.97-.2-.09.39 0 .68 0 .97.08.52-.01.94-.2 1.3l-.06.09c-.29.45-.77.78-1.3 1.06-.89.53-2.04.82-3.05.72-1.66-.14-1.75-.7-1.88-1.69-.02-.41.08-.86.35-1.28.68-1.17 2.05-1.95 3.03-2.83.39-.29.68-.68.98-1.08.49-.49.97-.49 1.57-.39l5.28.29c1.95.09 3.61.68 4.69 2.44.97 1.46 1.27 3.52 1.46 5.18.29 2.63.09 5.77 2.15 7.82 1.27 1.17 2.94 2.15 4.29 3.12 4.29 3.03 8.69 5.97 12.9 9.18.52.38 1.01-.51.52-.89zM39.08 72.48c-1.46 1.76-4.98-.09-6.06-1.46-.39-.49-1.08.2-.68.68.15.19.32.37.52.56l-.16.43-.07-.1c-.67-.7-1.45-1.09-1.56-2.16-.09-.78.09-1.57.29-2.34.13-.38.31-.74.56-1.03a.54.54 0 0 0 .3-.31c.26-.22.56-.39.89-.51 1.08-.29 2.25.78 3.03 1.37 1.47 1.16 4.99 2.53 2.94 4.87zm4.22-9.19c.63-.28 1.27-.62 1.75-1.07.16.19.36.33.58.45-.17 1.68-1.66 3.27-3.33 2.14-.26-.36-.57-.7-.88-1.01.67-.09 1.33-.29 1.88-.51zm-3.27.54c.21.17.43.36.65.55.31.27.59.56.81.88.02.14.09.27.23.37.2.38.32.81.32 1.29 0 1.27-1.17 2.44-2.44 1.76l-.19-.08c-.58-.48-1.28-.85-1.87-1.2-1.37-.88-2.34-2.05-4-2.15-.64-.06-1.21.2-1.68.57-.93-1.36-1.1-3.57-.49-4.98.88-2.05 3.81-1.46 5.08-.29.39.34.75.74 1.13 1.14.07.27.17.53.35.82.47.82 1.24 1.21 2.1 1.32zm-2.42-3.49l-.46-.46c-1.14-1.14-3.19-1.75-4.81-1.18-.2-.92.55-2.31.89-2.91.78-1.46 2.15-2.05 3.52-.88l.1.07.29.42c.57.85 1.51 1.97 2.54 2.31-.9.74-1.77 1.62-2.07 2.63zm5.29-5.55c-.97.39-1.66 1.66-2.44 2.25l-.09.08a.5.5 0 0 0-.29-.28c-.85-.26-1.9-1.33-2.48-2.43l-.06-.12c-.26-.51-.42-1.03-.38-1.46 0-.97.68-1.86 1.46-2.44 1.16-.87 2.41-.5 3.48.27l-.05.13c-.38.08-.59.66-.21.96 1.08.81 2.08 1.62 2.61 2.82-.56-.02-1.09.01-1.55.22z"/><path fill="#151741" d="M46.41 62.59l-.22-.08c-1.5 4.77-2.81 8.23-3.85 8.53-.73.21-1.37.21-1.93.11l-.12 1.04c.87.15 1.78.05 2.59-.33 1.3-.58 2.8-4.24 4.46-9.42l-.93.15zM63.34 42.1l-.86-.33-20.95-7.9-.87-.34-.06.27-.05.28c-.15.29-2.54 6.74-2.59 7.1-.7 3.16 1.18 5.1 3.37 5.91.67.28 1.57.89 2.05 1.83.26.6.23 1.14-.06 1.73-.24.5-.47.99-.7 1.48l.62.46c.25-.54.51-1.09.77-1.64.36-.76.43-1.69.07-2.45-.39-.95-1.42-1.91-2.56-2.3-1.14-.41-3.4-1.66-2.78-4.81.06-.19 2.47-6.55 2.45-6.73l20.84 7.82c-.15.29-2.64 6.65-2.71 6.84-1.6 2.64-4.04 2.12-5.19 1.63-1.14-.41-2.42-.42-3.46.06-.78.36-1.34.98-1.59 1.83l-.72 2.43 1.1.13c.22-.74.43-1.49.65-2.26.2-.57.59-1.07 1.12-1.31.96-.39 2.07-.26 2.73-.07 2.11.82 4.72.59 6.41-2.06.15-.29 2.72-6.76 2.86-7.13.07-.09.06-.19.05-.28l.06-.19z"/><path fill="#fff" d="M60.1 49.12l-21.61-8.09c-.39-.14-.63-.64-.5-1.02l.06-.19c.14-.38.65-.63 1.03-.49l21.63 8.09c.39.14.63.64.5 1.02l-.06.19c-.23.47-.65.71-1.05.49z"/><path fill="#151741" d="M60.52 49.52l-.55-.02-21.63-8.17c-.58-.2-.84-.9-.64-1.46l.06-.19c.14-.38.47-.69.92-.75l.55.02 21.61 8.09c.58.2.84.9.64 1.46l-.06.19c-.12.46-.55.79-.9.83zm-21.74-9.88c-.18.02-.35.13-.42.32l-.06.19c-.05.28.07.54.26.6l21.61 8.09c.19.06.54-.07.61-.26l.06-.19c.05-.28-.07-.54-.26-.6L39.05 39.6l-.27.04z"/></svg>