<svg width="100" height="100" viewBox="0 0 100 100" xmlns="http://www.w3.org/2000/svg"><path fill="none" d="M21.4 62.59h.3"/><path fill="#F15A29" d="M18.11 79.07L50 97.7l31.89-18.63V21.11L50 17.83l-31.89 3.28z"/><path fill="#151841" d="M50 100L16 80.14V19.5L50 16l34 3.5v60.64L50 100zM19.04 78.44L50 96.53l30.96-18.09V22.19L50 19l-30.96 3.19v56.25z"/><path fill="none" d="M21.4 62.59h.3"/><path fill="#fff" d="M31.64 70.49c.57.38 1.42.85 2.45.85h31.82c1.04 0 2.08-.09 2.83-1.04.47-.57 1.04-1.51 1.04-2.73 0-.94-.28-1.79-.94-2.64v-.09l-.09-.09-11.72-17.89.29-12.84 1.01-.44c.38 0 .59-.66.59-1.03 0-.38-.28-.66-.66-.66H41.55c-.38 0-.66.38-.57.75 0 .38.04 1.14.41 1.05h1.32l.34 13.26-11.7 17.89c-.57.85-1.04 1.6-1.04 2.64 0 .85.19 1.98 1.13 2.73l.2.28z"/><path fill="#4751A2" d="M69.22 64.56l-5.67-8.76h-27.1l-5.67 8.66c-.57.75-1.13 1.7-1.13 3.01 0 1.13.28 2.35 1.32 3.3.76.66 1.89 1.13 3.12 1.13h31.82c1.04 0 2.36-.09 3.3-1.22.66-.75 1.13-1.88 1.13-3.11.1-1.22-.46-2.16-1.12-3.01z"/><ellipse cx="51.28" cy="42.8" fill="#A9A09F" rx="2.74" ry="2.73"/><path fill="#A9A09F" d="M59.87 55.79c-.09-2.16-1.79-3.86-4.06-3.86-2.17 0-3.97 1.69-4.06 3.86h8.12z"/><path fill="#fff" d="M59.87 55.69c-.09 2.16-1.79 3.86-4.06 3.86-2.17 0-3.97-1.69-4.06-3.86h8.12z"/><ellipse cx="43.72" cy="58.99" fill="#fff" rx="2.36" ry="2.35"/><path fill="#151841" d="M69.78 64.27v-.09L58.26 46.57V34.42c1.04 0 1.89-.85 1.89-1.88 0-1.04-.85-1.88-1.89-1.88h-17c-.94.28-1.61 1.13-1.51 2.07.09.94.94 1.7 1.89 1.7h.09v12.05L30.22 64.09c-.66.85-1.23 1.88-1.23 3.3 0 1.51.47 2.73 1.32 3.58v.09l.28.19c.76.66 1.98 1.32 3.49 1.32H65.9c.85 0 2.64 0 3.78-1.51.66-.75 1.32-1.98 1.32-3.48.01-1.14-.46-2.27-1.22-3.31zm-28.8-31.63c-.09-.38.19-.75.57-.75h16.71c.38 0 .66.28.66.66s-.33.75-.71.75h-1.23v.01c-4.62.08-9.31.01-13.93 0v-.01h-1.32c-.37.08-.75-.29-.75-.66zM68.74 70.3c-.76.94-1.79 1.04-2.83 1.04H34.09c-1.04 0-1.89-.47-2.45-.85l-.19-.28c-.94-.75-1.13-1.88-1.13-2.73 0-1.04.47-1.79 1.04-2.64l11.71-17.89V34.53c4.62.08 9.31.08 13.93 0l.04 12.33 11.71 17.89.09.09v.09c.66.85.94 1.7.94 2.64 0 1.22-.56 2.17-1.04 2.73z"/></svg>