<svg width="100" height="100" viewBox="0 0 100 100" xmlns="http://www.w3.org/2000/svg"><path fill="#F15A29" d="M18.11 78.69L50 97.32l31.89-18.63V20.74L50 17.45l-31.89 3.29zm49.11-62.01h.3m5.42 5.89"/><path fill="#151841" d="M50 100L16 80.14V19.5L50 16l34 3.5v60.64L50 100zM19.04 78.44L50 96.53l30.96-18.09V22.19L50 19l-30.96 3.19v56.25z"/><path fill="none" d="M45.87 21.72h.18m23.63 0h.27"/><path fill="#151841" d="M81.72 58.23c-1.16-1.07-2.41-1.87-3.74-2.76l-1.87-1.25-.27-.18c-.89-1.52-1.52-3.12-2.14-4.9-.98-2.59-1.87-5.26-3.03-7.85-.62-1.52-.89-2.76-.71-4.37.09-1.16.36-2.32.09-3.39-.45-2.32-2.59-3.57-3.3-5.71-.53-1.52-.8-3.3-2.59-3.92-.27-.09-.71.09-.71.45-.18 1.34-.27 2.67-.27 3.92-.71-1.43-1.6-2.67-2.59-3.74-.27-.27-.89 0-.89.53 0 .8 0 1.52.09 2.32V28c.18 1.69.36 3.48.18 5.17-2.5-.62-5.08.45-7.58.53-1.25 0-2.41.45-3.21 1.43-.45.53-.71 1.07-1.16 1.52-.53.53-1.34.8-1.96.98-2.67.89-5.62.71-8.38.98-1.6.18-3.21.36-4.81.45-1.11.06-2.18.21-3.23.53-.07-.02-1.25.39-1.25.39-1.87 1.25.1 3.53 1.07 4.87 1.25 1.6 3.39 3.83 5.53 3.74.13-.01 3.68-.19 5.28-.65.62-.18 1.16-.27 1.78-.36l1.87.27c1.07.36 2.05.71 3.03 1.16.45.18.89.45 1.34.71l.18.09-.27.09c-1.6-.27-3.21-.45-4.81-.62-1.34-.18-2.5 0-3.74.18-1.78.18-3.57-.09-5.35-.27-.36-.09-.71.45-.53.71 1.78 4.37 7.49 3.03 11.15 2.85 2.5-.09 4.81.62 6.95 1.78.09.09.27.18.36.18l.09.18c2.14 2.67 3.39 5.8 4.99 8.74-.18.68-.18 1.13-.1 1.57.18 1.6-.45 2.94-.8 4.46-.18.62-.09 1.16.09 1.6l-.18.45c-.09.53-.09 1.07-.09 1.6v1.96l-.09.53v.63c0 .36.09.62.27.8v.53l-.09.36c-.27.27-.36.62-.36 1.07 0 2.41.45 4.9 1.16 7.22.79 5.48 2.05 4.99 2.23 5.35l22.21-11.8c.09-.53.18-1.07.18-1.6.09 0 .09 0 .18.09V58.41l-.2-.18z"/><path fill="none" d="M76.56 81l-16.84 8.9"/><path fill="#fff" d="M60.67 90.19c-.86-1.55-1.79-3.1-2.66-4.65-1.28-2.23-2.49-4.61-4.26-6.43 1.48-.1 2.92-.45 4.17-1.33.45-.27 0-.98-.45-.71-2.41 1.69-5.44 1.25-8.2.98-2.5-.18-4.9-1.6-7.31-2.23-.11-.02-3.22-.45-4.76-.35 0-.1-.04-.18-.14-.27-.36-.36-.53-.71-.8-1.16-.27-.45-.98-.09-.71.45.2.33.41.74.66 1.06-.75.07-1.48.13-2.17.19-1.52.09-6.51.71-6.69-1.6-.17-2.88 10.44-2.01 12.61-2.3.09 0 .14-.01.21-.06.39-.19.23-.7-.14-.77-1.83-.5-3.68-.81-5.54-1.1l-.08-.06c-.36-.27-.45-.71-.36-1.16 0-.27-.09-.45-.27-.53-.18-.1-.45.09-.53.27-.06.46-.04.91.11 1.32-1.39-.21-2.81-.41-4.21-.69-1.34-.27-8.65-1.6-5.26-4.01.67-.5 1.55-.62 2.47-.57.88.2 1.76.37 2.61.57.27.04.53.11.79.16l.64.19c.55.17 1.1.3 1.65.41.43.11.86.22 1.28.3l1.25.22c1.47.3 2.88.53 4.36.85.98.18 2.05.45 3.12.53.41-.07.51-.56.29-.78-.04-.1-.13-.18-.29-.2-2.43-.52-4.85-.78-7.28-1.2l-.03-.01c.07-.11.08-.26-.01-.39-.27-.36-.09-.89-.09-1.34.09-.53-.71-.71-.8-.18-.08.53-.22 1.21.03 1.74l-.35-.08c-.66-.14-1.29-.32-2.01-.51-.38-.11-.77-.21-1.17-.3-1.14-.32-2.36-.66-3.52-.77-.33-.09-.68-.17-1.01-.27-1.25-.36-3.39-.8-3.74-2.23-.45-1.78 1.96-2.14 3.12-2.14 3.31.09 6.38 1.72 9.69 2.21l.07.03c1.13.9 2.25 1.17 3.63 1.34 1.46-.31 3.3 2.6 8.74.53.98-.8 1.34-2.67 1.07-3.83-.27-1.25-1.52-2.14-2.76-2.23-1.01-.14-1.74.07-2.26.74-1.42-.69-2.83-1.36-4.42-1.62-.62-.09-.8.71-.27.8 1.58.28 3.25.65 4.64 1.35.03.09.78.86.98.96.18.09.36.09.53-.09.11-.22.29-.48.62.09.45.36.98-.27.62-.62-.53-.46-.94-.58-1.48-.29l-.49-.23.01-.11c0-.27.98-.27 1.25-.27 1.43.09 2.32 1.07 2.32 2.41 0 1.16-.45 2.32-1.6 2.76-.25.11-.5.19-.76.26.19-.53.11-1.21-.31-1.95-.27-.45-.98-.09-.71.45.26.51.72 1.21.23 1.68-.07.23-.58.32-.87.38-.11.03-.38.01-.43.07-.78-.11-1.64-.76-2.23-1.06-.71-.45-1.43-.8-2.23-.98-1.19-.26-2.51-.17-3.52-.95-.41-1.85-.58-4.7 1.77-5.05.13-.06.75-.3.78-.42 1.21-.59 3.24-.03 4.46.06 2.23.18 4.2 1.28 6.34 1.55 1.16.09 2.05-.62 2.59-1.6.36-.62.62-1.34.71-1.96.06-.39-.03-.81-.11-1.2.36.11.74.16 1.1.13.53-.09.53-.98 0-.89-2.32.18-4.9-2.94-5.53-4.99-.45-1.43-.18-3.12 1.16-3.92 1.49-.91 2.28 1.03 2.75 2.23-.02.08-.02.16.01.26.36.89 1.25 1.43 2.05 1.87 1.43.8 2.67 1.78 3.3 3.39l.89 3.21 1.43 3.39c2.15 5.71 1.08 10.92 2.94 12.75l2.94 2.41 1.16.98c3.54 2.91 7.16 5.76 10.67 8.73l-16 8.38z"/><path fill="#151841" d="M49.77 63.51c-.53 3.12-1.43 9.18 2.94 10.08.53.09.71-.71.18-.8-3.74-.8-2.85-6.42-2.41-9.09.19-.55-.63-.74-.71-.19zm28.84 18.82c-3.74-3.21-7.58-6.33-11.41-9.36l-3.39-2.76c-1.34-.98-2.14-1.87-2.41-3.48-.18-.89-.09-1.69-.09-2.59-.02-.16-.52-4.3-1.17-6.24-.8-2.5-2.05-4.73-2.59-7.31-.36-1.52-1.34-2.67-2.59-3.66-.71-.55-2.2-1.04-2.83-1.88l-.02-.17c-.53-1.34-1.25-3.48-3.03-3.3-2.05.18-2.76 2.14-2.67 3.83.09 1.78.8 3.03 1.96 4.37.65.75 1.5 1.56 2.46 2.07.1.43.21.88.21 1.32.09.71-.45 1.52-.8 2.14-.98 1.69-3.21.53-4.64.18-1.6-.45-3.3-.53-4.99-.71-1.15-.09-2.64-.27-3.71.42-2.33.56-2.65 3.09-2.3 5.22-3.49-.56-6.82-2.5-10.5-2.07-1.34.18-2.5.89-2.76 2.23-.36 1.34.8 2.32 1.87 2.85.36.18.75.33 1.13.48-.74.26-1.37.72-1.83 1.49-1.6 2.76 3.3 3.83 4.9 4.19 3.14.75 6.33 1.04 9.51 1.6h-.32c-1.6 0-3.21 0-4.81.18-1.6.09-5.08.27-5.26 2.5-.27 2.59 3.83 2.67 5.44 2.67l5.35-.18c1.43-.09 4.75.47 4.83.38 2.45.8 4.93 1.95 7.48 2.21.94.1 1.89.18 2.88.19 2.22 1.96 3.47 4.63 4.88 7.12 1.16 1.96 2.32 3.92 3.39 5.88.27.45.98.09.71-.45l-.2-.38 16.36-8.64.33.29c.45.35.98-.27.63-.63zm-17.94 7.86c-.86-1.55-1.79-3.1-2.66-4.65-1.28-2.23-2.49-4.61-4.26-6.43 1.48-.1 2.92-.45 4.17-1.33.45-.27 0-.98-.45-.71-2.41 1.69-5.44 1.25-8.2.98-2.5-.18-4.9-1.6-7.31-2.23-.11-.02-3.22-.45-4.76-.35 0-.1-.04-.18-.14-.27-.36-.36-.53-.71-.8-1.16-.27-.45-.98-.09-.71.45.2.33.41.74.66 1.06-.75.07-1.48.13-2.17.19-1.52.09-6.51.71-6.69-1.6-.17-2.88 10.44-2.01 12.61-2.3.09 0 .14-.01.21-.06.39-.19.23-.7-.14-.77-1.83-.5-3.68-.81-5.54-1.1l-.08-.06c-.36-.27-.45-.71-.36-1.16 0-.27-.09-.45-.27-.53-.18-.1-.45.09-.53.27-.06.46-.04.91.11 1.32-1.39-.21-2.81-.41-4.21-.69-1.34-.27-8.65-1.6-5.26-4.01.67-.5 1.55-.62 2.47-.57.88.2 1.76.37 2.61.57.27.04.53.11.79.16l.64.19c.55.17 1.1.3 1.65.41.43.11.86.22 1.28.3l1.25.22c1.47.3 2.88.53 4.36.85.98.18 2.05.45 3.12.53.41-.07.51-.56.29-.78-.04-.1-.13-.18-.29-.2-2.43-.52-4.85-.78-7.28-1.2l-.03-.01c.07-.11.08-.26-.01-.39-.27-.36-.09-.89-.09-1.34.09-.53-.71-.71-.8-.18-.08.53-.22 1.21.03 1.74l-.35-.08c-.66-.14-1.29-.32-2.01-.51-.38-.11-.77-.21-1.17-.3-1.14-.32-2.36-.66-3.52-.77-.33-.09-.68-.17-1.01-.27-1.25-.36-3.39-.8-3.74-2.23-.45-1.78 1.96-2.14 3.12-2.14 3.31.09 6.38 1.72 9.69 2.21l.07.03c1.13.9 2.25 1.17 3.63 1.34.5.09.96.29 1.4.53.93.49 1.79 1.14 2.88 1.25.16.02 1.25-.03 1.52-.1 1.06-.23 2.08-.43 2.94-1.14.98-.8 1.34-2.67 1.07-3.83-.27-1.25-1.52-2.14-2.76-2.23-1.01-.14-1.74.07-2.26.74-1.42-.69-2.83-1.36-4.42-1.62-.62-.09-.8.71-.27.8 1.58.28 5.42 2.22 5.62 2.31.18.09.36.09.53-.09.14-.16.29-.31.62.09.45.36.98-.27.62-.62-.53-.46-.94-.58-1.48-.29l-.49-.23.01-.11c0-.27.98-.27 1.25-.27 1.43.09 2.32 1.07 2.32 2.41 0 1.16-.45 2.32-1.6 2.76-.25.11-.5.19-.76.26.19-.53.11-1.21-.31-1.95-.27-.45-.98-.09-.71.45.26.51.58 1.24.1 1.71-.12.14-.32.29-1.15.31-.78-.11-1.65-.65-2.24-.95-.71-.45-1.43-.8-2.23-.98-1.19-.26-2.23-.35-3.24-1.14-.41-1.85-.56-4.27 1.79-4.63.95-.88 3.63-.48 4.85-.4 2.23.18 4.28 1.07 6.42 1.34 1.16.09 2.05-.62 2.59-1.6.36-.62.62-1.34.71-1.96.06-.39-.03-.81-.11-1.2.36.11.74.16 1.1.13.53-.09.53-.98 0-.89-2.32.18-4.9-2.94-5.53-4.99-.45-1.43-.18-3.12 1.16-3.92 1.49-.91 2.28 1.03 2.75 2.23-.02.08-.02.16.01.26.36.89 1.25 1.43 2.05 1.87 1.43.8 2.67 1.78 3.3 3.39l.89 3.21 1.43 3.39c.98 2.59 1.36 8.62 1.54 8.68.07 1.48.32 2.93 1.4 4.07l2.94 2.41 1.16.98c3.54 2.91 6.22 5.55 9.73 8.51l-15.06 8.61z"/></svg>
