<svg width="100" height="100" viewBox="0 0 100 100" xmlns="http://www.w3.org/2000/svg"><path fill="#A9A09F" d="M18.11 78.69L50 97.32l31.89-18.63V20.74L50 17.45l-31.89 3.29z"/><path fill="#D4D0CF" d="M50 98.22V17.45l-31.89 3.29-1.08 58.57z"/><path fill="#151841" d="M50 100L16 80.14V19.5L50 16l34 3.5v60.64L50 100zM19.04 78.44L50 96.53l30.96-18.09V22.19L50 19l-30.96 3.19v56.25z"/><path fill="none" d="M67.22 16.68h.3"/><path fill="#4751A2" d="M58.98 12.62c-3.12-4.25-8.11-5.8-13.21-5.59-1.87.1-12.22.22-16.65 5.18-1.35.83-5.83 4.96-5.93 6.76-1.07 2.33-1.6 5.76.58 4.21 1.04-.73 4.93-2.37 5.45-2.58 7.91-2.9 16.05-5.17 24.37-5.58.62 0 3.9-.29 5.14-.26 1.67 1.03 1.5-.48.25-2.14zm19.77 11.91c-1.25-5.07-6.66-7.25-11.13-8.7-.42-.1-.73-.1-1.14-.1-1.66-.62-3.54-.73-5.31-.83-2.91-.21-4.89-.62-7.8-.1-.21 0-1.66.1-1.87.21-1.87-.21-3.43.41-5.41.52-1.98.1-3.95.31-5.93.52-2.08.31-3.95 1.04-5.83 1.86-7.18 3.21-14.36 6.52-20.29 11.81-.21.1-1.82 2.14-2.29 2.28-1.25 2.59-2.39 5.59-1.25 8.18.1.41.21.83.42 1.24-.21 2.17 2.29 3.31 3.95 4.25 2.08 1.04 4.27 1.86 6.45 2.49 3.75 1.04 7.59 1.24 11.44.73 2.5.21 4.99.1 7.59-.21 2.6-.41 5.1-1.14 7.8-1.45 3.75-.52 7.39-1.86 10.61-3.73 3.23-1.14 6.24-2.49 9.26-4.04 1.04-.41 2.19-.83 3.12-1.55.42-.31.83-.73 1.25-1.14.94-.62 1.87-1.35 2.71-2.07.52-.52.73-1.14.62-1.66 2.4-2.19 3.86-4.99 3.03-8.51z"/><path fill="#151841" d="M32.35 49.8c-12.49 0-21.12-3.83-22.58-9.84-1.04-4.35 1.77-9.22 7.91-13.77 5.93-4.45 14.25-7.97 23.62-10.15 5.62-1.24 11.03-1.86 16.23-1.86 12.49 0 21.12 3.83 22.58 9.84 1.04 4.35-1.77 9.22-7.91 13.77-5.93 4.45-14.25 7.97-23.62 10.15-5.62 1.24-11.03 1.86-16.23 1.86zm25.07-34.38c-4.99 0-10.51.62-15.92 1.86-9.05 2.07-17.27 5.59-23.1 9.94-5.62 4.14-8.22 8.59-7.39 12.43 1.25 5.38 9.57 8.8 21.22 8.8 5.1 0 10.4-.62 15.92-1.86 9.05-2.07 17.27-5.59 23.1-9.94 5.62-4.14 8.22-8.59 7.39-12.43-1.24-5.28-9.57-8.8-21.22-8.8zm-35.69 9.01c-.62-2.69.52-6.21 3.02-9.32 2.91-3.62 7.39-6.42 12.49-7.77 7.7-2.07 14.88-.21 19.04 2.28 2.6 1.55 4.37 3.52 4.79 5.38l-1.35.31c-.31-1.55-1.87-3.21-4.16-4.56-3.85-2.28-10.61-4.04-17.9-2.17-4.89 1.35-9.05 3.94-11.76 7.25-2.29 2.8-3.33 5.9-2.81 8.18l-1.36.42z"/><path fill="#F15A29" d="M68.579 29.022c-2.751.589-5.197.074-5.464-1.152-.266-1.225 1.748-2.696 4.499-3.286s5.197-.074 5.464 1.152c.266 1.225-1.748 2.696-4.499 3.286z"/><path fill="#151841" d="M66.376 29.91c-2.185 0-3.641-.723-3.954-1.962-.313-1.652 1.769-3.406 4.995-4.129.833-.206 1.561-.206 2.289-.206 2.185 0 3.641.723 3.954 1.962.313 1.652-1.769 3.406-4.995 4.129-.727.206-1.56.206-2.289.206zm3.33-4.955c-.624 0-1.353.103-1.978.206-2.601.516-4.162 1.858-3.954 2.58.104.413 1.04.929 2.705.929.624 0 1.353-.103 1.978-.206 2.601-.516 4.162-1.858 3.954-2.58-.104-.516-1.04-.929-2.705-.929z"/><path fill="#F15A29" d="M48.915 43.586c-2.751.589-5.197.074-5.464-1.152-.266-1.225 1.748-2.696 4.499-3.286 2.751-.589 5.197-.074 5.464 1.152s-1.749 2.696-4.499 3.286z"/><path fill="#151841" d="M46.711 44.464c-2.185 0-3.641-.723-3.954-1.962-.313-1.652 1.769-3.406 4.995-4.129.833-.206 1.561-.206 2.289-.206 2.185 0 3.641.723 3.954 1.962.313 1.652-1.769 3.406-4.995 4.129-.729.103-1.456.206-2.289.206zm3.434-4.955c-.624 0-1.353.103-1.978.206-2.601.516-4.162 1.858-3.954 2.58.104.413 1.04.929 2.705.929.624 0 1.353-.103 1.978-.206 2.601-.516 4.162-1.858 3.954-2.58-.207-.516-1.145-.929-2.705-.929z"/><path fill="#F15A29" d="M43.596 24.782c-2.751.589-5.197.074-5.464-1.152-.266-1.225 1.748-2.696 4.499-3.286s5.197-.074 5.464 1.152c.266 1.226-1.749 2.697-4.499 3.286z"/><path fill="#151841" d="M41.405 25.678c-2.185 0-3.641-.723-3.954-1.962-.313-1.652 1.769-3.406 4.995-4.129.833-.206 1.561-.206 2.289-.206 2.185 0 3.641.723 3.954 1.962.313 1.652-1.769 3.406-4.995 4.129-.832.103-1.561.206-2.289.206zm3.329-4.955c-.624 0-1.353.103-1.978.206-2.601.516-4.162 1.858-3.954 2.58.104.413 1.04.929 2.705.929.624 0 1.353-.103 1.978-.206 2.601-.516 4.162-1.858 3.954-2.58-.207-.516-1.144-.929-2.705-.929z"/><path fill="#F15A29" d="M23.202 39.879c-2.751.589-5.197.074-5.464-1.152s1.748-2.696 4.499-3.286c2.751-.589 5.197-.074 5.464 1.152.266 1.225-1.747 2.696-4.499 3.286z"/><path fill="#151841" d="M21.01 40.747c-2.185 0-3.641-.723-3.954-1.962-.313-1.652 1.769-3.406 4.995-4.129.833-.206 1.561-.206 2.289-.206 2.185 0 3.641.723 3.954 1.962.313 1.652-1.769 3.406-4.995 4.129-.727.103-1.56.206-2.289.206zm3.33-4.954c-.624 0-1.353.103-1.978.206-2.601.516-4.162 1.858-3.954 2.58.104.413 1.04.929 2.705.929.624 0 1.353-.103 1.978-.206 2.601-.516 4.162-1.858 3.954-2.58-.104-.516-1.04-.929-2.705-.929z"/><path fill="#fff" d="M57.64 29.7c.62 2.58-4.58 5.99-11.45 7.54-6.97 1.55-13.11.72-13.63-1.86-.62-2.58 4.58-5.99 11.45-7.54 6.86-1.54 13-.72 13.63 1.86z"/><path fill="#151841" d="M39.43 38.68c-4.37 0-7.18-1.14-7.6-3.1-.21-.72 0-1.55.52-2.27 1.56-2.37 6.03-4.75 11.45-5.99 2.39-.52 4.68-.83 6.87-.83 4.37 0 7.18 1.14 7.6 3.1.21.72 0 1.55-.52 2.27-1.56 2.37-6.03 4.75-11.45 5.99-2.4.52-4.69.83-6.87.83zm11.24-10.94c-1.98 0-4.27.31-6.56.83-5.1 1.14-9.36 3.3-10.72 5.37-.31.52-.42.93-.31 1.34.31 1.34 2.81 2.17 6.35 2.17 1.98 0 4.27-.31 6.56-.83 5.1-1.14 9.36-3.3 10.72-5.37.31-.52.42-.93.31-1.34-.32-1.34-2.82-2.17-6.35-2.17z"/><path fill="#fff" d="M57 30.12L33.08 35.2l-7.74 46.92L50 96.53l30.96-18.09V72L57 30.12z" opacity=".73"/><path fill="none" stroke="#426074" stroke-miterlimit="10" d="M37.760000000000005 38.58"/></svg>