<svg width="100" height="100" viewBox="0 0 100 100" xmlns="http://www.w3.org/2000/svg"><path fill="#F15A29" d="M18.11 77.98L50 96.61l31.89-18.63.32-41.98-8.68-9.54-7.97-7.36L50 16.75l-31.89 3.28z"/><path fill="#151841" d="M50 100L16 80.14V19.5L50 16l34 3.5v60.64L50 100zM19.04 78.44L50 96.53l30.96-18.09V22.19L50 19l-30.96 3.19v56.25z"/><path fill="#fff" d="M62.66 66.76c-3.21-.07-6-1.14-8.36-3.32-1.25-1.15-2.48-2.32-3.69-3.51-.45-.44-.77-.41-1.2.01-1.21 1.19-2.42 2.38-3.7 3.5-3.66 3.2-7.8 4.17-12.46 2.53-4.15-1.45-6.78-4.41-7.85-8.55-1.48-5.69 1.32-11.83 7.08-14.33 2.62-1.14 5.32-1.32 8.05-.64 2.52.62 4.53 2.14 6.33 3.95.8.8 1.64 1.55 2.43 2.36.52.53.94.48 1.44-.02 1.06-1.05 2.16-2.05 3.22-3.09 2.51-2.45 5.54-3.69 9.02-3.57 1.95.07 3.8.56 5.45 1.42 2.77 1.45 4.94 3.94 5.99 7.24 1.99 6.29-1.33 12.66-7.04 15.07-.9.38-1.88.6-2.85.8-.6.13-1.25.11-1.86.15zM32.25 54.44c-.16 3.87 4.28 6.49 7.6 4.4 1.7-1.07 3.09-2.65 4.58-4.05.13-.12-.01-.75-.21-.95-1-1.03-2.06-1.99-3.1-2.98-1.31-1.25-2.79-1.86-4.66-1.49-2.59.51-4.24 2.42-4.21 5.07zm35.52-.04c.12-2.19-1.23-4.15-3.22-4.77-1.89-.6-3.85-.5-5.45.99-1.11 1.04-2.17 2.12-3.29 3.16-.47.44-.53.78-.02 1.24 1.08.97 2.09 2.02 3.16 3 1.77 1.62 3.74 1.99 5.78 1.1 2.01-.88 3.07-2.49 3.04-4.72z"/><path fill="#151841" d="M37.58 67.26c-1.45 0-2.96-.27-4.5-.81-4.22-1.48-7.04-4.55-8.17-8.9-1.58-6.1 1.51-12.37 7.37-14.91 2.66-1.15 5.49-1.38 8.37-.67 2.98.73 5.17 2.68 6.56 4.08.36.37.74.72 1.11 1.08.45.42.89.84 1.32 1.28.14.15.27.23.35.23.04 0 .16-.02.39-.25.58-.57 1.17-1.13 1.76-1.69.49-.47.98-.93 1.46-1.4 2.64-2.59 5.77-3.85 9.38-3.71 2.02.07 3.93.56 5.66 1.47 2.97 1.55 5.19 4.23 6.23 7.54 2 6.34-1.14 13.08-7.32 15.68-.97.41-2.02.63-2.94.83-.46.1-.93.12-1.38.13l-.56.03c-3.42-.08-6.34-1.24-8.73-3.45-1.46-1.35-2.64-2.47-3.71-3.52-.17-.17-.24-.17-.24-.17s-.08.01-.26.19l-.45.44c-1.05 1.03-2.14 2.09-3.27 3.08-2.58 2.26-5.43 3.42-8.43 3.42zm12.43-8.14c.42 0 .74.26.94.46 1.06 1.05 2.23 2.16 3.68 3.5 2.24 2.07 4.86 3.11 8.03 3.18l.55-.03c.43-.01.83-.03 1.21-.11.88-.19 1.87-.4 2.76-.77 5.7-2.4 8.6-8.62 6.76-14.46-.97-3.05-3.01-5.52-5.74-6.95-1.6-.84-3.36-1.29-5.23-1.36-3.31-.11-6.21 1.04-8.65 3.43-.49.48-.98.95-1.48 1.41-.58.55-1.17 1.11-1.74 1.68-.23.23-.6.54-1.09.54-.37 0-.71-.17-1.06-.53-.42-.43-.85-.84-1.29-1.26-.38-.36-.76-.72-1.14-1.1-2.11-2.12-3.99-3.3-6.09-3.82-2.67-.66-5.28-.45-7.74.62-5.4 2.34-8.26 8.12-6.8 13.74 1.05 4.06 3.59 6.82 7.53 8.2 4.36 1.53 8.36.71 11.97-2.44 1.11-.97 2.19-2.02 3.23-3.04l.45-.44c.2-.19.52-.45.94-.45zm12.61.97c-1.41 0-2.75-.57-3.98-1.7-.51-.47-1-.95-1.5-1.42-.55-.53-1.1-1.06-1.66-1.57-.35-.32-.52-.64-.53-.97 0-.45.3-.79.54-1.01.56-.52 1.11-1.06 1.66-1.59.54-.53 1.08-1.05 1.63-1.57 1.56-1.46 3.61-1.84 5.94-1.1 2.24.71 3.7 2.88 3.57 5.28.03 2.39-1.12 4.18-3.32 5.14-.8.34-1.58.51-2.35.51zm-6.68-5.68s.02.08.2.24c.57.52 1.13 1.06 1.68 1.59.49.47.98.95 1.48 1.41 1.04.96 2.16 1.44 3.31 1.44.63 0 1.28-.15 1.94-.43 1.83-.8 2.75-2.23 2.72-4.25.11-1.98-1.07-3.74-2.87-4.3-1.97-.62-3.67-.33-4.96.88-.54.51-1.08 1.03-1.61 1.55-.55.54-1.11 1.08-1.67 1.61-.19.18-.21.26-.22.26zM37.3 60.08c-1.51 0-2.99-.64-4.05-1.75-1.02-1.07-1.56-2.45-1.5-3.91-.03-2.84 1.73-4.97 4.61-5.54 1.91-.38 3.56.15 5.11 1.62l.9.85c.74.69 1.5 1.4 2.21 2.14.26.27.41.79.4 1.14 0 .22-.08.4-.21.53-.36.34-.72.7-1.08 1.05-1.1 1.09-2.25 2.22-3.58 3.06-.84.52-1.81.81-2.81.81zm.22-10.32c-.31 0-.63.03-.96.1-2.41.48-3.83 2.19-3.8 4.57a4.32 4.32 0 0 0 1.22 3.2c.88.92 2.09 1.44 3.33 1.44.81 0 1.58-.22 2.28-.66 1.24-.78 2.34-1.87 3.41-2.92l.98-.96c-.02-.12-.07-.3-.12-.35-.7-.72-1.45-1.42-2.18-2.11l-.9-.85c-1.05-1-2.08-1.46-3.26-1.46z"/><path fill="none" stroke="#151841" stroke-miterlimit="10" d="M60.39999999999999 49.120000000000005"/><path fill="#151841" d="M50.458 48.304l.69.724-7.45 7.098-.69-.724zm5.634 4.529l.695.719-7.891 7.634-.695-.719zM65.56 19.1l.58 1.24 2.69 17.08c6.04-4.98 12.61-1.93 13.38-1.27 0 0 .38-.29-8.14-9.37-.28-.3-.57-.59-.88-.86l-7.63-6.82z"/></svg>