<svg width="100" height="100" viewBox="0 0 100 100" xmlns="http://www.w3.org/2000/svg"><path fill="#A9A09F" d="M18.11 79.07L50 97.7l31.89-18.63V21.11L50 17.83l-31.89 3.28z"/><path fill="#151841" d="M50 100L16 80.14V19.5L50 16l34 3.5v60.64L50 100zM19.04 78.44L50 96.53l30.96-18.09V22.19L50 19l-30.96 3.19v56.25z"/><path fill="#4751A2" d="M46.88 56.62c.03-.09-.85-3.19-2.87-3.79-.15-.33-.3-.67-.49-.98.05-.06.08-.14.1-.22.96-2.96 1.91-6.01 2.88-8.97 1.06-3.25-.09-6.78 1.15-10.03.67-1.82 1.91-3.53 2.88-5.16.76-1.15 1.44-2.38 2.21-3.53.29-.39-.09-1.24-.19-1.62-.29-.95-.48-1.91-.76-2.96-.48-1.72 1.34-2.87 2.49-3.82 1.06-.76 2.11-1.53 3.26-2.38.39-.28.67-.67 1.15-.76.67-.19 1.44-.09 2.11-.09.76 0 1.06-.09 1.54-.58 1.06-.95 2.21-2.01 3.26-2.96 0 0 2.49.39 3.26.76.87.48 1.54 1.15 2.21 1.91l1.44 1.72c.67.76.76.95.19 1.91-.19.28 0 .86-.29 1.24l-1.06 1.34c-1.69 2.14-3.36 4.19-5.05 6.32-.31-.03-.64-.01-1 .08-1.91.48-3.36 1.62-4.51 3.25-.87 1.24-1.55 3.53-.6 5.07.96 1.62 2.12 1.44 3.47.29 1.24-1.06 2.88-2.87 1.73-4.49-.96-1.34-2.78-.48-3.06.76-.19.95.96 1.24 1.24.48.29.09.67.28.96.39-.19.39-.39.67-.67.95a5.6 5.6 0 0 1-1.06 1.06c-.67.67-1.63.67-2.02-.39-.29-.67.09-1.62.39-2.2.76-1.82 2.3-3.35 4.12-3.91 1.91-.58 2.21 1.53 2.02 2.96-.19 1.06-.67 2.1-1.24 3.05-.58.95-1.15 1.82-2.02 2.38l-3.45 2.1c-.14.1-.56.41-.67.58-2.11 2.58-3.26 5.73-3.45 9.08 0 .28.19.58.48.58 2.02.35 3.96.14 5.75-.86.42.86-.4 1.79-1.15 2.29-.76.48-1.82.67-2.69.95-.67.19-1.24.39-1.82.67-.76.39-.87 1.43-1.63 1.91-1.24.76-2.59.76-3.45 2.01-.81 1.17-1.12 2.51-1.15 3.86-1.01-.09-2.04-.1-2.97-.14-.3-.03-.63-.06-.97-.11z"/><path fill="#151841" d="M47.82 47.05c-1.24 1.43-1.82 3.25-1.73 5.16 0 .86 1.34.86 1.24 0-.09-1.53.39-3.05 1.34-4.3.5-.57-.37-1.52-.85-.86zm8.97-15.73c-1.52 1.13-2.48 2.78-2.8 4.67-.19.84 1.13 1.13 1.21.27.24-1.52 1.04-2.9 2.24-3.91.6-.46-.04-1.58-.65-1.03z"/><path fill="#fff" d="M50.94 83.01c1.65 2.31 6.37 9.25 6.37 9.25l16.55-9.67-2.95-1.94c-2.23-1.64-9.97-6.49-12.05-8.49-1.95-2.28-1.33-6.7-1.62-8.15-.29-1.16-.75-5.27-2.52-5.3-2.24-1.9-6.37-1.61-8.3-1.23.39-1.64-1.19-3.98-2.84-4.65-1.89-3.03-3.88-1.16-4.26-.87-1.58 1.86-1.25 3.62-1.25 3.62s-2-.26-2.31-.03c-2.97 2.2-2.66 5.21-2.47 5.5-1.65 1.74-1.12 4.78-.42 6.22-.19.1.33.52.23.81-.39.67-.94 2.46-.94 2.66-.48 1.16 2.44 4.94 1.43 1.76.78.77 1.94 1.35 3.1 1.64 1.65.67 3.39.87 4.26-1.06.48-1.06-.47-1.63.11-2.59 0 0 2.28.62 2.75-1.72l.12-1.06-.22-.78c.39 0 1.49.55 1.78.17 1.16-.71 1.47.65.91 1.9-.1.29-.15 1.89-3.29 7.66-.19.29-1.19 2.38-1.19 2.67.1.58 2.04 1.98 2.62 2.17 1.36.39 2.91.38 4.26.38.12.09 1.94 1.03 2.14 1.13z"/><path fill="#818285" d="M50 66.49c-.4 3.26 2.88 4.64 1.49 5.93-6.06 5.43-3.18 10.47-7.65 8.8-5.16-4.14-12.02-7.02-8.54-14.43 2.68-5.73 2.04-16.35 8.5-13.49 1.56.94 2.81 3.83 2.61 3.93-.89.49-1.48-.75-2.28.04-1.29 1.19-5.55 3.78-4.56 5.56-.11 2.95 4.86 3.1 6.84.21.7-.59-.38-1.59.91-2.58.89-.69 2.48.79 3.28.4 2.71-.4-.33 4.73-.6 5.63z" opacity=".6"/><path fill="#151841" d="M49.99 34.01c-.14 1.32-.16 2.71-.09 4.08.11.76 1.32.83 1.3.05-.16-1.34-.14-2.74.09-4.08.09-.81-1.21-.86-1.3-.05zm26.42 50.01c-4.21-3.25-8.72-6.21-13.13-9.27-.67-.48-1.34-1.06-2.11-1.43-1.63-1.06-2.49-2.01-2.88-4.02-.67-3.35-.29-6.88-2.21-9.94-.92-1.44-2.4-2.08-4.02-2.37.1-1.88.6-3.65 2.59-4.41.58-.19 1.24-.39 1.82-.76.39-.28.58-.58.76-.95.39-.67.87-.95 1.63-1.15 1.63-.48 3.45-.86 4.6-2.2.87-1.06.87-2.68-.09-3.63-.19-.19-.58-.28-.76-.09-1.47.86-3.03 1.26-4.66 1.04.14-1.42 1.01-6.17 3.51-8.07 2.51-1.89 4.42-2.93 4.98-3.78 1.24-1.91 2.3-4.02 2.11-6.31-.1-.92-.48-1.76-1.1-2.27 1.79-2.29 3.64-4.5 5.42-6.81l.67-.86.09-.67c0-.28.29-.58.39-.86.19-.39.48-.95.39-1.43-.19-.58-.67-1.06-1.06-1.53l-1.73-2.01c-.76-.95-1.73-1.62-2.88-2.1-.96-.39-2.97-.95-3.93-.48-.48.28-.87.76-1.24 1.15-.76.67-1.44 1.34-2.21 2.01-.58.48-1.34.19-2.3.19-1.06 0-1.63.58-2.39 1.15-1.44 1.06-2.78 2.1-4.21 3.05-1.15.86-2.39 2.68-2.02 4.11.19.86 1.01 3.94 1.04 4-1.8 2.8-3.84 5.71-5.06 8.79-.39.86-.39 2.01-.48 2.87-.19 1.34-.19 2.77-.29 4.2v2.01c0-.28-2.24 6.8-3.18 9.68-.14-.06-2.85-.68-4.31 1.97-.47.76-.61 1.54-.5 2.33-1.29-.49-2.57-.01-3.52 1.3-.73 1-1.62 3.01-1.15 4.36-.25.19-.48.42-.67.7-1.24 1.77-.92 4.68.34 6.47-.66.84-.83 1.92-.92 3-.09 1.57.54 2.34 1.53 3.34 0 0-.87 2.2-.96 2.59-.39 1.34-.96 3.35.39 4.97l.09.09L37 83.52c.19.09.48.09.87.09.87 0 1.91-.19 2.88-.67.79-.61 1.25-1.54 1.25-2.58 1.53 1.33 2.96 2 5.07 1.91 2.49-.09 3.74 1.24 4.99 3.15 1.73 2.77 3.45 5.54 5.18 8.41.29.48 1.15 0 .87-.48-1.73-2.77-3.54-5.54-5.18-8.41-.76-1.34-1.82-2.87-3.36-3.35-.96-.28-1.82-.28-2.88-.28-1.63.09-3.82-1.33-4.35-2.19 0 0 3.87-7.26 3.96-7.54l.38-1.51c.13.35.29.7.49 1.03.87 1.43 2.69 1.91 4.21 1.82.58 0 .58-.95 0-.95-1.44.09-2.78-.39-3.64-1.62-.4-.66-.56-1.45-.56-2.28 0 0 .35-2.58.65-3.51 1.44.11 2.86-.95 3.85-1.85.48-.39-.19-1.06-.67-.67-.76.76-1.82 1.53-2.97 1.62-.36 0-.99-.17-1.05-.61.15-.26.29-.59.29-.92 0-.48-.19-1.06-.09-1.43.19-.67-.76-.95-.87-.28-.09.39 0 .67 0 .95.07.45.01.83-.14 1.16-.07.06-.34.72-1.4 1.34-.88.52-1.98.81-2.97.7-1.46-.07-1.61-.82-1.87-1.67-.02-.4.08-.83.34-1.24.67-1.15 2.02-1.91 2.97-2.77.39-.28.67-.67.96-1.06.48-.48.96-.48 1.54-.39l5.18.28c1.91.09 3.54.67 4.6 2.38.96 1.43 1.24 3.44 1.44 5.06.29 2.58.09 5.64 2.11 7.65 1.24 1.15 2.88 2.1 4.21 3.05 4.21 2.96 7.48 5.06 11.6 8.21.48.4.96-.45.48-.84l1.04.79zM32.69 71.31c.01-2.3.99-2.92 1.04-3.04 1.3-1.29 3.25.39 4.52 1.32.87.67 2.02 1.06 2.59 2.01.58 1.06 0 2.2-.96 2.77-.87.48-2.21.09-3.17-.19-1.15-.39-2.21-.95-2.88-1.91-.29-.58-.96.09-.58.58.14.17.3.34.47.51l-.03.08c-.58-.66-1-1.15-1-2.13zm11.89-6.29c.66-.29 1.33-.65 1.82-1.15.14.15.3.28.48.39-.15 1.66-1.61 3.26-3.27 2.14-.23-.32-.5-.62-.77-.9.61-.1 1.23-.28 1.74-.48zm-3.09.52l.5.42c.34.29.64.61.88.97.02.09.07.18.15.25.2.38.32.79.32 1.27 0 1.2-1.08 2.33-2.29 1.77-.42-.39-.93-.72-1.45-1.01-1.86-1.15-4.27-3.57-6.29-1.88-.85-1.33-1.02-3.45-.42-4.81.87-2.01 3.74-1.43 4.99-.28.38.32.72.7 1.07 1.08.06.29.18.61.36.93.48.83 1.29 1.2 2.18 1.29zm-2.47-3.5l-.48-.48c-1.1-1.1-3.12-1.71-4.69-1.17-.26-.9.5-2.33.85-2.94.75-1.41 2.05-1.99 3.37-.93l.08.16c.67 1.04 1.72 2.47 2.96 2.77-.88.77-1.76 1.62-2.09 2.59zm5.18-5.34c-.96.39-2.54 2.4-2.78 1.92-.85-.24-1.84-1.28-2.43-2.36 0-.1-.51-1.34-.46-1.75.19-1.34 1.24-2.29 2.49-2.68 1.12-.32 1.57.36 1.97 1.2-.06.19.24.52 1.14 1.23.96.74 1.32 1.13 1.75 2.26-.6-.06-1.19-.04-1.68.18zm6.62.13c-1.01-.09-2.04-.1-2.97-.14-.3 0-.63-.03-.97-.08.03-.09-.85-3.19-2.87-3.79-.15-.33-.3-.67-.49-.98.05-.06.08-.14.1-.22.96-2.96 1.91-6.01 2.88-8.97 1.06-3.25-.09-6.78 1.15-10.03.67-1.82 1.91-3.53 2.88-5.16.76-1.15 1.44-2.38 2.21-3.53.29-.39-.09-1.24-.19-1.62-.29-.95-.48-1.91-.76-2.96-.48-1.72 1.34-2.87 2.49-3.82 1.06-.76 2.11-1.53 3.26-2.38.39-.28.67-.67 1.15-.76.67-.19 1.44-.09 2.11-.09.76 0 1.06-.09 1.54-.58 1.06-.95 2.21-2.01 3.26-2.96 0 0 2.49.39 3.26.76.87.48 1.54 1.15 2.21 1.91l1.44 1.72c.67.76.76.95.19 1.91-.19.28 0 .86-.29 1.24l-1.06 1.34c-1.69 2.14-3.36 4.19-5.05 6.32-.31-.03-.64-.01-1 .08-1.91.48-3.36 1.62-4.51 3.25-.87 1.24-1.55 3.99-.59 5.52.96 1.62 2.12.98 3.46-.16 1.24-1.06 2.88-2.87 1.73-4.49-.96-1.34-2.78-.48-3.06.76-.19.95.96 1.24 1.24.48.29.09.67.28.96.39-.19.39-.39.67-.67.95a5.6 5.6 0 0 1-1.06 1.06c-.67.67-1.63.67-2.02-.39-.29-.67.09-1.62.39-2.2.76-1.82 2.3-3.35 4.12-3.91 1.91-.58 2.21 1.53 2.02 2.96-.19 1.06-.67 2.1-1.24 3.05-.58.95-1.15 1.82-2.02 2.38l-3.45 2.1c-.14.1-.56.41-.67.58-2.11 2.58-3.26 5.73-3.45 9.08 0 .28.19.58.48.58 2.02.35 3.96.14 5.75-.86.42.86-.4 1.79-1.15 2.29-.76.48-1.82.67-2.69.95-.67.19-1.24.39-1.82.67-.76.39-.87 1.43-1.63 1.91-1.24.76-2.59.76-3.45 2.01-.82 1.15-1.12 2.49-1.15 3.83z"/><path fill="#4751A2" d="M46.31 67.5l-.96 3.82c-.29.58-4.51 8.69-4.51 8.69s.01.77-.08 1.04c-.35-.43-.98-.72-1.46-.85-.97-.43-2.23-.88-3.5-1.1.22-.53.39-1.02.63-1.57.09-.28-.09-.67-.48-.76-.39 0-.67.19-.76.48l-.7 1.72c-.54-.01-1.05.04-1.51.18l-.13.07c.03-.67.23-1.36.42-1.97.09-.39 1.31-3.19 1.31-3.19 1.79 1.25 4.36 1.94 6.07.9.96-.58 1.44-1.72 1.34-2.87-.02-.31-.09-.58-.2-.84 1.47-.16 2.55-1.76 2.4-3.37l-.02-.16c.82.17 1.61-.1 2.23-.62l-.09.4z"/><path fill="#F1682B" d="M69.52 14.9l-13.87 3.65-3.93 8.49s2.25 3.14 8.23 2.16c.78-.13-.19 1.45-.22 2.62-.03 1.04 1.13 1.27 1.41 1.68 6.55.27 8.38-18.6 8.38-18.6z"/><path fill="#CF4B27" d="M77.14 14.69c1.72-.92 2.94-1.06 3.47-2.6-.28-.83-1.63-4.42-3.68-4.44-7.64-4.36-10.59 1.95-15.51 2.32-1.09-.73.23-2.37-1.14-2.06-2.19.49-6.05 2.96-7.5 5.4-1.58 1.53-1.56-2.28-2.11-1.27-.45.94-1.23 3.52-1.33 4.49-.24.6 1.95 3.92 2.15 4.56.06.27-2.21-.21-2.06-.02.54 1.16 1.2 2.15 2.43 2.55.07 3.04-.63 4.68 2.01 4.88-.23-3.78 1-5.35 4.15-7.57.78 1.14.36 3.67.95 2.14 2.27-2.82 5.59-6.14 9.17-6.04-.94 1.33-2.14 2.63-2.55 4.19-.51 1.55.69 3.97.53 5.64-.11 1.14-3.58 1.87-4.32 3.04-.75 1.26.67 2.28-1.03 3.28-1.05.61 1.21 1.36 2.53 1.67 4.55 1.06 7.72-.32 8.9-.56.73-.19-2.55-.43-4.35-1.22-1.45-.68 1.42-.84 1.47-1.37 2.93-.62 6.71-.63 7.91-3.23.3-1.23.01-2.64-.18-3.66.4-3.72-.87-2.77-2.69-.88-.41-2.31-.08-3.57.2-5.75-.14-2.15 1.11-1.32 2.58-3.49z"/><path fill="#151841" d="M78.25 21.34c-1.24-.12-2.43.21-3.39.92.11-2.03-.44-4.66 1.13-6.1.51-.45 1.34-.72 2.02-1.19 1.14-.69 2.21-1.56 3.09-2.45.29-.24.32-.51.16-.79-1.16-2.78-3.4-4.59-6.37-5.32-2.17-.57-4.61-.45-6.79-.04-2.45.38-4.42 2.24-6.42 3.55-.57-.59-.48-1.47.25-1.75.65-.2.37-1.11-.26-1.01l-.82.1c-1.98.17-3.76.96-5.31 2.15l-3.36 3.31c-.15-.28-.3-.65-.26-1.01.04-.44-.47-.75-.85-.44-2.83 2.48-2.97 6.64-.53 9.19-.87-.22-1.26-.08-1.74.37.11 1.44.78 2.12 1.88 2.76.08.09.6.24.86.35-1.17 1.43-2.29 2.92-3.2 4.5l.68.36 1.37-1.27c.3-.05 2.75 2.96 6.96 2.74 3.7-.73 1.02 2.28 2.04 3.5 0 0 2.13 2.23 7.55 1.94 2.5-.13 4.94-.23 7.19-1.35.47-.22.36-.95-.17-1-1.67-.25-3.43-.6-5.19-.86.59-.48 1.56-.47 2.27-.4.81-.01 1.53-.12 2.26-.32 1.28-.32 2.57-.64 3.63-1.51 2.43-2.07-.15-5.78 1.68-8.09.31-.34 0-.81-.36-.84zm-2.8 8.82c-1.6.83-3.58.98-5.38 1.08-1.16.07-2.28.49-2.84 1.59-.12.35.12.63.38.66 1.36.39 2.82.53 4.22.76-3.65.79-7.54 1.09-10.56-.76-1.17-.82-1.05-2.15-.31-3.23.04-.79-.39-.9-.89-1.06-1.81.27-3.57-.08-5.31-.6-.69-.25-1.39-.49-1.98-.81-.28-.12-.63-.32-.85-.43-.07-1.16.92-2.12.87-3.37-.04-.45-.37-.74-.72-.87-.77-.34-1.81-.71-2.08-1.53.62.06 1.33.05 1.96.01.45-.04.61-.74.18-.96a5.2 5.2 0 0 1-1.13-7.74c.22.85.54 1.1 1.34 1.02 1.09-1.04 2.18-2.18 3.26-3.14 1.36-1.11 2.96-1.93 4.6-2.22-.16.79 0 1.87 1.1 2.5 2.24-.32 4.21-2.49 6.05-3.33 2.14-.77 4.8-.68 7.01-.3 2.72.53 4.62 2.22 5.71 4.73-.98.89-1.95 1.68-3.07 2.19-.66.38-1.5.74-2.01 1.4-1.72 2.38-1.04 5.43-1.3 7.78-.23.52.45.93.84.52.62-.83 1.57-1.36 2.55-1.44-.34.77-.43 1.65-.33 2.54.08 1.77.58 4.04-1.31 5.01z"/><path fill="#CF4B27" d="M86.07 28.66c-1.22.69-3.48 1.13-4.1.45a3.867 3.867 0 0 0-2.53-1.83c2.49-2.87 5.01-.83 6.63 1.38"/><path fill="#151841" d="M83.38 25.25c-1.71-.27-3.3.44-4.32 1.76-.26.38.12.97.55.83 1.16-.22 1.81 1.92 2.93 2.23.57.16 1.17-.09 1.69-.19.64-.12 2.39-.73 2.39-1.06-.31-.89-.87-1.71-1.34-2.61-.48-.42-1.21-.82-1.9-.96zm1.79 3.25c-.62.25-1.21.29-1.92.37-.9.17-1.14-.44-1.56-.96-.27-.41-.68-.8-1.11-.99.93-.71 2.16-.88 3.4-.26.68.48.95 1.22 1.19 1.84z"/><path fill="#CF4B27" d="M85.01 16.06c-.67 1.23-2.34 2.82-3.23 2.56-1.16-.59-2.32-.5-3.12-.2.59-3.75 3.81-3.37 6.35-2.36"/><path fill="#151841" d="M80.93 14.61c-1.59.68-2.56 2.13-2.72 3.79-.02.46.62.76.9.41.86-.8 2.55.66 3.67.32.56-.17.94-.7 1.33-1.06.48-.44 1.63-1.89 1.46-2.17-.73-.59-1.64-.98-2.52-1.49-.64-.1-1.47-.05-2.12.2zm3.24 1.8c-.39.55-.86.89-1.43 1.33-.67.62-1.2.23-1.84.02-.45-.2-1-.31-1.47-.24.41-1.1 1.36-1.9 2.74-2.03.84.04 1.47.52 2 .92z"/><path fill="#CF4B27" d="M41.23 25.68c.64-2.66 2.17-5.52 5.58-3.84-.7.48-1.44 1.38-1.62 2.67-.3.87-2.56 1.33-3.96 1.17"/><path fill="#151841" d="M42.39 21.5c-.58.39-1.11 1.04-1.37 1.62-.09 1.01-.29 1.98-.23 2.92.13.31 1.97.19 2.61.05.52-.11 1.17-.11 1.63-.48.91-.72.69-2.95 1.84-3.19.45-.03.57-.72.18-.97-1.45-.82-3.19-.86-4.66.05zM42 25.19c-.02-.66-.05-1.45.39-2.15.9-1.05 2.1-1.37 3.24-1.08-.32.34-.55.85-.64 1.34-.19.64-.18 1.3-1.07 1.49-.7.2-1.25.39-1.92.4z"/></svg>