<svg width="170" height="170" viewBox="0 0 464 414" xmlns="http://www.w3.org/2000/svg"><path d="M548.74,384.57c0-.72.06-1.43.06-2.16a42.45,42.45,0,0,0-84.89,0c0,.73,0,1.44.06,2.16Z" transform="translate(-107.52 -51.67)" fill="#2e3191" stroke="#231f20" stroke-miterlimit="10" stroke-width="5"/><path d="M497.16,387.17l-6-316a17.31,17.31,0,0,0-17.31-17l-63,8.6A658.22,658.22,0,0,1,234,63l-65.3-8.78a17.3,17.3,0,0,0-17.29,17.31q0,.23,0,.47l10.16,315.13Z" transform="translate(-107.52 -51.67)" fill="#2e3191" stroke="#231f20" stroke-miterlimit="10" stroke-width="5"/><path d="M220.28,387.17c0-.77.07-1.54.07-2.32a42.44,42.44,0,1,0-84.88,0c0,.78,0,1.55.06,2.32Z" transform="translate(-107.52 -51.67)" fill="#2e3191" stroke="#231f20" stroke-miterlimit="10" stroke-width="5"/><path d="M182.19,226.72s13.69,26.13,82.36,54.37" transform="translate(-107.52 -51.67)" fill="#2e3191" stroke="#231f20" stroke-linecap="round" stroke-linejoin="round" stroke-width="5"/><path d="M177.91,323.11s257.91-2.62,295.77-11.4" transform="translate(-107.52 -51.67)" fill="#2e3191" stroke="#231f20" stroke-miterlimit="10" stroke-width="5"/><path d="M228.46,346.1l12.37,41.07H473.72L498.13,385l34.65-8.25,15.34-30.42L525.19,323.8l-21.11-10.7a174.23,174.23,0,0,0-41.36-14.75,49.08,49.08,0,0,1-25.16-14.23l-.48-.51L425.48,274c-12.55-6.94-17.79-9.39-31-9.12L368,271.78l-32.55-7.06-29.58,7.06H273l-14.3-4.23a34.27,34.27,0,0,0-39.14,15.27L199.5,297.09l-56.4,24.2,8.55,24.83Z" transform="translate(-107.52 -51.67)" fill="#eb532a" stroke="#0f112e" stroke-miterlimit="10" stroke-width="3.63"/><path d="M405,387.17l27.39-14.75s-6.81-28.27-16.65-49c-3-6.36-12-16.54-15.84-23.08C391.16,285.46,384.6,264,384.6,264l-111.16,3.71s-7.07,20.9-15.07,36.15c-3.53,6.73-12,17.35-14.64,23.86-8.77,21.25-14.21,45.5-14.21,45.5l26,13.92Z" transform="translate(-107.52 -51.67)" fill="#eb532a"/><path d="M407.82,223.56C406,242.49,402,262,390.8,277.74c-5,7.06-7.17,12.52-14.54,17.23-6.22,3.79-19.17.26-29.24,7.29,0,0-14,10.2-25.3,8.68-10.94-1.56-21.15-11.52-21.15-11.52-5.06-5.67-18.12-7.75-26-11.18-9.21-4.24-22-34.56-22.66-39.88l-1.83-10c-2.71-7.94-2.78-16.47-6.21-24.46-2.49-5.18-4.4-9.52-5.12-14.19-1.42-10.73-3.09-21.84-4.16-32.47-2.09-16.06-6.65-42.2,4.93-54.75,0,0,12.13-1.81,31.74,22.24,9.57,9.91,18.45,27.93,30.86,33.79a61.67,61.67,0,0,0,7.64-8.23c2.68,2.67,8,6.25,12.4,5.94,2.87.22,5.31-2.41,7.54-2.24,1.8.14,4.61,2.09,5.33,2.15,7.44,3.75,7.59-3,12-2.26,4.38.33,3.73,8.73,13.61,4.22h4.77c13-11.71,39.58-42.18,59.77-36C443,138,416,207,408.54,223.69" transform="translate(-107.52 -51.67)" fill="#eb532a"/><path d="M322.53,312.88a7.47,7.47,0,0,1-1.06-.11c-11.42-1.63-21.76-11.61-22.2-12l-.08-.09c-3.07-3.43-9.77-5.52-16.26-7.54a93.22,93.22,0,0,1-9.12-3.17c-10.09-4.65-22.94-35.39-23.75-41.3l-1.79-9.85a80.54,80.54,0,0,1-2.6-10.93,62.38,62.38,0,0,0-3.52-13.27c-2.39-5-4.46-9.55-5.25-14.64-.4-3-.8-6-1.21-8.95-1.08-7.8-2.18-15.88-3-23.62-.14-1.1-.3-2.31-.47-3.56-2.18-16.06-5.46-40.34,5.88-52.62l.44-.48.65-.1c.53-.08,13.38-1.68,33.4,22.84a126.12,126.12,0,0,1,10,12.57c5.88,8,12,16.32,19.14,20.22a54.91,54.91,0,0,0,6.44-7.08l1.27-1.75L311,159c2.34,2.32,7.19,5.68,11,5.41h.27a6.87,6.87,0,0,0,3.3-1,8.23,8.23,0,0,1,4.24-1.2,12.76,12.76,0,0,1,4.44,1.64l1,.51h.21l.33.16c3.4,1.72,4.44.85,6-.47a6.52,6.52,0,0,1,5.32-2c2.31.21,3.62,1.83,4.69,3.14,1.67,2.06,2.88,3.55,8,1.24l.36-.17h4.46c1.9-1.73,4-3.81,6.51-6.18,14.51-14,36.46-35.26,54.51-29.75a9.36,9.36,0,0,1,5.67,5.45c8.87,20.18-20.79,88-21.1,88.71l-.6-.26c-3.07,31.42-11.34,46.22-17.31,54.63-1.12,1.59-2.1,3.11-3,4.58-3.22,5-6,9.3-12,13.14-3,1.84-7,2.15-11.56,2.51-5.71.45-12.19,1-17.61,4.74C347.53,304.18,334.19,313.78,322.53,312.88ZM301.9,298.13c.69.66,10.21,9.57,20.08,11,10.4,1.35,23.82-8.25,24-8.34,6.28-4.38,13.59-5,19.47-5.42,4.11-.32,7.66-.6,9.9-2,5.29-3.38,7.75-7.19,10.86-12,1-1.5,2-3,3.13-4.71,9.26-13.06,14.41-29.5,16.69-53.3l2.39.23-1.52-.68c9.3-20.72,27.53-71.06,21.08-85.71a5.69,5.69,0,0,0-3.4-3.41c-15.93-4.88-36.93,15.44-50.82,28.88-2.6,2.51-5,4.88-7.13,6.75l-.53.48h-5c-7.39,3.23-10.15-.17-12-2.44-.9-1.11-1.44-1.73-2.17-1.79h-.15c-.82-.13-1.29.19-2.44,1.15-1.76,1.47-4.4,3.68-9.82,1.05a10,10,0,0,1-1.84-.82,11.42,11.42,0,0,0-3-1.24,6.11,6.11,0,0,0-2.34.84,10.36,10.36,0,0,1-5.06,1.41c-4.46.25-9.2-2.64-12.16-5.08a67.22,67.22,0,0,1-6.66,6.9l-.91.81-1.1-.53c-8.52-4-15.19-13.13-21.64-21.94a123.21,123.21,0,0,0-9.8-12.22l-.1-.12c-9.69-11.87-17.38-17.11-22.13-19.41a19,19,0,0,0-7.33-2.16c-9.54,11.22-6.47,33.93-4.43,49.05.17,1.25.34,2.47.49,3.63.77,7.73,1.87,15.77,2.94,23.54.41,3,.82,6,1.21,8.92.7,4.55,2.66,8.87,5,13.64a65.62,65.62,0,0,1,3.79,14.11,74.84,74.84,0,0,0,2.5,10.55l.07.27,1.85,10.14c.63,5,13.17,34.55,21.59,38.43a91.45,91.45,0,0,0,8.71,3C291,291.74,298.14,294,301.9,298.13Z" transform="translate(-107.52 -51.67)" fill="#0f112e"/><path d="M382,224.76a9.31,9.31,0,0,0-6.81-7.24c-2.82-.94-5.89-.46-8.38-1,.55-2.41,3-10-2.57-9.73-2.87-.22-6.54,7.95-8.5,10-3.2,4-5,2.8-5-2.11-.34-5,2.68-11.5-1.26-12.81-2.85-.58-5.5,4.85-6.85,8.28-.49,1.7-2.47,3-.81-9.23.25-3.16.9-11.64-.88-12.06l-.72-.06c-5.12,0-10.3,19.37-12.24,24.85-.64-5.68-4.7-30-9.48-25.14-1.32,3.07-.71,4.49-1.31,7.63-.13,1.72-1.41,13.69-2.69,11.49-.44-3.57-3.93-10.92-6.23-10-4.3,3.21-1.37,8.35-2.83,13.22-1.1,4.9-3,5.76-5.21,1-1.34-2.27-3.21-10.86-6.12-11.45-5-1.11-4.21,6.76-4.4,9.2-2.58-.2-5.4-1.14-8.37-1a10,10,0,0,0-8.17,5.73c-.42.69-2.08,27,22,29.29a25.19,25.19,0,0,0,10.41-.94c2.28-.55,4.21-2.13,6-.62l24.72,3.63c1.9-1.3,3.85-2.16,5.59-1.31,3.19,1.69,7.74,4.5,11.77,4.81,12.42,1,23.79-3.16,28.24-14.09,1.18-.34.38-9.58.07-10.32Z" transform="translate(-107.52 -51.67)" fill="#eca45b"/><path d="M355.25,213.53s5.62,19.9,1.54,38.89" transform="translate(-107.52 -51.67)" fill="#eb532a" stroke="#b74f2a" stroke-linecap="round" stroke-linejoin="round" stroke-width="10"/><path d="M280.23,220.84s15.48-.25,19.34,2.21c7.74,4.5,8.15,13.34,8.22,12.33,0,0-4.87,1.36-6.3,1.25a69.43,69.43,0,0,1-7.74.13c-12.32-2.39-13.52-15.92-13.52-15.92Z" transform="translate(-107.52 -51.67)" fill="#fff"/><path d="M376.46,230.33s-14.78-3.31-19.37-1.85c-8.67,2.87-10.78,11.52-10.7,10.45,0,0,4.61,2.08,5.72,2.6a25.34,25.34,0,0,0,7.61,1.67c12.76.26,16.74-12.87,16.74-12.87Z" transform="translate(-107.52 -51.67)" fill="#fff"/><path d="M347.13,238.69c1,.45,4.61,2.09,5.73,2.61a27.25,27.25,0,0,0,6.52,1.59l.72.05c11,.49,15.54-10.51,16-12.21a84.59,84.59,0,0,0-12.7-2.06,20,20,0,0,0-5.94.27,16.48,16.48,0,0,0-10.29,9.75Z" transform="translate(-107.52 -51.67)" fill="#fff"/><path d="M312.68,261.12c-.65-5.69,1.22-11.18,2.81-16.76,0,0,4.57-11.65,10.48-12.28,15.15-1.65,14.12,31.5,14.12,31.5-18.19,6.41-27.41-2.46-27.41-2.46Z" transform="translate(-107.52 -51.67)" fill="#f3773f"/><path d="M365,269.4c-.89-2.53-5.11-5-8.38-5.63-6.91-1.25-31,2.17-31,2.17l-.08.21c-3-1.1-23.78-8.4-30.22-8.25-3.33.11-8.21,1.54-9.47,3.83-2.06,3.38-.26,8.14,1.31,12.09,1.9,4.41,6.52,11.12,11.37,14.67a12.07,12.07,0,0,0,6.45,2.67c18.21,1.76,20.19-9,20.17-8.64l.43-1.85.06.08c.72.06-2.37,11.09,15.59,12.47,2.23.17,4.33,1,6.63.15A41,41,0,0,0,361.66,281c2-3.53,4.91-7.57,3.34-11.59Z" transform="translate(-107.52 -51.67)" fill="#eca45b"/><path d="M312.27,261.81c.88-2.1,14.62,1.48,14.62,1.48s12.28-1.87,13.84,1.43c.3.74-1.76,3-1.76,3s-5.07-.75-6.23.24c-1.62,1.33-2.85,8-2.42,8s-2.85,3.32-4.29,3.21c-1.08-.08-4.19-2.78-3.81-3.11s.21-7.42-1.55-8.93c-1-1.16-5.13,0-6.58-.87-.63-1.2-1.82-4.47-1.82-4.47Z" transform="translate(-107.52 -51.67)" fill="#ce4a28"/><path d="M300,221.64c-1.74-.86-4.66-1.44-9.76-1.83s-9.94-.4-10.3-.43l-1.44-.11-.11,1.43s1.77,14.59,14.88,17h0a83.93,83.93,0,0,0,8.43.29c1.1-.28,7.1-1.19,7.1-1.19S309.68,225.92,300,221.64Zm1.22,13.17c-1.85.58-5.51.3-7,.18-4.71-.72-8.19-3.44-10.45-7.88A16.5,16.5,0,0,1,282,222c1.87.15,4.77,0,8.46-.07.93.07,1.65.13,2.43.26-.57,2.77-1.7,9.91,1.21,9.63s3.84-5.7,4.26-8.34a1.85,1.85,0,0,0,.42.17,16.46,16.46,0,0,1,7.31,10.1,20.64,20.64,0,0,1-4.83,1.06Z" transform="translate(-107.52 -51.67)" fill="#131840"/><path d="M377.28,229a124.65,124.65,0,0,0-13.42-2.12,26.21,26.21,0,0,0-6.66.21,18.83,18.83,0,0,0-11.08,9.77l-.89,3.18,7.06,3a29.35,29.35,0,0,0,6.89,1.61h1.15c13.2.29,18-13.79,18-13.79l.47-1.41Zm-5.66,7c-2.66,5.43-12.22,5.78-12.58,5.75a24.06,24.06,0,0,1-6.1-1.55c-.69-.41-2.51-1.2-4.25-2.06h0a15.48,15.48,0,0,1,9.08-8.11c-.14,2.73,0,8,2.65,8.72s3-6,3-9a90.66,90.66,0,0,1,11.15,1.58C374.11,232.68,372.49,233.92,371.62,236Z" transform="translate(-107.52 -51.67)" fill="#131840"/><path d="M261.35,240.92a23.77,23.77,0,0,0,10.74,13.54c3.49,2.44,7.23-3,3.73-5.35s-6.59-5.49-7.73-9.41-8-2.77-6.74,1.22Z" transform="translate(-107.52 -51.67)" fill="#eca45b"/><path d="M379.82,262.73c4.24-2.49,8.8-4.59,11.74-9,2.5-3.35-3.12-7.32-5.64-3.61-2,3-5.87,4.82-9.33,6.72-1.6,1-2.45,2.63-1.43,4.44a3.44,3.44,0,0,0,4.64,1.45h0Z" transform="translate(-107.52 -51.67)" fill="#eca45b"/><path d="M309.2,292.35a1.62,1.62,0,0,1-1.4-1.55,1.34,1.34,0,0,1,1.62-1.32c13.23-.07,14.89-7.67,15.35-8a1.11,1.11,0,0,1,1.59-1,1.61,1.61,0,0,1,1.4,1.55c0,.36-.59,7.69,13.24,9.18a1.63,1.63,0,0,1,1.4,1.55,1.56,1.56,0,0,1-1.62,1.32c-7-.53-11.54-3-14.22-6.72a2.76,2.76,0,0,1-.61-1.49c-2.89,2.88-7.57,6.42-16.75,6.44Z" transform="translate(-107.52 -51.67)" fill="#131840"/><path d="M340.34,265c.3.74-1.75,3-1.75,3s-5.07-.75-6.23.25c-1.62,1.32-2.85,7.94-2.42,8s-2.86,3.33-4.29,3.21c-1.08-.08-4.2-2.77-3.81-3.11s.21-7.42-1.56-8.93c-1-1.16-5.12,0-6.58-.86-1-.45-2-3.7-2-3.7" transform="translate(-107.52 -51.67)" fill="#ce4a28"/><path d="M325.54,280.89c-1.8-.14-5.54-5-5.08-5.38.11-1.43-.23-6.37-.94-7.51l-2.58-.2c-1.51-.11-2.9.14-3.64-.64-1.45-.83-2.34-3.36-2.55-4.46a1.22,1.22,0,0,1,.65-1.6l.2-.06a1.29,1.29,0,0,1,1.74.85,4.89,4.89,0,0,0,1.59,2.94l2.22.17c1.8.14,3.33-.1,4.33,1.06,2.09,1.89,2,7.88,2,8.31l-.11,1.44a8.17,8.17,0,0,0,2.45,1.92,20.21,20.21,0,0,0,2.78-2.24,15.56,15.56,0,0,1,.63-3.5c1-3.82,2.17-4.81,2.62-5.07,1.16-1,4.47-.74,6.69-.57.42-.69.81-1,.83-1.38.06-.72.09-1.08.83-1.38s1.54-.24,1.77.5c.33.38.94,1.8-2.18,4.81-.38.34-.77.67-1.1.28-2.23-.17-4.74-.36-5.13,0-.77.66-1.89,4.84-2,6.2l-.06.72c-.5,1-3.75,4.63-5.93,4.82Z" transform="translate(-107.52 -51.67)" fill="#131840"/><path d="M250.34,212.19c6.6-5.13,11.21-17.13,13.47-26.85-.47,1.41,10.43,2.53,17.19-3.67,4.73-4.19,2.42-8,.33-13.77-5.86-14.9-16.63-27.07-27.17-38.5-2.65-3-5.13-10.29-10.36-9-4.13,1.13-4.66,12.72-4.14,16.3C241.64,167.38,250.34,212.19,250.34,212.19Z" transform="translate(-107.52 -51.67)" fill="#fff"/><path d="M402.19,220.67c-5.46-6-10.74-18.16-11.09-27.73-.11,1.44-10.67.63-16-6.5-3.68-4.83-.92-7.8,2.48-12.53,8.68-12.41,21.53-21.68,33.92-30.62,3.49-2.19,7.07-5.46,11.65-3,3.89,2,2.14,9.7,1.25,12.81-8.55,33.3-22.17,67.58-22.17,67.58Z" transform="translate(-107.52 -51.67)" fill="#fff"/><path d="M406.42,175c-8.2,1.46-17.31,5.32-21.77,12.56-1-9,8.13-18.38,15.6-22.57,2.34-1.27.38-5-2-3.69-9.25,5.65-19.36,16.86-17.61,28A2,2,0,0,0,383,190.9l-.37,1.13c-.55,2.41,3.39,3.8,3.94,1.38,2.47-8.62,12-12.87,20.6-14.31,2.65-.59,1.8-4.56-.77-4Z" transform="translate(-107.52 -51.67)" fill="#ec652a"/><path d="M260.63,154.32c-2.11-1.61-4.15,1.41-2.5,3.34,5.51,4.54,11.91,13.42,12.25,21.17-3.23-7.83-11.43-13-19.6-15.73a2,2,0,1,0-1.37,3.79h0c8.23,2.8,17,8.39,18.18,17.29a2.09,2.09,0,0,0,3.07,1.32,2,2,0,0,0,3.1-.84C277.47,174,268.94,160.95,260.63,154.32Z" transform="translate(-107.52 -51.67)" fill="#ec652a"/><path d="M280.28,161.82c-5.36-11-13.45-20.47-21.64-29.55L250,121c-1.66-1.87-5.27-2.86-7.66-.95-5.06,3.87-4.69,13.07-4.33,18.74a326.19,326.19,0,0,0,3.73,32.43c1.82,13.94,4.1,27.48,6.74,41.12a1.14,1.14,0,0,0,1,1.16c.33.39,1.08.08,1.82-.22,7.48-6.14,11.14-16.12,13.38-25.49,4.32,1.06,11.89-1.54,13.77-2.48,11.16-5.14,6-15.36,1.87-23.48ZM276,183.46a19.85,19.85,0,0,1-6.34,1.68c-.72-.06-4-.31-4,.05-.25-1.47-2.74-1.95-3.3-.26-2.16,8.29-5,17.61-11,23.87-4.42-23.32-8.15-47.23-10-70.78-.42-3.93.54-21.13,7.23-13.24l6.35,8.65C258,136.84,261,140.61,264,144a93.31,93.31,0,0,1,15.33,25.17c.92,2.23,1.93,4.05,2.13,6.16,1.6,3.66-2.31,6.54-5.39,8.11Z" transform="translate(-107.52 -51.67)" fill="#131840"/><path d="M419.27,137.53c-3.33.1-6.39,2.33-8.78,4.31-4.68,3.54-9.33,6.72-14,10.19a109.63,109.63,0,0,0-22,23c-5,7.06-1.75,13.31,5.67,17.42,1.45.83,6.42,2.94,9.67,2.91A50.46,50.46,0,0,0,401,221.67a3.23,3.23,0,0,0,1.77.49c.36,0,.75-.3,1.16-1,5-12.33,9.3-25.08,13.53-37.83a329.93,329.93,0,0,0,9.11-32.17c.89-5.93,1-13.36-7.33-13.64ZM423,150.17c-2.73,15.68-8.63,31.49-13.92,46.68-2.34,6.9-4.74,13.8-7.48,20.31a48.34,48.34,0,0,1-9.16-24.69c-.23-1.75-2.76-1.66-3.3-.25.44-1.05.77-.67-.7-.42a18.65,18.65,0,0,1-4.32-1.05c-3.94-1.39-9.54-4.64-9.63-9.2-.11-3.18,3.88-7.14,5.89-9.8a124,124,0,0,1,9.24-10.27c5.91-5.55,12.18-10,18.76-14.82,2.75-1.95,5.45-4.13,8.89-5.67,7.1-3.07,6.42,5.76,5.73,9.18Z" transform="translate(-107.52 -51.67)" fill="#131840"/><path d="M401.23,387.17h7.61l25.66-13.82-.32-1.36a351.53,351.53,0,0,0-11.4-36.65h-3.87a337,337,0,0,1,11.42,36.15Z" transform="translate(-107.52 -51.67)" fill="#0f112e"/><path d="M259.31,387.17l-27.72-14.86a342.83,342.83,0,0,1,11.1-37h-3.84a346.78,346.78,0,0,0-11.09,37.51l-.3,1.34,24.21,13Z" transform="translate(-107.52 -51.67)" fill="#0f112e"/><path d="M274.1,362.94a168.7,168.7,0,0,0,1.37,24.23H384.26c1.1-8.52.93-18.55.45-27-.93-16.31,13.13,3.75,13.54-7.7s-19.64-48.23-19.64-48.23a195.64,195.64,0,0,0-22.78,10.9,56.7,56.7,0,0,1-53.9.47,146.77,146.77,0,0,0-20.68-8.89S259.2,344.54,260.19,356,274.2,346.61,274.1,362.94Z" transform="translate(-107.52 -51.67)" fill="#eea65a"/><path d="M520.06,385.4c4.87-1,30.92-20.14,31-31.4.23-23.93-31.77-40-56.71-31.29-47.13,16.57-86.09,58.64-93,64.39" transform="translate(-107.52 -51.67)" fill="#eb532a" stroke="#0f112e" stroke-miterlimit="10" stroke-width="3.63"/><path d="M154.85,376c26.35,8.51,73.34,9.74,73.34,9.74l.15,1.38h67.93c-9.5-10.57-27.06-13.76-27.06-13.76-20.44-8.21-41.75-37.38-88.33-54.28l-13.94-8.06c-16.2.06-34.5,13.77-36.38,31.58C129.39,353.81,150.6,374.67,154.85,376Z" transform="translate(-107.52 -51.67)" fill="#eb532a" stroke="#0f112e" stroke-miterlimit="10" stroke-width="3.63"/><path d="M417.78,311.71s-1.45,11.75,4.2,26.17" transform="translate(-107.52 -51.67)" fill="none" stroke="#0f112e" stroke-miterlimit="10" stroke-width="4"/><path d="M240.33,336.53s2.6-10.3-.57-25.46" transform="translate(-107.52 -51.67)" fill="none" stroke="#0f112e" stroke-miterlimit="10" stroke-width="4"/><path d="M246.65,84.93s-31.78-4.77-52.87-2.39" transform="translate(-107.52 -51.67)" fill="#2e3191" stroke="#231f20" stroke-linecap="round" stroke-linejoin="round" stroke-width="5"/><path d="M489.92,140.35s-30.68,67.88-49.14,81.56" transform="translate(-107.52 -51.67)" fill="#2e3191" stroke="#231f20" stroke-linecap="round" stroke-linejoin="round" stroke-width="5"/><path d="M177.91,110.57s11.22,42.9,42.31,70.56" transform="translate(-107.52 -51.67)" fill="#2e3191" stroke="#231f20" stroke-linecap="round" stroke-linejoin="round" stroke-width="5"/><line x1="2.5" y1="336.5" x2="461.65" y2="334.5" fill="none" stroke="#231f20" stroke-linecap="round" stroke-linejoin="round" stroke-width="5"/><path d="M466.56,356.1h0c0-3.34-15.86-6-35.43-6s-35.42,2.7-35.42,6h0l4.44,61.34c0,1.78,5.13,6.23,5.13,7.43,0,2.43,11.58,4.4,25.85,4.4s25.85-2,25.85-4.4c0-1.16,6.11-7.94,5.9-8.2Z" transform="translate(-107.52 -51.67)" fill="#fff" opacity="0.67" style="isolation:isolate"/><path d="M399.78,389l1.93,26.65c0,1.69,4.88,5.91,4.88,7,0,2.31,11,4.18,24.55,4.18s24.55-1.87,24.55-4.18c0-1.1,5.91-5.32,5.91-7a1.15,1.15,0,0,0-.31-.73l1.51-24.81Z" transform="translate(-107.52 -51.67)" fill="#b23f20"/><path d="M400.27,388.5c60.46-5.47,62.53,2.4,62.53,2.4-20,6-62.53,1-62.53,1Z" transform="translate(-107.52 -51.67)" fill="#ed9520"/><ellipse cx="323.61" cy="304.01" rx="35.42" ry="6.03" fill="none" stroke="#231f20" stroke-linecap="round" stroke-linejoin="round" stroke-width="5"/><path d="M395.71,355.68,400.15,417c0,1.77,5.13,6.23,5.13,7.42,0,2.43,11.58,4.4,25.85,4.4s25.85-2,25.85-4.4c0-1.15,6.11-7.94,5.9-8.2l3.68-60.57" transform="translate(-107.52 -51.67)" fill="none" stroke="#231f20" stroke-linecap="round" stroke-linejoin="round" stroke-width="5"/><path d="M420.57,402s-3.4-12-1.73-16.15,16.77-12.52,16.77-12.52l14.45.1,5.55,6.57-3,11,1.29,7.62-4.44,8.46H434.52Z" transform="translate(-107.52 -51.67)" fill="#cc8127"/><path d="M400.66,388.46c45.57-4.12,57.58-.63,60.92,1.32a.84.84,0,0,1-.23,1.53c-20.53,5.39-60.61.62-60.61.62Z" transform="translate(-107.52 -51.67)" fill="#ed9520"/><path d="M452.88,392.87l-.3-1.79,1-3.53c-6.35-.93-17-1.44-35-.42a23,23,0,0,0,.21,6.27C429.16,394,442.2,394.22,452.88,392.87Z" transform="translate(-107.52 -51.67)" fill="#ed9520"/><path d="M435.61,373.38s-15.1,8.34-16.77,12.52a12.53,12.53,0,0,0-.38,5.12c9.65.67,23.22,1.16,34.17-.14l3-10.83-5.55-6.57Z" transform="translate(-107.52 -51.67)" fill="#a9c2c9"/><polygon points="328.09 321.71 333.98 330.07 348.09 328.38 342.54 321.81 328.09 321.71" fill="#fff" opacity="0.34" style="isolation:isolate"/><line x1="309.05" y1="318.14" x2="338.8" y2="364.86" fill="none" stroke="#fff" stroke-linecap="round" stroke-linejoin="round" stroke-width="5"/><line x1="346.14" y1="353.77" x2="321.81" y2="315.56" fill="none" stroke="#fff" stroke-linecap="round" stroke-linejoin="round" stroke-width="5"/><path d="M408.45,414.65s19.06,8.48,47.16,0" transform="translate(-107.52 -51.67)" fill="none" stroke="#231f20" stroke-linecap="round" stroke-linejoin="round" stroke-width="5"/><ellipse cx="155.41" cy="407.82" rx="6.49" ry="10.87" transform="translate(-382.9 426.08) rotate(-78.36)" fill="#b57948" stroke="#603c1e" stroke-miterlimit="10" stroke-width="4"/><ellipse cx="320.44" cy="421.84" rx="10.87" ry="6.49" transform="translate(-132.75 -31.26) rotate(-3.51)" fill="#754b2c" stroke="#603c1e" stroke-miterlimit="10" stroke-width="4"/><ellipse cx="335.87" cy="428.85" rx="6.49" ry="10.87" transform="translate(-251.19 635.57) rotate(-80.25)" fill="#754b2c" stroke="#603c1e" stroke-miterlimit="10" stroke-width="4"/><path d="M318.56,432.24l-10.19-44.53s-10.2,18.51-74,18.51c-40.63,0-76.05-9.68-73.57-20.55h0l-10.65,46.57a5.5,5.5,0,0,0-.51,2.25c0,11.34,37.93,23.46,84.73,23.46s84.73-12.12,84.73-23.46A5.5,5.5,0,0,0,318.56,432.24Z" transform="translate(-107.52 -51.67)" fill="#2e50db" stroke="#231f20" stroke-miterlimit="10" stroke-width="4"/><path d="M234.34,363.52c-40.63,0-73.57,9.92-73.57,22.15s32.94,22.16,73.57,22.16,73.57-9.92,73.57-22.16S275,363.52,234.34,363.52Z" transform="translate(-107.52 -51.67)" fill="#2e50db" stroke="#231f20" stroke-miterlimit="10" stroke-width="4"/><ellipse cx="126.82" cy="333.1" rx="61.89" ry="14.81" fill="#c3996b"/><path d="M289.22,377.92c4.48,2,7,4.38,7,6.85,0,8.18-27.71,14.82-61.89,14.82s-61.89-6.64-61.89-14.82c0-2.47,2.53-4.8,7-6.85" transform="translate(-107.52 -51.67)" fill="none" stroke="#231f20" stroke-miterlimit="10" stroke-width="4"/><path d="M196.52,444.08c42.78,6.39,105.33,3.07,120.16-20.06" transform="translate(-107.52 -51.67)" fill="#2e50db" stroke="#231f20" stroke-miterlimit="10" stroke-width="4"/><path d="M159.71,433.42s-6.18-3.2-8.45-6.15" transform="translate(-107.52 -51.67)" fill="#2e50db" stroke="#231f20" stroke-miterlimit="10" stroke-width="4"/><ellipse cx="278.52" cy="377.96" rx="6.49" ry="11.76" transform="translate(-263.05 505.25) rotate(-76.02)" fill="#754b2c" stroke="#603c1e" stroke-miterlimit="10" stroke-width="4"/><ellipse cx="204.82" cy="377.18" rx="6.49" ry="11.76" transform="translate(-318.19 433.14) rotate(-76.02)" fill="#754b2c" stroke="#603c1e" stroke-miterlimit="10" stroke-width="4"/><ellipse cx="222.89" cy="373.6" rx="11.76" ry="6.49" transform="translate(-153.66 -19.94) rotate(-7.38)" fill="#754b2c" stroke="#603c1e" stroke-miterlimit="10" stroke-width="4"/><ellipse cx="222.89" cy="358.32" rx="11.76" ry="6.49" transform="translate(-151.7 -20.07) rotate(-7.38)" fill="#754b2c" stroke="#603c1e" stroke-miterlimit="10" stroke-width="4"/><ellipse cx="253.5" cy="373.59" rx="6.49" ry="11.76" transform="translate(-247.86 542.65) rotate(-85.11)" fill="#754b2c" stroke="#603c1e" stroke-miterlimit="10" stroke-width="4"/><ellipse cx="238.88" cy="367.05" rx="6.49" ry="11.76" transform="translate(-254.72 522.1) rotate(-85.11)" fill="#754b2c" stroke="#603c1e" stroke-miterlimit="10" stroke-width="4"/><ellipse cx="213.71" cy="368.72" rx="6.49" ry="11.76" transform="translate(-279.41 498.55) rotate(-85.11)" fill="#754b2c" stroke="#603c1e" stroke-miterlimit="10" stroke-width="4"/><ellipse cx="265.23" cy="376.44" rx="6.49" ry="11.76" transform="translate(-239.96 556.94) rotate(-85.11)" fill="#754b2c" stroke="#603c1e" stroke-miterlimit="10" stroke-width="4"/><path d="M174.16,428.44l4.13-17,4.49,1.09L181.22,419l2.14.52,5.42-5.51,5,1.21-7.35,7,3.47,10.08-5-1.21-2.54-7.56-2.11-.51-1.59,6.55Z" transform="translate(-107.52 -51.67)" fill="#231f20"/><path d="M207.37,417.1l-.6,4-7.88-1.18-.4,2.64,7.14,1.07-.59,3.94-7.14-1.08-.42,2.82,8,1.21-.59,4-12.61-1.89,2.6-17.3Z" transform="translate(-107.52 -51.67)" fill="#231f20"/><path d="M208.22,434.81l1.51-17.43,4.6.4-.57,6.6,2.19.19,4.53-6.26,5.11.44-6.21,8,5,9.43-5.1-.44-3.66-7.09-2.16-.18-.58,6.72Z" transform="translate(-107.52 -51.67)" fill="#231f20"/><path d="M232.79,418.52a12.26,12.26,0,0,1,5.84,1.57l-.12,4.24a9,9,0,0,0-5.45-1.8c-1.7,0-2.24.42-2.26,1.07-.06,2.27,9.06,1.82,8.89,8-.12,4.15-3.33,5.26-7.15,5.16a14,14,0,0,1-6.68-1.79l.12-4.37a11.37,11.37,0,0,0,6.32,2.15c1.82,0,2.61-.23,2.63-1.1.07-2.53-9.05-1.93-8.88-8.18C226.15,420,229.19,418.43,232.79,418.52Z" transform="translate(-107.52 -51.67)" fill="#231f20"/><ellipse cx="115.67" cy="338.26" rx="11.76" ry="6.49" fill="#ba8356" stroke="#603c1e" stroke-miterlimit="10" stroke-width="4"/><ellipse cx="120.63" cy="315.39" rx="11.76" ry="6.49" fill="#ba8356" stroke="#603c1e" stroke-miterlimit="10" stroke-width="4"/><ellipse cx="152.57" cy="342.59" rx="11.76" ry="6.49" fill="#754b2c" stroke="#603c1e" stroke-miterlimit="10" stroke-width="4"/><ellipse cx="282.38" cy="386.82" rx="11.76" ry="6.49" transform="translate(-154.87 -12.19) rotate(-7.38)" fill="#754b2c" stroke="#603c1e" stroke-miterlimit="10" stroke-width="4"/><ellipse cx="258.7" cy="382.14" rx="11.76" ry="6.49" transform="translate(-154.46 -15.27) rotate(-7.38)" fill="#754b2c" stroke="#603c1e" stroke-miterlimit="10" stroke-width="4"/><ellipse cx="184.84" cy="383.11" rx="11.76" ry="6.49" transform="translate(-155.2 -24.75) rotate(-7.38)" fill="#754b2c" stroke="#603c1e" stroke-miterlimit="10" stroke-width="4"/><ellipse cx="59.66" cy="330.47" rx="11.76" ry="6.49" fill="#754b2c" stroke="#603c1e" stroke-miterlimit="10" stroke-width="4"/><ellipse cx="95.22" cy="335.51" rx="11.76" ry="6.49" fill="#754b2c" stroke="#603c1e" stroke-miterlimit="10" stroke-width="4"/><ellipse cx="120.63" cy="329.02" rx="11.76" ry="6.49" fill="#754b2c" stroke="#603c1e" stroke-miterlimit="10" stroke-width="4"/><ellipse cx="136.72" cy="324.78" rx="8.29" ry="6.49" fill="#754b2c" stroke="#603c1e" stroke-miterlimit="10" stroke-width="4"/><ellipse cx="240.01" cy="358.35" rx="10.87" ry="6.49" transform="translate(-129.01 -36.3) rotate(-3.51)" fill="#754b2c" stroke="#603c1e" stroke-miterlimit="10" stroke-width="4"/><ellipse cx="236.89" cy="397.19" rx="9.61" ry="7.76" transform="translate(-190.39 11.41) rotate(-12.93)" fill="#cea47e" stroke="#603c1e" stroke-miterlimit="10" stroke-width="4"/><ellipse cx="85.54" cy="337.08" rx="5.72" ry="6.49" fill="#ba8356" stroke="#603c1e" stroke-miterlimit="10" stroke-width="4"/><ellipse cx="272.2" cy="377.31" rx="10.49" ry="6.49" transform="translate(-153.73 -13.58) rotate(-7.38)" fill="#ba8356" stroke="#603c1e" stroke-miterlimit="10" stroke-width="4"/><ellipse cx="345.38" cy="456.8" rx="10.49" ry="6.49" transform="translate(-163.34 -3.52) rotate(-7.38)" fill="#ba8356" stroke="#603c1e" stroke-miterlimit="10" stroke-width="4"/><ellipse cx="204.1" cy="360.57" rx="6.49" ry="10.49" transform="translate(-293.35 448.99) rotate(-80.25)" fill="#ba8356" stroke="#603c1e" stroke-miterlimit="10" stroke-width="4"/><ellipse cx="191.38" cy="370.11" rx="6.49" ry="10.87" transform="translate(-317.25 431.22) rotate(-78.36)" fill="#754b2c" stroke="#603c1e" stroke-miterlimit="10" stroke-width="4"/><ellipse cx="196.77" cy="373.25" rx="11.74" ry="6.48" transform="translate(-154.44 -22.87) rotate(-7.48)" fill="#ba8356" stroke="#603c1e" stroke-miterlimit="10" stroke-width="4"/><ellipse cx="211.99" cy="362.25" rx="10.87" ry="6.49" transform="translate(-129.3 -38.01) rotate(-3.51)" fill="#754b2c" stroke="#603c1e" stroke-miterlimit="10" stroke-width="4"/><ellipse cx="220.82" cy="338.8" rx="6.49" ry="10.87" transform="translate(-263.09 435.05) rotate(-78.36)" fill="#754b2c" stroke="#603c1e" stroke-miterlimit="10" stroke-width="4"/><ellipse cx="207.25" cy="352.83" rx="6.49" ry="10.87" transform="translate(-287.66 432.96) rotate(-78.36)" fill="#754b2c" stroke="#603c1e" stroke-miterlimit="10" stroke-width="4"/><ellipse cx="259.3" cy="358.9" rx="10.87" ry="6.49" transform="translate(-151.47 -15.39) rotate(-7.38)" fill="#754b2c" stroke="#603c1e" stroke-miterlimit="10" stroke-width="4"/><ellipse cx="223.37" cy="349.11" rx="6.56" ry="10.87" transform="translate(-271.15 445.78) rotate(-78.36)" fill="#754b2c" stroke="#603c1e" stroke-miterlimit="10" stroke-width="4"/><ellipse cx="247.47" cy="349.66" rx="6.49" ry="10.87" transform="translate(-252.45 469.82) rotate(-78.36)" fill="#754b2c" stroke="#603c1e" stroke-miterlimit="10" stroke-width="4"/><ellipse cx="296.22" cy="382.13" rx="6.49" ry="10.87" transform="translate(-245.34 543.49) rotate(-78.36)" fill="#754b2c" stroke="#603c1e" stroke-miterlimit="10" stroke-width="4"/><ellipse cx="269.17" cy="367.88" rx="6.49" ry="10.87" transform="translate(-252.97 505.63) rotate(-78.36)" fill="#754b2c" stroke="#603c1e" stroke-miterlimit="10" stroke-width="4"/><ellipse cx="282.36" cy="370.77" rx="6.49" ry="10.87" transform="translate(-245.27 520.84) rotate(-78.36)" fill="#b57948" stroke="#603c1e" stroke-miterlimit="10" stroke-width="4"/><ellipse cx="380.54" cy="428.83" rx="6.49" ry="10.87" transform="translate(-223.77 663.35) rotate(-78.36)" fill="#b57948" stroke="#603c1e" stroke-miterlimit="10" stroke-width="4"/><ellipse cx="241.97" cy="341.39" rx="9.5" ry="6.27" transform="translate(-177.77 11.13) rotate(-12.93)" fill="#b57948" stroke="#603c1e" stroke-miterlimit="10" stroke-width="4"/><ellipse cx="225.76" cy="329.92" rx="6.27" ry="9.5" transform="translate(-268.69 378.78) rotate(-70.18)" fill="#b57948" stroke="#603c1e" stroke-miterlimit="10" stroke-width="4"/><ellipse cx="38.43" cy="389" rx="9.5" ry="6.27" fill="#b57948" stroke="#603c1e" stroke-miterlimit="10" stroke-width="4"/><ellipse cx="16.35" cy="381.75" rx="9.5" ry="6.27" fill="#b57948" stroke="#603c1e" stroke-miterlimit="10" stroke-width="4"/><ellipse cx="251.14" cy="365.48" rx="5.74" ry="10.39" transform="translate(-252.15 513.86) rotate(-82.32)" fill="#ba8356" stroke="#603c1e" stroke-miterlimit="10" stroke-width="4"/></svg>