<svg width="100" height="100" viewBox="0 0 100 100" xmlns="http://www.w3.org/2000/svg"><path fill="#F15A29" d="M18.11 78.69L50 97.32l31.89-18.63V20.74L50 17.45l-31.89 3.29zm49.11-62.01h.3m5.42 5.89"/><path fill="#151841" d="M50 100L16 80.14V19.5L50 16l34 3.5v60.64L50 100zM19.04 78.44L50 96.53l30.96-18.09V22.19L50 19l-30.96 3.19v56.25z"/><path fill="#fff" d="M13.82 74.44c2.19-.7 5.08.2 5.08.2l1.29.6h2.19c.2 2.39.7 4.57 1.49 6.76l13.04 6.86.7-.7 7.07-7.75c1.09.8 2.39 1.29 3.78 1.59l-.5 12.03 2.09 1.69s2.79-1.69 2.29-1.69L51.84 82c1.39-.2 2.69-.8 3.78-1.59l7.07 7.75.9.89 12.24-6.16c1-2.39 1.59-4.97 1.79-7.65h2.19l1.29-.6s2.89-.89 5.08-.2c2.39.8 4.18-.1 4.18-1.69 0-1.59-1.79-2.48-4.18-1.69-2.19.7-5.08-.2-5.08-.2l-1.39-.6h-2.19c-.5-5.77-2.79-11.04-6.37-15.21l1.49-1.49s1.89-4.08 3.98-5.07c2.19-1.09 2.89-2.98 1.79-4.18-1.09-1.09-3.09-.5-4.18 1.79-1 2.09-5.08 3.98-5.08 3.98l-1.49 1.49a27.445 27.445 0 0 0-15.23-6.26v-2.39s-1.49-3.98-.8-6.16c.8-2.39-.1-4.18-1.69-4.18-1.59 0-2.49 1.79-1.69 4.18.7 2.19-.8 6.06-.8 6.06v2.48c-5.77.5-11.05 2.78-15.23 6.36l-1.49-1.49-1.39-.5s-2.69-1.39-3.68-3.48c-1.09-2.19-2.99-2.88-4.18-1.79-1.09 1.09-.5 3.08 1.79 4.18 2.09.99 3.38 3.68 3.38 3.68l.5 1.39 1.49 1.49a27.467 27.467 0 0 0-6.27 15.21h-2.19l-1.29.6s-2.89.89-5.08.2c-2.39-.8-4.18.1-4.18 1.69.01 1.61 1.8 2.4 4.19 1.6zm27.27 4.98l-7.66 6.96a20.671 20.671 0 0 1-4.78-11.43l12.04-.5c.2 1.39.8 2.68 1.59 3.78l-1.19 1.19zm8.86-1.6c-2.79 0-5.08-2.29-5.08-5.07 0-2.78 2.29-5.07 5.08-5.07s5.08 2.29 5.08 5.07-2.29 5.07-5.08 5.07zm16.62 8.45l-1.09-1.09-6.57-5.77-1.19-1.19c.8-1.09 1.29-2.39 1.59-3.78l10.45.5h1.59c-.5 4.28-2.19 8.15-4.78 11.33zm0-27.04c2.59 3.18 4.28 7.06 4.78 11.43l-10.45.5h-1.69c-.2-1.39-.8-2.68-1.59-3.78l8.95-8.15zm-14.43-6.16v-1.59c4.28.4 8.26 2.09 11.45 4.67l-1.19 1.19-5.77 6.56-1.19 1.19c-1.09-.8-2.39-1.29-3.78-1.59v-1.69l.48-8.74zm-4.18-1.49v1.59l.4 8.75v1.69c-1.39.2-2.69.7-3.78 1.49l-1.19-1.19-6.77-7.75c3.08-2.59 6.96-4.18 11.34-4.58zm-14.63 7.65l7.66 6.96 1.19 1.19c-.8 1.09-1.29 2.39-1.59 3.78H39l-10.35-.5c.4-4.37 2.09-8.25 4.68-11.43z"/><path fill="#A9A09F" d="M31.98 85.38c-2.49-3.58-3.88-7.95-3.88-12.73 0-12.33 9.56-21.74 21.9-21.74s21.83 9.42 22.3 21.74c.16 4.17-2.24 10.5-4.93 14.08l4.38-2.19c1.59-3.28 2.94-8.12 2.94-11.89 0-13.62-11.05-24.42-24.68-24.42s-24.68 10.9-24.68 24.52c0 3.68.8 7.26 2.29 10.44.08.1 4.56 2.49 4.36 2.19z"/><path fill="#151841" d="M50.32 97.32l-8.24-4.84 5.28 2.68.5-12.42c-1-.2-1.99-.6-2.89-1.19L38.3 88.9l-1.09.99-13.74-7.26-.2-.2c-.7-1.99-1.19-4.18-1.49-6.26h-1.69l-1.39-.7c-.2-.1-1.49-.4-2.89-.4-.6 0-1.19.1-1.69.2-.7.2-1.29.3-1.89.3-1.89 0-3.19-1.09-3.19-2.68s1.29-2.68 3.19-2.68c.6 0 1.29.1 1.89.3.5.2 1 .2 1.69.2 1.39 0 2.69-.4 2.89-.4l1.39-.7h1.69c.6-5.27 2.69-10.24 5.97-14.42L26.56 54l-.5-1.49c-.2-.3-1.39-2.48-3.09-3.38-1.49-.8-2.49-1.89-2.69-3.08-.1-.8.1-1.59.7-2.19.5-.5 1.09-.8 1.79-.8 1.29 0 2.69.99 3.48 2.68.8 1.69 3.09 2.88 3.38 3.08l1.59.7 1.19 1.19c4.18-3.38 9.16-5.37 14.43-5.96v-2.09c.4-.99 1.29-3.98.8-5.57-.5-1.59-.4-3.08.3-4.08.5-.7 1.19-1.09 2.09-1.09.9 0 1.59.4 2.09 1.09.7.99.8 2.48.3 4.08-.5 1.59.4 4.57.8 5.67v1.99c5.28.6 10.25 2.68 14.43 5.96l1.19-1.19.1-.1c1.09-.5 3.98-2.09 4.78-3.58.8-1.69 2.19-2.68 3.48-2.68.7 0 1.29.3 1.79.8.6.6.9 1.39.7 2.19-.2 1.19-1.19 2.29-2.69 3.08-1.49.7-3.09 3.68-3.58 4.77l-.1.1-1.19 1.19c3.28 4.18 5.37 9.15 5.97 14.42h1.69l1.39.7c.2.1 1.49.4 2.89.4.6 0 1.19-.1 1.69-.2 1.59-.5 3.19-.4 4.18.4.6.5 1 1.19 1 1.99 0 1.59-1.29 2.68-3.19 2.68-.6 0-1.29-.1-1.89-.3-.5-.2-1-.2-1.69-.2-1.39 0-2.69.4-2.89.4l-1.39.7H78.2c-.3 2.48-.9 4.87-1.79 7.16l-.1.3-13.22 6.56-1.3-1.3-6.57-7.26c-.9.6-1.89.99-2.89 1.19l.43 12.53 5.84-2.88-8.28 4.74zm-1.56-2.95l1.39.7 1.49-.7-.6-12.82.6-.1c1.29-.2 2.39-.7 3.48-1.49l.5-.4 7.47 8.25.68.81 2.7-1.47-1.39-1.33-6.57-5.77-1.59-1.69.4-.5c.7-1.09 1.19-2.19 1.39-3.48l.1-.6 11.05.6h2.39l-.1.8c-.4 4.08-1.89 7.95-4.38 11.23l7.84-4.52c.9-2.29 1.22-4.03 1.42-6.42l.1-.7h2.69l1.29-.6c.1 0 1.59-.5 3.38-.5.8 0 1.49.1 2.19.3.5.2 1 .3 1.49.3.9 0 1.79-.3 1.79-1.29 0-.4-.1-.7-.4-.89-.3-.3-.8-.4-1.39-.4-.5 0-.9.1-1.49.3-.6.2-1.39.3-2.19.3-1.79 0-3.28-.5-3.38-.5h-.1l-1.19-.6h-2.69l-.1-.8c-.5-5.47-2.59-10.64-6.17-14.81l-.4-.5 1.89-1.89c.4-.8 2.09-4.27 4.18-5.37 1.09-.5 1.79-1.29 1.89-1.99.1-.4 0-.7-.3-.99-.2-.2-.5-.3-.8-.3-.8 0-1.59.7-2.19 1.89-1 2.09-4.58 3.88-5.37 4.18l-1.89 1.89-.5-.4c-4.28-3.48-9.36-5.67-14.83-6.16l-.7-.1v-2.88c-.3-.8-1.49-4.27-.8-6.46.4-1.09.3-2.19-.1-2.78-.2-.3-.5-.5-.9-.5s-.7.2-.9.5c-.4.6-.5 1.59-.1 2.78.7 2.19-.5 5.67-.7 6.36l-.1 2.98-.7.1c-5.37.6-10.45 2.68-14.73 6.26l-.5.4-1.89-1.89-1.29-.5c-.1-.1-2.89-1.49-4.08-3.78-.6-1.19-1.49-1.89-2.19-1.89-.3 0-.5.1-.8.3-.3.3-.4.6-.3.99.1.7.8 1.49 1.89 1.99 2.19 1.09 3.68 3.88 3.78 4.08v.1l.4 1.19 1.89 1.89-.4.5c-3.48 4.27-5.67 9.34-6.17 14.81l-.1.7h-2.69l-1.09.6c-.1 0-1.59.5-3.38.5-.8 0-1.49-.1-2.19-.3-.5-.2-1-.3-1.49-.3-.9 0-1.79.3-1.79 1.29 0 .89.9 1.29 1.79 1.29.5 0 .9-.1 1.49-.3.6-.2 1.39-.3 2.19-.3 1.79 0 3.28.5 3.38.5h.1l1.19.5h2.69v.8c.2 2.19.7 4.27 1.39 6.26l7.37 3.88c-2.19-3.08-3.48-6.66-3.88-10.44l-.1-.7 13.44-.6.1.6c.2 1.29.7 2.39 1.49 3.48l.4.5-1.69 1.69-7.47 6.66 2.59 1.39.3-.3 7.47-8.25.5.4c1.09.7 2.19 1.19 3.48 1.39l.6.1-.48 12.94zM29.64 75.78c.5 3.48 1.89 6.76 3.98 9.64l7.07-6.36.8-.8c-.6-.89-1-1.89-1.19-2.88l-10.66.4zm29.97 3.18l6.57 5.77.6.6c2.09-2.78 3.48-6.06 3.98-9.54h-.8l-9.85-.5c-.2.99-.7 1.99-1.19 2.88l.69.79zm-9.46-.3c-3.19 0-5.77-2.58-5.77-5.77 0-3.18 2.59-5.77 5.77-5.77 3.19 0 5.77 2.58 5.77 5.77 0 3.19-2.59 5.77-5.77 5.77zm0-10.04c-2.39 0-4.28 1.89-4.28 4.27 0 2.39 1.89 4.27 4.28 4.27 2.39 0 4.28-1.89 4.28-4.27s-1.89-4.27-4.28-4.27zM41.49 72H39.1l-11.15-.6.1-.8c.4-4.37 2.09-8.45 4.88-11.83l.5-.6 8.26 7.46 1.69 1.69-.4.5c-.7 1.09-1.19 2.19-1.39 3.48l-.1.7zm-2.29-1.39h1.09c.2-1.09.7-1.99 1.19-2.98l-.8-.8-7.07-6.36c-2.19 2.78-3.48 6.16-3.98 9.64l9.57.5zM61.1 72h-2.39v-.6c-.2-1.29-.7-2.39-1.49-3.48l-.4-.5 9.95-9.15.5.6c2.79 3.38 4.48 7.46 4.88 11.83l.1.8-11.15.5zM60 70.51h1.09l9.56-.5c-.5-3.48-1.89-6.86-3.98-9.64l-7.86 7.16c.5.99.89 1.99 1.19 2.98zm-15.52-4.28l-1.69-1.69-7.27-8.35.6-.5c3.38-2.68 7.56-4.37 11.84-4.67l.8-.1v2.39l.4 8.75v2.39l-.6.1c-1.29.2-2.49.7-3.48 1.39l-.6.29zm-.5-2.68l.8.8c.9-.6 1.89-.89 2.99-1.19v-1.09l-.4-8.75v-.8c-3.48.4-6.87 1.69-9.65 3.88l6.26 7.15zm11.64 2.59l-.5-.3c-1-.7-2.19-1.19-3.48-1.39l-.6-.1v-2.39l.5-8.75v-2.29l.8.1c4.38.4 8.46 2.09 11.84 4.87l.6.5-1.69 1.59-5.77 6.56-1.7 1.6zm-3.18-3.09c1.09.2 2.09.7 2.99 1.19l.8-.8L62 56.88l.6-.6a20.905 20.905 0 0 0-9.56-3.98v.8l-.5 8.75v1.19h-.1z"/></svg>