<svg width="92" height="96" viewBox="0 0 284 294" xmlns="http://www.w3.org/2000/svg"><path d="M209.3,24.3l2.3,1.4c14.1,8.5,24.2,25.9,32.5,41.5h0c3.6,6.8,9.5,11.5,16.2,13,0,0,15.5,2.3,21.8,5.8,6.6,3.7,10.8,10.8,12.7,15.7a31.25,31.25,0,0,1,1.6,17.3s-3.8-15.7-15.7-23.6c-3.3-2.2-14.7-4.5-14.7-4.5l.2.1c8.5,3.6,14.6,12,16.8,22.2a23.12,23.12,0,0,0,3.4,8.3,8.62,8.62,0,0,0,1.4,1.8,14.62,14.62,0,0,0,1.9,1.6l7,5.1-7.2.3c-9.9,0-14.1-14.3-14.1-14.3-5.9-21.4-26-20.1-26-20.1h0c-10.4,0-21.5-3.9-27.1-13.7A45.85,45.85,0,0,0,219,77c-3.1-4.2-9-11.4-13.8-13.6l-5.1-2.3Z" transform="translate(-14.99 -8.9)" fill="#2f88d1"/><line x1="198.41" y1="9.1" x2="175.81" y2="89" fill="none"/><path d="M104.7,24.3l-2.3,1.4C88.3,34.2,78.2,51.6,69.9,67.2h0c-3.6,6.8-9.5,11.5-16.2,13,0,0-15.5,2.3-21.8,5.8-6.6,3.7-10.8,10.8-12.7,15.7A31.25,31.25,0,0,0,17.6,119s3.8-15.7,15.7-23.6C36.6,93.2,48,90.9,48,90.9l-.3.1c-8.5,3.6-14.6,12-16.8,22.2a23.12,23.12,0,0,1-3.4,8.3,8.62,8.62,0,0,1-1.4,1.8,14.62,14.62,0,0,1-1.9,1.6l-7,5.1,7.2.3c9.9,0,14.1-14.3,14.1-14.3,5.9-21.4,26-20.1,26-20.1h0C74.9,95.9,86,92,91.6,82.2A45.85,45.85,0,0,1,94.9,77c3.1-4.2,9-11.4,13.8-13.6l5.1-2.3Z" transform="translate(-14.99 -8.9)" fill="#2f88d1"/><line x1="85.61" y1="9.1" x2="108.21" y2="89" fill="none"/><path d="M157,94.1,90.8,101V222.3L157,261.7l66.2-39.4V101.1l-65.5-6.9Z" transform="translate(-14.99 -8.9)" fill="#d5dcf1"/><path d="M157,264.2a2.2,2.2,0,0,1-1.3-.4L89.5,224.4a2.47,2.47,0,0,1-1.2-2.1V101.1a2.5,2.5,0,0,1,2.2-2.5l66.2-6.9h.5l.7.1,65.5,6.9a2.42,2.42,0,0,1,2.2,2.5V222.5a2.44,2.44,0,0,1-1.2,2.1L158.2,264A4.3,4.3,0,0,1,157,264.2ZM93.3,220.9,157,258.8l63.7-37.9V103.3L157,96.7l-63.7,6.7Z" transform="translate(-14.99 -8.9)" fill="#2a2f5a"/><path d="M191.7,164.1H122.3v44.2h.1a1.7,1.7,0,0,0-.1.7c0,4.6,15.5,13.5,34.7,13.5s34.7-8.9,34.7-13.5a1.7,1.7,0,0,0-.1-.7h.1Z" transform="translate(-14.99 -8.9)" fill="#2f88d1"/><polygon points="142.01 112.7 81.22 142.8 142.01 172.9 202.81 142.8 142.01 112.7" fill="#2f88d1"/><path d="M174.8,203a2,2,0,0,1-1.1-.3,2,2,0,0,1-.5-2.8l3.9-5.7a2,2,0,1,1,3.3,2.3l-3.9,5.7A2.14,2.14,0,0,1,174.8,203Z" transform="translate(-14.99 -8.9)" fill="#f9b326"/><path d="M181.9,201.4a2.09,2.09,0,0,1-1.7-.9l-3-4.5a2,2,0,1,1,3.3-2.3l3,4.5a2,2,0,0,1-.5,2.8A2.46,2.46,0,0,1,181.9,201.4Z" transform="translate(-14.99 -8.9)" fill="#f9b326"/><path d="M262.3,160.7c2-.9,5.2-8.5,4.8-12a69.61,69.61,0,0,0-4.9-19.8c-1.1-3.2-5.5,3.8-6.4,15.9C255.6,148.5,260.4,161.6,262.3,160.7Z" transform="translate(-14.99 -8.9)" fill="#f9b326"/><path d="M262.1,162.3a2.2,2.2,0,0,1-1.3-.4c-2.7-1.9-6.8-13.4-6.5-17.1.6-8.4,3.4-17.7,6.8-18.1a2.32,2.32,0,0,1,2.5,1.8,11.21,11.21,0,0,0,.5,1.3,68.57,68.57,0,0,1,4.5,18.8c.4,3.8-2.8,12.2-5.7,13.5h0A1.88,1.88,0,0,1,262.1,162.3Zm-1-32c-1.2,1.8-3.2,6.9-3.8,14.7-.2,2.8,3.1,11.8,4.8,14,1.4-1.6,3.8-7.2,3.5-10a70.89,70.89,0,0,0-4.3-18.1A1.07,1.07,0,0,0,261.1,130.3Z" transform="translate(-14.99 -8.9)" fill="#2a2f5a"/><path d="M52.4,160.7c-2-.9-5.2-8.5-4.8-12a69.61,69.61,0,0,1,4.9-19.8c1.1-3.2,5.5,3.8,6.4,15.9C59.2,148.5,54.3,161.6,52.4,160.7Z" transform="translate(-14.99 -8.9)" fill="#f9b326"/><path d="M52.6,162.3a2.35,2.35,0,0,1-.8-.2h0c-2.9-1.3-6.1-9.8-5.7-13.5a68.57,68.57,0,0,1,4.5-18.8c.2-.5.4-1,.5-1.3a2.32,2.32,0,0,1,2.5-1.8c3.4.4,6.2,9.7,6.8,18.1.3,3.7-3.8,15.3-6.5,17.1A2.84,2.84,0,0,1,52.6,162.3Zm1-32c-.1.2-.1.4-.2.6A70.88,70.88,0,0,0,49.1,149c-.3,2.8,2.1,8.4,3.5,10,1.7-2.2,5-11.2,4.8-14C56.8,137.2,54.9,132.1,53.6,130.3Z" transform="translate(-14.99 -8.9)" fill="#2a2f5a"/><path d="M271.6,213.2c-3.5,1.5-13.4,11.7-11.7,12.9s10.3.5,13.3-1.5a73.93,73.93,0,0,0,16.1-13.4C291.8,208.8,283.3,208.3,271.6,213.2Z" transform="translate(-14.99 -8.9)" fill="#f9b326"/><path d="M263.5,228.2a8.92,8.92,0,0,1-4.5-.9,1.92,1.92,0,0,1-.8-1.9c.4-3.3,9.5-12.1,12.8-13.5h0c8.3-3.5,18-5.3,19.9-2.5a2.22,2.22,0,0,1-.6,3l-1,1A77.34,77.34,0,0,1,274,225.9C271.9,227.2,267.2,228.2,263.5,228.2Zm-2.1-3.2c2.3.4,8.5-.2,11-1.8a71.14,71.14,0,0,0,14.8-12.1l.3-.3c-2.4-.1-7.9.6-15.3,3.6h0C269.5,215.7,262.9,222.4,261.4,225Z" transform="translate(-14.99 -8.9)" fill="#2a2f5a"/><path d="M264.3,233.6c-3.9.9-15.7,9.3-14.2,10.7,1.7,1.5,10.7,2.2,14.2.8a76.79,76.79,0,0,0,18.8-10.5C286.1,232.7,277.3,230.8,264.3,233.6Z" transform="translate(-14.99 -8.9)" fill="#f9b326"/><path d="M258.5,247.4c-3.8,0-7.9-.6-9.3-1.9a1.82,1.82,0,0,1-.5-2.1c.9-3.2,11.7-10.4,15.4-11.2h0c9.1-2,19.7-2.2,21,.9a2.3,2.3,0,0,1-1.1,2.8q-.45.3-1.2.9a81,81,0,0,1-17.8,9.8A23,23,0,0,1,258.5,247.4Zm-6.6-3.8c2.4.8,9.1,1.2,11.9.1a74.39,74.39,0,0,0,17.2-9.4c.1-.1.2-.1.3-.2-2.5-.6-8.4-.8-16.6,1h0C261.7,235.7,253.8,241.3,251.9,243.6Z" transform="translate(-14.99 -8.9)" fill="#2a2f5a"/><path d="M239.2,277.7c-.4-1.5-7.5-4-18-4.1-2.6,0-9.2,2.3-13,4.4-3.5,1.6-6.1,3.3-5.6,4.1,1.3,2,10.6,4.8,14.6,4.2a82.35,82.35,0,0,0,22.4-6.5C241,279.3,240.7,278.5,239.2,277.7Z" transform="translate(-14.99 -8.9)" fill="#f9b326"/><path d="M216.1,287.8c-4.7,0-13-2.5-14.7-5a2,2,0,0,1-.2-1.7c.2-.6.6-2,6.4-4.6,3.9-2.1,10.8-4.6,13.7-4.6,8.3.1,17.2,1.8,19.1,4.6a3,3,0,0,1,1.7,2.6c0,.5-.3,1.5-1.8,2a11.64,11.64,0,0,1-1.5.6,85.61,85.61,0,0,1-21.2,5.9A3.89,3.89,0,0,1,216.1,287.8Zm-11.6-6.1c2.2,1.4,9.1,3.6,12.6,3.1a82.53,82.53,0,0,0,20.5-5.7l.6-.3-.3-.2-.1-.5c-1-.9-6.9-3.1-16.6-3.2h0c-2.2,0-8.5,2.2-12.2,4.2h-.1A35.25,35.25,0,0,0,204.5,281.7Z" transform="translate(-14.99 -8.9)" fill="#2a2f5a"/><path d="M245.7,258.5c-3.8,0-16.8,5.3-15.7,7s9.4,4.3,13,3.7a82.81,82.81,0,0,0,20-5.7C266.2,262.3,258.4,258.6,245.7,258.5Z" transform="translate(-14.99 -8.9)" fill="#f9b326"/><path d="M241.9,270.8c-4.3,0-11.6-2.2-13.2-4.5a2,2,0,0,1,0-2.1c1.5-2.8,13.2-7.2,17-7.2h0c9.1.1,18.9,2.1,19.5,5.4a2.18,2.18,0,0,1-1.7,2.4,11.21,11.21,0,0,0-1.3.5,76.76,76.76,0,0,1-18.9,5.3A3.18,3.18,0,0,1,241.9,270.8Zm-10-5.7c2.1,1.2,8,3,10.9,2.6a75.18,75.18,0,0,0,18.2-5.1c.1,0,.1-.1.2-.1-2.3-1-7.7-2.5-15.6-2.5h0C242.8,260,234.3,263.4,231.9,265.1Z" transform="translate(-14.99 -8.9)" fill="#2a2f5a"/><path d="M270.5,187.4c-3,2.6-9.3,15.9-7.1,16.4s10.7-3.2,13.1-6.2a73.42,73.42,0,0,0,11.4-18.5C289.4,176,280.6,178.6,270.5,187.4Z" transform="translate(-14.99 -8.9)" fill="#f9b326"/><path d="M263.8,205.4a2.77,2.77,0,0,1-.9-.1,2,2,0,0,1-1.5-1.6c-.8-3.4,5.2-14.9,8-17.4h0c7.1-6.2,16.5-11.5,19.2-9.3a2.26,2.26,0,0,1,.4,3,9.75,9.75,0,0,0-.6,1.4,76.5,76.5,0,0,1-10.9,17.4C275.3,201.4,267.5,205.4,263.8,205.4Zm7.6-16.9c-2.3,2-6.6,10.9-7,13.8,2.5-.3,8.9-3.3,10.8-5.6,6.6-8.1,9.2-13.7,10.5-16.7.1-.2.1-.3.2-.4-2.3.6-7.8,3.2-14.5,8.9Z" transform="translate(-14.99 -8.9)" fill="#2a2f5a"/><path d="M270.4,160.7c-2.8,3-7.6,17.1-5.3,17.4s10.5-4.4,12.5-7.6a82.32,82.32,0,0,0,9.5-19.9C288.3,147.3,279.6,150.8,270.4,160.7Z" transform="translate(-14.99 -8.9)" fill="#f9b326"/><path d="M265.3,179.6h-.4a2,2,0,0,1-1.7-1.4c-1.2-3.3,3.5-15.7,6.1-18.4h0c6.5-7,15.4-13.4,18.4-11.5a2.39,2.39,0,0,1,.8,2.9,12.13,12.13,0,0,1-.5,1.4,77.57,77.57,0,0,1-9.1,18.7C276.8,174.5,268.8,179.6,265.3,179.6Zm6.2-17.8c-2.2,2.3-5.5,11.9-5.5,14.8,2.4-.6,8.7-4.2,10.4-6.9a78.57,78.57,0,0,0,8.8-18c.1-.2.1-.4.2-.6-2.5.8-7.8,4.1-13.9,10.7Z" transform="translate(-14.99 -8.9)" fill="#2a2f5a"/><path d="M196.5,290c-3.7-1.5-18.3-1.2-17.9,1s7.4,8,11.1,8.8a75.48,75.48,0,0,0,21.6,1.9C214.7,301.7,208.7,295,196.5,290Z" transform="translate(-14.99 -8.9)" fill="#f9b326"/><path d="M206.6,303.2a80.45,80.45,0,0,1-17.3-2c-3.8-.8-11.6-6.8-12.2-10a2,2,0,0,1,.8-2c2.7-2.2,15.7-2,19.2-.6h0c8.5,3.5,17.3,9.4,16.6,12.8a2.28,2.28,0,0,1-2.4,1.7h-1.6A29.12,29.12,0,0,1,206.6,303.2Zm-26.3-11.9c1.4,1.9,6.5,6.3,9.6,7a73.89,73.89,0,0,0,19.6,1.9h.5c-1.6-1.8-6.3-5.5-14.2-8.8h0C193,290.2,183.1,290.4,180.3,291.3Z" transform="translate(-14.99 -8.9)" fill="#2a2f5a"/><path d="M179.3,285.5a73.51,73.51,0,0,0,19.1-10c3.1-2.1,7.2-10.1,6.7-12.3s-14.1,3.2-16.9,5.9C178.9,278.5,176,286.9,179.3,285.5Z" transform="translate(-14.99 -8.9)" fill="#f9b326"/><path d="M178.6,287.2a2.27,2.27,0,0,1-1.8-.9c-2-2.9,3.8-11.7,10.2-18.1,2.6-2.6,14.5-7.7,17.9-6.7a1.92,1.92,0,0,1,1.5,1.5c.7,3.1-4.1,11.6-7.3,13.9a74.78,74.78,0,0,1-18,9.6c-.6.2-1,.4-1.4.5h0A3.59,3.59,0,0,1,178.6,287.2Zm24.9-22.9c-2.9.2-12.1,3.8-14.3,6-6,6-8.9,11.2-9.6,13.5.2-.1.3-.1.5-.2a74,74,0,0,0,17.3-9.2C199.9,272.6,203.1,266.6,203.5,264.3Z" transform="translate(-14.99 -8.9)" fill="#2a2f5a"/><path d="M214,251.2c-3.4,12.4-1.7,21.1.4,18.4a73.57,73.57,0,0,0,11.7-17.5c1.6-3.3,1.2-12.1-.3-13.9C224.3,236.6,215,247.5,214,251.2Z" transform="translate(-14.99 -8.9)" fill="#f9b326"/><path d="M213.6,271.6a2.39,2.39,0,0,1-.9-.2c-3.2-1.6-2.6-11.9-.2-20.6h0c.9-3.4,8.8-13.3,12.2-14.2a2,2,0,0,1,2.1.6c2.2,2.4,2.3,12.1.6,15.5a72.64,72.64,0,0,1-10.9,16.7,7.29,7.29,0,0,0-.9,1.1A2.44,2.44,0,0,1,213.6,271.6Zm11.3-31.8c-2.4,1.4-8.7,8.9-9.5,11.8h0c-2.3,8.2-2.1,14.1-1.5,16.3a2.18,2.18,0,0,0,.4-.5,67.18,67.18,0,0,0,10.5-16C226,248.8,225.8,242,224.9,239.8Z" transform="translate(-14.99 -8.9)" fill="#2a2f5a"/><path d="M238.7,252.6a68,68,0,0,0,7.9-19.4c.9-3.5-1.3-12.1-3.2-13.5s-8.6,11.1-8.9,14.9C233.7,247.4,237.1,255.7,238.7,252.6Z" transform="translate(-14.99 -8.9)" fill="#f9b326"/><path d="M237.9,254.7a1.27,1.27,0,0,1-.6-.1c-3.4-.9-5-11.2-4.4-20.1.2-3.9,6-14.8,9.1-16.2a2.15,2.15,0,0,1,2.2.1c2.5,1.8,4.8,11.1,3.7,15.1-2.6,10.1-5.6,15.5-7.3,18.4-.3.5-.5.9-.7,1.3h0A1.94,1.94,0,0,1,237.9,254.7Zm-.5-2.8h0l1.3.7Zm5.5-30.5c-2,1.9-6.7,10.4-6.9,13.4-.5,8.4.9,14.2,1.9,16.3.1-.2.2-.3.3-.5a66.36,66.36,0,0,0,7-17.7C245.8,230.1,244.1,223.4,242.9,221.4Z" transform="translate(-14.99 -8.9)" fill="#2a2f5a"/><path d="M254.2,193.4c-1.9-1.2-7.5,11.8-7.3,15.7.5,12.8,4.8,20.7,6,17.5a69.59,69.59,0,0,0,5.9-20C259.2,203,256.2,194.6,254.2,193.4Z" transform="translate(-14.99 -8.9)" fill="#f9b326"/><path d="M252.1,228.8h-.3c-3.5-.6-6.1-10.6-6.4-19.6-.1-3.9,4.5-15.2,7.4-17a2.18,2.18,0,0,1,2.2-.1c2.6,1.6,5.9,10.6,5.2,14.7a72.3,72.3,0,0,1-5.4,19,8.09,8.09,0,0,1-.6,1.3A2.3,2.3,0,0,1,252.1,228.8Zm1.7-33.7c-1.8,2-5.6,10.9-5.5,13.9.3,8.4,2.3,14.1,3.5,16.1.1-.2.2-.3.2-.5a65.56,65.56,0,0,0,5.2-18.2C257.6,203.5,255.3,197,253.8,195.1Zm.4-1.7-.8,1.3h0Z" transform="translate(-14.99 -8.9)" fill="#2a2f5a"/><path d="M261.5,186.7a73.26,73.26,0,0,0-5.5-20.1c-1.4-3.4-8.5-9.1-10.9-9.2s-.2,13.8,2,17.1C254.2,185.3,262.1,190.1,261.5,186.7Z" transform="translate(-14.99 -8.9)" fill="#f9b326"/><path d="M260.8,189.3c-3.6,0-10.4-6.9-15.1-13.9-2-3-4.3-15.1-2.6-18.2A2.06,2.06,0,0,1,245,156c3.1.1,10.6,6.3,12.2,10.1,4.1,9.6,5,15.7,5.4,19,.1.6.1,1,.2,1.4h0a2.29,2.29,0,0,1-1.2,2.7C261.4,189.2,261.1,189.3,260.8,189.3ZM260,187h0l1.5-.3Zm-14.4-27.9c-.5,2.7,1,12.1,2.6,14.6,4.7,7.1,9.4,11,11.5,12.2a1.09,1.09,0,0,0-.1-.5,65.88,65.88,0,0,0-5.2-18.2C253.4,164.5,247.9,160,245.6,159.1Z" transform="translate(-14.99 -8.9)" fill="#2a2f5a"/><path d="M54.2,226c1.7-1.2-8.2-11.4-11.7-12.9-11.7-4.9-20.2-4.4-17.7-2a73.93,73.93,0,0,0,16.1,13.4C43.9,226.5,52.4,227.3,54.2,226Z" transform="translate(-14.99 -8.9)" fill="#f9b326"/><path d="M50.5,228.2c-3.7,0-8.4-1-10.6-2.4a77.34,77.34,0,0,1-15.3-12.5,9.32,9.32,0,0,0-1-1,2.44,2.44,0,0,1-.6-3c1.9-2.8,11.6-1,19.9,2.5,3.3,1.4,12.5,10.2,12.8,13.5a1.92,1.92,0,0,1-.8,1.9h0C54.2,227.9,52.5,228.2,50.5,228.2Zm-24-17.3.3.3a74.62,74.62,0,0,0,14.8,12.1c2.5,1.6,8.7,2.1,11,1.7-1.4-2.6-8-9.3-10.7-10.5C34.5,211.5,28.9,210.8,26.5,210.9Z" transform="translate(-14.99 -8.9)" fill="#2a2f5a"/><path d="M63.8,244.3c1.6-1.5-10.3-9.9-14.2-10.7-12.9-2.8-21.8-1-18.8,1a80.58,80.58,0,0,0,18.8,10.5C53.1,246.5,62.2,245.9,63.8,244.3Z" transform="translate(-14.99 -8.9)" fill="#f9b326"/><path d="M55.5,247.4a19.15,19.15,0,0,1-6.5-.9,74.6,74.6,0,0,1-17.8-9.8,6.23,6.23,0,0,1-1.2-.9,2.3,2.3,0,0,1-1.1-2.8c1.3-3.1,12-2.9,21-.9,3.7.8,14.5,8,15.4,11.2a2.27,2.27,0,0,1-.5,2.1h0C63.5,246.7,59.4,247.4,55.5,247.4ZM32.7,234.1c.1.1.2.1.3.2a76.81,76.81,0,0,0,17.2,9.4c2.7,1.1,9.5.7,11.9-.1-1.9-2.3-9.8-7.8-12.8-8.5C41.1,233.3,35.1,233.5,32.7,234.1Z" transform="translate(-14.99 -8.9)" fill="#2a2f5a"/><path d="M111.3,282.1c.6-.9-2.1-2.5-5.6-4.1-3.8-2.1-10.4-4.4-13-4.4-10.5.1-17.6,2.6-18,4.1-1.5.9-1.8,1.7-.5,2.1a88,88,0,0,0,22.4,6.5C100.7,286.9,110,284.1,111.3,282.1Z" transform="translate(-14.99 -8.9)" fill="#f9b326"/><path d="M97.9,287.8a6.15,6.15,0,0,1-1.4-.1,85.61,85.61,0,0,1-21.2-5.9,7.72,7.72,0,0,0-1.5-.6,2.55,2.55,0,0,1-1.8-2,3,3,0,0,1,1.7-2.6c1.9-2.8,10.8-4.5,19.1-4.6h0c3,0,9.7,2.4,13.6,4.6,5.8,2.7,6.2,4,6.4,4.6a2,2,0,0,1-.2,1.7h0C110.9,285.4,102.6,287.8,97.9,287.8Zm-22.1-9,.6.3a82.54,82.54,0,0,0,20.5,5.7c3.4.5,10.4-1.7,12.6-3.1a23.1,23.1,0,0,0-4.4-2.4H105c-3.8-2.1-10-4.2-12.2-4.2h0c-9.7.1-15.6,2.2-16.6,3.2l-.1.5Z" transform="translate(-14.99 -8.9)" fill="#2a2f5a"/><path d="M84,265.5c1.1-1.7-11.9-7-15.7-7-12.7.1-20.5,3.8-17.3,4.9a76.6,76.6,0,0,0,20,5.7C74.6,269.8,82.8,267.3,84,265.5Z" transform="translate(-14.99 -8.9)" fill="#f9b326"/><path d="M72.1,270.8a6.15,6.15,0,0,1-1.4-.1,72.38,72.38,0,0,1-18.9-5.3c-.5-.2-1-.4-1.3-.5a2.18,2.18,0,0,1-1.7-2.4c.6-3.3,10.4-5.3,19.5-5.4h0c3.7,0,15.4,4.4,17,7.2a2,2,0,0,1,0,2.1h0C83.7,268.6,76.4,270.8,72.1,270.8Zm-19.3-8.2c.1,0,.1.1.2.1a75.18,75.18,0,0,0,18.2,5.1c2.9.5,8.8-1.4,10.9-2.6-2.4-1.7-10.9-5.1-13.7-5.1h0C60.4,260.1,55,261.5,52.8,262.6Z" transform="translate(-14.99 -8.9)" fill="#2a2f5a"/><path d="M37.6,197.7c2.4,2.9,10.8,6.7,13.1,6.2s-4.1-13.8-7.1-16.4c-10.1-8.8-19-11.4-17.4-8.2A75.6,75.6,0,0,0,37.6,197.7Z" transform="translate(-14.99 -8.9)" fill="#f9b326"/><path d="M50.2,205.4c-3.7,0-11.5-4-13.7-6.8h0c-6.8-8.4-9.5-14.2-10.9-17.4a5.34,5.34,0,0,1-.6-1.4,2.41,2.41,0,0,1,.4-3c2.8-2.2,12.1,3.2,19.2,9.3,2.8,2.5,8.8,14.1,8,17.4a2,2,0,0,1-1.5,1.6A1.1,1.1,0,0,1,50.2,205.4ZM28,179.6c.1.1.1.3.2.4a75.49,75.49,0,0,0,10.5,16.7h0c1.9,2.4,8.3,5.3,10.8,5.6-.4-2.9-4.7-11.8-7-13.8C35.9,182.8,30.4,180.2,28,179.6Z" transform="translate(-14.99 -8.9)" fill="#2a2f5a"/><path d="M36.4,170.5c2.1,3.2,10.2,8,12.5,7.6s-2.6-14.4-5.3-17.4c-9.2-10-17.9-13.5-16.7-10.1A82.31,82.31,0,0,0,36.4,170.5Z" transform="translate(-14.99 -8.9)" fill="#f9b326"/><path d="M48.7,179.6c-3.5,0-11.5-5.1-13.6-8.3h0A77.57,77.57,0,0,1,26,152.6c-.2-.6-.4-1.1-.5-1.4a2.11,2.11,0,0,1,.8-2.9c3-1.9,11.9,4.5,18.4,11.5,2.6,2.8,7.3,15.1,6.1,18.4a2,2,0,0,1-1.7,1.4Zm-11-9.9c1.7,2.7,7.9,6.3,10.4,6.9-.1-2.9-3.4-12.5-5.5-14.8-6.1-6.6-11.5-9.8-13.8-10.7.1.2.1.4.2.6a67.45,67.45,0,0,0,8.7,18Z" transform="translate(-14.99 -8.9)" fill="#2a2f5a"/><path d="M117.5,290c-12.2,5-18.3,11.7-14.7,11.6a75.64,75.64,0,0,0,21.6-1.9c3.7-.8,10.6-6.5,11.1-8.8C135.9,288.8,121.2,288.5,117.5,290Z" transform="translate(-14.99 -8.9)" fill="#f9b326"/><path d="M107.4,303.2a29.12,29.12,0,0,1-3.1-.1h-1.5a2.32,2.32,0,0,1-2.5-1.7c-.7-3.4,8.1-9.3,16.6-12.8,3.5-1.4,16.5-1.6,19.2.6a2.17,2.17,0,0,1,.8,2c-.6,3.1-8.4,9.1-12.2,10A80.45,80.45,0,0,1,107.4,303.2Zm-3.5-3.1h.5a73.89,73.89,0,0,0,19.6-1.9c3.1-.7,8.2-5,9.6-7-2.8-.9-12.7-1.1-15.6.1h0C110.2,294.6,105.5,298.3,103.9,300.1Z" transform="translate(-14.99 -8.9)" fill="#2a2f5a"/><path d="M109,263.3c-.5,2.2,3.6,10.2,6.7,12.3a81.29,81.29,0,0,0,19.1,10c3.3,1.4.4-7-8.9-16.3C123.1,266.4,109.5,261.2,109,263.3Z" transform="translate(-14.99 -8.9)" fill="#f9b326"/><path d="M135.4,287.2a2.66,2.66,0,0,1-1.2-.3,10.87,10.87,0,0,0-1.4-.5,76.7,76.7,0,0,1-18-9.6c-3.2-2.2-8-10.7-7.3-13.9a2.07,2.07,0,0,1,1.5-1.5c3.4-1,15.3,4.1,17.9,6.7,6.4,6.5,12.2,15.2,10.2,18.1A1.82,1.82,0,0,1,135.4,287.2Zm-24.9-22.9c.4,2.4,3.6,8.4,6,10.1a68.38,68.38,0,0,0,17.3,9.2c.2.1.4.1.5.2-.7-2.3-3.6-7.5-9.6-13.5C122.6,268.1,113.4,264.5,110.5,264.3Z" transform="translate(-14.99 -8.9)" fill="#2a2f5a"/><path d="M88.3,238.2c-1.6,1.7-2,10.6-.3,13.9a71.22,71.22,0,0,0,11.7,17.5c2.2,2.7,3.9-6,.4-18.4C99,247.5,89.7,236.6,88.3,238.2Z" transform="translate(-14.99 -8.9)" fill="#f9b326"/><path d="M100.4,271.6a2.41,2.41,0,0,1-1.9-1.1c-.2-.3-.6-.7-.9-1.1a70.28,70.28,0,0,1-10.9-16.7c-1.7-3.4-1.6-13.1.6-15.5h0a2,2,0,0,1,2.1-.6c3.4.8,11.3,10.8,12.2,14.2,2.4,8.6,3,19-.2,20.6A4.4,4.4,0,0,1,100.4,271.6ZM89.1,239.8c-.8,2.2-1.1,9,.2,11.6a67.18,67.18,0,0,0,10.5,16c.1.2.3.3.4.5.6-2.3.7-8.1-1.5-16.3C97.8,248.7,91.5,241.2,89.1,239.8Z" transform="translate(-14.99 -8.9)" fill="#2a2f5a"/><path d="M75.3,252.6c1.6,3.1,5-5.2,4.2-18-.2-3.8-7.1-16.3-8.9-14.9s-4.1,10-3.2,13.5A75,75,0,0,0,75.3,252.6Z" transform="translate(-14.99 -8.9)" fill="#f9b326"/><path d="M76.1,254.7a2.35,2.35,0,0,1-2.1-1.5h0c-.2-.3-.4-.8-.7-1.3A70.65,70.65,0,0,1,66,233.5c-1-4,1.3-13.3,3.7-15.1a2,2,0,0,1,2.2-.1c3.1,1.4,8.8,12.3,9.1,16.2.6,8.9-1,19.2-4.4,20.1A.75.75,0,0,1,76.1,254.7Zm-5-33.3c-1.3,2-2.9,8.7-2.2,11.5a66.36,66.36,0,0,0,7,17.7,2.19,2.19,0,0,0,.3.5c1-2.1,2.4-7.9,1.9-16.3C77.8,231.7,73.2,223.2,71.1,221.4Z" transform="translate(-14.99 -8.9)" fill="#2a2f5a"/><path d="M59.8,193.4c-2,1.2-5.1,9.6-4.5,13.2a69.59,69.59,0,0,0,5.9,20c1.2,3.2,5.5-4.7,6-17.5C67.3,205.2,61.8,192.2,59.8,193.4Z" transform="translate(-14.99 -8.9)" fill="#f9b326"/><path d="M61.9,228.8a2.31,2.31,0,0,1-2.2-1.7,4.88,4.88,0,0,0-.6-1.3,72.3,72.3,0,0,1-5.4-19c-.6-4.1,2.6-13.1,5.2-14.7h0a2,2,0,0,1,2.2.1c2.9,1.7,7.5,13,7.4,17-.3,9-2.9,19-6.4,19.6Zm-1.7-33.7c-1.5,1.8-3.8,8.4-3.4,11.2A64.39,64.39,0,0,0,62,224.5a1.69,1.69,0,0,1,.2.5c1.2-2,3.2-7.7,3.5-16.1C65.8,206,62,197.1,60.2,195.1Zm-.4-1.7.8,1.3h0Z" transform="translate(-14.99 -8.9)" fill="#2a2f5a"/><path d="M69,157.5c-2.4.1-9.5,5.8-10.9,9.2a66,66,0,0,0-5.5,20.1c-.6,3.4,7.2-1.4,14.4-12.2C69.1,171.3,71.2,157.4,69,157.5Z" transform="translate(-14.99 -8.9)" fill="#f9b326"/><path d="M53.2,189.3a2.92,2.92,0,0,1-.9-.2,2.19,2.19,0,0,1-1.2-2.7c.1-.4.1-.8.2-1.4a69.75,69.75,0,0,1,5.4-19c1.6-3.8,9.1-10,12.2-10.1a2.06,2.06,0,0,1,1.9,1.2c1.7,3.1-.6,15.2-2.6,18.2C63.5,182.4,56.8,189.3,53.2,189.3Zm15.2-30.2c-2.3.9-7.8,5.4-8.9,8.1a65.88,65.88,0,0,0-5.2,18.2.9.9,0,0,1-.1.5c2.1-1.2,6.8-5.1,11.5-12.2C67.4,171.2,68.8,161.8,68.4,159.1Z" transform="translate(-14.99 -8.9)" fill="#2a2f5a"/><ellipse cx="142.91" cy="280.2" rx="10.6" ry="10.1" fill="#f9b326"/><path d="M157.9,300.6c-6.6,0-12.1-5.2-12.1-11.6a11.85,11.85,0,0,1,12.1-11.6c6.6,0,12.1,5.2,12.1,11.6S164.5,300.6,157.9,300.6Zm0-20.1a8.61,8.61,0,1,0,9.1,8.6A8.91,8.91,0,0,0,157.9,280.5Z" transform="translate(-14.99 -8.9)" fill="#2a2f5a"/><path d="M96.5,78.1c5.1-6.8,9.8-11.5,13-13l.2-.1,9.4,33,8-.8a.9.9,0,0,0-.1-.5L108.5,31.5l-1.9-7.8a1.93,1.93,0,0,0-.5-.9l-1.4-4.9a6.11,6.11,0,0,0,.8-3,6,6,0,1,0-12,0A6.27,6.27,0,0,0,97,20.4l1.5,5.3C85.5,35,76,51.4,68.1,66.3c-3.3,6.2-8.7,10.6-14.8,12-1.3.2-16.1,2.5-22.4,6.1-8.5,4.8-12.5,14-13.6,16.7a32.94,32.94,0,0,0-1.7,18.5,1.93,1.93,0,0,0,1.9,1.5h0a1.93,1.93,0,0,0,1.9-1.5c0-.1,3.8-15,14.8-22.4a14,14,0,0,1,3.4-1.5,36.79,36.79,0,0,0-8.8,17.1,23.09,23.09,0,0,1-3.1,7.7,7.89,7.89,0,0,1-1.2,1.5,12.21,12.21,0,0,1-1.6,1.4l-7,5.1a1.9,1.9,0,0,0-.7,2.2,1.92,1.92,0,0,0,1.8,1.4l7.3.3c11.2,0,15.8-15.1,16-15.8,5.3-19.5,23.2-18.7,24-18.7h.1c13,0,23.5-5.4,28.8-14.8C94.2,81.5,95.3,79.7,96.5,78.1Zm-6.6,3C83.4,92.5,70.1,93.8,64.6,93.8A29.38,29.38,0,0,0,53,96c-5.7,2.3-13.2,7.6-16.4,19.4,0,.1-3.9,12.9-12.1,12.9l-1.5-.1,2.4-1.7a14.35,14.35,0,0,0,2.2-1.9,14.62,14.62,0,0,0,1.6-2.1,27.34,27.34,0,0,0,3.6-8.9c2.1-9.7,7.9-17.4,15.6-20.7l.2-.1a2,2,0,0,0,1.1-2.4A2,2,0,0,0,47.4,89c-1.2.2-11.8,2.4-15.4,4.8a39.16,39.16,0,0,0-12.7,15,27,27,0,0,1,1.7-6.3c.9-2.4,4.5-10.5,11.8-14.7,5.9-3.3,21-5.6,21.1-5.6H54c7.3-1.6,13.7-6.7,17.6-14,7.5-14,16.3-29.4,28.1-38.3l8.9,31.3-.7.3c-5,2.2-10.7,9-14.6,14.2A58.45,58.45,0,0,0,89.9,81.1Z" transform="translate(-14.99 -8.9)" fill="#2a2f5a"/><path d="M297.9,128.4l-7-5.1a7.62,7.62,0,0,1-1.6-1.4l-1.2-1.5a24.43,24.43,0,0,1-3.1-7.7,34.19,34.19,0,0,0-8.8-17.1,14,14,0,0,1,3.4,1.5c11,7.3,14.8,22.2,14.8,22.4a2,2,0,0,0,3.8,0,32.92,32.92,0,0,0-1.7-18.5c-1-2.7-5.1-11.9-13.6-16.7-6.4-3.6-21.1-5.9-22.4-6.1a22.75,22.75,0,0,1-14.8-12C238,51.4,228.5,35,215.4,25.8l1.5-5.3a6,6,0,1,0-8.4-5.5,6.11,6.11,0,0,0,.8,3l-1.4,4.9a4.05,4.05,0,0,0-.5.9l-1.9,7.8L187,96.8c0,.2-.1.3-.1.5l8,.8,9.4-33,.2.1c3.2,1.5,8,6.2,13,13a34,34,0,0,1,3.1,5c5.3,9.4,15.8,14.8,28.8,14.8h.1c.8,0,18.6-.9,24,18.7.2.6,4.8,15.8,16.1,15.8l7.2-.3a1.92,1.92,0,0,0,1.8-1.4A2.09,2.09,0,0,0,297.9,128.4Zm-8.4-.1c-8.2,0-12.1-12.8-12.1-12.9-5.6-20.6-23.9-21.6-27.5-21.6h-.5c-5.5,0-18.8-1.3-25.3-12.7a47.59,47.59,0,0,0-3.4-5.4c-3.9-5.2-9.6-12-14.6-14.2l-.7-.3,8.9-31.3c11.8,8.9,20.7,24.3,28.1,38.3,3.9,7.3,10.3,12.4,17.6,14h.1c.2,0,15.2,2.3,21.1,5.6,7.3,4.1,10.9,12.3,11.8,14.7a28.34,28.34,0,0,1,1.7,6.3c-2.6-5-6.6-11-12.7-15-3.6-2.4-14.2-4.5-15.4-4.8a2,2,0,0,0-1.2,3.8l.2.1c7.7,3.3,13.6,11,15.6,20.7a26.48,26.48,0,0,0,3.6,8.9,16.6,16.6,0,0,0,1.6,2.1,23.28,23.28,0,0,0,2.2,1.9l2.4,1.7Z" transform="translate(-14.99 -8.9)" fill="#2a2f5a"/><path d="M218.7,149.9l-60.8-30.1a1.91,1.91,0,0,0-1.8,0L95.3,149.9a2,2,0,0,0,0,3.6l25,12.4v43.2c0,6.8,17.8,15.5,36.7,15.5s36.7-8.7,36.7-15.5V165.9l25-12.4a1.89,1.89,0,0,0,1.1-1.8A2,2,0,0,0,218.7,149.9Zm-29,57.8a2.85,2.85,0,0,0,0,1.3c0,2.7-13.9,11.5-32.7,11.5s-32.7-8.8-32.7-11.5a2.85,2.85,0,0,0,0-1.3V167.9l31.8,15.8a2.13,2.13,0,0,0,1.8,0l31.8-15.8ZM157,179.6l-56.3-27.9L157,123.8l56.3,27.9Z" transform="translate(-14.99 -8.9)" fill="#2a2f5a"/><path d="M178.3,202.9a2,2,0,0,1-2-2V171.5l-20.8-21.3a2,2,0,0,1,2.8-2.8l21.3,21.9a2,2,0,0,1,.6,1.4v30.2A1.86,1.86,0,0,1,178.3,202.9Z" transform="translate(-14.99 -8.9)" fill="#f9b326"/></svg>