<svg width="74" height="78" viewBox="0 0 74 78" xmlns="http://www.w3.org/2000/svg" xmlns:xlink="http://www.w3.org/1999/xlink"><defs><path id="a" d="M0 78h73.077V.75H0z"/></defs><g fill="none" fill-rule="evenodd"><path fill="#2F258B" d="M22.208 60.5h32.833V18H22.208v42.5zm-2.5 2.5h37.833V15.5H19.708V63z"/><g transform="translate(0 -.75)"><path fill="#2F258B" d="M56.375 31.333h-35a1.25 1.25 0 0 1 0-2.5h35a1.25 1.25 0 0 1 0 2.5"/><path fill="#F16537" d="M42.625 25H26.458a1.25 1.25 0 0 1 0-2.5h16.167a1.25 1.25 0 0 1 0 2.5"/><path fill="#2F258B" d="M42.625 57H26.458a1.25 1.25 0 0 1 0-2.5h16.167a1.25 1.25 0 0 1 0 2.5"/><mask id="b" fill="#fff"><use xlink:href="#a"/></mask><path fill="#2F258B" d="M27.875 39.417h2.166v-2h-2.166v2zm-2.5 2.5h7.166v-7h-7.166v7zm12.166-2.5h2.167v-2h-2.167v2zm-2.5 2.5h7.167v-7h-7.167v7zm12.167-2.5h2.167v-2h-2.167v2zm-2.5 2.5h7.167v-7h-7.167v7zm-16.833 6.666h2.166v-2h-2.166v2zm-2.5 2.5h7.166v-7h-7.166v7zm12.166-2.5h2.167v-2h-2.167v2zm-2.5 2.5h7.167v-7h-7.167v7zm12.167-2.5h2.167v-2h-2.167v2zm-2.5 2.5h7.167v-7h-7.167v7z" mask="url(#b)"/><path fill="#F16537" d="M11.5 40.625H1.25a1.25 1.25 0 0 1 0-2.5H11.5a1.25 1.25 0 0 1 0 2.5m60.327 0h-7.466a1.25 1.25 0 0 1 0-2.5h7.466a1.25 1.25 0 0 1 0 2.5M38.625 9.875c-.69 0-1.25-.56-1.25-1.25V2a1.25 1.25 0 0 1 2.5 0v6.625c0 .69-.56 1.25-1.25 1.25m0 68.125c-.69 0-1.25-.56-1.25-1.25v-7.375a1.25 1.25 0 0 1 2.5 0v7.375c0 .69-.56 1.25-1.25 1.25m30.145-7.229c-.32 0-.64-.122-.883-.366l-5.401-5.402a1.25 1.25 0 1 1 1.767-1.767l5.401 5.401a1.25 1.25 0 0 1-.883 2.134M14.493 16.494c-.32 0-.64-.122-.884-.366l-3.51-3.51a1.25 1.25 0 0 1 1.768-1.768l3.51 3.51a1.25 1.25 0 0 1-.884 2.134M64.06 15.19a1.25 1.25 0 0 1-.884-2.134l4.409-4.41a1.25 1.25 0 0 1 1.768 1.769l-4.41 4.409a1.246 1.246 0 0 1-.883.366M11.264 67.985a1.25 1.25 0 0 1-.884-2.134l3.656-3.656a1.25 1.25 0 0 1 1.768 1.768l-3.656 3.656a1.246 1.246 0 0 1-.884.366" mask="url(#b)"/></g></g></svg>