<svg width="100" height="100" viewBox="0 0 100 100" xmlns="http://www.w3.org/2000/svg"><path fill="#A9A09F" d="M18.11 78.69L50 97.32l31.89-18.63V20.74L50 17.45l-31.89 3.29zm49.11-62.01h.3m5.42 5.89"/><path fill="#151841" d="M50 100L16 80.14V19.5L50 16l34 3.5v60.64L50 100zM19.04 78.44L50 96.53l30.96-18.09V22.19L50 19l-30.96 3.19v56.25z"/><path fill="#fff" d="M49.31 81.32c1.98 1.17 2.95 4.39 4.34 6.57.2.2 2.1 3.87 2.7 4.68l18.09-10.19c.14-.82-16.99-12.29-17.19-13.18-.78-.87-1.64-9.84-2.25-10.94-.1-.2-.95-2.22-2.57-2.69-.5-.6-5.7-1.5-7.95-1.42-.61-1.87-3.05-3.66-3.05-3.66-.45-3.93-4.73-1.95-5.51.53-.2.5.21 1.95.21 2.06 0 0-1.18-.32-1.58-.32-.8 0-1.2.04-1.81.53-.3.3-1.69 1.91-1.78 3.01 0 .3-.33 1.84-.14 2.14-2.23 2.23-1.83 5.69.07 7.38-2.2 1.96-1.99 5.92.83 6.67.12.12.24-1.2.38-1.09.77.63 1.79 1.09 2.82 1.35 1.7.7 3.5.9 4.39-1.1.93-2.23-.77-2.24-.18-3.14 2.54.24 2.46-3.28 2.66-3.49 1.39.5 3.41-1.58 3.11-.89-.3 1.1-.21 4.23.29 4.72-1.23 4.29-3.43 9.24-3.82 9.37-.5.9.94 1.57 1.84 1.77 1.4.4 2.38.14 3.78.14.99-.05 2.32 1.05 2.32 1.19z"/><path fill="#818285" d="M48.07 64.62c-.4 3.38 2.9 4.68 1.5 5.97-.7.7-1.6-.5-2.4-.6-3.01-.6-1.58-5.84-2.1-6.57-.21-.3-1.18 1.88-3.4 1.39-.17 2.85-.88 3.26-1.84 3.46-.45.09-1.25.26-.93.77 1.18 1.84.07 3.52-1.96 3.92-.8.2-4.22-1.19-4.71-1.89-1.6-2.29-.87-2.69.83-6.27 2.7-5.76 3.92-16.92 8.47-14.52.69.63 2.67 3.37 2.36 3.46-.9.5-.99.19-1.89.98-.62.57-2.43 2.15-3.86 3.45-1.4 1.28-1.25 2.82-.36 3.45 1.91 2.47 4.15 1.24 6.51-.77.7-.6.08-2.5.31-3.3.9-.7 3.05 1.56 3.95 1.16 1.09-.54 1.85.93 1.67 1.22-.78 1.23-1.99 3.47-2.15 4.69z" opacity=".6"/><path fill="#151841" d="M76.06 82.47c-4.5-3.38-9.2-6.46-13.8-9.75-.7-.5-1.4-1.1-2.2-1.49-1.7-1.1-2.6-2.09-3.01-4.18-.7-3.49-.3-7.26-2.3-10.35-.83-1.29-2.1-1.96-3.52-2.32 1.5-1.31 3.19-2.34 4.85-3.43.9 1.62 1.62 3.34 2.07 5.24.08.48.1 1.96.58 2.49.02.07.06.13.12.19.44.4 1.02.89 1.66 1.3-.05.57 3.36 5.42 4.74 7.05 1.19 1.37 2.46 3.32 4.51 3.38h.19c.7-.2 1.4-.3 1.99-.6 1.1-.6 1.2-2.09 1.5-3.08.02-.13 1.71-8.08 1.7-8.14 0-.35-.04-.7-.2-1-.3-.39-.97-.78-1.46-.89-.04-.48-.23-.98-.53-1.41-.04-.05-1.21-3.5-1.01-6.66.12-1.89.31-2.88.71-4.77.61-2.68.2-5.47-1.7-7.45 0 0-.17-.21-.46-.53l.07-.07c1.1-1.59.1-2.79-1.4-3.58-1.81-.9-3.3-1.29-4.7.3-1.29 1.49-2.49 2.88-3.69 4.48-1.28 1.83-3.16 3.07-4.55 4.88l-.36-.51c-1-1.39-1.6-2.99-1.99-4.68-.5-1.8-.4-3.67-.61-5.56-.13-1.1-.46-2.23-1.02-3.18l.08-.19c2.34-3.51-.26-4.78-2.15-4.88-.9 0-2.4-.5-3.19.2-1.85 1.55-3.92 8.06-4.2 11.54-.2 2.39-.1 4.88-.4 7.26-.25 2.45-.53 4.49-.8 6.82-.36-.58-.82-1.04-1.6-1.15-1.6-.2-3.19.9-4 2.19-.57.82-.7 1.68-.51 2.53-1.34-.52-2.7-.02-3.69 1.35-.75 1.02-1.66 3.07-1.22 4.48-.3.21-3.4 2.97-.31 7.69-.1.12-1.28 1.95-1.07 3.95.1 1.39 1.2 2.48 2.1 3.38l.1.09c-.23 1.51.24 3.06 1.2 4.38 1.29 1.8 3.6 2.29 5.59 2.29 1.05 0 1.92-.22 2.64-.66 1.69 1.26 3.28 1.26 5.36 1.26 2.3 0 3.6 2.19 4.7 3.98 1.6 2.79 3.4 5.47 5.1 8.15.3.6 1.2 0 .9-.5-1.81-2.99-3.69-5.87-5.4-8.75-.8-1.39-1.9-2.79-3.4-3.49-1-.4-1.9-.4-2.8-.4-1.46.09-2.51-.15-3.67-.89.55-.54.96-1.24 1.27-2.1 1.02-2.59 1.86-4.74 2.71-7.26.96 1.26 2.71 1.69 4.19 1.59.61 0 .61-.99 0-.99-1.5.09-2.9-.4-3.8-1.69-.88-1.43-.61-3.5-.15-5.23.07-.2.23-.8.25-.9 1.5.12 2.97-.99 4-1.93.5-.4-.2-1.1-.7-.7-.9.79-1.9 1.59-3.1 1.69-.36 0-.96-.17-1.08-.55.14-.27.29-.6.29-.93 0-.5-.2-1.1-.1-1.59.2-.7-.8-.9-.9-.3-.1.4 0 .7 0 .99.08.52-.25 1.38-.27 1.43-.3.47-.78.83-1.33 1.15-1 .6-2.3.9-3.4.7-1.5-.2-2.1-1.69-1.29-2.99.7-1.19 2.1-1.98 3.1-2.88.4-.3.7-.7 1-1.1.5-.5 1-.5 1.6-.4 1.81.09 3.6.2 5.5.3 1.99.09 3.69.7 4.8 2.48 1 1.49 1.29 3.58 1.5 5.27.3 2.68.1 5.97 2.2 7.96 1.29 1.19 3.01 2.19 4.39 3.18 4.5 3.08 9 6.07 13.3 9.34.48.44.98-.46.48-.85zM60.94 59.29c-.3-.18-.56-.39-.82-.6.83-.39 1.71-1.2 2.14-1.77l.08-.12c.13.34.27.66.44.99-.44.21-.86.5-1.22.82-.21.15-.44.41-.62.68zm7.92-3.47l.96 1.47c-.26.28-.45.66-.56 1.07-.42 1.22-.57 2.16-.78 3.41-.88-1.23-1.78-2.45-2.62-3.67a.266.266 0 0 0-.18-.12c-.58-.55-1.28-.67-1.98-.52-.4-.84-.82-1.64-1.03-2.94l-.02-.15-.18-.93c-.3-1.59-.7-3.08-1.2-4.57a9.28 9.28 0 0 0-.71-1.49c.68-.76 1.45-1.43 2.32-2 .8-.4 1.5-.79 2.2-1.39 1.14-1.04 1.92-2.7 2.85-3.98 1.07 2.21.34 5.15-.06 7.47-.52 2.87-.52 5.66.99 8.34zm-4.79 4.97c.29-.17.4-.43.43-.72a.896.896 0 0 1-.53 1.62c-.4 0-.74-.26-.86-.61.33-.03.65-.11.96-.29zm-1.61-.78a2.6 2.6 0 0 1-.83-.37l.32-.34c.29-.34.76-.6 1.19-.82l.01.02c.05.08.19.38.29.69-.41.15-.76.44-.98.82zm9.1 9.43c-.59.2-1.19.39-1.78.5-1.96-.07-3.43-2.5-4.62-3.87-1.2-1.45-2.26-2.91-3.23-4.43l-.07-.15c-.12-.24-.3-.5-.42-.78.27.12.56.22.83.28.11.8.86 1.49 1.69 1.49.9 0 1.7-.79 1.7-1.69 0-.76-.57-1.44-1.28-1.63l-.11-.35c-.08-.25-.18-.47-.27-.7.62-.13 1.05.09 1.47.7l.01.01c1.14 1.69 2.36 3.38 3.59 5.07 1 1.39 2.1 2.48 3.6 3.28h.01c-.17.8-.36 1.94-1.12 2.27zM73.4 57.7c.47 0 1.03.72 1.05 1.18-.39 2.49-.96 5-1.73 7.49-1.5-.89-2.43-2.1-3.46-3.49l-.2-.28c.34-1.33.63-2.54.9-3.99.06-.26.18-.47.32-.64l.53.76c-.42.45-.53 1.13-.25 1.77.3.6 1.06 1.19 2.3.9.9-.3 1.29-1.29.9-2.19-.15-.32-.4-.57-.7-.74.13-.24.33-.74.34-.77zm-.76 1.37c.12.08.26.34.34.47.15.98-.72 1.05-.82 1.05-.4 0-.7-.2-.8-.5a.967.967 0 0 1 .05-.58c.2.17.42.25.65.08.2-.13.4-.31.58-.52zm-.5-.87c-.3 0-.74.12-.77.13l-.53-.79c.47-.2 1.07-.22 1.64-.12-.01.06-.2.6-.34.78zm.29-1.56c-.52-.07-1.06-.05-1.47.06-.2.02-.39.07-.56.15l-.47-.71c.75.06 1.53-.05 2.25-.12.11.22.2.42.25.62zM70.4 37.02c.01.04.14.2.18.22 2.46 2.86 1.58 5.87.86 9.19-.76 3.51-.01 6.09.66 8.88-.38.02-.72.09-1.13.09-.49 0-1.06.09-1.54-.08-1.94-3.45-.95-6.91-.36-10.56.3-2.39.3-5.17-1.81-6.86l-.07-.02c-.25-.25-.52-.48-.81-.7.53-.72 1.08-1.5 1.75-2.14.67.49 1.43 1.14 2.27 1.98zm-4.7-4.41c.61-.7 1.25-.06 1.95.14 1.27.48 3.12 1.17 2.16 2.69-.37-.33-2.47-2.15-4.48-2.46l.37-.37zm-1.02 1.11c.63-.04 1.53.15 2.71.86-.64.65-1.18 1.43-1.71 2.14a8.93 8.93 0 0 0-2.66-1.13c.53-.64 1.09-1.22 1.66-1.87zm-6.42 7.38c.8-.79 1.7-1.59 2.49-2.48.58-.66 1.1-1.47 1.66-2.23.4-.06 2.92 1.06 4 2.09a8.1 8.1 0 0 0-1.07.54c-.2.2-.3.4-.2.7.2.2.5.3.7.2.3-.2.61-.4.9-.5.15-.05.23-.19.25-.33l.34.43.01.02c-1.06 1.48-1.85 3.3-3.31 4.36-.8.6-1.7.9-2.49 1.49-.52.38-1 .86-1.45 1.33-.97-1.38-2.23-2.54-3.33-3.87.46-.64.91-1.24 1.5-1.75zm-5.7-6.77c.2 2.59 1 5.07 2.3 7.36 1.4 2.39 3.8 3.98 5.1 6.37.7 1.19 1.7 5.37 1.81 6.07l.04.2-.04.2.14.73c-.01.72-.32 1.24-1.14 1.85-.1.09-1.29 1.1-1.4.7l-.4-2.29c-.3-1.39-.9-2.68-1.5-3.98-1.1-2.39-2.9-4.48-4.5-6.57-1.7-2.29-3.1-4.57-3.4-7.45-.29-2.84-.66-5.39-1.72-8.02.47-.99.94-1.69 1.41-2.72.07.15 3.87 1.03 3.3 7.55zm-3.99 5.17c0-.46.07-.92.17-1.36.08.67.21 1.36.43 2.06.65 1.96 1.85 3.72 3.11 5.37-.82.48-1.79.95-2.61.79-1.2-.2-.8-2.29-.8-3.08l-.3-3.78zm-1.11-15.41c.43-.55 2.8-.09 3.1-.09.4 0 2.2.9 1.81 1.59-.02.08-.27.9-.4 1.23-.44-.27-2.01-1.03-2.51-1.13-1.02-.27-1.95-.47-2.96-.33.37-.62.64-.86.96-1.27zm-1.4 2.1c.1.08 1.46.02 1.99.11-.5.91-1.03 1.8-1.32 2.78-.57-.11-1.16-.18-1.76-.2.46-1.24.81-2.09 1.09-2.69zm-15.8 44.15c-.3-.9 0-1.98.3-2.79.3-.9.9-1.59 1.81-1.89 1.29-.4 2.49.99 3.4 1.59.9.7 1.9 1.1 2.7 1.89 1.1.99.5 2.68-.61 3.38-.9.5-2.3.09-3.3-.2-1.2-.4-2.3-.99-3.01-1.98-.5-.6-1.2.09-.8.6.29.34.64.69 1.05 1l-.15.35c-.56-.58-1.22-1.2-1.39-1.95zm9.5 8.65c-3.97 1.48-9.31-2.33-7.25-6.56 1.92 1.2 4.57 1.83 6.25.59.9-.6 1.4-1.89 1.2-2.88-.06-.37-.18-.67-.34-.96 1.64-.05 2.8-1.59 2.65-3.06 0-.05-.01-.55-.02-.6.87.2 1.67-.06 2.33-.59-.12 1.15-.06 2.3.36 3.34l-1.76 5.24c-.72 1.89-1.22 4.59-3.42 5.48zm2.9-16.21c.71-.32 1.43-.7 1.95-1.24.13.13.29.25.45.35-.15 1.74-1.69 3.4-3.43 2.22-.21-.3-.46-.57-.74-.83.65-.09 1.27-.28 1.77-.5zm-3.07.56l.27.24c.8.7 1.4 1.49 1.4 2.59 0 1.29-1.2 2.61-2.49 1.91-.11-.04-1.38-.85-1.9-1.22-1.4-.9-2.4-2.09-4.2-2.19-.68-.06-1.26.2-1.75.6-1-1.36-1.21-3.71-.56-5.27.9-2.09 3.9-1.49 5.2-.3.43.37.81.79 1.2 1.22.06.34.18.7.39 1.07.54.89 1.45 1.28 2.44 1.35zm-2.76-3.56c-.18-.24-.36-.47-.57-.67-1.2-1.12-3.21-1.75-4.8-1.25-.24-.93.53-2.39.9-3.02.8-1.49 2.2-2.09 3.6-.9l.15.08c.69 1.06 1.75 2.46 2.98 2.87-.96.84-1.95 1.78-2.26 2.89zm5.43-5.85c-1 .4-2.54 2.42-2.55 2.43a.484.484 0 0 0-.34-.34c-.89-.25-2.58-2.67-2.66-2.75-.26-.58-.4-1.15-.34-1.63.2-1.39 1.29-2.39 2.6-2.79 1.18-.33 1.65.39 2.07 1.29-.08.21-.04.47.23.6.04.02 2.22 1.78 2.72 2.98-.63-.04-1.25-.02-1.73.21zm3.91 0c-.32 0-.69-.05-1.08-.09l-.02-.21c-.52-1.47-1.5-2.49-2.73-3.38l.83-7.16c.3-2.48.3-4.97.4-7.45.1-1.69.26-3.39.8-4.97.11-.32.2-.61.31-.9.82.01 1.63.12 2.41.32.68 1.74.64 1.49.91 3.39l.52 2.41c-.31.82-.61 1.64-.74 2.42-.4 2.19.3 4.57.2 6.76 0 1.98 1.5 2.48 3.19 1.98.55-.17 1.14-.4 1.73-.69.26.33.52.66.77.99.75.96 1.43 1.93 2.03 2.93-1.85 1.22-3.79 2.36-5.48 3.9-1.36-.21-2.78-.21-4.05-.25z"/><path fill="#4751A2" d="M39.76 78.99c-3.97 1.48-9.31-2.33-7.25-6.56 1.92 1.2 4.57 1.83 6.25.59.9-.6 1.4-1.89 1.2-2.88-.06-.37-.18-.67-.34-.96 1.64-.05 2.8-1.59 2.65-3.06 0-.05-.01-.55-.02-.6.87.2 1.67-.06 2.33-.59-.12 1.15-.06 2.3.36 3.34l-1.76 5.24c-.72 1.89-1.22 4.59-3.42 5.48z"/><path fill="#151841" d="M36.19 74.88c.5.2 1.1.4 1.6.7.61.3 1.1-.5.5-.9-.61-.3-1.2-.6-1.81-.79-.7-.2-.88.79-.29.99zm3.7-.59c.1.09.1.2.1.2v.09c.1.3.3.4.61.3.31-.11.4-.4.3-.6l-.3-.7c-.67-.57-.91.51-.71.71zm2.9-6.46v.3c0 .09 0 .09-.1.3s0 .6.2.7c.2.09.5 0 .7-.2.2-.3.3-.7.3-.99s-.2-.5-.5-.5c-.39-.12-.6.08-.6.39z"/><path fill="#4751A2" d="M46.17 53.93c-.32 0-.69-.05-1.08-.09l-.02-.21c-.52-1.47-1.5-2.49-2.73-3.38l.83-7.16c.3-2.48.3-4.97.4-7.45.1-1.69.26-3.39.8-4.97.11-.32.2-.61.31-.9.82.01 1.63.12 2.41.32.68 1.74.64 1.49.91 3.39l.52 2.41c-.31.82-.61 1.64-.74 2.42-.4 2.19.3 4.57.2 6.76 0 1.98 1.5 2.48 3.19 1.98.55-.17 1.14-.4 1.73-.69.26.33.52.66.77.99.75.96 1.43 1.93 2.03 2.93-1.85 1.22-3.79 2.36-5.48 3.9-1.36-.2-2.78-.2-4.05-.25z"/><path fill="#151841" d="M45.56 44.63c0 .9-.1 1.69-.2 2.59-.1.6.8.9 1 .3.2-.9.3-1.89.3-2.79-.09-.79-1.1-.79-1.1-.1zm5.11 6.27l.8-.6c.5-.3 0-1.19-.5-.9-.4.2-.7.5-1 .7-.2.2-.2.5 0 .7.2.31.5.31.7.1zm-5.91-18.29c-.1.6-.2 1.1-.3 1.59-.2.6.8.9 1 .3.2-.6.3-1.29.3-1.89.11-.61-.89-.61-1 0zm1.41 4.66c-.1.6-.2 1.19-.4 1.8-.2.6.8.9 1 .3l.4-1.8c0-.3-.1-.5-.3-.6-.3-.09-.7.01-.7.3z"/><path fill="#4751A2" d="M65.78 32.54c.61-.7 1.19.01 1.89.21 1.27.48 3.12 1.17 2.16 2.69-.37-.33-2.47-2.15-4.48-2.46.06-.08.34-.37.43-.44zm-18.32-8.45c.43-.55 2.8-.09 3.1-.09.4 0 2.2.9 1.81 1.59-.02.08-.27.9-.4 1.23-.44-.27-2.01-1.03-2.51-1.13-1.02-.27-1.95-.47-2.96-.33.37-.62.64-.86.96-1.27z"/><path fill="#F1662A" d="M52.56 34.33c.2 2.59 1 5.07 2.3 7.36 1.4 2.39 3.8 3.98 5.1 6.37.7 1.19 1.7 5.37 1.81 6.07l.04.2-.04.2.14.73c-.01.72-.32 1.24-1.14 1.85-.1.09-1.29 1.1-1.4.7l-.4-2.29c-.3-1.39-.9-2.68-1.5-3.98-1.1-2.39-2.9-4.48-4.5-6.57-1.7-2.29-3.1-4.57-3.4-7.45-.29-2.84-.66-5.39-1.72-8.02.47-.99.94-1.69 1.41-2.72.07.15 3.87 1.03 3.3 7.55zm17.84 2.69c.01.04.14.2.18.22 2.46 2.86 1.58 5.87.86 9.19-.76 3.51-.01 6.09.66 8.88-.38.02-.72.09-1.13.09-.49 0-1.06.09-1.54-.08-1.94-3.45-.95-6.91-.36-10.56.3-2.39.3-5.17-1.81-6.86l-.07-.02c-.25-.25-.52-.48-.81-.7.53-.72 1.08-1.5 1.75-2.14.67.49 1.43 1.14 2.27 1.98zm-5.72-3.3c.63-.04 1.53.15 2.71.86-.64.65-1.18 1.43-1.71 2.14a8.93 8.93 0 0 0-2.66-1.13c.53-.64 1.09-1.22 1.66-1.87zm-18.62-7.53c.1.08 1.46.02 1.99.11-.5.91-1.03 1.8-1.32 2.78-.57-.11-1.16-.18-1.76-.2.46-1.24.8-2.09 1.09-2.69z"/><path fill="#4751A2" d="M58.26 41.1c.8-.79 1.7-1.59 2.49-2.48.58-.66 1.1-1.47 1.66-2.23.4-.06 2.92 1.06 4 2.09a8.1 8.1 0 0 0-1.07.54c-.2.2-.3.4-.2.7.2.2.5.3.7.2.3-.2.61-.4.9-.5.15-.05.23-.19.25-.33l.34.43.01.02c-1.06 1.48-1.85 3.3-3.31 4.36-.8.6-1.7.9-2.49 1.49-.52.38-1 .86-1.45 1.33-.97-1.38-2.23-2.54-3.33-3.87.46-.64.91-1.24 1.5-1.75z"/><path fill="#151841" d="M61.84 41.64c.2-.2.3-.4.2-.7-.1-.2-.5-.3-.7-.2l-1 .7c-.2.2-.3.4-.2.7.2.2.5.3.7.2l1-.7z"/><path fill="#7480BE" d="M73.4 57.7c.47 0 1.03.72 1.05 1.18-.39 2.49-.96 5-1.73 7.49-1.5-.89-2.43-2.1-3.46-3.49l-.2-.28c.34-1.33.63-2.54.9-3.99.06-.26.18-.47.32-.64l.53.76c-.42.45-.53 1.13-.25 1.77.3.6 1.06 1.19 2.3.9.9-.3 1.29-1.29.9-2.19-.15-.32-.4-.57-.7-.74.13-.24.33-.74.34-.77z"/><path fill="#8D8B8D" d="M72.14 58.2c-.3 0-.74.12-.77.13l-.53-.79c.47-.2 1.07-.22 1.64-.12-.01.06-.2.6-.34.78z"/><path fill="#5F7D92" d="M62.46 60.01a2.6 2.6 0 0 1-.83-.37l.32-.34c.29-.34.76-.6 1.19-.82l.01.02c.05.08.19.38.29.69-.41.15-.76.44-.98.82z"/><path fill="#7480BE" d="M71.56 69.44c-.59.2-1.19.39-1.78.5-1.96-.07-3.43-2.5-4.62-3.87-1.2-1.45-2.26-2.91-3.23-4.43l-.07-.15c-.12-.24-.3-.5-.42-.78.27.12.56.22.83.28.11.8.86 1.49 1.69 1.49.9 0 1.7-.79 1.7-1.69 0-.76-.57-1.44-1.28-1.63l-.11-.35c-.08-.25-.18-.47-.27-.7.62-.13 1.05.09 1.47.7l.01.01c1.14 1.69 2.36 3.38 3.59 5.07 1 1.39 2.1 2.48 3.6 3.28h.01c-.17.8-.36 1.94-1.12 2.27z"/></svg>