<svg width="100" height="100" viewBox="0 0 100 100" xmlns="http://www.w3.org/2000/svg"><path fill="#A9A09F" d="M17.17 79.07l31.9 18.63 31.89-18.63V21.11l-31.9-3.28-31.89 3.28z"/><path fill="#A9A09F" stroke="#F15A29" stroke-width="4" stroke-miterlimit="10" d="M62.29 10.450000000000003"/><path fill="none" d="M21.4 62.59h.3"/><path fill="#151841" d="M50 100L16 80.14V19.5L50 16l34 3.5v60.64L50 100zM19.04 78.44L50 96.53l30.96-18.09V22.19L50 19l-30.96 3.19v56.25z"/><path fill="none" stroke="#29323B" stroke-width=".75" stroke-miterlimit="10" d="M51.46000000000001 45.74"/><path fill="none" d="M45.08 64.2l-1.12-.21-1.41.97c1.03.54 1.96.07 2.53-.76zm-5.47 4.48c1.27.67 2.44-.5 2.44-1.76 0-.48-.13-.91-.32-1.29l-.06-.06-2.48 1.71-.4.88c.22.14.44.28.64.44l.18.08zm-7.17 3.13l.26.88.16-.43c-.15-.15-.29-.3-.42-.45zm.59-.79c1.08 1.37 4.6 3.23 6.06 1.46 1.24-1.42.43-2.49-.73-3.37l-.65 1.43-4.15-1.23-1.7.49.41 1.4c.11-.31.49-.51.76-.18z"/><path fill="#CF4A27" d="M71.95 15.92c-.1-.86-1.15-1.62-1.72-.86-.76 1.14-18.45 31.78-18.74 32.82-.19.48 4.78 4.95 6.31 2.57.29-.48 11.19-17.22 11.38-17.41 2.58-3.52 3.54-7.71 3.44-11.99.29-1.33-.58-4.75-.67-5.13z"/><path fill="#F1662A" d="M69.46 14.02c-.57-.48-7.75-.29-13.2 7.99 0 0-10.71 21.5-10.9 21.79-.67 1.05-.19 1.52.86 1.9.29.1 3.92 2.95 4.78 1.9.57-.76.86-1.43 1.34-2.19.1-.19 10.8-18.65 11.76-20.36.39-.76 7.47-11.23 5.36-11.03z"/><path fill="#CF4A27" d="M52.92 55.12c.1 0 5.64 3.14 5.64 3.33.1.38.67.57.96.29 1.15-1.05 2.2-2 2.39-3.62.1-.48-6.02-4.19-7.46-4.85-2.29-1.05-14.82-9.23-15.78-8.28-.86.86-2.39 3.62-2.2 3.9.38.57 5.83 4 5.74 4.19-.38.1-.19 1.33.1 1.81.48.76 2.39 2.09 2.77 3.52.19.09 7.17 1.23 7.84-.29z"/><path fill="#fff" d="M49.57 81.66c1.63 2.28 6.22 10.47 6.69 11.23L74.05 82.7c-.57-.29-14.43-10.84-16.16-11.69-1.82-2.38-2.2-6.66-2.2-8.18 0-5.52-4.78-7.14-5.35-6.85-1.91-.57-3.63-.95-5.55-.57.38-1.62-1.63-2.95-2.58-3.62-.1-.1-.29-.1-.38-.1 1.05-2.85-4.4-2.28-4.97.95-.1.48-.1 1.43 0 1.52 0 0-.96-.1-1.34 0-.76 0-2.49 1.33-2.58 1.71-.57.76-1.15 3.52-.96 3.81-1.63 1.71-1.91 5.14-.19 6.76-.19.1-1.15 3.14-1.15 3.33-.48 1.14.86 2 1.91 1.71.76.76 1.91 1.33 3.06 1.62 1.63.67 3.35.86 4.21-1.05.48-1.05-.29-1.71.29-2.66.1-.1 1.82-.95 2.01-1.52.19-.19 0-1.9.29-2.19 2.39.86 3.63-2.57 3.63-2.57s-.57-.48-.48-.86c.38.19.76.29 1.15.29-.38.67-.67 1.43-.96 2.09-.29 1.05.1 3.9.29 4.28.38.57.1.86.57 1.33-1.91 2.28-2.58 5.14-4.11 7.8-.48.86.19 1.71 1.05 2 1.15.29 3.25-.85 6.02 1.62z"/><path fill="#818285" d="M48.24 65.39c-.1 3.23 2.77 4.47 1.43 5.71-6.31 5.8-3.16 10.08-7.46 8.37-5.64-2.19-11.57-6.66-8.22-13.89 2.58-5.52 2.87-15.89 9.18-13.23 2.2.95 1.82 2.57 1.53 2.66-.86.48-1.63-.19-2.49.57-1.24 1.14-5.64 4.95-4.11 6.09 2.29 1.71 4.11 1.81 6.22.1.67-.57.57-1.81 1.05-2.95.29-.76.29 1.52 3.54 1.52 2.58.11-.48.11-.67 5.05z" opacity=".6"/><path fill="#CF4A27" d="M44.7 71.96c.96-.95 1.63-1.9.76-3.23 0 0 0-.1-.1-.1.19-1.14.19-2.38.19-3.52 0-.48-.76-.48-1.05 0-.29.38-2.29.48-2.29.86-.29 3.33-1.34 2.57-2.2 3.33-.29.19.38 1.81 0 2.19-.57 1.24-.86 1.81-2.29 2.09-.1 0-4.4-1.71-4.78-1.71-.19 0-.67-.29-.76-.1-.29 0-.29.76-.29 1.05 0 .86 2.68 6.76 2.96 6.28.19-.19 6.69-.86 6.69-1.24.1-.19 2.97-5.52 3.16-5.9z"/><path fill="#F1662A" d="M38.9 41.64l23.96 13.34-.98 1.74-23.96-13.34.98-1.74z"/><path fill="#151841" d="M74.91 82.33c-4.3-3.23-8.8-6.18-13.2-9.32-.67-.48-1.34-1.05-2.1-1.43-1.63-1.05-2.49-2-2.87-4-.67-3.33-.29-6.95-2.2-9.89-.19-.38-.48-.67-.76-.95l6.12 3.43 3.35-5.9-5.16-2.85 14.15-22.45v-.19c0-.1.96-2.95 1.34-6.18.48-4.57-.38-7.52-2.49-8.75-5.83-3.52-14.73 6.18-15.11 6.57l-.1.1L44.6 43.99l-6.02-3.33-3.35 5.9 5.45 3.04c-2.01-.38-3.92.76-4.59 3.04-.09.38-.09.77-.09 1.15-1.24-.48-2.39 0-3.44 1.43-.67.95-1.53 2.95-1.15 4.28-.29.19-.57.48-.76.76-1.24 1.81-.86 4.76.38 6.57-1.15 1.52-1.34 4.09-.38 5.8l-.19.29 3.44 7.71 6.98-1.14c1.34 1.05 2.68 1.52 4.59 1.43 2.49-.1 3.73 1.24 4.97 3.23l5.64 9.13c.29.48 1.15 0 .86-.48l-5.64-9.13c-.76-1.33-1.82-2.85-3.35-3.33-.96-.29-1.82-.29-2.87-.29-1.15 0-2.01-.19-2.77-.76h.1l4.3-8.28c.96.67 2.1.86 3.16.76.57 0 .57-.95 0-.95-.96.1-1.91-.1-2.68-.67-2.2-1.43-1.43-4.76-.76-6.85 1.43 0 2.68-.95 3.63-1.9.48-.38-.19-1.05-.67-.67-.86.76-1.82 1.52-2.96 1.62-.38 0-.86-.1-.96-.48.19-.29.38-.67.38-.95 0-.48-.19-1.05-.1-1.52.1-.57-.76-.86-.96-.29-.1.38 0 .67 0 .95.1.95-.57 1.9-1.53 2.47-.96.57-1.82.57-2.87.38-.38-.1-1.05-.57-1.24-.67-.48-.57-.57-1.43-.1-2.19.67-1.14 1.63-1.62 2.58-2.47.38-.29.67-.67.96-1.05.48-.48.96-.48 1.53-.38l5.16.29c1.91.1 3.54.67 4.59 2.38.96 1.43 1.24 3.43 1.43 5.04.29 2.57.1 5.71 2.1 7.61 1.24 1.14 2.87 2.09 4.21 3.04 4.3 2.95 8.51 5.8 12.62 8.94.68.12 1.16-.74.68-1.12zm-3.82-53.95L56.94 50.84l-4.97-2.76L70.8 15.25c2.87 2.38 1.24 10.18.29 13.13zm-14.15-7.13c.76-.76 7.75-8.09 12.53-6.76L50.63 47.32l-4.97-2.76 11.28-23.31zM39.06 42.37l22.47 12.56-2.1 3.62-22.38-12.57 2.01-3.61zM31.6 71.01l-.29.48c-.48-1.24-.19-2.95.38-4.09 1.24-2.38 3.54-.38 4.97.67.67.48 2.49 1.71 2.58 2 .57 1.05 0 2.28-.96 2.76-.86.48-2.2.1-3.16-.19-1.15-.38-2.2-.95-2.87-1.9-.17-.49-.65-.11-.65.27zm14.15-1.24l-4.21 8.09-6.79 1.05-2.77-6.28.38-.76c1.72 1.52 4.78 2.66 6.79 1.43.96-.57 1.43-1.81 1.34-2.85 0-.29-.1-.67-.19-.86 1.53-.1 2.58-1.71 2.39-3.43v-.19c.86.19 1.63-.1 2.2-.67-.19 1.71-.1 3.23.86 4.47zm-2.68-6.38c.57-.29 1.24-.57 1.82-1.05.1.19.29.29.48.38-.1 1.71-1.53 3.23-3.25 2.19-.29-.38-.57-.76-.96-1.05.67-.09 1.34-.18 1.91-.47zm-3.92 0c.38.29.86.67 1.24 1.05.76.67 1.34 1.43 1.34 2.47 0 1.24-1.15 2.38-2.39 1.71-.38-.29-.76-.57-1.15-.76-1.91-1.14-4.3-3.62-6.31-1.9-.86-1.33-1.15-3.52-.48-4.95.86-2 3.73-1.43 4.97-.29l1.91 1.9c.1.1.19.19.38.29.01.2.3.39.49.48zm-1.43-2.66l-.76-.67c-1.15-1.05-3.06-1.62-4.59-1.14-.19-.86.48-2.28.86-2.95.76-1.43 2.1-2 3.44-.86l.38.57c.57.86 1.43 1.9 2.49 2.28-.96.77-1.82 1.63-1.82 2.77zm4.97-5.71c-.96.38-1.63 1.62-2.39 2.28l-.1.1-.29-.29c-1.24-.38-2.96-2.57-2.87-3.9 0-.95.67-1.81 1.43-2.38 1.05-.76 2.29-.48 3.25.19 0 .1-.1.19-.1.38-.19.19-.29.57 0 .76 0 0 .1 0 .1.1l.29.19c.96.67 1.72 1.43 2.2 2.57-.56-.19-1.14-.19-1.52 0zm3.63 0c-.29 0-.67-.1-1.05-.1v-.1c-.48-1.33-1.34-2.28-2.39-3.14l.1-.48c0-.1.19-.29.19-.29l.1-.1 8.41 4.66c-1.72-.36-3.64-.36-5.36-.45z"/></svg>