<svg width="170" height="170" viewBox="0 0 329 332" xmlns="http://www.w3.org/2000/svg"><path d="M427.61,450.55l4.81-2.59s-6.81-28.26-16.65-49c-3-6.37-12-16.54-15.84-23.09-8.77-14.82-15.33-36.26-15.33-36.26l-111.16,3.71s-7.07,20.9-15.07,36.16c-3.53,6.73-12,17.34-14.64,23.85-8.77,21.26-14.21,45.5-14.21,45.5l3.28,1.76Z" transform="translate(-171.99 -172.23)" fill="#eb532a"/><path d="M406.34,272.11c-.36,19-2.88,38.75-12.82,55.32-4.39,7.42-6.19,13-13.18,18.3-5.91,4.25-19.09,1.73-28.6,9.51,0,0-13.18,11.23-24.56,10.59-11-.72-22-9.87-22-9.87-5.48-5.26-18.66-6.34-26.8-9.15-7.76-2.88-19.22-22.9-23.75-33a30.35,30.35,0,0,1-1.89-5l-1.35-5.14-1.24-4.73c-3.32-7.71-4-16.21-8.07-23.92-2.88-5-5.12-9.15-6.2-13.76-2.23-10.59-4.75-21.53-6.62-32.05-3.32-15.85-9.87-41.56.72-55,0,0,12-2.74,33.35,19.73,10.3,9.15,20.53,26.44,33.35,31.34a61.52,61.52,0,0,0,7-8.79c2.88,2.45,8.42,5.62,12.82,5,2.88,0,5.11-2.81,7.35-2.81,1.8,0,4.75,1.73,5.47,1.73,7.71,3.17,7.35-3.53,11.74-3.17,4.4,0,4.4,8.43,13.9,3.17l4.76-.36c12.1-12.68,36.23-45.09,56.83-40.48,18.3,4.54-3.31,75.42-9.51,92.63" transform="translate(-171.99 -172.23)" fill="#eb532a"/><path d="M328.14,367.7h-1.07c-11.5-.75-22.58-9.9-23-10.29l-.09-.09c-3.32-3.18-10.16-4.75-16.78-6.27a94.85,94.85,0,0,1-9.34-2.46C267.39,344.69,252.22,315,251,309.2l-2.55-9.69a80,80,0,0,1-3.42-10.7,62.74,62.74,0,0,0-4.53-13c-2.77-4.77-5.18-9.18-6.36-14.2q-.93-4.41-1.89-8.82c-1.67-7.7-3.39-15.67-4.76-23.33-.22-1.08-.48-2.27-.74-3.51-3.4-15.85-8.53-39.8,1.83-52.92l.41-.51.63-.15c.53-.12,13.22-2.7,35,20.21a124.77,124.77,0,0,1,11,11.77c6.48,7.56,13.17,15.35,20.63,18.7a55.65,55.65,0,0,0,5.89-7.55l1.12-1.85,1.65,1.4c2.51,2.13,7.61,5.11,11.36,4.55h.27a6.91,6.91,0,0,0,3.2-1.28,8.33,8.33,0,0,1,4.15-1.53,12.75,12.75,0,0,1,4.54,1.3c.37.15.85.36,1.08.43h.22l.33.14c3.52,1.45,4.49.5,6-.93,1.11-1.08,2.62-2.55,5.16-2.38,2.31,0,3.75,1.55,4.91,2.78,1.82,1.93,3.14,3.32,8,.62l.35-.19,4.45-.34c1.76-1.87,3.74-4.11,6-6.67,13.4-15.11,33.65-37.94,52.08-33.83a9.33,9.33,0,0,1,6.06,5c10.4,19.44-14,89.37-14.24,90.07l-.62-.22c-.66,31.56-7.77,47-13.07,55.79-1,1.68-1.86,3.27-2.69,4.81-2.83,5.22-5.27,9.73-11,14-2.88,2.07-6.8,2.68-11.34,3.39-5.66.88-12.08,1.88-17.2,6.07C352.4,357.11,339.83,367.7,328.14,367.7Zm-21.7-13.13c.74.61,10.92,8.76,20.86,9.41,10.47.55,23.12-10,23.24-10.15,5.93-4.85,13.18-6,19-6.89,4.08-.63,7.59-1.18,9.72-2.71,5-3.78,7.18-7.76,9.91-12.81.85-1.56,1.73-3.18,2.76-4.93,8.24-13.73,12.11-30.51,12.56-54.42l2.4,0-1.57-.56c7.69-21.37,22-73,14.46-87.08a5.71,5.71,0,0,0-3.65-3.14c-16.26-3.64-35.64,18.22-48.46,32.69-2.4,2.7-4.67,5.26-6.59,7.28l-.49.51-5.07.38c-7.13,3.79-10.14.61-12.14-1.51-1-1-1.57-1.62-2.3-1.62h-.15c-.83-.07-1.28.29-2.35,1.33-1.64,1.6-4.11,4-9.71,1.8a11,11,0,0,1-1.9-.68,11.49,11.49,0,0,0-3.1-1,6.13,6.13,0,0,0-2.27,1,10.18,10.18,0,0,1-4.94,1.79c-4.42.6-9.38-1.92-12.51-4.13a68.21,68.21,0,0,1-6.11,7.39l-.85.87L296,227c-8.8-3.37-16.15-11.93-23.26-20.22a121.56,121.56,0,0,0-10.66-11.46l-.11-.11c-10.57-11.1-18.64-15.73-23.55-17.66A19,19,0,0,0,231,176c-8.66,11.92-3.86,34.33-.66,49.25.26,1.24.52,2.43.76,3.58,1.36,7.65,3.08,15.58,4.73,23.25.64,2.95,1.28,5.89,1.89,8.8,1.05,4.48,3.34,8.64,6,13.21a65.51,65.51,0,0,1,4.86,13.79,74.63,74.63,0,0,0,3.31,10.33l.08.26,2.62,10c1,4.93,15.78,33.45,24.48,36.67a88.51,88.51,0,0,0,8.91,2.34C295,349,302.37,350.71,306.44,354.57Z" transform="translate(-171.99 -172.23)" fill="#0f112e"/><path d="M380.7,275.28a9.33,9.33,0,0,0-7.35-6.7c-2.88-.72-5.9,0-8.43-.36.36-2.45,2.24-10.23-3.31-9.51-2.88,0-5.91,8.43-7.71,10.59-2.88,4.25-4.75,3.17-5.11-1.73-.72-5,1.8-11.67-2.23-12.68-2.89-.36-5.12,5.26-6.2,8.79-.36,1.73-2.23,3.17-1.51-9.15,0-3.17,0-11.67-1.8-11.95h-.72c-5.12.36-8.79,20.09-10.3,25.71-1.08-5.62-7-29.6-11.38-24.34-1.09,3.16-.36,4.53-.72,7.7,0,1.73-.37,13.76-1.81,11.67-.72-3.53-4.75-10.59-7-9.51-4,3.53-.72,8.43-1.8,13.4-.72,5-2.6,6-5.12,1.44-1.51-2.16-4-10.59-7-11-5.11-.72-3.67,7.06-3.67,9.51-2.59,0-5.47-.72-8.43-.36a10,10,0,0,0-7.7,6.34c-.36.72,0,27.09,24.2,27.52A25,25,0,0,0,305.9,299c2.23-.72,4-2.45,5.91-1.08l24.92,1.73c1.8-1.44,3.67-2.45,5.47-1.73,3.32,1.44,8.07,3.89,12.11,3.89,12.46,0,23.48-5,27.08-16.21,1.15-.43-.36-9.58-.72-10.3Z" transform="translate(-171.99 -172.23)" fill="#eca45b"/><path d="M278.92,279.17s15.41-1.44,19.45.72c8.06,3.89,9.14,12.68,9.14,11.67,0,0-4.75,1.73-6.19,1.73a69.75,69.75,0,0,1-7.71.72c-12.46-1.44-14.69-14.84-14.69-14.84Z" transform="translate(-171.99 -172.23)" fill="#fff"/><path d="M375.59,281.26s-15-2.16-19.45-.36c-8.43,3.53-9.87,12.32-9.87,11.24,0,0,4.75,1.72,5.9,2.16a25.4,25.4,0,0,0,7.71,1.08c12.75-.72,15.71-14.12,15.71-14.12Z" transform="translate(-171.99 -172.23)" fill="#fff"/><path d="M347,291.85c1.08.36,4.75,1.73,5.91,2.16a27,27,0,0,0,6.62,1.08h.72c11-.36,14.7-11.67,15-13.4a84.73,84.73,0,0,0-12.83-1.08,20,20,0,0,0-5.9.72A16.45,16.45,0,0,0,347,291.85Z" transform="translate(-171.99 -172.23)" fill="#fff"/><path d="M314.36,316.84c-1.08-5.62.36-11.23,1.51-16.92,0,0,3.67-12,9.51-13,15-2.81,16.49,30.32,16.49,30.32-17.64,7.78-27.51-.36-27.51-.36Z" transform="translate(-171.99 -172.23)" fill="#f3773f"/><path d="M367.16,321.09c-1.08-2.45-5.48-4.54-8.79-5-7-.72-30.76,4.54-30.76,4.54l-.07.22c-3.1-.87-24.35-6.56-30.76-5.91-3.31.36-8.07,2.16-9.15,4.54-1.8,3.53.36,8.14,2.24,12,2.23,4.25,7.34,10.58,12.46,13.75a12,12,0,0,0,6.62,2.17c18.3.36,19.45-10.52,19.45-10.16l.29-1.87.07.07c.72,0-1.51,11.23,16.5,11.23,2.23,0,4.39.73,6.63-.36,5.11-3.16,10.59-9.14,12.82-13.39,1.73-3.68,4.32-7.93,2.45-11.82Z" transform="translate(-171.99 -172.23)" fill="#eca45b"/><path d="M314,317.56c.72-2.16,14.69.36,14.69.36s12.1-2.81,13.9.36c.36.72-1.51,3.17-1.51,3.17s-5.11-.36-6.19.72c-1.52,1.44-2.24,8.14-1.8,8.14s-2.6,3.53-4,3.53c-1.08,0-4.39-2.45-4-2.81s-.36-7.42-2.23-8.78c-1.09-1.08-5.12.36-6.63-.36-.72-1.16-2.16-4.33-2.16-4.33Z" transform="translate(-171.99 -172.23)" fill="#ce4a28"/><path d="M298.73,278.45c-1.81-.72-4.76-1.08-9.87-1.08s-9.94.36-10.3.36h-1.44v1.44S280,293.58,293.25,295h0a82.47,82.47,0,0,0,8.43-.36c1.08-.36,7-1.73,7-1.73S308.67,282,298.73,278.45Zm2.23,13c-1.8.72-5.48.72-7,.72a13.63,13.63,0,0,1-11-7.06,16.44,16.44,0,0,1-2.23-5c1.87,0,4.75-.36,8.43-.72.93,0,1.65,0,2.44.07-.36,2.81-.93,10,2,9.51s3.38-6,3.6-8.65a2.45,2.45,0,0,0,.43.15A16.45,16.45,0,0,1,305.7,290a20.86,20.86,0,0,1-4.7,1.51Z" transform="translate(-171.99 -172.23)" fill="#131840"/><path d="M376.31,279.82a126.76,126.76,0,0,0-13.55-1.08,25.82,25.82,0,0,0-6.62.72,18.8,18.8,0,0,0-10.3,10.59l-.65,3.24,7.27,2.45a29.61,29.61,0,0,0,7,1.08h0l1.15-.07c13.18-.72,16.86-15.13,16.86-15.13l.36-1.44Zm-5.12,7.42c-2.23,5.62-11.74,6.7-12.1,6.7a24.23,24.23,0,0,1-6.19-1.08c-.73-.36-2.6-1-4.4-1.73h0a15.46,15.46,0,0,1,8.43-8.79c.07,2.74.65,8,3.31,8.5s2.52-6.27,2.31-9.22a91.77,91.77,0,0,1,11.23.72c-.36,1.44-1.87,2.81-2.59,4.9Z" transform="translate(-171.99 -172.23)" fill="#131840"/><path d="M261.63,300.64a23.74,23.74,0,0,0,11.74,12.67c3.67,2.16,7-3.53,3.31-5.62s-7-5-8.42-8.78-8.14-2.16-6.63,1.73Z" transform="translate(-171.99 -172.23)" fill="#eca45b"/><path d="M381.42,313.31c4-2.81,8.43-5.26,11-9.87,2.23-3.52-3.67-7-5.91-3.16-1.8,3.16-5.47,5.25-8.78,7.41-1.52,1.09-2.24,2.81-1.08,4.54a3.44,3.44,0,0,0,4.74,1.08h0Z" transform="translate(-171.99 -172.23)" fill="#eca45b"/><path d="M313.28,348.25a1.63,1.63,0,0,1-1.52-1.44,1.34,1.34,0,0,1,1.52-1.44c13.18-1.08,14.26-8.79,14.69-9.15a1.11,1.11,0,0,1,1.51-1.08,1.63,1.63,0,0,1,1.52,1.44c0,.36,0,7.71,13.9,8.14a1.62,1.62,0,0,1,1.51,1.44,1.56,1.56,0,0,1-1.51,1.44c-7,0-11.74-2.16-14.7-5.62a2.73,2.73,0,0,1-.72-1.44c-2.66,3.1-7,7-16.2,7.71Z" transform="translate(-171.99 -172.23)" fill="#131840"/><path d="M342.23,318.64c.36.72-1.51,3.17-1.51,3.17s-5.11-.36-6.19.72c-1.52,1.44-2.24,8.14-1.8,8.14s-2.6,3.53-4,3.53c-1.08,0-4.39-2.45-4-2.81s-.36-7.42-2.23-8.78c-1.09-1.08-5.12.36-6.63-.36-1.08-.36-2.24-3.53-2.24-3.53" transform="translate(-171.99 -172.23)" fill="#ce4a28"/><path d="M328.69,335.57c-1.8,0-5.9-4.54-5.47-5,0-1.44-.72-6.34-1.52-7.42h-2.59c-1.51,0-2.88.36-3.67-.36-1.51-.72-2.6-3.17-2.88-4.25a1.22,1.22,0,0,1,.52-1.65l.2-.08a1.3,1.3,0,0,1,1.74.59l.06.13a4.92,4.92,0,0,0,1.8,2.81h2.23c1.8,0,3.32-.36,4.4.72,2.23,1.73,2.59,7.71,2.59,8.14v1.44a8.22,8.22,0,0,0,2.59,1.73,20.49,20.49,0,0,0,2.6-2.45,16,16,0,0,1,.36-3.53c.72-3.89,1.8-5,2.23-5.25,1.08-1.09,4.39-1.09,6.63-1.09.36-.72.72-1.08.72-1.44,0-.72,0-1.08.72-1.44s1.51-.36,1.8.36c.36.36,1.08,1.73-1.8,5-.36.36-.72.72-1.08.36-2.24,0-4.76,0-5.12.36-.72.72-1.51,5-1.51,6.34v.72c-.43,1-3.39,4.9-5.55,5.26Z" transform="translate(-171.99 -172.23)" fill="#131840"/><path d="M248.45,272.83c6.19-5.62,9.87-17.94,11.38-27.8-.36,1.44,10.59,1.72,16.85-5,4.4-4.54,1.8-8.14-.72-13.76-7-14.41-18.65-25.72-30-36.31-2.89-2.81-5.91-9.87-11-8.14-4,1.44-3.67,13-2.88,16.57C236.35,228.82,248.45,272.83,248.45,272.83Z" transform="translate(-171.99 -172.23)" fill="#fff"/><path d="M400.51,269.66c-5.91-5.62-12.1-17.29-13.18-26.8,0,1.45-10.59,1.45-16.5-5.25-4-4.54-1.51-7.71,1.51-12.68,7.71-13,19.81-23.27,31.48-33.14,3.32-2.45,6.63-6,11.38-3.89,4,1.73,2.89,9.51,2.24,12.68-6,33.86-16.93,69.08-16.93,69.08Z" transform="translate(-171.99 -172.23)" fill="#fff"/><path d="M401.23,223.85c-8.07,2.09-16.86,6.63-20.75,14.19-1.72-8.93,6.7-18.95,13.83-23.7,2.24-1.44,0-5-2.23-3.53-8.79,6.34-18,18.3-15.41,29.25a2,2,0,0,0,2.45,1.36l-.29,1.16c-.36,2.45,3.67,3.53,4,1.08,1.8-8.79,11-13.76,19.45-15.85,2.59-.79,1.44-4.68-1.08-4Z" transform="translate(-171.99 -172.23)" fill="#ec652a"/><path d="M254.28,214.34c-2.23-1.44-4,1.73-2.23,3.53,5.83,4.11,12.89,12.46,13.83,20.17-3.82-7.56-12.39-12.1-20.75-14.19a2,2,0,0,0-1.08,3.89c8.43,2.16,17.58,7.06,19.45,15.85a2.1,2.1,0,0,0,3.17,1.08,2,2,0,0,0,3-1.08c2.88-11-6.63-23.27-15.42-29.25Z" transform="translate(-171.99 -172.23)" fill="#ec652a"/><path d="M274.45,220.32c-6.19-10.59-15-19.38-23.84-27.81l-9.51-10.59c-1.8-1.72-5.48-2.44-7.71-.36-4.75,4.25-3.67,13.4-2.88,19,1.51,10.95,3.67,21.54,6.2,32.06,2.88,13.75,6.19,27.08,9.86,40.48a1.15,1.15,0,0,0,1.08,1.08c.36.36,1.09,0,1.81-.36,7-6.7,9.86-16.93,11.38-26.44,4.39.72,11.74-2.45,13.54-3.53,10.73-6,4.83-15.77.07-23.55Zm-2.59,21.9a19.76,19.76,0,0,1-6.2,2.16c-.72,0-4,0-4,.36-.36-1.44-2.88-1.73-3.31,0-1.52,8.43-3.68,17.93-9.15,24.63a667,667,0,0,1-15.42-69.8c-.72-3.89-1.08-21.1,6.2-13.76l7,8.14c3.32,3.17,6.63,6.7,9.87,9.87A93.61,93.61,0,0,1,274,227.74c1.08,2.16,2.23,3.89,2.59,6,1.87,3.53-1.8,6.7-4.75,8.5Z" transform="translate(-171.99 -172.23)" fill="#131840"/><path d="M411.17,185.45c-3.31.36-6.19,2.81-8.43,5-4.39,3.89-8.79,7.42-13.18,11.24a109.6,109.6,0,0,0-20.17,24.64c-4.39,7.42-.72,13.4,7,16.93,1.51.72,6.62,2.44,9.87,2.16a50.37,50.37,0,0,0,13.18,25.35,3.25,3.25,0,0,0,1.8.36q.54,0,1.08-1.08c4-12.68,7.35-25.71,10.59-38.75a333.05,333.05,0,0,0,6.63-32.78c.43-6,0-13.4-8.36-13Zm4.68,12.32c-1.51,15.85-6.19,32.06-10.3,47.62-1.8,7.06-3.67,14.11-5.91,20.81a48.52,48.52,0,0,1-11-23.91c-.36-1.73-2.88-1.44-3.31,0,.36-1.08.72-.72-.72-.36a18.63,18.63,0,0,1-4.39-.72c-4-1.08-9.87-3.89-10.31-8.43-.36-3.17,3.32-7.42,5.12-10.23a124.23,124.23,0,0,1,8.43-11c5.47-6,11.38-10.95,17.57-16.2,2.6-2.17,5.12-4.54,8.43-6.34,6.84-3.61,6.84,5.25,6.41,8.71Z" transform="translate(-171.99 -172.23)" fill="#131840"/><path d="M274.1,420.27c0,9.64.39,21.25,2.5,30.28H383.19c2.23-9.45,2.12-22.48,1.52-33.09-.93-16.31,13.13,3.75,13.54-7.7s-19.64-48.23-19.64-48.23a197.21,197.21,0,0,0-22.78,10.89,56.68,56.68,0,0,1-53.9.48,146.77,146.77,0,0,0-20.68-8.9s-22,37.85-21.06,49.26S274.2,403.93,274.1,420.27Z" transform="translate(-171.99 -172.23)" fill="#eea65a"/><path d="M297.91,223.09s60.6,33.12,88.46,108.07" transform="translate(-171.99 -172.23)" fill="none" stroke="#0f112e" stroke-miterlimit="10" stroke-width="7"/><path d="M480.53,450.55c-12-33-58.52-110.13-66.42-117.71l-14.41,37.4s7.64,49.19,14.62,80.31Z" transform="translate(-171.99 -172.23)" fill="#eb532a" stroke="#0f112e" stroke-miterlimit="10" stroke-width="3.63"/><path d="M400.94,332.4l-.75-6.31A49.86,49.86,0,0,1,403.47,301c2.35-5.68,5.69-10.57,10.12-12.18a30.65,30.65,0,0,1,6.86-1.07c9.77.8,8.83,12.24,8.83,12.24-2.36,13.81-7.06,14.45-9.61,22.64-1.06,3.39.83,20.39-3.29,29.93-1.67,3.88-17.39,4-19.58,8.83" transform="translate(-171.99 -172.23)" fill="#eb532a" stroke="#0f112e" stroke-miterlimit="10" stroke-width="3.55"/><path d="M416.38,349.45c-18.5.19-22.92-2.67-31.81-5.31-7.31-2.18-7.45,8.06-7.48,8.36-1.55,15.26,11.21,16.57,9.1,18.16C380.52,375,383,395,402.31,394.11l8.14,1.51,1.51.15c5.55-.13,19.49-3.48,20.21-23.83.36-10-.18-19.39-.18-19.39s6.29-7.58,7.85-11.57c4.58-11.73-8.8-19.62-18.17-19.27l-2.17.91s-15.7.87-19.55-.51c-12.86-4.59-24.18,10.5-15.77,21.26.21.26.43.53.66.79" transform="translate(-171.99 -172.23)" fill="#eb532a" stroke="#0f112e" stroke-miterlimit="10" stroke-width="3.63"/><path d="M384.06,368.84c10.84,4,18.21,5.44,25.63,5.13" transform="translate(-171.99 -172.23)" fill="#eb532a" stroke="#0f112e" stroke-miterlimit="10" stroke-width="3.63"/><path d="M429.06,373.77c9.4-4.87,10-13.26,8.39-18.1-1-3.12-4.91-5.12-8.79-4.61" transform="translate(-171.99 -172.23)" fill="#eb532a" stroke="#0f112e" stroke-miterlimit="10" stroke-width="3.63"/><line x1="2.5" y1="278.54" x2="326.15" y2="278.54" fill="none" stroke="#231f20" stroke-linecap="round" stroke-linejoin="round" stroke-width="5"/><path d="M376,284.64s-.92,12-13.81,13.18-18.33-2.18-20.35-7.13a47.77,47.77,0,0,1-2-7.62,8.68,8.68,0,0,1,6.87-10.18q.38-.07.77-.11l15.16-1.56a11.69,11.69,0,0,1,12.71,9.58Z" transform="translate(-171.99 -172.23)" fill="#0f112e" stroke="#0f112e" stroke-miterlimit="10" stroke-width="7"/><path d="M299.62,316.7c-1.51,1.15-11.06,0-10.73,1.94.52,3.12-1.14,4.94-3,6.6-2.22,2-1.6,7.72-1.6,7.72l.86-.87a4.39,4.39,0,0,1,3.48-1.34h0s-1.67,7.07-1.38,9.34c0,0,5.24-5.36,7.67-4.16,0,0-2.56,2-2.08,4.71s3.35-1,6.76-.14-2.18-11.41-2.18-11.41Z" transform="translate(-171.99 -172.23)" fill="#eca45b"/><path d="M359.52,316.62c1.21,1.65,9.22,7.78,8.2,9.61-1.61,2.87-1.15,2.45-.22,4.93a10.27,10.27,0,0,1-1.67,10.49,6.92,6.92,0,0,0-4.08-2.67h0s0,4-1.08,6.07c0,0-1.36-3.85-4.35-3.51,0,0,1.07,6.62-.33,4.11-1.15-2.09-3.32-1.68-7.22-2s4.24-9.27,4.24-9.27Z" transform="translate(-171.99 -172.23)" fill="#eca45b"/><path d="M253.36,400l-.35,2.53c-.74,11.33,6.7,31.18,7.31,42.5.64,12-7.9,17.46-16,25.31h0S219.58,483.19,209,459.59l-2.58-7a26.7,26.7,0,0,1-1-15.27c3.09-13.51,8.73-40.5,5.22-44.17s-14.5-9.8-10-26.17c2.2-8,5-15.38,5-15.38s-3.12-7.6-3.37-11.16c-.73-10.48,8.24-15.28,15.6-12.67s16.55,11.67,23.94,11.65,15.29-6.19,20.71-5.13" transform="translate(-171.99 -172.23)" fill="#eb532a" stroke="#0f112e" stroke-miterlimit="10" stroke-width="3.7"/><path d="M202.06,372c-5.4-6.6-3.43-12.85-1-16.78a5.63,5.63,0,0,1,7.44-2h0" transform="translate(-171.99 -172.23)" fill="#eb532a" stroke="#0f112e" stroke-miterlimit="10" stroke-width="3.7"/><path d="M218.87,332c1.36,1.08,10.92,7.45,8.86,15.63-.38,1.52-2.67,5.13-9.31,7.18-8,2.47-13.43-4.5-13.43-4.5" transform="translate(-171.99 -172.23)" fill="none" stroke="#0f112e" stroke-miterlimit="10" stroke-width="3.7"/><path d="M252.65,343.54,262,327.25a14.93,14.93,0,0,1,17.74-7.6l.26.08c8.61,2.6,6.16,11.33,6.16,11.33-.43,7.84-12.35,14-15.69,21-1.37,2.9-1.24,17.26-6.69,24.9-2.21,3.1-4.52,3.84-4.22,8.64.78,12.59-6.52,28.87-31.63,12.8" transform="translate(-171.99 -172.23)" fill="#eb532a" stroke="#0f112e" stroke-miterlimit="10" stroke-width="3.63"/><path d="M219.88,385.9c-2.29-1.94,8-25.29,8.41-27.55s2.51-4.84,3.36-5.92,5-2,8.41,1.23c7.77,7.46,17.08-1.29,19.18,5.83.35,1.19-.14,6.75-2,13.09-.66,2.31-2,3.58-3,5.92-.73,1.67-1.08,4.44-2,6C246.37,394,236.24,399.72,219.88,385.9Z" transform="translate(-171.99 -172.23)" fill="#eea65a"/><path d="M210.59,393.2l15,4.61c10.84,2.29,26.89-9.71,15.67-19.56-2.58-2.27,12.39,1.76,11.05-15.42,0-.25-.6-6-7.21-6.14-8-.17-9.27,2-17.7-.77" transform="translate(-171.99 -172.23)" fill="#eb532a" stroke="#0f112e" stroke-miterlimit="10" stroke-width="3.7"/><path d="M262.13,343.82c-2.63-1.46-1.74-3.59-1.34-5.85s2.51-4.83,3.36-5.91,7.08-6.31,10.25-2.87c2.29,2.49.34,4.78-1.36,8.8C271.43,341.82,267.2,346.64,262.13,343.82Z" transform="translate(-171.99 -172.23)" fill="#eea65a"/><path d="M241.48,378.71s-28.08.42-39.69-6.45" transform="translate(-171.99 -172.23)" fill="#eb532a" stroke="#0f112e" stroke-miterlimit="10" stroke-width="3.7"/><circle cx="180.76" cy="154.99" r="1.96" fill="#0f112e"/><circle cx="189.51" cy="162.81" r="1.96" fill="#0f112e"/><circle cx="167.15" cy="163.34" r="1.96" fill="#0f112e"/><circle cx="125.92" cy="148.34" r="1.96" fill="#0f112e"/><circle cx="137.48" cy="154.48" r="1.96" fill="#0f112e"/><circle cx="189.51" cy="153.91" r="1.96" fill="#0f112e"/><circle cx="176.51" cy="161.61" r="1.96" fill="#0f112e"/><circle cx="130.69" cy="166.5" r="1.96" fill="#0f112e"/><circle cx="126.78" cy="158.4" r="1.96" fill="#0f112e"/><circle cx="139.77" cy="163.34" r="1.96" fill="#0f112e"/><path d="M413.09,311.43c-3.58-.92-6.24-11.08-3.59-15s5.6,2.1,6.61,3.45c.3.39,1.3-1.07,1.87-1.26,3.7-1.26,7.71,0,4.66,4.88C419.93,307.85,415.85,312.13,413.09,311.43Z" transform="translate(-171.99 -172.23)" fill="#eea65a"/><path d="M325.08,496.41a107.25,107.25,0,0,1-36.94-6.54l-.27-.09L280.46,484c-10.85-9.42-7.29-24.66,10.51-45.33,9.38-10.89,23.81-14,28.21-14.79l2.37-10.67c-2.93-6.76-3.47-12.28-1.59-16.42a10,10,0,0,1,6-5.5,2.92,2.92,0,0,1,.83-.12c2.2,0,3.3,2.28,4.57,4.93.78,1.61,1.74,3.61,2.73,4.37a1.34,1.34,0,0,0,.89.26,12,12,0,0,0,3-.69,20.45,20.45,0,0,1,6.18-1.18,12.9,12.9,0,0,1,2.49.25,5.92,5.92,0,0,1,4.16,2.91c1.19,2.13,1,4.86.65,6.84A10.12,10.12,0,0,1,357.8,413c1.22,1.74,1.63,3.46,1.13,4.85-.3.86-1.22,3.42-15.61,3.59l-1.19,5.71c2.61,2.31,10.73,10.07,19.38,24.36,7.5,12.37,5.89,25.53,4.26,32.27a10.08,10.08,0,0,1-7,7.33l-4.67,1.31A107.91,107.91,0,0,1,325.08,496.41Z" transform="translate(-171.99 -172.23)" fill="#d49177"/><path d="M326.82,392.94c2,0,3.42,6.81,6.2,8.93a3.13,3.13,0,0,0,2,.63c2.38,0,5.45-1.86,9.21-1.86a11.27,11.27,0,0,1,2.13.2c6,1.2,2.77,9.94,2.77,9.94a4.44,4.44,0,0,1,1.39-.22c3.78,0,7.54,4.56,6.78,6.69-.86,2.39-15.38,2.39-15.38,2.39l-1.71,8.21s9.57,7.69,19.82,24.6c7.13,11.76,5.65,24.27,4,30.91a8.2,8.2,0,0,1-5.77,6l-4.67,1.31a105.82,105.82,0,0,1-64.86-2.51l-7.18-5.64c-13-11.28.17-30.42,10.77-42.72s28.33-14.36,28.33-14.36l2.8-12.44c-6.84-15.21.85-19.31,3.08-20a.92.92,0,0,1,.29,0m0-3.63h0a4.49,4.49,0,0,0-1.36.21,11.84,11.84,0,0,0-7.15,6.48c-2,4.51-1.59,10.34,1.35,17.34l-2,8.94c-5.62,1.1-19.07,4.71-28.07,15.16-7.38,8.57-12.24,16-14.86,22.81-5.06,13.08-.37,20.83,4.46,25l.07.06.07,0,7.18,5.64.45.36.54.2a109.58,109.58,0,0,0,67.08,2.59l4.68-1.31a11.86,11.86,0,0,0,8.32-8.65c1.69-7,3.37-20.7-4.47-33.63-8-13.24-15.64-21-18.94-24.06l.69-3.31c1.34,0,3-.12,4.7-.25,6.21-.5,10-1.39,11.13-4.49.7-2,.22-4.27-1.36-6.5a12.68,12.68,0,0,0-5.79-4.49,11.09,11.09,0,0,0-1.1-6.39,7.68,7.68,0,0,0-5.39-3.8,14.1,14.1,0,0,0-2.84-.28,22.41,22.41,0,0,0-6.71,1.25,13.23,13.23,0,0,1-2.42.61,17.09,17.09,0,0,1-2.06-3.6c-1.35-2.79-2.87-6-6.21-6Z" transform="translate(-171.99 -172.23)" fill="#0f112e"/><path d="M340.89,418.16c-4.65-1.56-13.5-4.44-18.39-5.47,0,0-3.7,1.51-2.75,3.62s20,9.25,22.16,8.54a2.6,2.6,0,0,0,1.41-1.61,3.89,3.89,0,0,0-2.25-5Z" transform="translate(-171.99 -172.23)" fill="#f9d663" stroke="#0f112e" stroke-miterlimit="10" stroke-width="3.63"/><path d="M342.85,423.42s11,4.76,12.86,7.62-1.59,5.29-4,5.71-9.66-7.3-9.66-7.3Z" transform="translate(-171.99 -172.23)" fill="#f9d663" stroke="#0f112e" stroke-miterlimit="10" stroke-width="3.63"/><path d="M335.31,428.85l-.08,12.35c0,.87,2,3.3,4,3.24s4.07-2.64,4-3.6l-2.51-12.63" transform="translate(-171.99 -172.23)" fill="#f9d663" stroke="#0f112e" stroke-miterlimit="10" stroke-width="3.63"/><path d="M341.46,424.27a68.83,68.83,0,0,1-17.5-5.33,2.89,2.89,0,0,0-3.85,1.36l0,.06a3.92,3.92,0,0,0-.33,3c1,2.11,18.35,6.67,20.48,6a2.59,2.59,0,0,0,1.54-2C342.09,426,342.85,424.46,341.46,424.27Z" transform="translate(-171.99 -172.23)" fill="#f9d663" stroke="#0f112e" stroke-miterlimit="10" stroke-width="3.63"/><line x1="152.55" y1="270.89" x2="144.98" y2="306.82" fill="none" stroke="#0f112e" stroke-linecap="round" stroke-linejoin="round" stroke-width="3.63"/><path d="M330.14,451.51s-11.06-10.32-15.21-1.65c0,0-4.28,6.37,7.06,10.79,3.81,1.48,7.9,4.92,6.09,8.58-1.67,3.37-5.92,9-17.85.27" transform="translate(-171.99 -172.23)" fill="none" stroke="#0f112e" stroke-linecap="round" stroke-linejoin="round" stroke-width="3.63"/><ellipse cx="353.98" cy="460.9" rx="7.5" ry="8.59" transform="translate(-365.71 94.35) rotate(-32.94)" fill="#dfac97"/><path d="M292.35,439.81c-10.6,12.3-23.75,31.44-10.77,42.72l7.18,5.64a106,106,0,0,0,64.86,2.51l4-1.1a9.49,9.49,0,0,0,6.7-7.08,47.73,47.73,0,0,0,1.07-7.8c-5.47,4.62-20.5,13.53-49.22,5.52-29.11-8.11-13-39.17-4.36-52.65C305.81,429.54,298,433.19,292.35,439.81Z" transform="translate(-171.99 -172.23)" fill="#bb8774"/><path d="M299,478.81s.9,9.89,11.29,15.9" transform="translate(-171.99 -172.23)" fill="none" stroke="#0f112e" stroke-linecap="round" stroke-linejoin="round" stroke-width="3.63"/><ellipse cx="209.06" cy="320.26" rx="20.92" ry="8.73" fill="#353738" stroke="#0f112e" stroke-miterlimit="10" stroke-width="5"/><path d="M364,411.33V428c0,8.26,4.66,16.32,9.43,23.07h15.69c.35,0,8.9-15,8.9-23.08V413Z" transform="translate(-171.99 -172.23)" fill="#b5bbbc" opacity="0.72" style="isolation:isolate"/><path d="M398.06,490.71V474.09c0-8.26-4.13-16.32-8.9-23.07h0l-1,.3A22.44,22.44,0,0,1,374,451h0c-5.3,4.9-10,15-10,23.08v15Z" transform="translate(-171.99 -172.23)" fill="#b5bbbc" opacity="0.72" style="isolation:isolate"/><line x1="209.29" y1="280.46" x2="209.29" y2="294.93" fill="none" stroke="#f4bb56" stroke-miterlimit="10" stroke-width="5"/><path d="M398.06,490.71V474.09c0-8.26-4.13-16.32-8.9-23.07h0l-1,.3A22.44,22.44,0,0,1,374,451h0c-5.3,4.9-10,15-10,23.08v15Z" transform="translate(-171.99 -172.23)" fill="none" stroke="#0f112e" stroke-miterlimit="10" stroke-width="3.63"/><ellipse cx="209.06" cy="318.48" rx="17.01" ry="6.41" fill="#bbbdbf" stroke="#0f112e" stroke-miterlimit="10" stroke-width="3.63"/><path d="M397.41,468.31l-32.78.49a26,26,0,0,0-.59,5.3v16.61c0,3.54,7.61,6.41,17,6.41s17-2.87,17-6.41h0V474.09A27.53,27.53,0,0,0,397.41,468.31Z" transform="translate(-171.99 -172.23)" fill="#c6964f"/><path d="M397,466.74c-6.39-2.72-27.26-4.09-31.79-.44a33,33,0,0,0-.79,3.42c.06,0,10.92,5.86,21.25,3.6,7.27-1.58,10.64-1.41,12.14-2.53A31.55,31.55,0,0,0,397,466.74Z" transform="translate(-171.99 -172.23)" fill="#f4bb56"/><path d="M389.16,451H374c-5.3,4.9-10,15-10,23.08v16.61c0,3.54,7.61,6.41,17,6.41s17-2.87,17-6.41v-16.6C398.06,465.83,393.93,457.77,389.16,451Z" transform="translate(-171.99 -172.23)" fill="none" stroke="#0f112e" stroke-miterlimit="10" stroke-width="3.63"/><path d="M365.84,437.3a60.45,60.45,0,0,0,7.63,13.7l7.81,1.67,7.88-1.67c.24,0,4.19-6.81,6.75-13.72Z" transform="translate(-171.99 -172.23)" fill="#c6964f"/><path d="M368.75,440.24s15.37,4.41,25.47-.91S357.19,433.23,368.75,440.24Z" transform="translate(-171.99 -172.23)" fill="#f4bb56"/><path d="M364.27,411.33V428c0,8.26,4.67,16.32,9.44,23.07h15.68c.36,0,8.9-15,8.9-23.08V413Z" transform="translate(-171.99 -172.23)" fill="none" stroke="#0f112e" stroke-miterlimit="10" stroke-width="3.63"/><ellipse cx="209.06" cy="241.26" rx="20.92" ry="5.72" fill="#0f112e" stroke="#0f112e" stroke-miterlimit="10" stroke-width="8"/><ellipse cx="209.47" cy="276.29" rx="7.46" ry="2.5" fill="#c6964f"/></svg>