<svg width="170" height="170" viewBox="0 0 327 293" xmlns="http://www.w3.org/2000/svg"><path d="M302.31,380.38l9.84-5.3s-6.82-28.26-16.65-49c-3-6.37-12-16.54-15.84-23.08-8.77-14.83-15.33-36.26-15.33-36.26l-111.16,3.7s-7.07,20.9-15.07,36.16c-3.53,6.73-12,17.35-14.65,23.85-8.76,21.26-14.2,45.51-14.2,45.51l8.33,4.46Z" transform="translate(-53.98 -93.56)" fill="#eb532a"/><path d="M286.88,308.14c3.45,4.61,7,9.37,8.65,12.81,8.43,17.82,14.7,41.51,16.19,47.36l-22.43,12.07h7.61l19-10.22-.33-1.35c-.07-.29-7-28.69-16.77-49.4-1.79-3.77-5.47-8.68-9-13.44a117.47,117.47,0,0,1-6.9-9.79c-8.56-14.46-15.1-35.66-15.16-35.87l-3.45,1.06c.27.88,6.73,21.81,15.5,36.65A118.08,118.08,0,0,0,286.88,308.14Z" transform="translate(-53.98 -93.56)" fill="#0f112e"/><path d="M121.89,380.38l-10.52-4.88c1.27-5.34,8-32.2,15.41-50.25,1.45-3.52,4.77-8.46,8-13.25a123,123,0,0,0,6.59-10.46c8-15.2,15.11-36.2,15.18-36.41L153.12,264c-.07.21-7.12,21-15,35.89-1.49,2.83-3.87,6.38-6.39,10.13-3.31,4.93-6.74,10-8.33,13.88-8.68,21.1-15.8,51.9-15.86,52.1l-.3,1.34,6.43,3Z" transform="translate(-53.98 -93.56)" fill="#0f112e"/><path d="M155.49,341.54c-.08,13.12.78,29.89,5.49,38.84H261.13c5.69-8.26,5.78-27.21,5-41.66-.93-16.31,13.14,3.75,13.54-7.69S260,282.8,260,282.8a198.8,198.8,0,0,0-22.78,10.89c-17,9.3-36.63,9.35-53.9.48a145,145,0,0,0-20.67-8.9s-22,37.86-21.07,49.27S155.59,325.2,155.49,341.54Z" transform="translate(-53.98 -93.56)" fill="#eea65a"/><path d="M287.73,193.38c-.36,19-2.88,38.75-12.82,55.32-4.4,7.42-6.2,13-13.19,18.29-5.9,4.25-19.08,1.73-28.59,9.51,0,0-13.19,11.24-24.57,10.59-11-.72-22-9.87-22-9.87-5.47-5.26-18.65-6.34-26.79-9.15-9.51-3.52-24.57-32.77-25.65-38l-2.59-9.87c-3.31-7.7-4-16.2-8.07-23.91-2.88-5-5.11-9.15-6.19-13.76-2.24-10.59-4.76-21.54-6.63-32.06-3.31-15.84-9.87-41.56.72-55,0,0,12-2.73,33.35,19.74,10.3,9.15,20.53,26.44,33.35,31.33a60.4,60.4,0,0,0,7-8.78c2.88,2.45,8.43,5.62,12.82,5,2.88,0,5.12-2.81,7.35-2.81,1.8,0,4.75,1.73,5.47,1.73,7.71,3.17,7.35-3.53,11.75-3.17,4.39,0,4.39,8.43,13.9,3.17l4.75-.36c12.1-12.68,36.24-45.1,56.84-40.49,18.29,4.54-3.32,75.42-9.51,92.64" transform="translate(-53.98 -93.56)" fill="#eb532a"/><path d="M209.52,289h-1.06c-11.51-.75-22.59-9.91-23.05-10.3l-.1-.08c-3.32-3.19-10.16-4.76-16.78-6.28a92.84,92.84,0,0,1-9.34-2.46c-10.41-3.86-25.59-33.53-26.84-39.35l-2.54-9.69a80,80,0,0,1-3.43-10.7,62.74,62.74,0,0,0-4.53-13c-2.76-4.77-5.18-9.18-6.35-14.2-.63-2.95-1.26-5.88-1.9-8.82-1.66-7.71-3.39-15.67-4.75-23.33-.23-1.09-.48-2.28-.75-3.51-3.39-15.85-8.53-39.81,1.84-52.92l.4-.51.64-.15c.53-.12,13.21-2.71,35.05,20.21a123.52,123.52,0,0,1,11,11.75c6.48,7.55,13.17,15.35,20.64,18.69a55.06,55.06,0,0,0,5.88-7.55l1.13-1.84,1.65,1.4c2.51,2.13,7.6,5.1,11.35,4.55h.27a7,7,0,0,0,3.21-1.29,8.25,8.25,0,0,1,4.14-1.52,12.81,12.81,0,0,1,4.55,1.3l1.07.43h.22l.34.14c3.52,1.44,4.49.5,5.95-.93,1.11-1.08,2.62-2.56,5.16-2.38,2.31,0,3.75,1.55,4.91,2.77,1.83,1.93,3.15,3.32,8,.63l.36-.2,4.44-.34c1.76-1.87,3.75-4.1,6-6.66,13.4-15.11,33.66-37.94,52.08-33.83a9.33,9.33,0,0,1,6.07,5c10.39,19.44-14,89.38-14.24,90.07l-.62-.22c-.66,31.57-7.77,47-13.08,55.8-1,1.68-1.85,3.27-2.68,4.8-2.83,5.23-5.28,9.74-11,14-2.88,2.07-6.8,2.68-11.34,3.39-5.67.89-12.09,1.89-17.2,6.07C233.78,278.38,221.22,289,209.52,289Zm-21.7-13.13c.74.6,10.92,8.76,20.86,9.41,10.48.55,23.12-10,23.25-10.16,5.92-4.84,13.17-6,19-6.88,4.07-.64,7.59-1.19,9.71-2.72,5-3.77,7.18-7.76,9.91-12.8.85-1.57,1.73-3.19,2.76-4.93,8.24-13.74,12.12-30.51,12.57-54.42h2.4l-1.57-.57c7.69-21.37,22-73,14.46-87.07a5.72,5.72,0,0,0-3.66-3.14c-16.25-3.64-35.63,18.22-48.46,32.68-2.4,2.71-4.66,5.26-6.59,7.28l-.49.52-5.07.38c-7.12,3.78-10.13.6-12.14-1.51-1-1-1.57-1.62-2.29-1.62h-.16c-.83-.06-1.27.29-2.34,1.33-1.64,1.6-4.11,4-9.72,1.8a9.25,9.25,0,0,1-1.89-.68,11.74,11.74,0,0,0-3.11-1,6,6,0,0,0-2.26,1,10.33,10.33,0,0,1-5,1.8c-4.42.59-9.37-1.92-12.51-4.14a67.11,67.11,0,0,1-6.11,7.39l-.85.88-1.14-.44c-8.8-3.36-16.15-11.93-23.25-20.21a121.77,121.77,0,0,0-10.67-11.47l-.11-.1c-10.57-11.11-18.64-15.74-23.55-17.67a19,19,0,0,0-7.47-1.59c-8.66,11.92-3.86,34.33-.66,49.24.27,1.24.52,2.44.76,3.59,1.36,7.64,3.08,15.57,4.74,23.24q1,4.42,1.89,8.81c1,4.48,3.33,8.63,6,13.21A65.73,65.73,0,0,1,130,209.12a74.47,74.47,0,0,0,3.3,10.32l.09.26,2.62,10c1,4.93,15.78,33.44,24.47,36.67,2.53.87,5.63,1.58,8.92,2.34,7,1.59,14.35,3.29,18.42,7.13Z" transform="translate(-53.98 -93.56)" fill="#0f112e"/><path d="M262.08,196.55a9.33,9.33,0,0,0-7.34-6.7c-2.88-.72-5.91,0-8.43-.36.36-2.45,2.23-10.23-3.31-9.51-2.89,0-5.91,8.43-7.71,10.59-2.88,4.25-4.76,3.17-5.12-1.73-.72-5,1.8-11.67-2.23-12.68-2.88-.36-5.11,5.26-6.19,8.79-.36,1.73-2.24,3.17-1.52-9.15,0-3.17,0-11.67-1.8-12h-.72c-5.11.36-8.79,20.1-10.3,25.72-1.08-5.62-7-29.61-11.38-24.35-1.08,3.17-.36,4.54-.72,7.71,0,1.73-.36,13.76-1.8,11.67-.72-3.53-4.76-10.59-7-9.51-4,3.53-.72,8.43-1.8,13.4-.72,5-2.59,6-5.11,1.44-1.52-2.16-4-10.59-7-10.95-5.12-.72-3.67,7.06-3.67,9.51-2.6,0-5.48-.72-8.43-.36a10,10,0,0,0-7.71,6.34c-.36.72,0,27.08,24.2,27.51a25,25,0,0,0,10.3-1.73c2.24-.72,4-2.44,5.91-1.08l24.92,1.73c1.8-1.44,3.68-2.45,5.48-1.73,3.31,1.44,8.07,3.89,12.1,3.89,12.46,0,23.48-5,27.08-16.2,1.16-.44-.36-9.58-.72-10.3Z" transform="translate(-53.98 -93.56)" fill="#eca45b"/><path d="M160.3,200.44s15.42-1.44,19.45.72c8.07,3.89,9.15,12.67,9.15,11.67,0,0-4.76,1.72-6.2,1.72a69.59,69.59,0,0,1-7.7.72C162.53,213.83,160.3,200.44,160.3,200.44Z" transform="translate(-53.98 -93.56)" fill="#fff"/><path d="M257,202.52s-15-2.16-19.45-.36c-8.43,3.53-9.87,12.32-9.87,11.24l5.91,2.16a25.36,25.36,0,0,0,7.71,1.08c12.75-.72,15.7-14.12,15.7-14.12Z" transform="translate(-53.98 -93.56)" fill="#fff"/><path d="M228.37,213.11c1.08.36,4.76,1.73,5.91,2.16a27.14,27.14,0,0,0,6.63,1.09h.72c11-.37,14.69-11.67,15-13.4a84.56,84.56,0,0,0-12.82-1.08,20,20,0,0,0-5.91.72,16.45,16.45,0,0,0-9.51,10.51Z" transform="translate(-53.98 -93.56)" fill="#fff"/><path d="M195.74,238.11c-1.08-5.62.36-11.24,1.51-16.93,0,0,3.68-12,9.51-13,15-2.81,16.5,30.33,16.5,30.33-17.65,7.78-27.52-.36-27.52-.36Z" transform="translate(-53.98 -93.56)" fill="#f3773f"/><path d="M248.54,242.36c-1.08-2.45-5.47-4.54-8.79-5-7-.72-30.75,4.54-30.75,4.54l-.08.21c-3.09-.86-24.34-6.55-30.75-5.9-3.32.36-8.07,2.16-9.15,4.53-1.8,3.53.36,8.14,2.23,12,2.23,4.25,7.35,10.59,12.46,13.76a12.09,12.09,0,0,0,6.63,2.16c18.3.36,19.45-10.52,19.45-10.16l.29-1.87.07.07c.72,0-1.51,11.24,16.49,11.24,2.24,0,4.4.72,6.63-.36,5.12-3.17,10.59-9.15,12.82-13.4,1.73-3.67,4.32-7.92,2.45-11.81Z" transform="translate(-53.98 -93.56)" fill="#eca45b"/><path d="M195.38,238.83c.72-2.16,14.7.36,14.7.36s12.1-2.81,13.9.36c.36.72-1.51,3.17-1.51,3.17s-5.12-.36-6.2.72c-1.51,1.44-2.23,8.14-1.8,8.14s-2.59,3.53-4,3.53c-1.08,0-4.4-2.45-4-2.81s-.36-7.42-2.23-8.79c-1.08-1.08-5.11.36-6.63-.36-.72-1.15-2.16-4.32-2.16-4.32Z" transform="translate(-53.98 -93.56)" fill="#ce4a28"/><path d="M180.11,199.72c-1.8-.72-4.75-1.09-9.87-1.09s-9.94.37-10.3.37H158.5v1.44s2.88,14.4,16.14,15.84h0a82.3,82.3,0,0,0,8.42-.36c1.08-.36,7-1.73,7-1.73S190.05,203.24,180.11,199.72Zm2.23,13c-1.8.72-5.47.72-7,.72-4.76-.36-8.43-2.81-11-7.06a16.33,16.33,0,0,1-2.23-5c1.87,0,4.76-.36,8.43-.72a23.57,23.57,0,0,1,2.45.08c-.36,2.81-.94,10,1.94,9.5s3.39-6,3.61-8.64a2.75,2.75,0,0,0,.43.14,16.53,16.53,0,0,1,8.07,9.51,21.06,21.06,0,0,1-4.7,1.5Z" transform="translate(-53.98 -93.56)" fill="#131840"/><path d="M257.69,201.08A126.73,126.73,0,0,0,244.15,200a25.86,25.86,0,0,0-6.63.72,18.84,18.84,0,0,0-10.3,10.59l-.65,3.24,7.28,2.45a29.54,29.54,0,0,0,7,1.08h0L242,218c13.18-.72,16.85-15.13,16.85-15.13l.36-1.44Zm-5.11,7.42c-2.24,5.62-11.75,6.7-12.11,6.7a24.23,24.23,0,0,1-6.19-1.08c-.72-.36-2.59-1-4.39-1.73h0a15.43,15.43,0,0,1,8.42-8.78c.08,2.73.65,8,3.32,8.5s2.52-6.27,2.3-9.23a89.61,89.61,0,0,1,11.24.73C254.81,205,253.3,206.41,252.58,208.5Z" transform="translate(-53.98 -93.56)" fill="#131840"/><path d="M143,221.9a23.8,23.8,0,0,0,11.74,12.68c3.68,2.16,7-3.53,3.32-5.62s-7-5-8.43-8.79S141.5,218,143,221.9Z" transform="translate(-53.98 -93.56)" fill="#eca45b"/><path d="M262.8,234.58c4-2.81,8.43-5.26,11-9.87,2.23-3.53-3.68-7.06-5.91-3.17-1.8,3.17-5.48,5.26-8.79,7.42-1.51,1.08-2.23,2.81-1.08,4.54a3.45,3.45,0,0,0,4.75,1.08Z" transform="translate(-53.98 -93.56)" fill="#eca45b"/><path d="M194.66,269.52a1.62,1.62,0,0,1-1.51-1.45,1.34,1.34,0,0,1,1.51-1.44c13.18-1.08,14.26-8.78,14.7-9.14a1.11,1.11,0,0,1,1.51-1.08,1.62,1.62,0,0,1,1.51,1.44c0,.36,0,7.7,13.9,8.14a1.63,1.63,0,0,1,1.52,1.44,1.56,1.56,0,0,1-1.52,1.44c-7,0-11.74-2.16-14.69-5.62a2.73,2.73,0,0,1-.72-1.44c-2.67,3.1-7.06,7-16.21,7.71Z" transform="translate(-53.98 -93.56)" fill="#131840"/><path d="M223.62,239.91c.36.72-1.51,3.17-1.51,3.17s-5.12-.36-6.2.72c-1.51,1.44-2.23,8.14-1.8,8.14s-2.59,3.53-4,3.53c-1.08,0-4.4-2.45-4-2.81s-.36-7.42-2.23-8.79c-1.08-1.08-5.12.36-6.63-.36C196.1,243.15,195,240,195,240" transform="translate(-53.98 -93.56)" fill="#ce4a28"/><path d="M210.08,256.84c-1.8,0-5.91-4.54-5.48-5,0-1.44-.72-6.34-1.51-7.42H200.5c-1.52,0-2.89.36-3.68-.36-1.51-.72-2.59-3.17-2.88-4.25a1.22,1.22,0,0,1,.52-1.65l.2-.08a1.3,1.3,0,0,1,1.74.59l.06.13a4.92,4.92,0,0,0,1.8,2.81h2.24c1.8,0,3.31-.36,4.39.72,2.23,1.73,2.59,7.71,2.59,8.14v1.44a8.14,8.14,0,0,0,2.6,1.73,19.81,19.81,0,0,0,2.59-2.45,16,16,0,0,1,.36-3.53c.72-3.89,1.8-5,2.23-5.26,1.08-1.08,4.4-1.08,6.63-1.08.36-.72.72-1.08.72-1.44,0-.72,0-1.08.72-1.44s1.51-.36,1.8.36c.36.36,1.08,1.73-1.8,5-.36.36-.72.72-1.08.36-2.23,0-4.75,0-5.11.36-.72.72-1.52,5-1.52,6.34v.72c-.43,1-3.38,4.9-5.54,5.26Z" transform="translate(-53.98 -93.56)" fill="#131840"/><path d="M129.83,194.1c6.2-5.62,9.87-17.94,11.38-27.81-.36,1.44,10.59,1.73,16.86-5,4.39-4.54,1.8-8.14-.72-13.76-7-14.4-18.66-25.71-30-36.3-2.88-2.81-5.91-9.87-11-8.14-4,1.44-3.67,13-2.88,16.57C117.73,150.08,129.83,194.1,129.83,194.1Z" transform="translate(-53.98 -93.56)" fill="#fff"/><path d="M281.89,190.93c-5.9-5.62-12.1-17.29-13.18-26.8,0,1.44-10.59,1.44-16.49-5.26-4-4.54-1.52-7.71,1.51-12.68,7.71-13,19.81-23.26,31.48-33.13,3.31-2.45,6.62-6,11.38-3.89,4,1.73,2.88,9.51,2.23,12.68-6,33.85-16.93,69.08-16.93,69.08Z" transform="translate(-53.98 -93.56)" fill="#fff"/><path d="M282.61,145.11c-8.06,2.09-16.85,6.63-20.74,14.19-1.73-8.93,6.7-18.94,13.83-23.69,2.23-1.44,0-5-2.23-3.53-8.79,6.34-18,18.29-15.42,29.24a2,2,0,0,0,2.45,1.37l-.29,1.15c-.36,2.45,3.68,3.53,4,1.08,1.8-8.78,11-13.76,19.44-15.84,2.6-.8,1.44-4.69-1.08-4Z" transform="translate(-53.98 -93.56)" fill="#ec652a"/><path d="M135.67,135.61c-2.24-1.44-4,1.72-2.24,3.53,5.84,4.1,12.9,12.46,13.83,20.16-3.81-7.56-12.39-12.1-20.74-14.19a2,2,0,1,0-1.08,3.89h0c8.43,2.16,17.57,7.06,19.45,15.85a2.09,2.09,0,0,0,3.17,1.08,2,2,0,0,0,3-1.08c2.88-10.95-6.63-23.27-15.41-29.24Z" transform="translate(-53.98 -93.56)" fill="#ec652a"/><path d="M155.84,141.58c-6.2-10.58-15-19.37-23.85-27.8l-9.51-10.59c-1.8-1.73-5.47-2.45-7.7-.36-4.76,4.25-3.68,13.4-2.89,19,1.52,11,3.68,21.54,6.2,32.05,2.91,13.78,6.19,27.12,9.91,40.5a1.15,1.15,0,0,0,1.08,1.09c.36.36,1.08,0,1.8-.36,7-6.7,9.87-16.93,11.38-26.44,4.39.72,11.74-2.45,13.54-3.53,10.74-6,4.83-15.78.08-23.56Zm-2.6,21.9a19.7,19.7,0,0,1-6.19,2.16c-.72,0-4,0-4,.36-.36-1.44-2.88-1.72-3.31,0-1.51,8.43-3.67,17.94-9.15,24.64-6.19-22.91-11.74-46.46-15.41-69.8-.72-3.89-1.08-21.11,6.19-13.76l7,8.14c3.31,3.17,6.63,6.7,9.87,9.87A93.69,93.69,0,0,1,155.4,149c1.08,2.16,2.24,3.89,2.6,6,1.87,3.53-1.8,6.7-4.76,8.5Z" transform="translate(-53.98 -93.56)" fill="#131840"/><path d="M292.55,106.72c-3.31.36-6.19,2.81-8.42,5-4.4,3.89-8.79,7.42-13.19,11.24a109.73,109.73,0,0,0-20.16,24.63c-4.4,7.42-.73,13.4,7,16.93,1.51.72,6.63,2.45,9.87,2.16A50.44,50.44,0,0,0,280.81,192a3.25,3.25,0,0,0,1.8.36q.54,0,1.08-1.08c4-12.68,7.35-25.72,10.59-38.76a327.13,327.13,0,0,0,6.63-32.77c.43-6,0-13.4-8.36-13ZM297.24,119c-1.52,15.85-6.2,32.05-10.3,47.61-1.81,7.06-3.68,14.12-5.91,20.82a48.38,48.38,0,0,1-11-23.92c-.36-1.72-2.88-1.44-3.32,0,.36-1.08.72-.72-.72-.36a18.63,18.63,0,0,1-4.39-.72c-4-1.08-9.87-3.89-10.3-8.42-.36-3.17,3.31-7.42,5.11-10.23a128.19,128.19,0,0,1,8.43-10.95,178.53,178.53,0,0,1,17.58-16.21c2.59-2.16,5.11-4.54,8.43-6.34,6.84-3.6,6.84,5.26,6.41,8.72Z" transform="translate(-53.98 -93.56)" fill="#131840"/><path d="M209.82,316.17c-9.91,0-25.43-8.53-33.95-13.71-13.29-8.08-21.21-13.06-26-19.29l-.3-2.13c-.38-2.78,1.72-5.39,5.06-6.28h0c9.2,11.94,44.72,33.48,55,33.48H210c10.68-.55,43.59-22.29,54.71-34.69l3.84,2.16,1.86,5c-5.67,6.33-14.67,12.9-26.72,20.69-10,6.48-23.88,14.3-33.06,14.76Z" transform="translate(-53.98 -93.56)" fill="#63656b" stroke="#231f20" stroke-miterlimit="10" stroke-width="4"/><path d="M208.16,107.51c37.58-1.46,43.62,35.37,43.06,42l-2.63,15.17v-.05s-7.53-20.12-38.55-22.56c-27.32-2.15-40.64,18.43-43.43,23.39l-1.88-15.95S164.73,109.21,208.16,107.51Z" transform="translate(-53.98 -93.56)" fill="#2e50db"/><path d="M248.59,164.67v.05a4.07,4.07,0,0,1-6.89,2.94c-5.65-5.53-15.45-11.64-31.66-12.91-18.15-1.44-30.11,7.17-36.93,14.56a4.07,4.07,0,0,1-7.07-2.76s.18-.38.57-1.05h0c2.79-5,16.11-25.54,43.43-23.39C241.06,144.55,248.59,164.67,248.59,164.67Z" transform="translate(-53.98 -93.56)" fill="#3d62e8"/><path d="M208,101.46c3.17,0,5.75,1.71,5.75,3.81s-2.58,3.82-5.75,3.82-5.75-1.71-5.75-3.82S204.82,101.46,208,101.46Z" transform="translate(-53.98 -93.56)" fill="#231f20"/><path d="M166.61,165.5c-.39.67-.57,1.05-.57,1.05a4.07,4.07,0,0,0,7.07,2.76c6.82-7.39,18.78-16,36.93-14.56,16.21,1.27,26,7.38,31.66,12.91a4.07,4.07,0,0,0,6.89-2.94v-.05s-7.53-20.12-38.55-22.56c-27.32-2.15-40.64,18.43-43.43,23.39" transform="translate(-53.98 -93.56)" fill="none" stroke="#231f20" stroke-miterlimit="10" stroke-width="3.8"/><path d="M248.59,164.72l2.63-15.17c.56-6.67-5.48-43.5-43.06-42-43.43,1.7-43.43,42-43.43,42l1.88,15.95h0" transform="translate(-53.98 -93.56)" fill="none" stroke="#231f20" stroke-miterlimit="10" stroke-width="3.8"/><polygon points="164.83 257.32 163.75 276.86 148.58 279.13 160.31 259.62 164.83 257.32" fill="#606060"/><path d="M225.29,335.55c2.12,7.83-.34,10.39-1.28,11.79s-11.42,4-11.42,4v-7a9.88,9.88,0,0,0,.56-9.5L218,327a.93.93,0,0,0,0-1S223.17,327.72,225.29,335.55Z" transform="translate(-53.98 -93.56)" fill="#606060"/><path d="M215,326.16l2-.55a.91.91,0,0,1,1,.37.93.93,0,0,1,0,1l-4.93,7.87a9.88,9.88,0,0,1-.56,9.5c-5.17,4.56-13.68,3.65-13.68,3.65l-1.07.29-.09-.35s2-1.13,2.52-4.62a11.57,11.57,0,0,0-1-6.2s1-5.7,4.12-7.69l4.52-1.27Z" transform="translate(-53.98 -93.56)" fill="#606060"/><path d="M212.55,344.35v7l.07,17.54-8.87,1.33-6-21.93,1.07-.29S207.38,348.91,212.55,344.35Z" transform="translate(-53.98 -93.56)" fill="#606060"/><path d="M218,326a.93.93,0,0,1,0,1l-4.93,7.87a9.88,9.88,0,0,1-.56,9.5v7l.07,17.54-8.87,1.33-6-21.93-.09-.35s2-1.13,2.52-4.62a11.57,11.57,0,0,0-1-6.2s1-5.7,4.12-7.69l4.52-1.27,7.19-2,2-.55A.91.91,0,0,1,218,326Z" transform="translate(-53.98 -93.56)" fill="none" stroke="#231f20" stroke-miterlimit="10" stroke-width="4"/><path d="M198.87,348s8.51.91,13.68-3.65" transform="translate(-53.98 -93.56)" fill="none" stroke="#231f20" stroke-miterlimit="10" stroke-width="4"/><path d="M212.59,351.35s10.48-2.62,11.42-4,3.4-4,1.28-11.79S218,326,218,326" transform="translate(-53.98 -93.56)" fill="none" stroke="#231f20" stroke-miterlimit="10" stroke-width="4"/><path d="M207.84,328.16s-.86-7.09,3.3-7c3.57.06,3.87,3.94,3.89,5a1.89,1.89,0,0,1,0,.27" transform="translate(-53.98 -93.56)" fill="none" stroke="#231f20" stroke-miterlimit="10" stroke-width="4"/><line x1="159.05" y1="240.81" x2="145.14" y2="243.08" fill="none" stroke="#231f20" stroke-miterlimit="10" stroke-width="4"/><g style="isolation:isolate"><path d="M203.71,116.59l1.59,12.1c.54,4.08-2.14,5.92-5.46,6.36a11.52,11.52,0,0,1-4.6-.3l-.46-3.47a7.16,7.16,0,0,0,3.71.47c1.86-.24,3.29-1,3-3l-1.1-8.34-4.6.6-.44-3.34Z" transform="translate(-53.98 -93.56)" fill="#fff"/></g><g style="isolation:isolate"><path d="M216.17,116.71a12,12,0,0,1,5.46,2l-.43,3.47A9.24,9.24,0,0,0,216,120c-1.89-.21-2.89.2-3,1.26-.37,3,9.27,3.06,8.5,9.24-.48,3.89-3.76,4.72-7.4,4.27a13.41,13.41,0,0,1-6.23-2.36l.44-3.55a11.21,11.21,0,0,0,5.92,2.6c2,.25,3.3,0,3.46-1.26.4-3.25-9.25-3.21-8.48-9.36C209.62,117.51,212.74,116.29,216.17,116.71Z" transform="translate(-53.98 -93.56)" fill="#fff"/></g><polyline points="166.59 256 164.3 275.01 158.69 275.33" fill="none" stroke="#231f20" stroke-miterlimit="10" stroke-width="4"/><line x1="156.56" y1="211.89" x2="156.83" y2="227.18" fill="none" stroke="#231f20" stroke-linecap="round" stroke-linejoin="round" stroke-width="6"/><path d="M101.85,376.88c.51-2,12.53-48.48,18-57.2,4.2-6.74,17.47-23.11,25.41-32.89,2.22-2.74,4-4.9,4.88-6,.06-.08,1.47-2-1.28-12.9a5.85,5.85,0,0,1,1-5.08,6,6,0,0,1,4.66-2.3,6.18,6.18,0,0,1,1.89.31l27.72,10.57,7.54,26.54L193.54,379l-92.33.44Z" transform="translate(-53.98 -93.56)" fill="#231f20"/><path d="M154.54,262.46a4,4,0,0,1,1.25.21l26.71,10.18,7.2,25.33L191.5,377l-87.71.42s12.38-48.08,17.72-56.64,26.13-33.62,30.17-38.77c1.75-2.23.47-9.19-.91-14.62a3.92,3.92,0,0,1,3.77-4.89m0-4a8,8,0,0,0-6.24,3.07,7.86,7.86,0,0,0-1.41,6.8c2.08,8.19,1.63,10.87,1.51,11.35-.93,1.17-2.62,3.25-4.73,5.85-8,9.82-21.28,26.24-25.55,33.09-5.51,8.83-16.92,52.78-18.2,57.76l-1.3,5h5.19l87.71-.42h4.07l-.09-4.07-1.81-78.78v-.51l-.14-.49-7.2-25.33-.55-1.93-1.87-.72L157.23,259h-.16a7.79,7.79,0,0,0-2.52-.42Z" transform="translate(-53.98 -93.56)" fill="#231f20"/><path d="M121.51,320.74c-5.34,8.56-17.72,56.64-17.72,56.64L191.5,377l-1.8-78.78-1-2L151.7,282C147.64,287.12,126.85,312.17,121.51,320.74Z" transform="translate(-53.98 -93.56)" fill="#2e50db"/><path d="M228.91,379l1.85-81.12,10-29.64,27.76-5.38a4,4,0,0,1,.86-.09,4.35,4.35,0,0,1,3.44,1.72,4.26,4.26,0,0,1,.7,3.76c-2.17,7.63-2,11.52-1.21,12.54s2.65,3.31,4.88,6.06c7.93,9.77,21.21,26.14,25.41,32.88,5.44,8.72,17.46,55.23,18,57.2l.65,2.51Z" transform="translate(-53.98 -93.56)" fill="#231f20"/><path d="M269.41,264.72a2.31,2.31,0,0,1,2.22,2.94c-1.27,4.47-2.89,11.73-.86,14.31,4,5.15,24.82,30.2,30.16,38.77s17.73,56.64,17.73,56.64L231,377l1.8-78.78L242.36,270,269,264.81a2.8,2.8,0,0,1,.48,0m0-4a6.74,6.74,0,0,0-1.26.13L241.55,266l-2.28.44-.75,2.21L229,296.9l-.19.58v.61L227,376.87l-.09,4.07H231l87.71.42h5.18l-1.29-5c-1.28-5-12.69-48.93-18.2-57.76-4.27-6.85-17.6-23.27-25.56-33.09-2.16-2.66-3.88-4.79-4.79-5.94-.27-.7-.49-3.85,1.5-10.84a6.24,6.24,0,0,0-1-5.51,6.34,6.34,0,0,0-5-2.52Z" transform="translate(-53.98 -93.56)" fill="#231f20"/><path d="M300.93,320.74c5.34,8.56,17.73,56.64,17.73,56.64L231,377l1.8-78.78,1-2,37-14.17C274.8,287.12,295.59,312.17,300.93,320.74Z" transform="translate(-53.98 -93.56)" fill="#2e50db"/><path d="M263.59,282l28.58,38.27a31.45,31.45,0,0,1,6.24,11.32L314,381.51" transform="translate(-53.98 -93.56)" fill="none" stroke="#fff" stroke-miterlimit="10" stroke-width="4"/><path d="M255.25,286l28.59,38.27a31.6,31.6,0,0,1,6.24,11.32l15.59,50" transform="translate(-53.98 -93.56)" fill="none" stroke="#fff" stroke-miterlimit="10" stroke-width="4"/><path d="M241.47,380.38H343.38l20.28-106.46a8.16,8.16,0,0,0-6.49-9.54L270.6,247.89a8.15,8.15,0,0,0-9.54,6.47h0l-22.5,118.12A8.18,8.18,0,0,0,241.47,380.38Z" transform="translate(-53.98 -93.56)" fill="#63656b" stroke="#231f20" stroke-miterlimit="10" stroke-width="4"/><path d="M334.46,254.54a4.47,4.47,0,0,1-3.34-2.6c-1.37-3.29-6.93-6.55-14-7.9s-13.44-.35-15.92,2.2a4.49,4.49,0,0,1-4.06,1.19l-.41-.08a2.16,2.16,0,0,0-2.52,1.72l-1.69,8.86,42,8,1.69-8.85a2.16,2.16,0,0,0-1.71-2.53h0Z" transform="translate(-53.98 -93.56)" fill="#999" stroke="#231f20" stroke-miterlimit="10" stroke-width="4"/><path d="M309.15,278.11l-30.54-2.47-10.28,54.9L295,354l33.29-12.22,10.27-54.9-29.06-8.65Zm15.59,60.68L295.8,349.41,272.67,329l4.21-22.5,23,20.28-.48,2.8-15.8-13.91-.53,2.71,15.84,14.07-.49,2.88-15.86-14-.54,2.71L297.9,338.2h0l20-7.41.51-2.73h0l.17-.93.21-1.12,1.28-6.82L329,315.9Zm4.8-25.8-7.9,2.86L318,317.17l-13.94-12.26-.53,2.71,11.91,10.48h-.13l-.32.11-2.12.77-9.87-8.6-.54,2.71,7.77,6.82-2.32,1h-.06l-5.85-5.1-.53,2.71,3.85,3.35-4.91,1.83L277.5,303.54l28.74-10.7h0Zm.54-2.73-23.29-20.33h0L278,300.5l3.85-20.6L308.4,282l25.52,7.6Z" transform="translate(-53.98 -93.56)" fill="#231f20"/><path d="M345.43,344.33c-14-2-17.1-4.56-23.57-7.51-5.31-2.43-6.5,5.09-6.55,5.31-2.8,11.06,6.74,13.48,5,14.42-4.76,2.51-5,17.54,9.74,19.1l6,2,1.14.28c4.22.54,15.14-.35,17.85-15.26,1.32-7.32,1.91-14.31,1.91-14.31s5.57-4.87,7.18-7.63c4.72-8.13-4.6-15.46-11.74-16.26l-1.75.42s-12-1.14-14.77-2.59c-9.27-4.84-19.45,5-14.21,13.87.13.22.27.44.42.67" transform="translate(-53.98 -93.56)" fill="#eb532a" stroke="#0f112e" stroke-miterlimit="10" stroke-width="3.63"/><path d="M318.86,355c7.8,4.2,13.24,6.07,18.9,6.69" transform="translate(-53.98 -93.56)" fill="#eb532a" stroke="#0f112e" stroke-miterlimit="10" stroke-width="3.63"/><path d="M352.47,363.69c7.65-2.52,9-8.63,8.29-12.38-.47-2.42-3.19-4.33-6.19-4.4" transform="translate(-53.98 -93.56)" fill="#eb532a" stroke="#0f112e" stroke-miterlimit="10" stroke-width="3.63"/><path d="M155.17,283.31,128.52,319a33.42,33.42,0,0,0-6.59,12l-15.59,50,3.82,1.19,15.59-50a29.47,29.47,0,0,1,5.85-10.61l27.46-36.75Z" transform="translate(-53.98 -93.56)" fill="#231f20"/><line x1="1.9" y1="286.82" x2="325.54" y2="286.82" fill="none" stroke="#231f20" stroke-linecap="round" stroke-linejoin="round" stroke-width="3.8"/><path d="M164,286.67,136.86,323a33.3,33.3,0,0,0-6.6,12l-14.17,45.41h4.19l13.81-44.23a29.45,29.45,0,0,1,5.84-10.61l27.94-37.38Z" transform="translate(-53.98 -93.56)" fill="#231f20"/></svg>