<svg width="100" height="100" viewBox="0 0 100 100" xmlns="http://www.w3.org/2000/svg"><path fill="#F15A29" d="M18.11 79.07L50 97.7l31.89-18.63V21.11L50 17.83l-31.89 3.28z"/><path fill="#151841" d="M50 100L16 80.14V19.5L50 16l34 3.5v60.64L50 100zM19.04 78.44L50 96.53l30.96-18.09V22.19L50 19l-30.96 3.19v56.25z"/><path fill="#292E59" d="M24.82 26.02l-1.53 2.56 5.72 3.31.86.47-.29.47.57.38-1.62 2.85.57.57h.1c-.1.47-.1 1.04.38 1.33l.57.38c-.19.38-.19.57-.19.57l1.44.09 6.48 3.6c-.38.66-.86 1.42-1.33 2.28-1.14 2.47-1.05 4.17 1.33 5.6 0 0 2.86 1.42 4.39 2.09.57.28.57 1.61 1.05 1.33l-5.15 8.73s0 .28.1.57l-2.38 5.22 1.33.66-10.4 20.86-.29.47.19.1-.29.47c-.1.19-.1.47.1.66l5.91 2.66L43.7 71.28l3.43 1.33s3.62-6.64 4.1-9.49c.38-2.85 1.24-6.26 2.77-7.3s4.48-1.04 4.48-1.04l.29-.1 1.91.95v.19c-.38.66-.19 1.42.29 1.71.48.28 1.14 0 1.53-.66l.1-.19 4.58 2.66c.29.19.57.1.76-.19l.76-1.23.95.57 4.1-7.02c.29-.47.29-.95.1-1.42l.86-1.61s-.77-1.01-1.55-.34c-.19.1-.7.73-.7.73l-2.04-1.14-.76.1-19.19-10.93-.86-.47-5.72-3.23.29-.47c.29-.47.1-1.14-.38-1.42h-.1c-.48-.28-1.14-.1-1.43.38l-.29.47-4.29-2.47.29-.47c.19-.28.19-.66-.1-1.04l-1.33-1.71c-.29-.38-.86-.28-1.05-.1l-1.05 1.8-.29-.1-.48.85-.29.56-.76-.27-.38.57-.57-.38-.29.38-.67-.38-5.9-3.34zM38.55 43l5.72 3.32c-.1.85-.29 2.09-1.53 3.32-.86.85-1.14 1.14-.95 1.33.1.19.86 1.8 2.48.19.67-.66 1.91-3.04 1.62-3.98l.57.28-2.38 4.17s0 .1-.1.19c-.29.47-.86.38-1.24.19-1.43-.66-4.1-1.9-4.29-2.09-2.1-1.33-2-2.66-1.05-4.74.3-.76.77-1.52 1.15-2.18z"/><path fill="#151841" d="M74.39 44.04c-1.72-.47-3.05-.57-4.67-.66-2.38-.1-5.34-.28-10.3-1.99v.01l-8.68-4.94-.86-.47-5.23-3.04c.29-.38.29-.85.19-1.23-.1-.38-.38-.76-.76-.95h-.1c-.19-.1-.48-.19-.76-.19a1.5 1.5 0 0 0-1.33.76l-3.34-1.9c.29-.57.19-1.14-.1-1.61l-1.53-1.8c-.19-.19-.57-.38-.95-.38-.37 0-.67.19-.86.47l-.76 1.42-.29-.1-.86 1.52-.76-.38-.38.57-.57-.38-.29.38-6.58-3.7-2 3.51 6.58 3.7-.29.47.48.28-1.63 2.85.76.66c-.1.57.1 1.23.67 1.52l.19.1c-.1.19 0 .38 0 .47l.1.38 1.62.1 5.91 3.32c-.29.47-.67 1.14-1.05 1.8-1.72 3.7-.1 5.31 1.53 6.26.1 0 2.96 1.42 4.39 2.09.1 0 .19.38.29.57l.29.57-4.86 8.35v.1c0 .1 0 .38.1.66l-2.48 5.5 1.33.66-10.12 20.39s-1.12 1.7-.1 2.28l.1.1 6.39 2.94 11.44-22.95 3.43 1.33.19-.38c.1-.28 3.62-6.74 4.1-9.68.57-3.6 1.53-6.17 2.57-6.92 1.33-.85 4.47-1.03 4.47-1.03l1.24.66c-.38.76-.1 1.61.57 1.99.19.1.38.19.67.19.48 0 .95-.28 1.33-.76l2.86 1.71c-.1.28-.19.66-.1.95.1.28.19.57.48.66.1.1.29.1.48.1.48 0 .86-.19 1.14-.66l.1-.28c.19-.1.38-.28.48-.47l.48-.85.95.57 1.41-2.45 2.03 1.13L78 48.83v-.1c.22-1.18-.26-3.64-3.61-4.69zM29.36 31.52l-5.4-3.05.95-1.71 5.4 3.05c-.18.68-.59 1.2-.95 1.71zm11.86 19.26c-1.24-.57-2.48-1.14-2.67-1.23-1.81-1.14-1.72-2.18-.86-4.08.38-.66.76-1.33 1.05-1.8l4.96 2.85c-.1.85-.38 1.8-1.33 2.75-.58.56-1.05 1.03-1.15 1.51zm28.13 6.83l-.95-.57-.95 1.71-5.05-2.85-.29.57c-.19.38-.57.66-.86.47-.29-.1-.38-.47-.1-.95l.38-.57-2.57-1.33s-3.72.28-5.15 1.33c-1.72 1.23-2.57 4.84-2.96 7.68-.38 2.37-3.05 7.49-3.81 8.92l-3.53-1.33-11.15 22.87-5.32-2.58.35-.63 10.58-21.26-1.33-.66 2.29-5.03-.1-.19c-.1-.1-.1-.19-.1-.19s5.61-10.91 5.61-11l.19-.38c.48-.47 2.48-4.19 2.48-4.19l-1.43-.82c.07.26-.2 1.42-.49 2.06 0 0-.88 2.04-2.29 2.75-.25.13-.48-.28-.67-.57l.87-.85c1.33-1.33 1.62-2.66 1.72-3.7v-.29l-6.39-3.7-6.77-3.79-.86-.1.19-.28-1.05-.57c-.19-.1-.29-.47-.19-.76l.1-.38-.38-.19-.29-.28 1.72-2.94-.57-.38 1.51-2.56.57.28.38-.57.76.38.86-1.52.29.1 1.33-2.09c.1 0 .1 0 .19.1l1.43 1.71c.1.19 0 .38 0 .47l-.48.85 5.15 2.94.48-.85c.1-.28.48-.38.76-.19h.1c.19.1.29.19.29.38 0 .1 0 .28-.1.38l-.48.85 6.1 3.51.86.47 19.36 10.81.61-.14 2.29 1.3s.57-1 1.08-.97c.1 0 .32.01.42.12l-.85 1.38.1.19c.1.28.1.66-.1.95l-3.79 6.67zm7.52-9.02l-4.2 7.97-1.06-.64 2.4-4.2c.29-.47.38-1.04.19-1.61l.95-1.8-.29-.28s-.48-.47-1.14-.47c-.38 0-.76.1-1.05.38-.1.1-.19.19-.29.38l-2.1-1.23-.57.19-6.65-3.79c2.85.68 4.87.81 6.56.95 1.53.1 2.86.19 4.39.66 2.97.93 2.86 3.12 2.86 3.49z"/><path fill="#fff" d="M72.93 82.81c-2.18-3.14-4.05-4.93-6.66-7.8-.67-.66-2.63-2.7-2.73-3l-.1-.28c-1.05-1.52-1.05-3.32-1.24-5.03-.19-1.8-.76-3.6-1.53-5.31-.76-1.61-.76-3.23-2.19-4.36-.67-.47-3.15-1.51-3.24-1.61-.95-1.04-2.97-1.9-4.11-2.18-1.05-.28-2.09-.19-3.13-.28-.95-.1-3.72-1.23-4-1.04 0 0-.95.38-1.05.47-.29.1-1.81-.38-1.91-.57-.76-.57-3.97-2.15-3.67 2.77.1.85 1.5 1.66 2.07 2.32v.19c-.19-.1-.93-.87-1.22-.97-1.05-.66-1.66-.25-2.24.89-.76 1.61-.19 2.75.76 3.7.38.38.29 1.04-.19 1.33-.29.19-.57.38-.76.66-.86 1.42-.57 2.75.76 3.79 3.72 1.59 5.28 1.47 5.28 1.47 1.17 0 2.54-1.39 2.54-1.47 0 0 .57-1.01.48-1.23 0 0 2.32.37 2.85-2.1 0-.1-.29-.95-.57-1.61-.1-.38 0-.66.29-.85.57-.28.58-1.36.95-1.83.1-1.14 3.81-.17 3.62 1.64 0 .28-1.43 1.04-1.62 1.9-.19.84-.67 2.09-.95 3.04-.38 1.33-.1 2.75-.19 3.04-.05.4-.1.77-.17 1.1-.14.76-1.75 3.7-1.75 3.7l-3.03-1.16s-.24.46-.35.7c-.43.92.13 2.1 1.85 2.95.38.19 3.18 1.52 3.37 1.61 1.72 1.04 1.81 1.77 2.96 3.38 1.24 1.71 2.38 5.16 3.53 6.96.99 1.71.7 3.23 1.7 4.64l15.74-9.28-.15-.29zM42.37 46.13c0-.1-.45-.71-.95-.85-.1-.19-.67-.28-.86-.19-.67-.19-1.33.66-1.91 1.23-.76.76-1.14 1.9-.48 2.85.19.28.48.38.67.47.1.1.19.19.48.28.67.1 2.29.38 2.19-.47.48-.19.38-.57.76-1.04.57-.77.57-1.71.1-2.28z"/><path fill="#151841" d="M59.11 58.76c1.62 3.32 2.23 6.53 2.72 10.14.38 3.23 3.05 5.41 5.05 7.78l3.43 3.98 2.1 2.56.76 1.04c.19.28.95 1.42 1.24.76.48-1.14-1.43-2.85-2-3.6l-4.29-5.03-2-2.37-2-2.18c-.86-1.04-1.14-2.18-1.33-3.41-.48-3.7-1.33-7.02-2.96-10.34-.18-.68-1.28-.51-.98.15l.26.52zm-2.45 16.77c1.43-.28 2.86-.57 4.1-1.52.57-.47 0-1.42-.57-.95-1.14.85-2.48 1.14-3.81 1.33-.76.19-.47 1.33.28 1.14zM54 59.22c-.38.85-1.5.44-2.55-.3-.67-.38-.38 1.1.27 1.48 1.24.76 2.55.71 3.22-.62.3-.66-.65-1.23-.94-.56zM43.13 73.54c.19.1.57.95.76 1.23.57.85 1.33 1.52 2.19 2.09 1.14.85 2.57 1.04 3.72 1.99 1.05.85 1.81 1.99 2.38 3.13.76 1.52 1.33 3.23 2 4.74l1.33 2.94c.48 1.23.95 3.89 2.29 4.55.67.28 1.24-.66.57-.95-.66-.28-.95-1.71-1.24-2.28-.38-.95-.67-1.9-1.05-2.75l-1.81-3.89c-.57-1.52-1.14-3.04-2-4.36-.57-.85-1.24-1.52-2-2.18-1.05-.85-2.48-1.23-3.62-1.99a7.973 7.973 0 0 1-2.19-2.18c-.29-.38-.48-.85-.86-1.14-.57-.28-1.14.67-.47 1.05zm16.1-16.31l-2-1.61-2.57-1.33c-.95-.76-3.53-1.61-3.72-1.61-.76-.38-1.43-.38-2.38-.28-.95.1-2.1-.19-3.05-.47-.86-.28-1.81-.47-2.67-.1-.1-.1-.1-.1-.29-.19-.67-.19-1.24-.47-1.72-.85 0-.05.62.21.6.17.5-.18.63-.66.97-1.14.48-.57 1.08-1.61 1.47-2.28.57-1.04-.45-1.68-1.12-2.45a.512.512 0 0 0-.26-.17c-.86-.97-2.24-1.03-3.36-.39-1.33.85-2 2.28-1.81 3.79l.05.17c.05.95.79 1.61 1.68 2.02a3.2 3.2 0 0 0-1.72 1.13c-.86 1.04-.76 2.37-.38 3.6-.57.19-1.43 1.14-1.43 1.25-.95 1.8-.57 3.41.57 4.74-1.14.47-1.72 1.23-1.81 2.66-.1 1.23.19 2.37 1.33 3.04 2 1.04 4.67 1.99 6.96 1.61 1.33-.19 2.48-1.42 2.57-2.75 0 0 .62-.05.71-.13 1.24-.38 2.06-1.01 2.24-2.32.1-.66-.19-1.33-.67-1.9.76-.28 1.33-1.04 1.53-2.18.86.19 1.72.38 2.38.95.67.57-1.24 1.9-1.62 2.47-.76 1.14-.86 3.04-1.05 4.36-.19 1.61-.1 3.6.86 4.93.95 1.33 2.57 2.18 4.2 2.18.76 0 .76-1.14 0-1.14-1.53 0-3.24-1.04-3.72-2.47-.57-1.52-.29-3.32 0-4.84.19-1.14.38-2.18 1.14-3.04.48-.47 1.24-1.14 1.33-1.9.19-2.18-3.15-2.75-4.77-2.85-1.91-.19-3.62-1.23-4.58-2.85-.48-.85-.86-1.9.29-2.28.57-.19 1.14 0 1.72.19 0 0 1.91.47 2.57.57h1.05c.86-.1 1.33 0 2.1.38.19.1 2.57 1.23 3.72 1.71 1.14.47 3.93 2.26 4.24 2.73.46.69.63.84.87.5 1.03.39-.22-1.38-.45-1.63zm-20.71-9.99c.36-1.45 2.18-2.83 3.55-1.32.86.9.66 1.55-.27 2.29l-.76.85c-.38.47-.95.57-1.53.28-.24-.1-.49-.28-.71-.47-.51-.37-.32-1.47-.28-1.63zm4.32 19.93c-.86.57-1.91.28-2.77.1-1.33-.28-2.67-.76-3.91-1.33-.76-.38-.76-1.14-.76-1.9 0-1.14.57-1.71 1.72-1.99l.38.28c1.53.95 3.34 1.61 5.05 2.28l1.43.76c.2.87-.56 1.44-1.14 1.8zm2.61-2.52c-.1 0-.57.13-3.29-1.35l-3.05-1.33c-1.53-.66-2.86-1.71-3.05-3.13-.18-2.09 1.37-2.61 1.51-2.64.86.95 1.81 1.71 2.96 2.37l4.1 2.66c1.94.53 2.29 1.52 2.29 2.28-.08.45-.69 1.1-1.47 1.14zm.83-5.91c.48.19.95.28 1.53.38-.38 3.13-3.91.1-5.24-.66-1.62-1.04-3.24-1.9-4.48-3.41-.19-.85-.38-1.71.1-2.56.38-.66 1.14-.95 1.81-.95.57.47 1.24.85 1.91 1.14-.67.95-.29 2.09.29 3.04 1.01 1.79 2.26 2.45 4.08 3.02z"/><path fill="none" stroke="#29323B" stroke-width=".5" stroke-miterlimit="10" d="M63.709999999999994 44.33"/><path fill="#4751A2" d="M69.62 48.12L37.89 30.29l-2.77 4.94 26.6 15.35 7.9-2.46z"/><path fill="none" d="M36.93 31.9l26.89 15.27"/><path fill="#151841" d="M37.31 31.53l26.94 15.32-.52.9-26.94-15.32.52-.9z"/><path fill="none" d="M35.68 34.37l26.89 15.27"/><path fill="#151841" d="M35.97 33.93l26.91 15.29-.52.91-26.91-15.3.52-.9z"/><path fill="none" d="M34.35 27.82l4.49 2.66"/><path fill="#151841" d="M39.1 30.04l3.16 2.7-8.22-4.27.45-.9 4.61 2.47zm-1.8 39.61c2.57.76 4.33 1.64 6.95 2.48 1.2.37 1.25-.68.57-.96-2.48-.95-4.1-1.52-8.1-2.94-.76-.28-.48.95.29 1.14l.29.28z"/></svg>