<svg width="78" height="78" viewBox="0 0 238 238" xmlns="http://www.w3.org/2000/svg"><path d="M153,41.2v25l11.7.5,11,2.5,9.9,3c1,.3,11.2,5.2,11.2,5.2l6.6,4s2.4-1.4,2-1.9c-.1-.1,0-.6.2-1.2A17.55,17.55,0,0,1,217.9,66l6.9-2L214,55.8,199.5,49l-15.2-4.8L167,40Z" transform="translate(-33.8 -38)" fill="#f9b326"/><path d="M152.9,248.1a90.9,90.9,0,1,1,90.9-90.9A90.9,90.9,0,0,1,152.9,248.1Z" transform="translate(-33.8 -38)" fill="#2f88d1"/><path d="M152.9,276.3A119.2,119.2,0,0,1,33.8,157.2C33.8,91.5,87.2,38,152.9,38S272,91.5,272,157.2A119.2,119.2,0,0,1,152.9,276.3Zm0-234.3C89.4,42,37.8,93.7,37.8,157.2a115.1,115.1,0,0,0,230.2,0C268,93.7,216.4,42,152.9,42Z" transform="translate(-33.8 -38)" fill="#2a2f5a"/><path d="M152.9,250.1a92.9,92.9,0,1,1,92.9-92.9A93,93,0,0,1,152.9,250.1Zm0-181.8a88.9,88.9,0,1,0,88.9,88.9A89,89,0,0,0,152.9,68.3Z" transform="translate(-33.8 -38)" fill="#2a2f5a"/><path d="M216.1,170.5c2.9-4.6.9-11.9.1-14.4,3.6-8.2-3.3-29.2-6.4-36.2-2.3-5.4-7.1-10.3-10.5-13.9a39.55,39.55,0,0,1-3.4-3.8,10.32,10.32,0,0,0-8.7-5.3c-.9-.1-.9-.1-1.4-1.1a8.85,8.85,0,0,0-2.3-3,5.64,5.64,0,0,0-4.9-1.4,2.85,2.85,0,0,1-2.7-.4c-3.7-2-5.2-1.2-10.1-1.2-5.7,0-6.8,8.8-7.2,11.7-1.1,4.7-1.6,19.3-1.6,31.5,0,4.6.1,9,0,11.2-.2,5.3.4,8.4,1.7,10.3-3.2,3.2-4.1,10.8-3.8,13.5a9.91,9.91,0,0,0,1.2,3.7c.6,1,.8,1.5-.1,3.7-2.1,5.3-.9,21.9,0,24.6a6.61,6.61,0,0,0,1.5,2.4c.7.8,1.5,1.6,1.6,5.7.2,8.6,14.6,12.4,18.3,12.4s9.8-2.8,10.3-3.1c13-5.1,17.8-15.7,20.6-22,.8-1.8,1.7-3.8,2.2-4.2,3.3-2.6,3.1-6.9,3-8.6A21,21,0,0,0,216.1,170.5Z" transform="translate(-33.8 -38)" fill="#d5dcf1"/><path d="M92.2,182.7c-.2,1.7-.3,6,3,8.6.5.4,1.4,2.4,2.2,4.2,2.8,6.3,7.6,16.9,20.6,22,.6.3,6.6,3.1,10.3,3.1s18.1-3.9,18.3-12.4c.1-4.1.9-4.9,1.6-5.7a5.83,5.83,0,0,0,1.5-2.4c.9-2.7,2.1-19.3,0-24.6-.9-2.2-.6-2.7-.1-3.7a7.27,7.27,0,0,0,1.2-3.7c.2-2.7-.6-10.3-3.8-13.5,1.3-1.9,1.6-4.9,1.5-10.3-.1-2.3,0-7.2,0-11.8,0-12.2,0-25.9-1.1-30.6-.4-2.9-1.1-13.8-6.8-13.8-4.9,0-7,.9-10.8,2.9a2.85,2.85,0,0,1-2.7.4,5.36,5.36,0,0,0-4.9,1.4,12.62,12.62,0,0,0-2.3,3c-.6,1-.6,1.1-1.4,1.1a10.32,10.32,0,0,0-8.7,5.3,29.17,29.17,0,0,1-3.4,3.8c-3.5,3.6-8.2,8.5-10.5,13.9-3,7-9.9,28-6.4,36.2-.8,2.4-2.8,9.7.1,14.4A21.42,21.42,0,0,0,92.2,182.7Z" transform="translate(-33.8 -38)" fill="#d5dcf1"/><path d="M192.1,142.3a4.3,4.3,0,0,0-.3-3.7,1.54,1.54,0,0,0-1.9-.5,1.35,1.35,0,0,0-.6,1.8c0,.1.8,1.5-1.4,3.6a22,22,0,0,0-2.2,2.4c-1.1,1.3-1.3,1.5-2.5,1.6-1.4.1-3.8-1.4-7.4-4.5a1.42,1.42,0,0,0-2,.1,1.3,1.3,0,0,0,.1,1.9c3,2.6,6.5,5.2,9.2,5.2h.3c2.4-.2,3.3-1.2,4.5-2.6.5-.6,1.1-1.3,2-2.2l.7-.7c1.7.4,5.8,1.9,7.2,7.8a1.41,1.41,0,0,0,1.4,1.1h.3a1.34,1.34,0,0,0,1.1-1.6C199.3,145.9,195.2,143.2,192.1,142.3Z" transform="translate(-33.8 -38)" fill="#2a2f5a"/><path d="M216.1,170.5c2.9-4.6.9-11.9.1-14.4,3.6-8.2-3.3-29.2-6.4-36.2-2.3-5.4-7.1-10.3-10.5-13.9a39.55,39.55,0,0,1-3.4-3.8,10.32,10.32,0,0,0-8.7-5.3c-.9-.1-.9-.1-1.4-1.1a8.85,8.85,0,0,0-2.3-3,5.64,5.64,0,0,0-4.9-1.4,2.85,2.85,0,0,1-2.7-.4c-3.7-2-5.9-2.9-10.8-2.9-5.7,0-7.6,10.2-8,13.1-1.1,4.7-1.1,19.8-1.1,32,0,4.6,0,8.6-.1,10.8-.2,5.3,1.4,8.7,2.8,10.5-3.2,3.2-4.1,10.8-3.8,13.5a9.91,9.91,0,0,0,1.2,3.7c.6,1,.8,1.5-.1,3.7-2.1,5.3-.9,21.9,0,24.6a6.61,6.61,0,0,0,1.5,2.4c.7.8,1.5,1.6,1.6,5.7.2,8.6,14.6,12.4,18.3,12.4s9.8-2.8,10.3-3.1c13-5.1,17.8-15.7,20.6-22,.8-1.8,1.7-3.8,2.2-4.2,3.3-2.6,3.1-6.9,3-8.6A21,21,0,0,0,216.1,170.5Zm-56-59c.8-1.9,2.5-5.2,5.6-5.8a1.3,1.3,0,0,0,1.1-1.6,1.56,1.56,0,0,0-1.7-1.1,8.52,8.52,0,0,0-4.7,2.7,23.68,23.68,0,0,1,.5-3.7c.7-5.2,2.8-10.1,4.2-10.1,4,0,5.5.6,8.8,2.4a7.57,7.57,0,0,0,5.2.8c.3,0,.5-.1.8-.1s.4,0,1,.5a6.85,6.85,0,0,1,1.5,2.1,9.13,9.13,0,0,0,.8,1.3,6.25,6.25,0,0,1-.5,4.6c-.8,1.3-2.4,2.2-4.7,2.5a1.34,1.34,0,0,0-1.2,1.5,1.32,1.32,0,0,0,1.4,1.1h.2c3.2-.5,5.5-1.8,6.7-3.9a7.57,7.57,0,0,0,1-4.3c.2,0,.4.1.7.1a6.75,6.75,0,0,1,5.7,3.5c.1.2.3.4.4.6a9.47,9.47,0,0,1-1.6,6.7c-1.6,1.9-4.3,3-8.1,3.1-.8,0-1.4.3-1.4,1.1s.7,1,1.4,1h0c3.7,0,6.6-.7,8.7-2.4a3.92,3.92,0,0,1,.6,2.4,5.78,5.78,0,0,0,2.6,5.2c.4.3,1.4,1.2,1.2,1.9-.3.9-2.3,2-6.1,2.2a9.12,9.12,0,0,0-7.6,4.3,10.36,10.36,0,0,0-7-3.3,11.16,11.16,0,0,0-2.7-6.5c-3.7-4.7-9.4-4.3-13.3-3A37.85,37.85,0,0,0,160.1,111.5Zm48,77c-.2.1-.3.3-.4.4a14.38,14.38,0,0,1-8.4.8,1.47,1.47,0,0,0-1.7,1.1,1.42,1.42,0,0,0,1.1,1.6,26,26,0,0,0,3.7.4,14.16,14.16,0,0,0,3.1-.3c-.2.5-.5,1.1-.8,1.7-2.8,6.2-6.9,15.6-18.6,20.2a36.49,36.49,0,0,1-5.9,2.2,24.76,24.76,0,0,0,4.4-8.6c5.8-3.6,7.6-10.3,7.7-10.4a1.3,1.3,0,0,0-1.1-1.6,1.54,1.54,0,0,0-1.7,1.2c0,.1-2.8,10.7-12.8,10.7h0a1.5,1.5,0,0,0,0,3h0a14.94,14.94,0,0,0,4.4-.9c-1.1,2.7-3,6-5.4,7h-.2c-4.3-.9-12.4-4-12.5-8.7-.1-5-1.2-6.6-2.5-8a1.9,1.9,0,0,1-.7-1.1c-.7-2.1-1.8-17.8,0-22.2,1.4-3.4.8-5-.2-6.6a4.81,4.81,0,0,1-.8-2.3c-.3-4,1.8-10.8,3.2-11l.4-.1a10.13,10.13,0,0,0,2.6.4,8,8,0,0,0,4.3-1.3c2.5,5.3,6.8,15.5,6.1,19.3-.5,2.5-2.6,4.1-4.6,5.7s-4.3,3.4-4.5,6c-.2,2.2,1.1,4.7,4.1,7.6,2.4,2.5,2.1,4.5,1.1,5.4a2.47,2.47,0,0,1-2.1.7,16.1,16.1,0,0,1-2.7-1.2c-.1,0-.1,0-.2-.1s-.2-.1-.3-.1h-.6a3162229.62,3162229.62,0,0,0-.6.2c-.1,0-.1.1-.2.2s-.1.1-.2.1a.1.1,0,0,1-.1.1h0a.1.1,0,0,1-.1.1.37.37,0,0,0-.1.3v.5c0,.1,0,.1.1.2s.1.2.1.3.1.1.2.2.1.1.1.2a.1.1,0,0,1,.1.1h.1a6.68,6.68,0,0,0,3.7,1.6,11.27,11.27,0,0,0,3.2.5,10.07,10.07,0,0,0,3.7-.7c4.9-1.8,8.4-7.4,10.3-16.5a1.51,1.51,0,0,0-1.1-1.6,1.47,1.47,0,0,0-1.7,1.1c-1.7,8-4.6,13-8.5,14.5-.1,0-.2.1-.3.1,1.2-2,1-5-1.9-8.1-2.3-2.3-3.4-4.2-3.3-5.6s1.7-2.7,3.5-4.1c2.3-1.8,5-3.8,5.6-7.3a17.17,17.17,0,0,0-.9-7c10.5,13.3,21.6,15.8,28.4,15.8a41,41,0,0,0,4.2-.3C209.8,185.5,209.6,187.4,208.1,188.5Zm4.5-19.4c-2.3,1.5-8.2,3.8-17.1-3.6-5.7-4.7-7.8-8.1-7.8-8.2a1.41,1.41,0,0,0-2.5,1.3c.1.2,2.3,3.8,8.4,8.9,5.3,4.4,9.9,5.8,13.4,5.8a13.44,13.44,0,0,0,5.3-1.1,19,19,0,0,1-2.4,9.2c-4.8,1.1-23.8,3.1-39-28.4h0c0-.1-.1-.1-.2-.2s-.1-.1-.1-.2h-.1c-.1,0-.1-.1-.2-.1s-.1-.1-.2-.1h-.7a.37.37,0,0,0-.3.1c-.1,0-.1-.2-.2-.1v-.2h0v.2c-.1,0-.2.2-.2.3s-.1.1-.2.2v.1l-.1.1a5,5,0,0,1-4.9,1.7l-.8-.7c-.1-.1-3.3-2.7-3-9.5.1-2.3.1-6.3.1-10.9,0-3.8,0-8.3.1-12.8,2.4-1,7.8-2.6,11.1,1.6,1.8,2.3,2.4,4.5,2,6.5a6.54,6.54,0,0,1-3.4,4.1,1.27,1.27,0,0,0-.6,1.8,1.46,1.46,0,0,0,1.3.7,2,2,0,0,0,.7-.1,9.14,9.14,0,0,0,4.7-5.4,7.65,7.65,0,0,1,6.6,4.4,1.27,1.27,0,0,0,1.3.7h.3A1.28,1.28,0,0,0,185,134c0-.2.4-4.5,5.8-4.8,4.7-.3,7.8-1.8,8.6-4.1.3-.9.5-2.8-2.1-4.8a3.06,3.06,0,0,1-1.5-3.1,5.59,5.59,0,0,0-1.5-4.2,11.19,11.19,0,0,0,1.7-4.7l.6.6c3.3,3.4,7.7,8,9.8,12.8,3.4,7.7,8,23.5,7,31.1a9.13,9.13,0,0,1-.8-1.3,21.47,21.47,0,0,1-4.1-9.5c-1.4-8.6-7-10.7-7.2-10.8a1.37,1.37,0,0,0-1.8.8,1.26,1.26,0,0,0,.8,1.7c.2.1,4.3,1.7,5.4,8.7a23.88,23.88,0,0,0,4.5,10.5,21.45,21.45,0,0,1,2.7,5.2C213.6,160.6,214.7,166.3,212.6,169.1Z" transform="translate(-33.8 -38)" fill="#2a2f5a"/><path d="M149.8,144.1c-.1-2.3-.1-6.2-.1-10.8,0-12.2,0-27.3-1.1-31.8-.4-3.1-2.3-13.3-8-13.3-4.9,0-7,.9-10.8,2.9a2.85,2.85,0,0,1-2.7.4,5.36,5.36,0,0,0-4.9,1.4,12.62,12.62,0,0,0-2.3,3c-.6,1-.6,1.1-1.4,1.1a10.32,10.32,0,0,0-8.7,5.3,29.17,29.17,0,0,1-3.4,3.8c-3.5,3.6-8.2,8.5-10.5,13.9-3,7-9.9,28-6.4,36.2-.8,2.4-2.8,9.7.1,14.4a21,21,0,0,0,2.6,12.1c-.2,1.7-.3,6,2.9,8.6.5.4,1.4,2.4,2.2,4.2,2.8,6.3,7.6,16.9,20.5,22,.7.3,6.7,3.1,10.5,3.1s18.1-3.9,18.3-12.4c.1-4.1.9-4.9,1.6-5.7a5.83,5.83,0,0,0,1.5-2.4c.9-2.7,2.1-19.3,0-24.6-.9-2.2-.6-2.7-.1-3.7a7.27,7.27,0,0,0,1.2-3.7c.2-2.7-.6-10.3-3.8-13.5C148.4,152.8,150,149.4,149.8,144.1Zm-37.2-39.4a2.09,2.09,0,0,0,.4-.6,6.54,6.54,0,0,1,5.7-3.5c.2,0,.4-.1.7-.1a8.48,8.48,0,0,0,1,4.3c1.2,2.1,3.5,3.4,6.7,3.9h.2a1.41,1.41,0,0,0,1.4-1.1,1.34,1.34,0,0,0-1.2-1.5c-2.3-.3-3.9-1.2-4.7-2.5a6.84,6.84,0,0,1-.5-4.6,4.58,4.58,0,0,0,.8-1.3,8.28,8.28,0,0,1,1.5-2.1,1.26,1.26,0,0,1,1-.5,1.7,1.7,0,0,1,.7.1,9,9,0,0,0,5.2-.8c3.4-1.8,4.8-2.4,8.8-2.4,1.4,0,3.5,4.9,4.2,10.3a20.65,20.65,0,0,1,.5,3.5,8.88,8.88,0,0,0-4.7-2.7,1.39,1.39,0,0,0-1.7,1.1,1.34,1.34,0,0,0,1.1,1.6c3.1.6,4.9,3.9,5.6,5.8.1,1.9.1,4,.2,6.1-4-1.3-9.7-1.7-13.3,3a11.16,11.16,0,0,0-2.7,6.5,10.66,10.66,0,0,0-7,3.3c-1.1-2-3.4-4.1-7.6-4.3-3.7-.2-5.8-1.3-6.1-2.2-.2-.7.8-1.5,1.2-1.9a6,6,0,0,0,2.6-5.2,4,4,0,0,1,.6-2.6c2.1,1.7,5,2.4,8.7,2.4h0c.8,0,1.4-.3,1.4-1a1.27,1.27,0,0,0-1.4-1.2c-3.8-.1-6.5-1.1-8-3A12,12,0,0,1,112.6,104.7ZM93.4,172.2a13.44,13.44,0,0,0,5.3,1.1c3.6,0,8.1-1.4,13.4-5.8,6.1-5.1,8.3-8.7,8.4-8.9a1.24,1.24,0,0,0-.6-1.8,1.55,1.55,0,0,0-2,.5s-2.1,3.5-7.8,8.2c-8.8,7.3-14.7,5.1-17.1,3.6h0c-2.1-2.8-1-8.6-.1-11.5a24.58,24.58,0,0,1,2.6-5.1A25.1,25.1,0,0,0,100,142c1.1-6.9,5.2-8.6,5.4-8.7a1.3,1.3,0,0,0,.8-1.7,1.4,1.4,0,0,0-1.8-.8c-.2.1-5.8,2.2-7.2,10.8a21.47,21.47,0,0,1-4.1,9.5,9.13,9.13,0,0,0-.8,1.3c-1-7.6,3.6-23.3,7-31.1,2.1-4.8,6.6-9.5,9.8-12.8l.6-.6a11.19,11.19,0,0,0,1.7,4.7,5.59,5.59,0,0,0-1.5,4.2,3.24,3.24,0,0,1-1.5,3.1c-2.6,2-2.4,3.8-2.1,4.8.8,2.3,3.9,3.8,8.6,4.1,5.3.3,5.8,4.4,5.8,4.8a1.28,1.28,0,0,0,1.1,1.2h.3a1.71,1.71,0,0,0,1.3-.7,8.11,8.11,0,0,1,6.6-4.4,9.5,9.5,0,0,0,4.7,5.4,1.48,1.48,0,0,0,.7.1,1.71,1.71,0,0,0,1.3-.7,1.24,1.24,0,0,0-.6-1.8,6.54,6.54,0,0,1-3.4-4.1c-.5-2,.2-4.2,2-6.5,3.3-4.2,8.7-2.6,11.1-1.7v12.8c0,4.7,0,8.6.1,10.9.2,6.8-2.9,9.4-3,9.5l-.9.7a4.44,4.44,0,0,1-4.8-1.7h0v-.1c0-.1-.1-.1-.2-.1s-.1-.3-.2-.3v-.2h0v.2c-.1,0-.1.1-.2,0h-1c-.1,0-.1.1-.2.1s-.1,0-.2.1h-.1c-.1,0-.1.1-.1.2l-.2.2h0c-15.2,31.5-34.2,29.5-39,28.4A16.33,16.33,0,0,1,93.4,172.2Zm53.7-4.3a4.44,4.44,0,0,1-.8,2.3c-.9,1.6-1.5,3.2-.2,6.6,1.8,4.4.7,20.2,0,22.2a6.73,6.73,0,0,1-.7,1.1c-1.3,1.4-2.4,3-2.5,8-.1,4.7-8.2,7.8-12.5,8.7-.1,0-.1,0-.2-.1-2.4-1-4.3-4.4-5.4-7.2a15.1,15.1,0,0,0,4.4.6,1.26,1.26,0,0,0,1.4-1.1c0-.7-.6-1.1-1.4-1.1h0a12.12,12.12,0,0,1-6-1.7.1.1,0,0,0-.1-.1c-5.1-2.8-6.7-8.7-6.8-9a1.45,1.45,0,0,0-1.7-1,1.42,1.42,0,0,0-1.1,1.6,18.82,18.82,0,0,0,7.7,10.4,27.71,27.71,0,0,0,4.4,8.6,36.07,36.07,0,0,1-6.1-2.3c-11.6-4.5-15.8-13.9-18.5-20.1-.3-.6-.5-1.2-.8-1.7a14.82,14.82,0,0,0,3.1.3,16.7,16.7,0,0,0,3.7-.4,1.3,1.3,0,0,0,1.1-1.6,1.56,1.56,0,0,0-1.7-1.1A13.59,13.59,0,0,1,98,189c-.1-.2-.3-.3-.4-.4-1.4-1.1-1.7-3.1-1.7-4.4a24.18,24.18,0,0,0,4.2.3c6.8,0,17.8-2.5,28.4-15.8a17.17,17.17,0,0,0-.9,7c.6,3.4,3.3,5.5,5.6,7.3,1.8,1.4,3.4,2.6,3.5,4.1s-1,3.3-3.3,5.6c-3,3-3.1,6-1.9,8.1-.1,0-.2-.1-.3-.1-3.9-1.5-6.8-6.5-8.5-14.5a1.56,1.56,0,0,0-1.7-1.1,1.3,1.3,0,0,0-1.1,1.6c1.9,9.1,5.3,14.7,10.3,16.5a10.07,10.07,0,0,0,3.7.7,10.23,10.23,0,0,0,3.2-.5,6.68,6.68,0,0,0,3.7-1.6h.1a.1.1,0,0,0,.1-.1c.1,0,.1-.1.1-.2l.2-.2a1117965.78,1117965.78,0,0,0,.2-.4v-.5c0-.1-.1-.2-.1-.3s0-.1-.1-.2l-.1-.1v-.1c0-.1-.1-.1-.2-.1s-.1-.1-.2-.1-.2-.1-.3-.1-.2,0-.2-.1h-.6c-.1,0-.2.1-.3.1s-.1,0-.2.1a13,13,0,0,1-2.6,1.2,3.52,3.52,0,0,1-2.1-.7c-1-1-1.3-3,1.1-5.4,2.9-3,4.2-5.4,4.1-7.6-.2-2.7-2.4-4.4-4.5-6s-4.1-3.2-4.6-5.7c-.7-3.8,3.6-14,6.1-19.3a7.19,7.19,0,0,0,4.3,1.3,10.87,10.87,0,0,0,2.6-.4l.4.1C145.2,157.1,147.4,163.8,147.1,167.9Z" transform="translate(-33.8 -38)" fill="#2a2f5a"/><path d="M122.5,150.3c2.8,0,6.2-2.6,9.2-5.2a1.3,1.3,0,0,0,.1-1.9,1.52,1.52,0,0,0-2-.1c-3.6,3.1-6.1,4.6-7.4,4.5s-1.4-.4-2.5-1.6c-.5-.6-1.2-1.4-2.2-2.4-2.1-2.1-1.4-3.5-1.4-3.6a1.31,1.31,0,0,0-.5-1.8,1.55,1.55,0,0,0-2,.5,4.74,4.74,0,0,0-.3,3.7c-3.1.9-7.2,3.6-8.6,9.7a1.34,1.34,0,0,0,1.1,1.6h.3a1.39,1.39,0,0,0,1.4-1.1c1.4-5.9,5.5-7.4,7.2-7.8a4.62,4.62,0,0,0,.7.7c.9.9,1.5,1.6,2,2.2,1.2,1.4,2.1,2.4,4.5,2.6Z" transform="translate(-33.8 -38)" fill="#2a2f5a"/><circle cx="190.9" cy="47" r="20.9" fill="#f9b326"/><path d="M224.7,107.9A22.9,22.9,0,1,1,247.6,85,23,23,0,0,1,224.7,107.9Zm0-41.8A18.9,18.9,0,1,0,243.6,85,18.95,18.95,0,0,0,224.7,66.1Z" transform="translate(-33.8 -38)" fill="#2a2f5a"/><path d="M62,157.2v-2H35.8a2,2,0,0,0,0,4H62Z" transform="translate(-33.8 -38)" fill="#2a2f5a"/><path d="M44.2,113.6l24.2,10.2c.5-1.2,1-2.5,1.6-3.7L45.8,109.9a2,2,0,0,0-2.6,1.1A1.86,1.86,0,0,0,44.2,113.6Z" transform="translate(-33.8 -38)" fill="#2a2f5a"/><path d="M120.3,72.3a2,2,0,0,0-2-.3,2,2,0,0,0-1.2,1.6A30.54,30.54,0,0,1,120.3,72.3Z" transform="translate(-33.8 -38)" fill="#2a2f5a"/><path d="M237.8,124.7l24.3-9.9a2,2,0,1,0-1.5-3.7L236.3,121C236.8,122.2,237.3,123.5,237.8,124.7Z" transform="translate(-33.8 -38)" fill="#2a2f5a"/><path d="M190,74.2,200.2,50a2,2,0,0,0-3.7-1.5L186.3,72.7A28.7,28.7,0,0,1,190,74.2Z" transform="translate(-33.8 -38)" fill="#2a2f5a"/><path d="M152.9,66.3h2V40a2,2,0,0,0-4,0V66.2A12.75,12.75,0,0,0,152.9,66.3Z" transform="translate(-33.8 -38)" fill="#2a2f5a"/><path d="M115.8,240.2l-10.2,24.2a2,2,0,0,0,1.1,2.6,2.35,2.35,0,0,0,.8.2,2,2,0,0,0,1.8-1.2l10.2-24.2C118.2,241.2,117,240.7,115.8,240.2Z" transform="translate(-33.8 -38)" fill="#2a2f5a"/><path d="M261.6,200.8l-24.2-10.2c-.5,1.2-1,2.5-1.6,3.7L260,204.5a2.35,2.35,0,0,0,.8.2,2,2,0,0,0,.8-3.9Z" transform="translate(-33.8 -38)" fill="#2a2f5a"/><path d="M270,155.2H243.8v4H270a2,2,0,0,0,0-4Z" transform="translate(-33.8 -38)" fill="#2a2f5a"/><path d="M218.5,220c-.9,1-1.9,1.9-2.8,2.8l18.6,18.6a1.93,1.93,0,0,0,2.8,0,1.93,1.93,0,0,0,0-2.8Z" transform="translate(-33.8 -38)" fill="#2a2f5a"/><path d="M152.9,248.1h-2v26.2a2,2,0,0,0,4,0V248C154.2,248,153.5,248.1,152.9,248.1Z" transform="translate(-33.8 -38)" fill="#2a2f5a"/><path d="M189,240.6c-1.2.5-2.5,1-3.7,1.5l9.9,24.3a2,2,0,0,0,1.9,1.2,2.2,2.2,0,0,0,.8-.1,2,2,0,0,0,1.1-2.6Z" transform="translate(-33.8 -38)" fill="#2a2f5a"/><path d="M87.2,220,68.6,238.6a1.93,1.93,0,0,0,0,2.8,1.93,1.93,0,0,0,2.8,0L90,222.8C89.1,221.9,88.1,221,87.2,220Z" transform="translate(-33.8 -38)" fill="#2a2f5a"/><path d="M67.9,189.6l-24.3,9.9a2,2,0,0,0-1.1,2.6,2,2,0,0,0,1.9,1.2,2.2,2.2,0,0,0,.8-.1l24.3-9.9C68.9,192.1,68.4,190.9,67.9,189.6Z" transform="translate(-33.8 -38)" fill="#2a2f5a"/><path d="M89.4,94.3,70.8,75.8A2,2,0,0,1,73.6,73L92.2,91.6A23.67,23.67,0,0,0,89.4,94.3Z" transform="translate(-33.8 -38)" fill="#2a2f5a"/><path d="M117.9,74.2,107.8,50a2,2,0,1,1,3.7-1.5l10.2,24.2A29.94,29.94,0,0,0,117.9,74.2Z" transform="translate(-33.8 -38)" fill="#2a2f5a"/></svg>