<svg width="100" height="100" viewBox="0 0 100 100" xmlns="http://www.w3.org/2000/svg"><path fill="#EB5529" stroke="#11142F" stroke-miterlimit="10" stroke-width=".8014875" d="M18.982 78.428L50.024 96.58l31.042-18.152v-56.4L50.024 18.82l-31.042 3.207z"/><path fill="#B7B7B8" d="M29.285 85.613L82.37 53.356V80.22L50.024 98.06"/><path fill="#D0D2D3" stroke="#11142F" stroke-miterlimit="10" stroke-width=".8014875" d="M17.545 79.003L50.31 59.767l-31.947-18.66zM82.37 70.49L42.53 93.773l-6.08-3.803 45.92-26.82zM81.884 56.097L30.28 86.232l-6.102-3.78L82.37 48.47zM77.948 21.695l-15.41 8.976 18.97 10.968V21.142z"/><path fill="#4C499A" stroke="#11142F" stroke-miterlimit="10" stroke-width=".8014875" d="M56.26 56.363l12.557-7.32v-7.34l-6.28-3.67-6.278 11.01v7.32"/><path fill="#D0D2D3" d="M65.08 19.528l-4.355 2.565-6.235-3.648"/><path fill="#B7B7B8" d="M54.49 18.445l6.235 3.648-6.257 3.67-6.633-3.89 5.992-3.495"/><path fill="#D0D2D3" d="M54.468 18.003l-.376.22-.53-.31M54.468 25.763l-2.83 1.636-3.47 2.033-6.634-3.87 6.3-3.69M53.56 17.914l.532.31-.265.154-5.97-.62-6.014.62-.154-.088.573-.354-.994.11-.024-.02 6.744-.687"/><path fill="#D0D2D3" d="M53.827 18.378l-5.992 3.494-5.992-3.494 6.014-.62"/><path fill="#B7B7B8" d="M48.167 29.433l-6.28 3.67-.022-.022-6.61-3.846 6.28-3.67"/><path fill="#D0D2D3" d="M47.835 21.872l-6.3 3.692-6.148-3.604 6.058-3.537.398-.045M42.263 17.936l-.574.354-.42-.243"/><path fill="#B7B7B8" d="M41.865 33.08l.023.023-6.324 3.715-.044-.11-6.522-3.826 6.257-3.648"/><path fill="#D0D2D3" d="M41.843 18.378l-.398.045.244-.133"/><path fill="#D0D2D3" d="M41.27 18.047l.42.243-.245.133-10.303 1.06-.464-.264"/><path fill="#B7B7B8" d="M41.534 25.564l-6.28 3.67-6.146-3.604 6.28-3.67"/><path fill="#D0D2D3" d="M41.445 18.423l-6.058 3.537-4.245-2.476M41.246 18.025l.023.022-10.592 1.172-.155-.09M35.52 36.707l.044.11-6.566 3.826-6.61-3.87.02-.044L29 32.88"/><path fill="#B7B7B8" d="M31.142 19.484l4.245 2.476-6.28 3.67-6.256-3.648 3.384-1.99"/><path fill="#D0D2D3" d="M29.108 25.63l6.147 3.604-6.257 3.648-6.17-3.58M31.142 19.484l-4.908.508.575-.353 3.868-.42"/><path fill="#D0D2D3" d="M30.678 19.22l-3.87.42-.574.352-5.748.597-.62-.354 10.657-1.106M29.108 25.63l-6.28 3.67-3.647-2.144-.86-2.52 4.53-2.654"/><path fill="#B7B7B8" d="M28.998 32.882l-6.59 3.847-2.033-5.992L22.83 29.3"/><path fill="#D0D2D3" d="M26.234 19.992l-3.383 1.99-2.364-1.393M22.85 21.982l-4.53 2.653-1.24-3.692 3.406-.354M22.83 29.3l-2.455 1.438-1.194-3.582"/><path fill="#B7B7B8" d="M20.375 30.738l2.034 5.99-.023.046-5.572-3.25v-.774h.11"/><path fill="#D0D2D3" d="M20.486 20.59l-3.405.353-.154-.42 2.94-.287M19.18 27.156l1.195 3.582-3.45 2.012h-.11v-6.987"/><path fill="#D0D2D3" d="M19.18 27.156l-2.365-1.393v-.22l.133-.09 1.37-.818"/><path fill="#D0D2D3" d="M17.08 20.943l1.24 3.692-1.372.818-.133.09v-4.578"/><g fill="none" stroke="#11142F" stroke-miterlimit="10" stroke-width="3.625"><path d="M53.827 18.378l.663.067 10.59 1.083-4.355 2.565-6.257 3.67-2.83 1.636-3.47 2.033-6.28 3.67-6.324 3.715-6.566 3.825-6.61-3.87-5.573-3.25V20.965l.266-.022" stroke-width=".8014875"/><path d="M22.41 36.73l6.588-3.848 6.257-3.648 6.28-3.67 6.3-3.692 5.992-3.494.265-.154.376-.22-.907-.09-5.57-.575-6.744.685-10.723 1.105-10.656 1.106-2.94.287" stroke-width=".8014875"/><path d="M16.616 25.652l.2-.11.132-.09 1.37-.817 4.533-2.653 3.384-1.99.575-.353 3.868-.42 10.59-1.173.995-.11-.574.353-.245.133-6.058 3.537-6.28 3.67-6.278 3.67-2.455 1.438-3.45 2.012" stroke-width=".8014875"/><path d="M16.616 25.652l.2.11 2.365 1.394 3.65 2.145 6.168 3.582 6.522 3.825M18.894 19.66l.973.576.62.353 2.364 1.392 6.258 3.648 6.147 3.604 6.61 3.847M30.37 19.042l.153.088.155.09.464.264 4.245 2.476 6.147 3.604 6.633 3.87M40.782 17.76l.464.265.023.022.42.243.153.088 5.992 3.494 6.633 3.89M51.66 16.787l1.9 1.127.532.31.398.22 6.235 3.65" stroke-width=".8014875"/></g><g><path fill="#B7B7B8" d="M62.538 38.034l-6.28 11.01-12.535-7.34 6.257-11.01"/><path fill="#D0D2D3" d="M56.26 49.044v7.32l-12.537-7.32v-7.34"/><g fill="none" stroke="#11142F" stroke-miterlimit="10" stroke-width="3.625"><path d="M56.26 56.363l-12.537-7.32v-7.34l6.257-11.01 12.558 7.34-6.28 11.01v7.32M43.723 41.704l12.536 7.34" stroke-width=".8014875"/></g></g><path fill="#EB5529" stroke="#11142F" stroke-miterlimit="10" stroke-width=".8014875" d="M17.744 69.982l7.584 4.444M17.545 62.53l14.062 8.204M17.545 47.806l26.62 15.565M17.545 55.147l20.32 11.917"/><path fill="#4C499A" stroke="#11142F" stroke-miterlimit="10" stroke-width=".8014875" d="M44.032 63.482l3.03-5.55 3.25 1.88z"/><path fill="#4C499A" stroke="#11142F" stroke-miterlimit="10" stroke-width=".8014875" d="M37.886 67.064l3.03-5.528 3.25 1.857z"/><path fill="#4C499A" stroke="#11142F" stroke-miterlimit="10" stroke-width=".8014875" d="M31.607 70.734l3.05-5.528 3.23 1.858zM25.328 74.426l3.05-5.55 3.23 1.88zM19.07 78.074l3.03-5.527 3.228 1.857z"/><g><path d="M50.024 100.05L15.93 80.13v-60.8l34.094-3.516 34.093 3.515V80.15l-34.093 19.9zM18.982 78.43L50.024 96.58l31.042-18.152v-56.4L50.024 18.82l-31.042 3.207v56.4z" fill="#11142F"/></g></svg>
