<svg width="100" height="100" viewBox="0 0 100 100" xmlns="http://www.w3.org/2000/svg"><path fill="#A9A09F" d="M17.17 79.07l31.9 18.63 31.89-18.63V21.11l-31.9-3.28-31.89 3.28"/><path fill="#D1D3D4" d="M80.49 30.31v-2.6h-7.64v-7.98h-2.61v7.98H42.45v-9.26h-2.61v9.26H19.51v2.6h6.97v10.9h-6.97v2.6h20.32v10.8H19.51v2.6h6.97v10.22h-6.97v2.6h6.97v.19h2.61v-.19h10.74v10.22H19.51l1.89 1.77 29.23.83v-2.6h-8.18V70.04h14.43v.19h2.61v-.19h10.74v10.22H49.91v2.6h25.64l4.94-2.6h-7.64V70.04h7.64v-2.6h-21V57.21h21v-2.6h-7.64v-10.8h7.64v-2.6h-21v-10.9h21zm-51.4 10.9v-10.9h27.79v10.9H29.09zm27.79 26.22H29.09V57.21h27.79v10.22zm13.35-23.62v10.8H42.45v-10.8h27.78z"/><path fill="#D1D3D4" d="M56.72 56.69h2.59v10.75h-2.59zM56.72 82.03h2.59v10.75h-2.59z"/><path fill="#D1D3D4" d="M40.42 92.01h19.55v1.97H40.42z"/><path fill="none" d="M21.4 62.59h.3"/><path fill="#FFF" d="M56.82 93.44l18.17-10.71c-.1-.19-.94-.97-1.12-1.06-1.17-.88-8.01-5.66-10.35-7.23-1.66-1.08-3.49-2.21-4.98-3.32-2.39-1.48-1.89-10.09-3.81-12.5 0-.09-.7-4.27-9.87-3.13.39-1.66-.68-3.32-2.34-4-.2-.09.27-.58.16-.58.2-1.17-3.13-2.57-4.98-.17-1.54 1.52-1.06 3.45-.84 3.21-.65-.03-.88 0-1.27 0-.78 0-1.46.2-2.05.68-.29.29-1.67 2.83-1.76 3.91 0 .29 0 .68.2.98-1.66 1.76-1.66 4.98.2 6.55-.2.09-3.59 4.24.16 6.86.78.78 5.81 5.53 11.48 7.35 5.6.5 5.63 1.68 5.92 1.79 1.66 2.33 6.43 10.4 7.08 11.37z"/><path fill="#818285" d="M48.57 65.34c-.39 3.23 2.83 4.6 1.46 5.86-6.45 5.97-3.12 10.35-7.63 8.6-5.77-2.25-11.83-6.84-8.4-14.17 2.63-5.66 2.94-16.32 9.29-13.58 2.25.97 1.86 2.63 1.57 2.74-.88.49-1.66-.2-2.44.59-1.27 1.17-5.77 5.08-4.2 6.26.53.41.36 1.16.86 1.38 1.67.75 3.84.07 5.5-1.29.68-.59 0-1.46 1.27-2.44.88-.68 2.44.78 3.23.39 2.42-1.37-.31 3.61-.51 5.66z" opacity=".6"/><path fill="#151841" d="M50 100L16 80.14V19.5L50 16l34 3.5v60.64L50 100zM19.04 78.44L50 96.53l30.96-18.09V22.19L50 19l-30.96 3.19v56.25z"/><path fill="#4751A2" d="M49.98 51.27c-1.25-1.11-2.99-1.55-4.62-1.85-.63-.1-3.1 2.69-2.59 3.08 1.14.88 2.59 3.1 2.58 3.19 1.55.16 3.79-.3 5.15-.19.45.01.27-.24.46-.6 1.64-2.85-.98-3.63-.98-3.63z"/><path fill="none" d="M67.82 18.35h.2"/><path fill="#151741" d="M75.64 82.74c-4.29-3.32-8.89-6.35-13.38-9.48-.68-.49-1.37-1.08-2.05-1.46-1.66-1.08-2.54-2.05-2.94-4.11-.68-3.42-.29-7.03-2.25-10.17-1.76-2.74-5.47-2.63-8.4-2.74-.31 0-.67-.05-1.06-.09 0-.03-.01-.07-.02-.1-.49-1.38-1.37-2.36-2.45-3.2v-.02c0-.2.09-.29.09-.39 0-.09.09-.09.09-.2 0 0 0-.09.09-.09-.09.09 0 0 .09 0 .59-.59.08-1.38-.51-.8-2.54-1.76-5.84-.68-6.72 2.26-.14.46-.15.88-.08 1.29-1.29-.46-2.58.02-3.54 1.36-.72 1-1.61 3.01-1.2 4.38-.24.19-.46.42-.66.71-1.27 1.81-.94 4.81.36 6.63-.06.07-.12.14-.16.21-.68.97-.88 2.25-.88 3.42 0 1.57.88 2.05 1.86 3.12.04.05.08.08.12.11l.5.48c.01.03.15.17.29.28.98.8 4.11 3.33 4.59 3.67 2.02 1.44 5.3 3.26 8.43 3.29 2.54-.09 3.81 1.27 5.08 3.23 1.76 2.83 3.52 5.66 5.28 8.6.29.49 1.17 0 .88-.49-1.76-2.83-3.61-5.66-5.28-8.6-.78-1.37-1.86-2.94-3.42-3.42-.97-.29-1.86-.29-2.94-.29-1.3.07-5.12-1.8-7.28-3.12-.5-.31-3.37-2.57-4.44-3.44v-.14l.02.01.15-.38c1.76 1.1 4.25 1.69 5.69.32.88-.78 1.17-1.86.98-3.03-.03-.2-.1-.38-.19-.56 1.53-.1 2.68-1.78 2.53-3.45 0-.06-.01-.12-.02-.16.84.17 1.62-.09 2.26-.64-.17 1.56-.03 3.12.82 4.35l.92.97c.95.65 2.19.93 3.3.85.59 0 .59-.97 0-.97-.97.09-1.95-.09-2.74-.68-2.25-1.42-1.44-4.99-.77-7.09 1.39 0 2.74-1.03 3.69-1.9.49-.39-.2-1.08-.68-.68-.78.78-1.86 1.57-3.03 1.66-.36 0-.96-.16-1.06-.57.17-.29.37-.7.37-1.09 0-.49-.2-1.08-.09-1.46.09-.59-.78-.78-.97-.2-.09.39 0 .68 0 .97.08.52-.01.94-.2 1.3-.02.02-.05.06-.06.09-.29.45-.77.78-1.3 1.06-.89.53-2.04.82-3.05.72-1.66-.14-1.75-.7-1.88-1.69-.02-.41.08-.86.35-1.28.68-1.17 2.05-1.95 3.03-2.83.39-.29.68-.68.98-1.08.49-.49.97-.49 1.57-.39 1.76.09 3.52.2 5.28.29 1.95.09 3.61.68 4.69 2.44.97 1.46 1.27 3.52 1.46 5.18.29 2.63.09 5.77 2.15 7.82 1.27 1.17 2.94 2.15 4.29 3.12 4.29 3.03 8.69 5.97 12.9 9.18.52.38 1.01-.51.52-.89zM39.08 72.48c-1.46 1.76-4.98-.09-6.06-1.46-.39-.49-1.08.2-.68.68.15.19.32.37.52.56l-.16.43c-.01-.03-.03-.07-.07-.1-.67-.7-1.45-1.09-1.56-2.16-.09-.78.09-1.57.29-2.34.13-.38.31-.74.56-1.03.13-.05.24-.16.3-.31.26-.22.56-.39.89-.51 1.08-.29 2.25.78 3.03 1.37 1.47 1.16 4.99 2.53 2.94 4.87zm4.22-9.19c.63-.28 1.27-.62 1.75-1.07.16.19.36.33.58.45-.17 1.68-1.66 3.27-3.33 2.14-.26-.36-.57-.7-.88-1.01.67-.09 1.33-.29 1.88-.51zm-3.27.54c.21.17.43.36.65.55.31.27.59.56.81.88.02.14.09.27.23.37.2.38.32.81.32 1.29 0 1.27-1.17 2.44-2.44 1.76-.06-.03-.13-.06-.19-.08-.58-.48-1.28-.85-1.87-1.2-1.37-.88-2.34-2.05-4-2.15-.64-.06-1.21.2-1.68.57-.93-1.36-1.1-3.57-.49-4.98.88-2.05 3.81-1.46 5.08-.29.39.34.75.74 1.13 1.14.07.27.17.53.35.82.47.82 1.24 1.21 2.1 1.32zm-2.42-3.49l-.46-.46c-1.14-1.14-3.19-1.75-4.81-1.18-.2-.92.55-2.31.89-2.91.78-1.46 2.15-2.05 3.52-.88l.1.07c.09.14.19.28.29.42.57.85 1.51 1.97 2.54 2.31-.9.74-1.77 1.62-2.07 2.63zm5.29-5.55c-.97.39-1.66 1.66-2.44 2.25-.03.02-.07.06-.09.08-.05-.12-.14-.22-.29-.28-.85-.26-1.9-1.33-2.48-2.43-.01-.03-.03-.08-.06-.12-.26-.51-.42-1.03-.38-1.46 0-.97.68-1.86 1.46-2.44 1.16-.87 2.41-.5 3.48.27-.01.05-.03.09-.05.13-.38.08-.59.66-.21.96 1.08.81 2.08 1.62 2.61 2.82-.56-.02-1.09.01-1.55.22z"/><path fill="#4751A2" d="M45.58 67.23l.25 1.95-3.67 9.41-1.75 2.75-4.63.5-.24-.17c-1.63-1.18-3.03-2.07-3.5-4.03 0 0-.7-2.21.22-4.05L33.54 72l2.5 1.2 1.33.38.28-.05c1.13.3 2.05-.84 2.05-.84l.46-2.11-.29-1.04 1.04-.37 1.25-1.13.39-2.29h1.53l1.97-1.55-.47 3.03z"/><path fill="none" d="M45.08 64.2l-1.12-.21-1.41.97c1.03.54 1.96.07 2.53-.76zM39.61 68.68c1.27.67 2.44-.5 2.44-1.76 0-.48-.13-.91-.32-1.29l-.06-.06-2.48 1.71-.4.88c.22.14.44.28.64.44.05.03.12.05.18.08zM32.44 71.81l.26.88.16-.43c-.15-.15-.29-.3-.42-.45zM33.03 71.02c1.08 1.37 4.6 3.23 6.06 1.46 1.24-1.42.43-2.49-.73-3.37l-.65 1.43-4.15-1.23-1.7.49.41 1.4c.11-.31.49-.51.76-.18z"/><path fill="#151741" d="M33.9 73.03c1.76 1.1 4.25 1.69 5.69.32.88-.78 1.17-1.86.98-3.03-.03-.2-.1-.38-.19-.56 1.53-.1 2.68-1.78 2.53-3.45 0-.06-.01-.12-.02-.16.84.17 1.62-.09 2.26-.64-.17 1.56-.03 3.12.82 4.35l.92.97c.95.65 2.19.93 3.3.85.59 0 .59-.97 0-.97-.97.09-1.95-.09-2.74-.68-1.78-1.12-1.64-3.59-1.18-5.61l-1.19-.22c-.57.84-1.5 1.3-2.53.76l-.89.61c.02.02.03.04.06.06.2.38.32.81.32 1.29 0 1.27-1.17 2.44-2.44 1.76-.06-.03-.13-.06-.19-.08-.2-.16-.42-.3-.64-.44l-.43.95c1.16.88 1.97 1.94.73 3.37-1.46 1.76-4.98-.09-6.06-1.46-.26-.32-.64-.13-.76.18l.18.62c.13.15.26.3.42.45l-.16.43 1.21.33z"/><path fill="#151741" d="M37.33 82.54c-1.28 0-2.46-.41-3.47-1.12-1.55-1.12-2.46-2.96-2.55-5l.09-2.25 1.61-2.23 1.09.61-1.52 2.02-.09 1.84c.09 1.63.82 3.06 2.01 3.98 1.37 1.02 3.19 1.23 4.93.51.73-.31 1.37-1.02 1.55-1.23l4.7-11.2.77 1.13-4.47 10.7v.1s-1 1.23-2.1 1.74c-.91.3-1.73.4-2.55.4z"/><g><path fill="#151741" d="M49.45 49.04c-.27 0-.45-.01-.63-.1-.45-.19-.81-.56-.98-1.01-.17-.46-.17-.91.02-1.36l.85-1.97-4.98-5.61c-.53-.55-.61-1.37-.24-1.99l1.25-2.52c.28-.63 3.43 1.15 3.24 1.6l-.69 1.36 4.89 5.51c.44.55.61 1.28.33 1.91l-1.23 2.96c-.46.79-1.1 1.23-1.83 1.22z"/><path fill="#FFF" d="M52.08 49c-1.25-1.11-3.15-1.41-4.69-1.98-1.44-.48-2.12 1.77-.68 2.34l1.89.67c.54.19 1.27.29 1.71.66 1.27 1.01 3.03-.68 1.77-1.69z"/><path fill="#151741" d="M51.33 55.66l-1.08-.47.66-1.34c.19-.36.29-.81.2-1.17-.09-.27-.26-.55-.53-.64l-4.5-2.16c-.63-.28-1.36-.11-1.73.33-.65.71-1.03 1.7-1.12 1.7l-1.08-.47c0-.09.47-1.17 1.31-2.06.83-.89 2.11-1.14 3.19-.67l4.5 2.16c.54.28.99.74 1.16 1.38.17.73.16 1.45-.31 2.16l-.67 1.25z"/><path fill="#151741" d="M51.66 52.23l-1.08-.47.66-1.62c.19-.27.19-.54.11-.81-.09-.18-.18-.27-.36-.37l-3.33-1.6c-.36-.19-.82-.11-1.09.25-.46.53-.66 1.25-.66 1.25l-1.17-.29s.29-1.08.94-1.79c.65-.71 1.65-.97 2.55-.5l3.33 1.6c.45.19.81.65.98 1.1.17.55.07 1.18-.21 1.71l-.67 1.54z"/><g><path fill="#F15A29" d="M38.79 30.76l8.27 4.67 7.91 4.48c1.35.75 2.99.32 3.74-.93.19-.27 10.73-26.22 4.53-30.04-6.47-4-24.64 17.29-24.64 17.29-1.65 1.15-1.52 3.5.19 4.53z"/><path fill="#151741" d="M56.31 40.84c-.54-.01-1.18-.2-1.63-.48L38.5 31.21c-.99-.56-1.61-1.57-1.68-2.65-.07-1.09.4-2.07 1.32-2.78C39.27 24.52 53.91 7.6 61.53 7.73c.82.01 1.45.21 2.08.58.99.56 1.6 1.66 2.03 3.11.76 3.36-.07 8.95-2.39 16.78-1.74 5.76-3.73 10.7-3.92 10.97-.64 1.08-1.84 1.69-3.02 1.67zM61.51 9c-2.9-.05-7.68 2.94-13.86 8.71-4.71 4.44-8.6 8.89-8.6 8.89v.09h-.09c-.55.44-.93 1.07-.85 1.79.08.72.43 1.36 1.06 1.65l16.18 9.15c.36.19.72.28 1.08.29.73.01 1.46-.34 1.83-.96.94-2.06 10.17-25.87 4.7-29.22-.45-.19-.9-.38-1.45-.39z"/></g></g><path fill="#F15A29" d="M48.95 46.77l1.14-2.6-5.29-5.92c-.18-.27-.26-.46-.17-.73l2.33-4.9c.19-.27.55-.44.82-.26.27.19.44.55.26.82l-2.14 4.54 5.2 5.92c.18.18.17.46.08.63l-1.23 2.96c-.21-.1-.56-.26-1-.46z"/></svg>
