<svg width="100" height="100" viewBox="0 0 100 100" xmlns="http://www.w3.org/2000/svg"><path fill="#A9A09F" d="M18.11 78.69L50 97.32l31.89-18.63V20.74L50 17.45l-31.89 3.29zM50 19v9.98"/><path fill="#fff" d="M49.3 19h1.4v9.98h-1.4z"/><path fill="#151841" d="M50 100L16 80.14V19.5L50 16l34 3.5v60.64L50 100zM19.04 78.44L50 96.53l30.96-18.09V22.19L50 19l-30.96 3.19v56.25z"/><path fill="none" d="M67.22 16.68h.3"/><path fill="#4751A2" d="M53.54 54.65c4.92-4.5 8.56-7.63 6.2-18.01-.89-3.92-4.92-7.34-8.86-7.44-1.28-.1-3.15-.1-4.23.69-1.38.1-2.76 1.66-3.74 2.74-.79.78-1.87 1.86-1.87 3.03-.69.78-1.48 3.13-1.67 4.21-.59 3.13.3 5.19 1.38 8.12.89 2.45 3.15 5.29 5.51 6.46l-.3.88-.1.1s0 .1-.1.1l-.2.49c-1.08 2.94 1.87 5.58 3.74 1.86l.2-.88c.39 0 1.67 1.27 1.77 1.37 1.38 1.76 4.33-.49 3.05-2.35-.19-.49-.48-.89-.78-1.37z"/><path fill="#151841" d="M73.33 33.8c-.79-.98-2.17.39-1.38 1.37 1.08 1.27 1.48 3.13 1.87 4.7.3 1.57.49 3.52-.2 5.09v.01l-.19.18c-1.43 2.05-3.21 3.91-5.29 5.41l-.3-.03h-9.2c1.34-2.13 2.25-4.45 2.55-6.92.33.16.69.19 1.02.07.98-.39 1.97-.78 2.76-1.47.69-.59 1.18-1.47 1.67-2.25.36-.5.24-1.25-.11-1.78-.05-4.02-.65-8.1-1.96-11.92-.39-1.17-2.26-.69-1.87.49 1.17 3.56 1.75 7.21 1.85 10.94-.28.14-.55.36-.77.62l-.69.98c-.08.08-.14.15-.17.23l-.13.16c-.1.1-.2.2-.3.2.3-.29-.1.1-.2.1-.39.2-.49.2-.98.39l-.11.05c-.06-.56-.15-1.13-.28-1.71-.69-2.94-2.46-5.58-4.63-7.54-1.08-.98-2.36-1.76-3.74-2.35-.89-.39-1.67-.29-2.66-.29-.79 0-1.58-.1-2.26.2-1.38.49-2.56 1.27-3.64 2.15-2.46 1.86-4.13 4.6-4.92 7.44-.21.7-.34 1.38-.44 2.07l-.84-.5-.49-.29-.3-.2c-.59-.49-1.08-.98-1.58-1.47l-.08-.07c.08-3.78.67-7.48 1.85-11.09.39-1.17-1.48-1.66-1.87-.49-1.27 3.68-1.86 7.53-1.95 11.47-.72.55-1.08 1.66-.31 2.52 1.28 1.37 2.66 2.35 4.23 3.33.47.25.93.25 1.32.1.3 2.41 1.24 4.67 2.59 6.75h-8.9c-.21 0-.39.04-.56.1-2.04-1.44-3.77-3.37-5.18-5.39a.947.947 0 0 0-.2-.2c-.69-1.56-.49-3.52-.19-5.08.3-1.57.79-3.43 1.87-4.7.79-.98-.59-2.35-1.38-1.37-2.46 3.03-3.54 8.52-1.97 12.14.09.2.21.32.35.4 1.57 2.21 3.53 4.18 5.72 5.81.04.78.55 1.53 1.54 1.53h7.88c-3.35 3.02-6.81 5.85-10.28 8.81l-2.17 1.86c-.3.29-.79.59-.98.98-.3.98-.1 2.15-.1 3.13 0 1.17.1 2.45.3 3.62.39 2.54.98 5.09 1.87 7.54.39 1.17 2.36.69 1.87-.49-1.52-4.17-2.21-8.61-2.08-13.06 5.02-4.21 10.03-8.25 14.76-12.76.33.38.67.74 1.02 1.1-1.63 2.8-2.9 5.78-4.16 8.77-1.28 3.03-2.56 6.26-3.05 9.49l.01.18a.87.87 0 0 0-.1.7c1.18 5.09 2.85 10.28 5.81 14.68.69 1.08 2.36.1 1.67-.98-2.85-4.2-4.32-9.27-5.5-14.15.5-3.11 1.67-6.13 2.84-9.05.93-2.39 1.99-4.71 3.21-6.97l-.15 1.88c0 .2.1.49.3.59 1.76.96 3.72-.3 4.76-1.85 1.01 1.47 2.78 2.68 4.49 1.75.2-.1.3-.29.3-.59l-.04-1.48c1.11 2.17 2.13 4.39 3.09 6.67 1.18 2.94 2.36 5.97 2.85 9.1l.1.28c-1.17 4.78-2.73 9.72-5.42 13.82-.69 1.08.98 2.06 1.67.98 2.95-4.4 4.53-9.59 5.81-14.68.06-.35-.08-.64-.3-.86v-.03c-.49-3.23-1.77-6.46-3.05-9.49-1.24-2.94-2.58-5.88-4.09-8.64.4-.4.77-.82 1.14-1.24 4.73 4.42 9.84 8.55 14.77 12.77.14 4.45-.55 8.8-2.08 13.07-.39 1.17 1.48 1.66 1.87.49 1.58-4.5 2.36-9.2 2.07-14 0-.59-.49-.88-.89-1.17-.69-.59-1.38-1.17-2.17-1.76-3.47-2.96-7-5.86-10.38-8.91h8.04c1.06 0 1.57-.84 1.55-1.67 2.2-1.57 4.04-3.6 5.59-5.79.12-.08.24-.19.32-.37 1.61-3.65.52-9.13-1.94-12.16zM54.46 53.76c-.43.05-.83.41-.91.87-.06.09-.1.18-.1.31l.09 3.46c-1.2.36-2.48-1.29-2.84-2.29-.23-.62-1.07-.56-1.27-.07l-.11.17c-.36.99-1.79 2.54-3.01 2.27l.26-3.15c0-.12-.02-.21-.06-.3.1-.21.08-.46-.13-.68-4.23-4.01-7.38-8.91-6.2-14.98.49-2.84 2.17-5.29 4.23-7.24.98-.98 2.26-1.66 3.45-2.25.69-.29 1.38-.2 2.17-.2.59 0 1.18-.1 1.77.1 1.28.2 2.76 1.47 3.64 2.25 2.17 1.76 3.64 4.31 4.33 6.95.23.9.35 1.79.38 2.66-.04.2-.03.41.01.62-.1 4.39-2.55 8.35-5.7 11.5z"/><path fill="#fff" d="M54.23 44.47c.3-.69.49-1.47.49-2.25-.1-2.45-2.07-4.5-4.63-4.7-2.85-.2-5.22 2.06-5.22 4.89 0 .78.2 1.47.49 2.15.2.39.59.59.98.59h6.89c.41 0 .81-.29 1-.68zm-2.75 2.44h-3.35a.98.98 0 0 1-.98-.98v-1.57h4.73c.2 0 .39.2.39.39v1.27c.09.5-.3.89-.79.89z"/><path fill="#A9A09F" d="M49.51 37.52c-2.56.1-4.63 2.25-4.63 4.89 0 .78.2 1.47.49 2.15.2.39.59.59.98.59h.79v.78c0 .59.49.98.98.98h1.48v-9.4l-.09.01z"/><ellipse cx="47.34" cy="43.09" fill="#151841" rx="1.28" ry="1.27"/><ellipse cx="51.77" cy="42.99" fill="#151841" rx="1.28" ry="1.27"/><path fill="#151841" d="M48.82 45.14l.39-.98c.1-.39.69-.39.89 0l.39.88c.1.29-.1.59-.39.69l-.79.1c-.39-.1-.59-.39-.49-.69z"/></svg>