<svg width="100" height="100" viewBox="0 0 100 100" xmlns="http://www.w3.org/2000/svg"><path fill="#F15A29" d="M18.11 78.69L50 97.32l31.89-18.63V20.74L50 17.45l-31.89 3.29"/><path fill="none" d="M67.22 16.68h.3"/><g><path fill="#A9A09F" d="M49.88 96.48l27-14.41-1.09-2.28-1.19-8.57s0-8.39-3.28-12.4c-1.09-1.28-4.1-4.1-4.83-5.84-1.65-3.93-.55-13.05-2.29-16.98-2.55-5.66-3.74-10.85-13.23-11.31-6.57-.36-8.03 1.46-10.49 2.74-8.21 4.38-7.11 23.44-7.11 23.44-.36 2.28.73 3.01-1.09 4.29-4.93 3.65-6.02 9.67-6.57 13.32-.46 3.37-.27 9.94-.55 14.87l24.72 13.13z"/><path fill="#151841" d="M48.06 79.51c0 .27.36.27.46.09l.36-.82h.36l-.46-1.28v-.09c.09-.55.46-4.93-3.1-6.02-1.37-.36-5.84-.27-6.02-.27-.18 0-2.74-.18-4.1-1.92-1.28-1.64-2.55-7.57-2.55-7.57 0-.09-.18-.09-.27 0 0 0-5.63 6.18-5.63 12.01 0 2.74 5.27 7.51 8 7.87 2.28.27 7.39-1.92 9.3-2.83.18-.09.27 0 .36.18l.18 1.09c0 .27.36.27.46.09l.73-1.46c0-.09.18-.18.27-.09h.09c.09 0 .18.09.18.27l-.09 1.28c0 .27.36.36.46.09l.55-1.46h.36l.1.84zM51.07 78.96c0 .27-.36.27-.46.09l-.36-.82h-.36l.36-1.28v-.09c-.09-.55-.64-4.47 2.65-6.02 1.64-.73 11.86-1.46 13.5-3.74 1.19-1.73 1.73-6.93 1.73-6.93 0-.09.36 0 .36.09 0 0 4.25 5.36 4.25 11.29 0 2.74-6.16 8.23-8.9 8.6-2.28.36-6.93-1.46-8.85-2.37-.18-.09-.64.36-.64.55l-.18 1.09c0 .27-.36.27-.46.09l-.73-1.46c0-.09-.18-.18-.27-.09h-.09c-.09 0-.18.09-.18.27l.09 1.28c0 .27-.36.36-.46.09l-.55-1.55h-.36l-.09.91zM53.09 31.97c-.06-.09-.11-.17-.19-.25-.55-.55-1.55-.91-2.92-.91h-.55c-1.64-.09-2.83.18-3.47.91-.64.64-.55 1.37-.55 1.37.09.09.55.91 1 .91.03 0 .06.01.09 0 .05-.01.08-.05.13-.07.1-.07.17-.16.24-.3.09-.09.09-.27 0-.46l-.27-.46c.27-.18.55-.36.82-.36.09 0 .18.09.27.18 0 0 .27.27.18.82 0 .09-.18.36-.36.55-.18.27-.46.55-.36.82.18.64 2.1 1.09 2.37 1.19.16 0 1.74-.42 2.11-.97.08-.07.15-.15.17-.22.03-.13-.05-.29-.16-.46-.05-.08-.11-.16-.18-.25-.19-.24-.39-.49-.39-.66-.09-.64.18-.91.18-.91.01-.02.02-.03.03-.05.06-.02.11-.05.15-.05.27 0 .64.18.82.36l-.27.46c-.09.09-.09.27 0 .46.09.18.18.27.36.36h.09c.02 0 .05 0 .08-.01.01 0 .01.01.01.01.46.09.91-.91.91-.91s.06-.54-.34-1.1z"/><path fill="#151841" d="M49.06 35.36c-.09 1.55-.09 3.1-.09 4.65 0 1.28.91 1.82 1.92 2.28 2.74 1.09 5.93.18 7.39-2.46.27-.46-.46-.91-.73-.46-1.37 2.46-4.38 3.1-6.84 1.92-1.19-.64-.91-1.55-.91-2.74v-3.19c.17-.54-.74-.54-.74 0z"/><path fill="#151841" d="M49.06 40.11c-.91 1.46-2.46 1.82-4.1 1.82-1.55 0-2.74-1.28-3.28-2.55-.18-.46-.91-.09-.73.46.36.91 1 1.55 1.73 2.19s1.28.82 2.28.82c2.01 0 3.74-.55 4.83-2.28.28-.46-.45-.92-.73-.46zM57.82 31.17l-.55-.36c-.14-.14-.27-.13-.41-.07-.06.01-.1.03-.14.07l-.73.64c-.09 0-.09.09-.09.18 0 0 .09.09.18.09l1.55-.09c.18 0 .27-.09.27-.18.1-.1.01-.19-.08-.28zm-.09 0l-.55-.36.55.36z"/><path fill="#A9A09F" d="M61.92 30.26c1.09.36 2.46.27 3.47.82.18.09.27.18.36.27.09.18.09.27.09.46 0 .27.09.46-.09.73-.09.18-.27.36-.46.46-.55.27-1.28.46-1.82.18"/><path fill="#151841" d="M61.83 30.71c.82.27 1.73.27 2.65.46.64.18 1.37.46.91 1.19-.36.55-1.09.64-1.64.46-.55-.18-.73.64-.18.82 1.37.36 3.19-.27 2.92-1.92-.27-1.82-3.01-1.46-4.29-1.82-.64-.19-.82.63-.37.81z"/><path fill="#A9A09F" d="M37.02 30.26c-1.09.36-2.46.27-3.47.82-.18.09-.27.18-.36.27-.09.18-.09.27-.09.46 0 .27-.09.46.09.73.09.18.27.36.46.46.55.27 1.28.46 1.82.18"/><path fill="#151841" d="M36.93 29.89c-1.28.46-4.01.09-4.29 1.82-.27 1.64 1.55 2.37 2.92 1.92.55-.18.27-1-.18-.82s-1.09.09-1.55-.18c-.91-.73.09-1.37.73-1.46.91-.18 1.82-.18 2.65-.46.45-.18.27-1-.28-.82z"/><path fill="#858080" d="M64.93 43.76c-.64 1.28-1.19 2.37-1.92 4.93-.09.46-.27 1-.55 1.46-.64 1.37-1.92 2.37-3.19 3.19s-2.65 1.55-3.74 2.55c-.82.73-1.55 1.55-2.01 2.55-.91 1.82-1.19 3.28-.36 5.11.46 1.19 2.01 2.37 2.55 2.55 2.83.55 5.84-.55 7.48-2.92 1-1.55 1.37-3.37 2.19-5.02.18-.36.36-.73.64-.91.82-.73 2.01-.64 3.01-.55-1.09-1.28-2.28-2.65-2.92-4.29-.46-1.37-.46-2.83-.46-4.29 0-.73 0-1.46-.36-2.1l-.36-2.26zM34.01 43.76c.64 1.28 1.09 2.37 1.64 4.93.09.46.27 1 .46 1.46.55 1.37 1.64 2.37 2.83 3.19 1.09.82 2.37 1.55 3.37 2.55.73.73 1.37 1.55 1.73 2.55.82 1.82 1 3.28.36 5.11-.46 1.19-1.82 2.37-2.28 2.55-2.55.55-5.2-.55-6.66-2.92-.91-1.55-1.19-3.37-1.92-5.02-.18-.36-.36-.73-.55-.91-.73-.73-1.09-.73-2.01-.55 1.09-1.28 2.1-1.28 2.55-2.92.46-1.37-.18-4.1-.18-5.56 0-.73 0-1.46.27-2.1l.39-2.36z"/><path fill="#151841" d="M43.32 31.35l-.73-.64c-.18-.09-.36-.09-.55 0l-.55.36c-.09 0-.09.18-.09.27.07.07.13.13.19.16.01 0 .02.01.03.01s.03.01.05.01l1.55.18c.09 0 .18 0 .18-.18.01.01.01-.08-.08-.17z"/><g><path fill="#FFF" d="M47.88 47.04h-1c-.82 0-1.46-.73-1.46-1.64v-2.37c0-.36 1.28-.55 2.1-1 1-.55 1.73-2.01 1.73-2.01.82 0 0 .64 0 1.55v3.74c.09.91-.64 1.73-1.37 1.73z"/><path fill="#151841" d="M47.88 47.5h-1c-1 0-1.82-1-1.82-2.19v-2.37c0-.64.55-.82 1.37-1.09.36-.09.73-.27 1-.36.73-.36 1.37-1.37 1.55-1.73l.09-.27h.27c.18 0 .55 0 .73.36.18.36.09.64-.09 1-.18.27-.27.46-.27.73v3.74c-.01 1.26-.83 2.18-1.83 2.18zm-2.01-4.29v2.19c0 .64.46 1.09 1 1.09h1c.55 0 1-.55 1-1.09v-3.74c-.27.36-.73.73-1.09.91s-.73.36-1.09.46c-.36 0-.64.09-.82.18z"/><g><path fill="#FFF" d="M51.71 47.04h-1c-.82 0-1.46-.73-1.46-1.64v-3.74c0-.91-.27-1 .55-1 0 0 1.09 1.82 3.28 2.28v2.46c.09.82-.64 1.64-1.37 1.64z"/><path fill="#151841" d="M51.71 47.5h-1c-1 0-1.82-1-1.82-2.19v-3.74-.46c0-.27 0-.55.18-.82.18-.27.55-.27.82-.27h.27l.09.18s1 1.73 3.01 2.1l.36.09v2.92c-.09 1.27-.91 2.19-1.91 2.19zm-2.01-6.3V45.3c0 .64.46 1.09 1 1.09h1c.55 0 1-.55 1-1.09v-2.1c-1.54-.36-2.54-1.45-3-2z"/></g></g><g><path fill="#151841" d="M50.07 96.84c7.84-4.2 15.78-8.39 23.62-12.68 1.09-.64 2.28-1.19 3.37-1.82.18-.09.27-.36.18-.55-.64-1.37-1-2.1-1.19-3.37-.27-2.01-.55-4.01-.82-5.93-.18-1.19-.18-1.55-.27-2.83-.18-2.46-.55-5.02-1.37-7.3-.91-2.55-2.37-4.29-4.2-6.2-1-1.09-2.1-2.19-2.65-3.56-.46-1.28-.64-2.65-.82-4.01-.36-3.01-.36-6.02-.73-9.12-.27-2.37-.91-4.56-1.73-6.75-.82-2.01-1.92-4.01-3.56-5.38-1.92-1.64-4.47-2.46-6.93-2.83-2.92-.36-6.2-.46-9.03.64-1.64.64-3.37 1.64-4.74 2.65-3.47 2.65-4.74 7.39-5.47 11.49-.64 3.56-.82 7.21-.73 10.85v.73c0 .55-.09 1-.09 1.55s.18 1.09-.09 1.64c-.27.64-1.19 1.09-1.73 1.55-.64.55-1.19 1.19-1.73 1.82-.91 1.19-1.64 2.46-2.19 3.83-2.1 5.2-2.01 11.04-2.1 16.69 0 1.82-.09 3.65-.18 5.47 0 .18.09.27.18.36 7.11 3.83 14.32 7.57 21.43 11.4 1 .55 2.01 1.09 3.1 1.64.46.27.91-.46.46-.73-7.48-3.92-14.87-7.94-22.35-11.86-.55-.27-1.09-.64-1.73-.91-.09-.09-.36-.09-.36-.18.09.09.18-1 .18-1.37.18-4.29-.18-8.67.36-12.95.46-3.56 1.37-7.21 3.37-10.12.55-.82 1.19-1.64 1.92-2.28.64-.64 1.55-1.09 2.01-1.82.64-1 .36-2.65.36-3.74.09-4.01 0-7.84.73-11.86.55-2.83 1.37-5.75 3.01-8.21 1.37-2.1 3.65-3.47 5.84-4.56 3.47-1.73 8.12-1.46 11.77-.46 3.19.91 5.56 3.01 6.93 6.02 1.37 2.92 2.1 6.02 2.37 9.3.27 3.65.18 7.48 1.19 11.04.91 3.28 4.01 5.02 5.75 7.75 1.82 2.83 2.37 6.48 2.55 9.76.09 1.37.18 2.74.46 4.1.18 1.37.36 2.65.55 4.01.09.73.09 1.55.27 2.19.27.82.73 1.64 1.09 2.37.09-.18.09-.36.18-.55-7.84 4.2-15.78 8.39-23.62 12.68-1.09.64-2.28 1.19-3.37 1.82-.37.12.09.85.55.58z"/></g></g><g><path fill="#151841" d="M50 100L16 80.14V19.5L50 16l34 3.5v60.64L50 100zM19.04 78.44L50 96.53l30.96-18.09V22.19L50 19l-30.96 3.19v56.25z"/></g></svg>
