<svg width="100" height="100" viewBox="0 0 100 100" xmlns="http://www.w3.org/2000/svg"><path fill="#b1a6a3" d="M17.05 78.5l31.9 18.6 31.9-18.6v-58l-31.9-3.2-31.9 3.2v58z"/><path fill="#1e1e40" d="M49.05 100l-34-19.9V19.5l34-3.5 34 3.5v60.6zm-31-21.6l31 18.1 31-18.1V22.2l-31-3.2-31 3.2v56.2z"/><path fill="#fefafd" d="M63.15 72.6a35.48 35.48 0 0 0-3.3-3.7l-1.3-1.5a2 2 0 0 1 .1-2.2C60 63.4 62 55.7 61.15 53s-7.4-7.6-8.4-7.9-1.4 1.8-2.4 2.3a10.86 10.86 0 0 1-3.6.4l-.1.4a5.24 5.24 0 0 0-.3 1.6h-1.3l-10.3 12.3A36.23 36.23 0 0 0 39 69.2c2.1 2.5 6.6 2.5 8.5 4.3s1.7 2.5 1.7 2.5c.4.3 5.2 10.2 5.2 10.2s2 4.7 2.5 5.8l15.6-8.9z"/><path fill="#b1a6a3" d="M53.55 49.9s0 1.7 1.2 2.1-.9 2.8.3 4a14 14 0 0 0-4 5.3 3.54 3.54 0 0 0-.4 2.3c.4 1.1-.7-.2-2.3.9s-2.7 4.2-3.8 4.5-3.5 1.2-4.9 0"/><path fill="#1e1e40" d="M56.85 92.4h-.2a.43.43 0 0 1-.3-.3c-.5-1.1-2.5-5.8-2.5-5.8-1.7-3.6-5.3-11.1-6.8-12.5a12 12 0 0 0-3.4-1.6c-1.8-.6-3.8-1.2-5.1-2.8a41.37 41.37 0 0 1-4.2-7.2.51.51 0 0 1 .9-.5 36.57 36.57 0 0 0 4.1 7c1.1 1.3 2.9 1.9 4.6 2.4a9.61 9.61 0 0 1 3.8 1.8c1.5 1.4 4.3 7.1 7.1 12.9 0 0 1.6 3.7 2.3 5.3l14.6-8.2-8.4-9.2a.49.49 0 0 1 .7-.7l8.8 9.7a.6.6 0 0 1 .1.4.76.76 0 0 1-.2.4l-15.6 8.8a.37.37 0 0 1-.3.1z"/><path fill="#e84e1b" d="M2.75 38.8l29.1 37c.2 0 12.8-12.6 26.9-26.8.3-.3.8 1.5 1.1 1.2s1.8-2 2-2.2c.9-.9 2.7-2.6 3.6-3.5 12.9-13 26.2-25.9 30.9-31.3 1.4-1.6.7-2.7.7-2.7zM48 45.3l-15.6 14-.9 1.1S17.85 44.1 17.65 44l46.1-15 2.4-.8z"/><path fill="#fefafd" d="M36 56.3c.8 1.2 1.1 3 2.6 3.7 1 .4 2.1-.8 2.8-1.6a1.67 1.67 0 0 0 .1-1.8c-.7-1.1-1.9-3-2.5-3.9a2.34 2.34 0 0 0-1.6-1 1.81 1.81 0 0 0-2 .9c-.4.8-.9 1.7-.7 2.2a5.22 5.22 0 0 0 1.3 1.5z"/><path fill="#fefafd" d="M41.85 47.7c1 .5 2.6 3.4 3.4 4.7a2.57 2.57 0 0 1-.3 3.1c-.8.9-1.6 1.4-2.5 1a7.28 7.28 0 0 1-3.8-4.3 5 5 0 0 1 .9-4s1.3-1 2.3-.5zm1.4-.2s-2-2.1.2-3.6a3.44 3.44 0 0 1 2.7-.5s1.4-.3 1.8 1.8a8.46 8.46 0 0 0 .9 2.2c.1.4-1.3-.3-1.9.3a4.68 4.68 0 0 0-.5 2.6c.3 1.3-.1 1.5-1 1-1.2-.6-2.2-3.8-2.2-3.8z"/><path fill="#fefafd" d="M54.15 54.8a10.54 10.54 0 0 0-.3-2.5c-1.1-.9-1.3-.7-1.3-.7s.1.9-2.9.6-2.9-4-2.9-4l.1-.4a8.78 8.78 0 0 0 3.6-.4c1-.5 1.4-2.6 2.4-2.3s7.6 5.2 8.4 7.9c0 0-1.4 3-3 3.9-1 .6-2.2-.7-3-1a1.91 1.91 0 0 1-1.1-1.1zM34 54.9s-2.2 1.4-2 3 2.4 4.7 3.5 4.7a2 2 0 0 0 1.8-1.2 26.65 26.65 0 0 0-1.5-4.2c-.35-.4-.35-.4-1.8-2.3z"/><path fill="none" d="M68.95 25.5l28.2-14.9"/><path fill="#1e1e40" d="M52 71.3c-.2 0-1-.2-1.4-1.6l-.4-1.2a.47.47 0 0 1 .9-.3l.4 1.2a1.41 1.41 0 0 0 .6.9.55.55 0 0 1 .4.6.46.46 0 0 1-.5.4zm6.65 10.5a.47.47 0 0 1-.5-.5 32.41 32.41 0 0 0-2.3-5 .51.51 0 1 1 .9-.5c.7 1.4 2.4 4.7 2.4 5.4a.65.65 0 0 1-.5.6z"/><path fill="#1e1e40" d="M64.15 73.2a26.09 26.09 0 0 0-4.2-5c-.1-.1-1.8-1.4-.8-2.8 1.4-2 3.4-9.8 2.6-12.6s-7.6-7.9-8.7-8.2c-.9-.2-1.4.6-1.9 1.3a5.31 5.31 0 0 1-.9 1.1 2 2 0 0 1-.9.2 2.19 2.19 0 0 0-.3-.5 7.7 7.7 0 0 1-.6-1.5 3 3 0 0 0-1.1-2 2.1 2.1 0 0 0-1.2-.3 3.78 3.78 0 0 0-3 .6A2.65 2.65 0 0 0 42 45.4a3.39 3.39 0 0 0 .7 2.2c-.2-.2-.4-.3-.5-.4-1.2-.6-2.6.4-2.8.5l-.1.1a5.61 5.61 0 0 0-1.1 3.5c-.2-.1-.5-.2-.7-.3a2.16 2.16 0 0 0-2.5 1.1 4.1 4.1 0 0 0-.8 2.2.6.6 0 0 0-.4.1c-.1.1-2.4 1.6-2.3 3.5.1 1.7 2.4 5.1 4 5.1h.1a2.68 2.68 0 0 0 2.3-1.6 5.67 5.67 0 0 0-.5-1.9 3.13 3.13 0 0 0 1.1.8 1.27 1.27 0 0 0 .6.1c.7 0 1.6-.4 2.8-1.9a2.36 2.36 0 0 0 .3-2 1.06 1.06 0 0 0 .5.2 3.09 3.09 0 0 0 .8.2A3.37 3.37 0 0 0 46 52v-.1a.9.9 0 0 0 .5.1.55.55 0 0 0 .5-.2l.3-.3a3.23 3.23 0 0 0 2.3 1.2c1.8.2 2.8-.1 3.3-.5a3.81 3.81 0 0 0 .6.5c-.1.8-.2 2.6.9 3.4a.5.5 0 0 0 .6-.8 2.56 2.56 0 0 1-.6-1.9c0-2.1.8-2.3.6-2.5a.48.48 0 0 0-.7 0 3.4 3.4 0 0 0-.6 1 .78.78 0 0 1-.3-.4 1.75 1.75 0 0 0 0-1.7.5.5 0 0 0-.8.6 1.33 1.33 0 0 1-.4 1v.1a4.33 4.33 0 0 1-2.5.3c-2.5-.2-2.3-3-2.3-3l.1-.4v-.1a9.89 9.89 0 0 0 3.4-.2 4 4 0 0 0 1.3-1.6.81.81 0 0 1 1.2-.1c2 1.3 6.6 4.9 7.1 7 .7 2.4-1.3 9.8-2.5 11.5s.7 4 1.6 4.6c0 0 2.4 3 3.7 4.3.7.7.7.3.7.3s.2 0 .2-.1a2.13 2.13 0 0 0-.05-.8zm-28.8-11.1c-.8 0-2.9-2.7-3-4.2-.1-.9.8-1.8 1.5-2.3.5-.5 1.3 1.3 1.5 1.6a19.33 19.33 0 0 1 1.4 3.6.44.44 0 0 1-.1.5 1.74 1.74 0 0 1-1.3.8zm5.5-4.1c-.9 1.1-1.7 1.7-2.2 1.5a3.85 3.85 0 0 1-1.6-2.1c-.2-.5-1.8-2.5-2-3a3 3 0 0 1 .7-1.7 1.36 1.36 0 0 1 1.1-.7h.3a2.42 2.42 0 0 1 1.3.8c.1.2.2.3.3.5a4.7 4.7 0 0 0 .6.9c.6.9 1.2 1.9 1.6 2.5a1.19 1.19 0 0 1-.1 1.3zm3.8-2.9c-.9 1.1-1.5 1-1.9.9a6.68 6.68 0 0 1-2.6-2.2 7.57 7.57 0 0 1-.9-1.8 4.92 4.92 0 0 1 .7-3.5 1.93 1.93 0 0 1 1.7-.4c.7.3 2 2.6 2.8 3.7a5.58 5.58 0 0 0 .5.8 2.29 2.29 0 0 1-.3 2.5zm2.1-7.9a.51.51 0 0 0-.5.4l-.1.5a5.57 5.57 0 0 0-.3 2.4c.1.3 0 .5-.2.4-.8-.4-1.6-2.4-2-3.6 0-.1-.1-.1-.1-.2a2.42 2.42 0 0 1-.7-1.7 1.4 1.4 0 0 1 .8-1.1 2.91 2.91 0 0 1 1.6-.5 3.55 3.55 0 0 1 .7.1h.3a.73.73 0 0 1 .6.1 2 2 0 0 1 .6 1.3 4.07 4.07 0 0 0 .6 1.7 3 3 0 0 0-1.3.2z"/><path fill="#e84e1b" d="M33.85 76.4l-2-.3 21.4-21.4.7 1.4-20.1 20.3z"/><path fill="#494695" d="M56.65 92.1L74 82c-2.3-2.1-6.1-5-6.5-5.9a17.27 17.27 0 0 0-2-3.2c.3.8-.4 1.7-1.4 3-2.75 3.2-4.45 11.9-7.45 16.2z"/><path fill="#1e1e40" d="M97.35 10.1h-.3L2.65 38.3c-.1 0-.1 0-.1.1h-.1a.35.35 0 0 0-.1.2v.3a.2.2 0 0 0 .1.2l29 36.9a23.4 23.4 0 0 0 2.4.9H34c.1 0 .3-.1.4-.1L55 55.9c.1-.2-.3.1-.4-.1l-.2-.4-.7-.7-.1-1.2-2.1 2.1-1.3-1.3a.49.49 0 0 0-.7.7l1.3 1.3-1.9 1.9-1.45-1.2a.49.49 0 1 0-.7.7l1.3 1.3-1.9 1.9-1.4-1.4a.49.49 0 0 0-.7.7l1.4 1.5-2 2-1.4-1.4a.49.49 0 1 0-.7.7l1.4 1.4-1.9 1.9-1.4-1.4a.49.49 0 1 0-.7.7l1.4 1.4c-.7.7-1.4 1.3-2 2l-1.5-1.5a.49.49 0 1 0-.7.7l1.5 1.5c-.7.6-1.2 1.2-1.8 1.8l-1.5-1.5a.49.49 0 1 0-.7.7l1.5 1.5c-1.2 1.2-2.1 2.1-2.7 2.6l-.4-14.1.5-.6-.5-1-.5.6c-7.5-9-11.1-13.3-12.9-15.4l45.7-14.9-15.9 15 .3 1.1 19-17.8.6-.5 1.2-1.1 25.1-13.6-8.4 8.4-1.5-1.5a.49.49 0 1 0-.7.7l1.5 1.5-2 2-1.5-1.5a.49.49 0 1 0-.7.7l1.5 1.5-1.9 1.9-1.5-1.5a.49.49 0 0 0-.7.7L80 26.9l-2 2-1.5-1.5a.49.49 0 0 0-.7.7l1.5 1.5-1.9 1.9-1.6-1.6a.49.49 0 1 0-.7.7l1.6 1.6-1.9 1.9-1.7-1.7a.49.49 0 0 0-.7.7l1.7 1.7-1.9 1.9-1.5-1.5a.49.49 0 1 0-.7.7l1.5 1.5-2 2-1.5-1.5a.49.49 0 0 0-.7.7l1.5 1.5-2 2-1.5-1.5a.49.49 0 0 0-.7.7l1.5 1.5-1.9 1.9-1.5-1.5a.49.49 0 0 0-.7.7l1.4 1.8-1.9 1.9-1.55-1.6a.49.49 0 0 0-.7.7l1.6 1.6-.4.4a.66.66 0 0 0-.1.6l.65 1.4a1.38 1.38 0 0 0 .4.3h.1c.1 0 .3-.1.4-.1l37.6-38.2a.48.48 0 0 0 .1-.4v-1.8a.54.54 0 0 0-.25-.4zm-44.3 45.8l.2.5-19.6 19.5-.8-.2zm-22.2 4.7l.4 13.7-3.6-4.6 1.7-1.7a.49.49 0 1 0-.7-.7l-1.6 1.6-1.9-2.5 1.9-1.9a.49.49 0 1 0-.7-.7l-1.8 1.9-2.1-2.7 1.8-1.8a.49.49 0 1 0-.7-.7l-1.7 1.7-2-2.6 1.8-1.8a.49.49 0 0 0-.7-.7l-1.7 1.7-2.1-2.6h.1l1.9-1.9a.49.49 0 0 0-.7-.7l-2 1.8-2-2.6a.1.1 0 0 0 .1-.1l1.9-1.9a.49.49 0 1 0-.7-.7l-1.9 1.9-2.2-2.8 1.8-1.8a.49.49 0 1 0-.7-.7L11 48.4l-1.9-2.5a.1.1 0 0 0 .1-.1l1.9-1.9a.49.49 0 1 0-.7-.7l-1.9 1.9-4.4-5.4 12 3.5 1.1 1.2c2.55 3 9.05 10.7 13.65 16.2zm35-32.8l-48.1 15.7c-.2-.2-.3-.4-.4-.5l49.4-16zm2.9-2.8l-52.4 17.2-11.8-3.4 87.9-26.3zm27.8-12.5l-36.9 37.4-.3-.7 37.2-37.3v.6zm-36.5 71c-1.3 3.5-2.7 7.1-4.4 9.1l1.8-1a55.51 55.51 0 0 0 3.4-7.7c1.2-3.1 2.3-6.1 3.6-7.7a8.47 8.47 0 0 0 1.4-1.9 7.45 7.45 0 0 1 1 2c0 .1.1.2.1.3-1 1.5-5.1 7.6-3.8 11.8l.9-.5c-.8-3.5 2.4-8.8 3.7-10.4l.1.1c-.4 1-2.1 5.7-1.5 9l1-.6a18.41 18.41 0 0 1 1.3-7.6c.7.7 1.7 1.5 2.8 2.5.7.6 1.3 1.1 1.9 1.6l1.1-.6c-.6-.6-1.4-1.2-2.2-1.9-1.7-1.4-4.1-3.4-4.3-4-.4-1-1.6-4.7-3.6-3.9a1.34 1.34 0 0 0-.8 1 .33.33 0 0 0-.1.5.55.55 0 0 0 .5.3.51.51 0 0 0 .4-.5 1 1 0 0 1 .4-.5.45.45 0 0 1 .5.4c.1.5-.3 1.1-1.4 2.4-1.5 1.5-2.6 4.5-3.8 7.8z"/></svg>
