<svg width="100" height="100" viewBox="0 0 100 100" xmlns="http://www.w3.org/2000/svg"><path fill="#B1A6A3" d="M17.5 78.5l31.9 18.6 31.9-18.6v-58l-31.9-3.2-31.9 3.2v58z"/><path fill="#1E1E40" d="M49.5 100l-34-19.9V19.5l34-3.5 34 3.5v60.6l-34 19.9zm-31-21.6l31 18.1 31-18.1V22.2l-31-3.2-31 3.2v56.2z"/><path fill="#B1A6A3" d="M54 49.9s0 1.7 1.2 2.1-.9 2.8.3 4c-1.7 1.4-3.1 3.2-4 5.3-.4.7-.5 1.5-.4 2.3.4 1.1-.7-.2-2.3.9S46.1 68.7 45 69s-3.5 1.2-4.9 0"/><g><path fill="#494695" d="M80.5 78.4l-.1-1.3c-1.6-2.1-3.7-5.8-3.9-4.5-.9 4.7-4.8.5-9.4 7.4-3.5 5.1-10 10.3-10 10.3l-.2 2 23.6-13.9z"/></g><g><path fill="#494695" d="M59.2 31.2c-3.1-1.2-7-2.1-11.2-1.7-6.1.5-10 2.6-14.4 7.9-.6.8-.8 1.4.2 1.9.3.2.8.8 1.2.8.7 0 .4.7.8.2 3.7-4.6 8-7.2 12.7-7.6 3.5-.3 6.8.6 9.4 1.6l1.3-3.1z"/><path fill="#1E1E40" d="M35.5 41c-.4 0-.5-.3-.5-.4-.5 0-.8-.3-1.1-.6-.1-.1-.3-.2-.3-.3-.5-.3-.8-.6-.9-1.1s.1-1 .6-1.6c4.5-5.4 8.5-7.6 14.8-8.1 3.7-.3 7.5.3 11.4 1.8.1 0 .2.1.3.3.1.1.1.3 0 .4l-1.3 3.2c-.1.3-.4.4-.7.3-3.2-1.3-6.3-1.9-9.2-1.6-4.6.4-8.8 2.9-12.4 7.4-.2.1-.4.3-.7.3zm-.5-1.4c.3 0 .4.1.6.2 3.8-4.6 8.1-7.1 12.8-7.5 2.9-.3 6 .2 9.2 1.5l.9-2.2c-3.6-1.3-7.1-1.8-10.5-1.5-6 .5-9.8 2.6-14.1 7.8-.4.5-.4.7-.4.8 0 .2.3.3.4.4.2.1.3.2.5.4.2-.1.5.1.6.1-.1 0 0 0 0 0z"/><path fill="#E84E1B" d="M21.2 25.3c.6-.3-3.5-7.3-3.5-7.3l29.1 31.7 2.6 5.2-1.4 1.3-26.8-30.9z"/><path fill="#1E1E40" d="M48 56.6c-.2 0-.3-.1-.4-.2L20.8 25.6c-.1-.1-.1-.3-.1-.4v-.1c-.1-.8-1.6-4.3-3.2-7.1-.1-.2-.3-.2-.1-.4.2-.2.5-.1.7.1l29.1 31.7.1.1 2.6 5.2c.1.2.1.4-.1.6l-1.4 1.1c-.1.1-.3.2-.4.2zM21.7 25.1L48 55.4l.7-.7-2.4-4.8-26.1-28.5c1 1.9 1.5 3.1 1.5 3.7z"/><path fill="none" d="M56.6 31l-.4.9"/><path fill="#1E1E40" d="M56.2 32.4H56c-.3-.1-.4-.4-.3-.6l.4-1c.1-.3.4-.4.6-.3.3.1.4.4.3.6l-.4 1c0 .2-.2.3-.4.3z"/><path fill="none" d="M53.1 29.6l-.2 1.4"/><path fill="#1E1E40" d="M52.9 31.5c-.4 0-.5-.3-.5-.6l.2-1.3c0-.3.3-.5.6-.4.3 0 .5.3.4.6l-.2 1.3c0 .2-.2.4-.5.4z"/><path fill="none" d="M49 29.6l.2 1.2"/><path fill="#1E1E40" d="M49.2 31.3c-.2 0-.5-.2-.5-.4l-.2-1.2c0-.3.2-.5.4-.6.3 0 .5.2.6.4l.2 1.2c0 .3-.2.6-.5.6z"/><path fill="none" d="M40 32.2l.6 1.1"/><path fill="#1E1E40" d="M40.6 33.8c-.2 0-.3-.1-.4-.2l-.7-1.1c-.1-.2-.1-.5.2-.7.2-.1.5-.1.7.2l.7 1.1c.1.2.1.5-.2.7-.1-.1-.2 0-.3 0z"/><path fill="none" d="M37.1 34.3l.8 1"/><path fill="#1E1E40" d="M37.9 35.8c-.1 0-.3-.1-.4-.2l-.8-.9c-.2-.2-.2-.5 0-.7s.5-.2.7 0l.8.9c.2.2.2.5 0 .7-.1.1-.2.2-.3.2zM57 90.5v-.2s-.2.3.3-.1c0 0 .3-.4.3-.5-.3-1.3 2.7-5.4 4.7-7.6l6-3.9c1.5-1.7 2.9-2.3 4.2-2.7l3.5-2.2v.6c.2-.4.4-.8.5-1.4.1-.3.2-.3.5-.1 0-.1-.1-.2-.3-.3-.2-.1-.3-.1-.5 0l-14.5 9.4c-.9 1-5.6 6.7-5.1 8.9 0 .3.3 0 .4.1z"/><path fill="#FFF" d="M61.7 77.7c.7 2 1.3 4.5 1.8 6.7 1.3-1.4 2.6-2.9 3.6-4.4 4.1-6.2 7.7-3.5 9-6.2-2.7-4.2-4.2-5.8-5.8-7.5-1.1-1.2-2.5-2.3-2.5-2.3s-1.5-5.5-4-8.4c-2.7-3.2-6.7-4.3-6.7-4.3L55 48.1c-.2-1.3-3.2-2.5-3.3-3.7-.1-.8-.8-3.2-.8-3.2-.8-1.4-2.1-.7-2.9-.7-1.6-.1-.4 2.7-.1 5.9.2 2.5.2.2.7 2 .5 1.5 1.6 2.7 1.8 4.2.3 2 .9 2.7.9 2.7l-1.2.8c-1.3-1-3.8-.2-3.8-.2l-3.5-.7c-2.6-1.1-2.1-2-2.5-3.6-.4-1.4 1.6-4 0-5.4-2.5-2.1-4.3 2-4.4 5.1-.1 1.9-.8 2.6.1 4.7l2 3 3.6 2.1-2.3 1.9 3.5 6.3 16.8 3.8c1.6 1.1 1.5 2.8 2.1 4.6z"/><path fill="#1E1E40" d="M60.9 76.3c.1.5.2 1 .4 1.5.8 2.2 1.4 4.9 1.8 7l.9-.9c-.4-2-1-4.3-1.6-6.3-.2-.5-.3-1-.4-1.4-.3-1.2-.6-2.5-1.9-3.4-.1-.1-.1-.1-.2-.1l-16.6-3.8-3.1-5.8 1.9-1.6c.1-.1.2-.2.2-.4s-.1-.3-.2-.4l-3.5-2-1.9-2.8c-.6-1.3-.5-2-.3-2.9.1-.5.2-1 .2-1.6 0-2.3 1-4.6 2.1-5.1.4-.2.9 0 1.4.4.7.6.5 1.6.1 2.9-.2.8-.5 1.6-.3 2.3.1.3.2.6.2.9.2 1.3.5 2.2 2.7 3.1l3.5.7h.2c.6-.2 2.5-.5 3.4.1.2.1.4.1.6 0l1.2-.8c.1 0 .2-.2.2-.3 0-.1 0-.3-.1-.4 0 0-.6-.6-.8-2.4-.1-.9-.6-1.7-1-2.5-.3-.6-.6-1.1-.8-1.7-.2-.6-.4-.9-.6-1 0-.2-.1-.5-.1-.9-.1-1-.2-2-.4-2.8-.2-1.1-.4-2.3-.2-2.6h.2c.3 0 .5-.1.8-.1.8-.2 1.3-.2 1.6.4.2.7.7 2.5.8 3.1.1.8.9 1.4 1.8 2.1.6.5 1.4 1.1 1.5 1.6 0 .1.1.1.1.2l2.1 3.2c.1.1.2.2.3.2s3.9 1.1 6.5 4.1c2.4 2.7 3.9 8.1 3.9 8.2.1.1.1.2.2.3 0 0 1.4 1.1 2.5 2.3l.2.2c1.5 1.5 3.1 3.2 5.6 7.1.2-.3.4-.6.5-1.1-2.4-3.7-4-5.3-5.4-6.8l-.1-.1c-.9-1-2-1.9-2.4-2.2-.3-1-1.8-5.8-4.1-8.5-2.5-2.9-6-4.1-6.8-4.4l-2-3c-.2-.8-1.1-1.5-1.9-2.1-.6-.4-1.4-1-1.4-1.4-.1-.9-.8-3.2-.9-3.4-.7-1.4-1.9-1.2-2.7-1.1-.2.1-.4.1-.6.1-.5 0-.8.2-1 .4-.5.6-.3 1.8 0 3.4.1.8.3 1.8.4 2.7.2 1.3.2 1.5.5 1.7h.1c0 .1 0 .2.1.4.2.7.6 1.3.9 1.9.4.7.8 1.4.9 2.2.2 1.3.5 2.1.7 2.5l-.5.3c-1.4-.7-3.4-.2-3.9-.1l-3.3-.7c-1.8-.8-1.8-1.3-2-2.3-.1-.3-.1-.6-.2-1-.1-.5.1-1.1.3-1.8.4-1.3.8-2.8-.4-3.9-1.1-.9-1.9-.7-2.5-.5-1.6.8-2.6 3.7-2.7 6 0 .5-.1 1-.2 1.4-.1.9-.3 1.8.4 3.5l2 3c.1.1.1.2.2.2l2.9 1.7-1.7 1.4c-.2.1-.2.4-.1.6l3.5 6.3c0 .1.2.2.3.2l16.7 3.8c.8.7 1 1.6 1.3 2.8z"/><path fill="#E84E1B" d="M39.2 12.3l2.5 2.6L47 30.3l4.7 25.5h-1.6l-2.6-6.3"/><path fill="#1E1E40" d="M51.7 56.3h-1.6c-.2 0-.4-.1-.5-.3L47 49.7l-8.3-37.3c0-.2.1-.4.2-.5.2-.1.4-.1.6.1l2.6 2.6c.1.1.1.1.1.2l5.3 15.5 4.7 25.5c0 .1 0 .3-.1.4-.1 0-.2.1-.4.1zm-1.3-1h.7l-4.6-24.9-5.2-15.3-1.3-1.3 8 35.6 2.4 5.9zM65.9 68.6s0-.1 0 0c-.4-.1-.5-.3-.5-.6 0 0 .3-1.9-.4-3.3-1-2-3.6-2.9-3.6-2.9-.3-.1-.4-.4-.3-.6.1-.3.4-.4.6-.3.1 0 3 1.1 4.2 3.4.9 1.7.5 3.9.5 4s-.2.3-.5.3z"/><path fill="#FFF" d="M44.1 66.4s-2.2 1.5-4.4 1.5c-1.4 0-2.8-1.1-3.7-1.9-.6-.6-.9-1.3-1-2.1 0-1.6 0-4.1.6-5.1.6-.9 3.1-3.8 4.1-4.1.9-.3 2.1.5 2 1.4-.1.7-.2 1.4-1 2.4s-1.3 2.3-1.3 2.3-.4 2.1-.2 2l2.3.6"/><path fill="#1E1E40" d="M39.7 68.4c-.1 0-.1 0 0 0-1.5 0-3.1-1.1-4.1-2-.7-.6-1.1-1.5-1.1-2.5-.1-2.8.1-4.6.6-5.4.5-.9 3.2-3.9 4.3-4.3.7-.2 1.5 0 2 .5.5.4.7.9.6 1.5-.1.8-.2 1.5-1.1 2.6-.6.8-1.1 1.9-1.3 2.1-.1.5-.2 1.1-.2 1.4l2 .5c.3.1.4.3.4.6-.1.3-.3.4-.6.4l-2.3-.6c-.1 0-.2 0-.2-.1-.2-.2-.4-.3.1-2.5v-.1c0-.1.6-1.4 1.4-2.4.7-.9.8-1.4.9-2.1 0-.3-.2-.5-.3-.6-.3-.3-.7-.4-1.1-.3-.7.2-3.1 2.8-3.8 3.9-.4.6-.6 2.4-.5 4.8 0 .7.3 1.3.8 1.8 1.2 1.1 2.4 1.8 3.4 1.8 2 0 4.1-1.4 4.1-1.4.2-.2.5-.1.7.1s.1.5-.1.7c0 0-2.3 1.6-4.6 1.6z"/><g><path fill="#1E1E40" d="M39.4 14.1c-.2 0-.4-.2-.5-.4l-1.2-5.9c-.1-.3.1-.5.4-.6s.5.1.6.4l1.2 5.9c.1.3-.1.5-.5.6.1 0 .1 0 0 0z"/></g><g><path fill="#1E1E40" d="M20.3 21.7c-.2 0-4.4-5.8-4.4-5.8-.2-.2-.1-.5.1-.7s.5-.1.7.1c0 0 4.6 5.9 4.4 6.1-.1.1-.7.3-.8.3z"/></g><g><path fill="#FFF" d="M45.2 66.5l-.8.1c-.7-.8-1.9-1.3-.5-2 .6-.3 3.5-1.8 3-3.8-.1-.3-.4-1-.7-1.2-.9-.6-2-.1-2.9.5l-3.1 2.1c-1 1.1-2 2.4-1.8 3.9l.4.9c.2.4.4.7.6 1.1 1.4 2 3.9 3.2 6.4 3.2h.8"/><path fill="#1E1E40" d="M46.4 71.9h-.8c-2.8 0-5.3-1.3-6.8-3.4-.3-.4-.5-.8-.7-1.2l-.3-.9v-.1c-.3-1.8.9-3.2 1.9-4.3l.1-.1 3.1-2.1c1.4-1 2.6-1.1 3.5-.5.5.3.8 1.1.9 1.5.3 1.1 0 2.8-3.2 4.4-.3.2-.4.3-.4.3s.3.2.5.4c.1.1.3.2.4.4l.6-.1c.3 0 .5.2.6.4.1.2-.2.5-.4.6l-.8.1c-.2 0-.3 0-.4-.2l-.5-.5c-.4-.4-.9-.8-.8-1.3s.5-.8.9-1c2-1 3-2.2 2.7-3.3-.1-.3-.3-.8-.5-.9-.6-.4-1.4-.2-2.4.5l-3 2.1c-.8.9-1.8 2.1-1.6 3.4l.4.8c.1.3.3.7.6 1 1.3 1.8 3.5 3 6 3h.8c.3 0 .5.2.5.5-.4.2-.6.5-.9.5z"/></g><g><path fill="#FFF" d="M57.3 71.7c-2.4 1.5-5 1-8.3 1s-4.5-1.8-4.5-1.8l-.7-2.6c-.4-1.3-.3-2.4.7-3.3.6-.5 1.5-.6 2-.7 1.9-.3 3.9-1.2 4.4-.1s-.1 2.6-1.4 2.7c-1.2.1-1.9-.2-1.6.9.2.8.6.8.6.8s1.7-.1 3.6-1.3l2.2-1.2"/><path fill="#1E1E40" d="M52.8 73.3H49c-3.5 0-4.8-2-4.9-2.1 0 0 0-.1-.1-.1l-.7-2.7c-.3-1.1-.5-2.6.9-3.9.7-.6 1.5-.7 2.1-.8h.1c.5-.1 1-.2 1.4-.3 1.5-.3 2.9-.7 3.5.5.3.7.3 1.6-.1 2.4-.4.6-1 1-1.6 1.1h-1.1s0 .1.1.2l.2.4c.4 0 1.8-.3 3.3-1.2l2.2-1.2c.2-.1.5 0 .7.2.1.2 0 .5-.2.7l-2.2 1.2c-2 1.2-3.8 1.3-3.8 1.3-.2 0-.8-.1-1.1-1.1-.1-.3-.2-.8.1-1.1.3-.4.8-.4 1.3-.4h.7c.5 0 .7-.4.9-.6.3-.4.3-1 .1-1.4-.2-.4-1.3-.2-2.4.1l-1.5.3h-.1c-.5.1-1.2.2-1.6.6-.8.7-1 1.5-.6 2.8l.7 2.5c.2.3 1.4 1.6 4 1.6h2.2c2.3.1 4.1.1 5.8-1 .2-.1.5-.1.7.2.1.2.1.5-.2.7-1.7.9-3.3 1.1-5 1.1z"/></g><g><path fill="#1E1E40" d="M57.3 92.5l.2-2c1-.9 6.6-5.6 9.8-10.3 2.4-3.5 4.5-4 6.2-4.4 1.5-.3 2.8-.6 3.3-2.8.4.5 1.1 1.5 1.6 2.3.9 1.4 1.6 2.3 2.1 2.9v-1.5c-.4-.6-.8-1.2-1.1-1.7-1.6-2.4-2.1-3.1-2.8-3-.2 0-.5.1-.6.6-.3 1.9-1.1 2.1-2.6 2.4-1.8.4-4.2 1-6.8 4.8-3.4 5-9.8 10.1-9.9 10.2-.1 0-.2.2-.2.3l-.2 2.3 1-.1z"/></g><g transform="translate(-1 -1)"><ellipse fill="#E84E1B" cx="52" cy="58.3" rx="3.5" ry="3.2"/><path fill="#1E1E40" d="M52 62c-2.2 0-4-1.7-4-3.7s1.8-3.7 4-3.7 4 1.7 4 3.7-1.8 3.7-4 3.7zm0-6.5c-1.6 0-3 1.2-3 2.7s1.3 2.7 3 2.7 3-1.2 3-2.7-1.4-2.7-3-2.7z"/></g><g transform="translate(-1 -1)"><ellipse fill="#494695" cx="52" cy="58.3" rx="1.3" ry="1.2"/><path fill="#1E1E40" d="M52 59.9c-1 0-1.8-.8-1.8-1.7 0-.9.8-1.7 1.8-1.7s1.8.8 1.8 1.7c0 .9-.9 1.7-1.8 1.7zm0-2.3c-.4 0-.8.3-.8.7 0 .4.3.7.8.7s.8-.3.8-.7c0-.4-.4-.7-.8-.7z"/></g><g><path fill="#FFF" d="M55.4 54s-1.9.9-2.4.6"/><path fill="#1E1E40" d="M53.3 55.2c-.2 0-.4 0-.5-.1-.2-.1-.3-.4-.2-.7.1-.2.4-.3.7-.2.2 0 1.1-.3 1.9-.6.2-.1.5 0 .7.2.1.2 0 .5-.2.7-.7.3-1.7.7-2.4.7z"/></g><g><path fill="#FFF" d="M63 70.6s-.7 2.2-4.8 2.2"/><path fill="#1E1E40" d="M58.4 73c-.3 0-.8.1-.8-.2 0-.3.2-.5.5-.5 3.7 0 4.3-1.8 4.3-1.9.1-.3.4-.4.6-.3.3.1.4.4.3.6.1.1-.5 2.6-4.9 2.3z"/></g></g></svg>