<svg width="100" height="100" viewBox="0 0 100 100" xmlns="http://www.w3.org/2000/svg"><path fill="#E84E1B" d="M17.497 78.492l31.9 18.6 31.9-18.6v-58l-31.9-3.2-31.9 3.2v58z"/><path fill="#1E1E40" d="M49.497 99.992l-34-19.9v-60.6l34-3.5 34 3.5v60.6l-34 19.9zm-31-21.6l31 18.1 31-18.1v-56.2l-31-3.2-31 3.2v56.2z"/><path fill="#494695" d="M83.497.792l-12 8.8.1.1c-.1 0-.1.1-.2.1-.5.8.6 2.6 2.6 3.9 2 1.3 4 1.7 4.6.8v-.1l.1.1 4.8-13.7z"/><path fill="#FFF" d="M44.797 46.692c6.3 3.9 8.2 6.2 8.2 6.2s-.1 2.2-.3 2.7c-.2.5-1 2.7-1.5 2.4-.5-.3-11.3-3.6-11.3-3.6l.9-5 4-2.7z"/><path fill="#1E1E40" d="M51.397 58.492c-.1 0-.3 0-.4-.1-.5-.3-7.1-2.3-11.2-3.5-.2-.1-.4-.3-.3-.6l.9-5c0-.1.1-.2.2-.3l4-2.7c.2-.1.4-.1.5 0 6.3 3.9 8.2 6.2 8.3 6.3.1.1.1.2.1.3 0 .5-.1 2.3-.3 2.8-.9 2.5-1.4 2.7-1.6 2.7-.1.1-.2.1-.2.1zm-10.9-4.4c3.2 1 9.5 2.9 10.8 3.4.2-.2.5-.9 1-2.1.1-.2.2-1.3.2-2.3-.5-.5-2.5-2.6-7.6-5.8l-3.6 2.4-.8 4.4z"/><path fill="#FFF" d="M51.597 84.192s14.9-8.4 14.7-8.5c-1.1-1-1.1-.8-3.3-2.6-1.6-1.2-3.1-2.4-4.4-3.7-4.9-5.7 4-18.1-12.1-17.6.5-1.6-.4-3.4-2-4.2-.2-.1.3-.6.2-.6.3-1.1-2.9-2.9-4.9-.6-1.7 1.4-1.4 3.3-1.1 3.1-.6-.1-.9 0-1.3-.1-2.7-.5-4 3.1-4.2 4.2 0 .3-.1.7.1 1-1.8 1.6-2.6 5.2-.9 6.9-.2.1-3.5 3.5 0 6.4.4 1.2 3.6 6 9.9 7.3 5.5 1 6.3 3.3 6.6 3.4 1.2 2.7 2.1 4.6 2.7 5.6z"/><path fill="#878587" d="M48.997 62.092c-.7 3.2 2.4 4.8.9 6-1.9 1.4-1.6-.7-3.1-.7-.1 0-.2-.4-.5-.3-1.4.3-.7 2.1-.9 1.7-.6-1.3-5.5 2.6-7.9 3.7-1.3.6-7.2-4.5-3.1-11.5 3.2-5.4 4.5-16 10.5-12.6 2.1 1.2 1.6 2.8 1.3 2.9-.9.4-1.6-.4-2.5.4-1.4 1-6.2 4.5-4.8 5.8.5.5.2 1.2.7 1.5 1.6.9 3.8.4 5.6-.8.7-.5.1-1.5 1.5-2.3.9-.6 2.4 1 3.2.7 2.7-1.2-.5 3.5-.9 5.5z" opacity=".6"/><path fill="none" d="M72.697 17.092l.2.1"/><path fill="#1E1E40" d="M74.297 81.992c-4-3.7-8.3-7.2-12.4-10.7-.6-.6-1.4-.8-2-1.3-2-2.2-2.5-2.8-2.7-4.9-.4-3.5.5-6.5-1.2-10.1-1.5-2.9-5-3.3-7.9-3.7-.3 0-.7-.1-1-.2v-.1c-.4-1.4-1.1-2.5-2.1-3.4 0-.2.1-.3.1-.4 0-.1.1-.3.2-.3.7-.3-.6-1-.7-1.1-2.3-1.6-5.4-.8-6.5 1.9-.3.4-.3.8-.3 1.3-1.2-.6-2.6-.2-3.7 1-.8.9-1.9 2.8-1.6 4.2-.3.2-.5.4-.7.6-1.4 1.7-1.4 4.7-.3 6.6l-.2.2c-.8.9-1.1 2.2-1.2 3.3-.1 1.6.7 2.1 1.6 3.3.1.1.1.2.1.2l.4.5s.1.2.3.3c.9.9 3.8 3.7 4.2 4.1 1.9 1.6 6.5 3 9.6 3.4 2.5.1 2.1 2.3 3.2 4.4 1.5 3 3 6 4.4 9.1.2.5 1.2.1.9-.4-1.5-3-3.1-6-4.4-9.1-.6-1.4-1.6-3.1-3.1-3.7-.6-.2-2.4-1.3-3-1.4-.4-.1-.6-.6-1-.6-1.3-.1-3.8-.8-5.8-2.3-.5-.4-3.1-2.9-4.1-3.8v-.1l.2-.4c1.7 1.3 4.1 2.1 5.6.9 1-.7 1.3-1.7 1.3-2.9 0-.2-.1-.4-.1-.6 1.5 0 2.8-1.5 2.8-3.2v-.2c.8.3 1.6.1 2.3-.4-.3 1.5-.3 3.1.4 4.4l.8 1.1c.9.7 2.1 1.1 3.2 1.2.6.1.7-.9.1-1-1 0-1.9-.3-2.7-.9-2.1-1.6-1-5.1-.1-7.1 1.4.1 2.8-.8 3.9-1.5.5-.3-.1-1.1-.6-.7-.8.7-2 1.4-3.2 1.4-.4 0-.9-.3-1-.7.2-.3.4-.7.5-1.1 0-.5-.1-1.1 0-1.5.1-.6-.7-.8-1-.3-.1.4-.1.7-.1 1 0 .5-.1.9-.3 1.3l-.1.1c-.3.4-.8.7-1.4.9-.9.4-2.1.6-3.1.4-1.3-.3-1.5-1.1-1.6-2.1-.1-.4.1-.6.4-1 .8-1.1 2.2-1.7 3.3-2.5.4-.3.7-.6 1.1-1 .5-.4 1.7-.5 2.3-.3 1.7.3 2.8.3 4.5.6 1.9.3 3.5 1.3 4.4 3.2.8 1.5.9 3.6 1 5.3 0 2.7-.3 5.6 1.6 7.8 1.1 1.3 2.8 2.5 4.1 3.6 4 3.4 7.8 6.9 11.7 10.5.6.1 1.2-.7.7-1.1zm-35.4-13.7c-1.6 1.6-4.9-.6-5.9-2-.3-.5-1.1.1-.7.6.1.2.3.4.5.6l-.2.4s0-.1-.1-.1c-.6-.8-1.3-1.2-1.3-2.3 0-.8.2-1.6.5-2.3.4-1.1 1.6-1.6 1.9-1.7 1.1-.2 2.2 1 2.9 1.7 1.3 1.3 4.7 3 2.4 5.1zm5.1-8.7c.7-.2 1.3-.5 1.8-.9.1.2.3.4.5.5-.3 1.7-2 3.1-3.5 1.8-.2-.4-.5-.7-.8-1.1.8 0 1.4-.2 2-.3zm-3.3.2l.6.6c.3.3.5.6.7 1 0 .1.1.3.2.4.2.4.2.8.2 1.3-.1 1.3-1.4 2.3-2.6 1.5 0-.1-.1-.1-.2-.1-.5-.5-1.2-1-1.7-1.4-1.3-1-2.1-2.3-3.8-2.5-.6-.1-1.2.1-1.7.4-.8-1.4-.8-3.7 0-5 1.1-2 3.9-1.1 5.1.2.4.4.7.8 1 1.2 0 .3.1.5.3.9.3.8 1 1.3 1.9 1.5zm-2.1-3.7c-.1-.2-.3-.3-.4-.5-1-1.2-3-2-4.7-1.6-.1-.9.8-2.2 1.2-2.8.9-1.4 2.3-1.8 3.6-.5l.1.1c.1.1.2.3.2.4.5.9 1.3 2.1 2.3 2.5-.9.6-1.9 1.4-2.3 2.4zm5.8-5c-1 .3-1.8 1.5-2.6 2l-.1.1c0-.1-.1-.2-.3-.3-.8-.3-1.8-1.5-2.2-2.7v-.1c-.2-.5-.3-1.1-.2-1.5.1-1 .9-1.8 1.7-2.3 1.2-.8 2.5-.3 3.4.6 0 0 0 .1-.1.1-.4 0-.7.6-.3.9 1 .9 1.9 1.8 2.3 3.1-.6-.1-1.1-.1-1.6.1z"/><path fill="#494695" d="M55.097 93.592l-2.5-5.7 15.1-13.8 8.3 7.4"/><path fill="#1E1E40" d="M76.397 80.992l-7.8-7c-.1.3.6 2.2.6 2.2l5.9 5.3-19.8 11.4-1.8-4.1c-.2-.3-.4-.5-.4-.5-.1 0-.4.1-.7.3l2.2 5.2c.1.2.2.3.3.3h.5l21-12.3c.1-.1.2-.2.2-.4 0-.1-.1-.3-.2-.4z"/><path fill="#B1A6A3" d="M53.097 88.292c.3 0 2 3.9 3.7.9.8-1.5 3.2.6 4.8-.1 3.5-1.5 0-2.6 2.7-4.1 2.7-1.4 4.3-1.7 5.5-4.6.7-1.6-.4-3-1.1-5.2-.7-2 1.6-2.4 2-3 .4-.7-1.4-2.2-2.1-2.3-.8-.1-1.5 1-3.3 0-2-1.2-3.8 0-4.9.2l2.4 2.3s2.2-1 1.9.9c-.3 1.9-3.6 2.9-5.5 4.4-1.8 1.5-1.3 2.2-5 2.5-3.7.3-5.2 3.5-5.2 3.5s-1.7 5.5-1.3 6.6c.4 1.1 4.8-2.1 5.4-2z"/><path fill="#FFF" d="M48.397 72.692c-.8.8-2.8 3.5-6.4 2.5"/><path fill="#494695" d="M30.797 74.692l4.4-5.9-2.5-1.9-3 4v-.1c-.3-.8-1.1-1.3-2-1.1-.8.3-1.3 1.1-1.1 2l.7 2.3-6.3 8.5 2.5 1.9 4.9-6.6.1.4c.3.8 1.1 1.3 2 1.1.8-.3 1.3-1.1 1.1-2l-.8-2.6z"/><path fill="#1E1E40" d="M23.597 84.992c-.1 0-.2 0-.3-.1l-2.5-1.9c-.1-.1-.2-.2-.2-.3 0-.1 0-.3.1-.4l6.1-8.3-.6-2.1c-.3-1.1.3-2.3 1.4-2.6.8-.3 1.7 0 2.2.7l2.5-3.4c.1-.1.2-.2.3-.2.1 0 .3 0 .4.1l2.5 1.9c.2.2.3.5.1.7l-4.2 5.7.7 2.5c.3 1.1-.3 2.3-1.4 2.6-.9.3-1.9-.1-2.4-.9l-4.3 5.9c-.1 0-.3.1-.4.1zm-1.9-2.5l1.7 1.3 4.6-6.2c.1-.2.3-.2.5-.2s.3.2.4.3l.1.4c.2.6.8.9 1.4.7.6-.2.9-.8.7-1.4l-.8-2.7c0-.2 0-.3.1-.4l4.1-5.5-1.7-1.2-2.7 3.6c-.1.2-.3.2-.5.2s-.3-.2-.4-.3c-.2-.6-.8-1-1.4-.8-.6.2-.9.8-.7 1.4l.7 2.3c0 .2 0 .3-.1.4l-6 8.1zm23.8-9c-.1 0-.2 0-.3-.1-.2-.2-.3-.5-.1-.7 1.5-2.2-.2-4.3-.2-4.3-.2-.2-.1-.5.1-.7.2-.2.5-.1.7.1.8.9 1.8 3.3.3 5.5-.2.1-.4.2-.5.2z"/><ellipse transform="rotate(-140.067 22.405 84.432)" fill="#494695" cx="23.1" cy="84.8" rx="1.7" ry="1.1"/><path fill="#1E1E40" d="M22.697 85.592h-.2c-.5-.1-1-.3-1.4-.6-.5-.4-.9-1-.9-1.6 0-.4.1-.7.3-1 .6-.7 1.8-.6 2.7.2.9.8 1.2 1.9.6 2.6-.3.3-.7.4-1.1.4zm-1.1-2.7c-.1 0-.3 0-.3.1-.1.1-.1.2-.1.3 0 .2.2.6.6.9.3.2.6.4.8.4.1 0 .3 0 .4-.1.2-.2 0-.8-.5-1.2-.3-.3-.7-.4-.9-.4zm29.1-1.2c-1.5-4.1-3.8-5.6-5.3-6.1 1.5-.5 2.4-1.5 2.9-2.2l.3-.3c.2-.2.2-.5 0-.7-.2-.2-.5-.2-.7 0l-.3.3c-.9.9-2.7 3-5.6 2.2-.3 0-.6-.1-.6.2 0 .3.1.5.4.6.6.1 1.1.2 1.6.2 0 .2.2.4.5.4.2 0 3.8 0 5.9 5.7.1.2.3.3.5.3.1 0 .1-.1.1 0 .3-.1.4-.3.3-.6z"/><path fill="#494695" d="M92.997 73.992l-9-12c-.6-.4-1.7.1-2.8 1.2l-6.4-4.7h.1c.9-.2 1.5-1.2 1.1-2.2-.3-.7-1.1-1.1-1.9-.9l-2.8.6-6.4-4.7c.9-.2 1.5-1.2 1.1-2.2-.3-.7-1.1-1.1-1.9-.9l-2.7.6-7.5-5.5 3.5-4.8c.3.9 1.3 1.4 2.2 1 .7-.4 1-1.2.8-2l-.7-2.2 6.4-8.7c.3.9 1.4 1.4 2.4.8.6-.4.9-1.2.6-1.9l-.3-2.2 8.2-11-2.4-1.9-7 9.1v-.1c-.3-.9-1.2-1.6-2.2-1.6-.8.3-1.3 1.1-1.1 2l.9 2.9-6.4 8.7v-.3c-.2-.8-1-1.3-1.8-1.2-1 .1-1.6 1.1-1.3 2l.8 2.7-4.9 6.7-6.4-4.7.5-.1c.8-.2 1.4-.9 1.4-1.6 0-1-1-1.7-1.9-1.5l-3.4.7-6.4-4.7.4-.1c.8-.2 1.4-.9 1.4-1.7 0-1-1-1.7-1.9-1.5l-3.3.7-2.2-1.6-2.6-2c0-.1-.1-.2-.1-.2-.1-.1-.2-.1-.3-.2l-5.9-4.3c-1.1.2-1.8 1.2-1.9 2.3v.2l5.7 4.3v.1l.2.1c.1 0 .1.1.2.1l2.9 2.1c-.6.4-.9 1.3-.5 2.1.3.7 1.1 1 1.8.8l2-.4.4.3 6.2 4.6c-.6.5-.8 1.3-.4 2 .3.6 1.1.9 1.8.8l1.9-.4 8.6 6.4-4 5.4 2.4 2.1 4.2-5.6 5.3 3.9c-.9.3-1.4 1.4-.9 2.3.3.6 1.1.9 1.8.8l2.5-.5 6.4 4.7c-.9.3-1.3 1.4-.8 2.3.3.6 1.1.9 1.8.7l2.4-.5 8.5 6.3c-.7 1.6-.9 3-.2 3.4h.1v.1l13.7 4.7z"/><path fill="#1E1E40" d="M70.997 71.792c-.4-.9-1.7-1.9-2.4-2-.4-.1-.8.1-1.1.2-.5.2-1.1.4-2.1-.1-1.7-1-3.3-.5-4.4-.1-.3.1-.6.2-.8.2l-1 .2 3.5 2.8.2.3c.4-.2 1-.3 1.1-.1.1 0 .1.2 0 .5-.2.9-1.5 1.5-2.9 2.2-.7.3-1.5.7-2.2 1.2l-2.5-2.4c-.2-.2-.5-.2-.7 0-.2.2-.2.5 0 .7l2.5 2.4c-.3.3-.6.6-.7.8-.5.6-.9.9-2.8 1.1v-.2l-1.8-3.6c-.2-.2-.5-.3-.7-.2-.2.2-.3.5-.2.7l1.7 3.4c-3.7.6-5.1 4.2-5.1 4.3 0 0-1.9 5.2-1.4 6.3.1.2.3.4.5.5.1 0 .2.1.4.1.8 0 2-.6 3.6-1.5l1.2-.6s.1.1.1.2c.5.7 1.6 1.9 2.8 1.8.7-.1 1.3-.5 1.8-1.4.2-.4.6-.4 1.7 0 .9.2 1.8.5 2.7.1 1.9-.8 2.1-1.6 1.9-2.5-.1-.4-.4-1.1.6-1.6.4-.2 1.1-.5 1.4-.6 2.1-1.1 3.2-1.2 4.3-3.8.9-2.2.3-3.3-.4-4.4-.3-.5-.6-1-.7-1.6-.1-.2-.1-.6 0-.8.1-.2.5-.3.9-.4.5-.1.9-.2 1.2-.6 0-.6.1-1-.2-1.5zm-2.8 1.5c-.2.4-.3.9-.1 1.5.2.7.5 1.3.8 1.9.5.9 2 4.2-1.7 4.5-.8.1-1.6-.2-2.5-1.1-1.7-1.6-3.5-1.1-4.4-.8-.1 0-.3.1-.4.1-.3 0-.5.1-.6.4-.1.3.1.5.4.6.2 0 .5 0 .8-.1.8-.2 2.2-.6 3.5.6 1 .9 1.9 1.3 2.9 1.3h.4c.3 0 1-.2 1.3-.3-.8 1-2.1 1.5-3.6 2.2-.3.2-.7.3-1 .5-1.5.8-1.4 2-1.3 2.7.1.4.1.8-1.4 1.4-.6.2-1.2 0-2-.2-.5-.2-1.2-.3-1.7-.3.1-1.9-.8-4.3-.8-4.3-.1-.2-.4-.3-.7-.2-.2.1-.3.4-.2.7 0 0 1.3 2.7.6 4.6-.3.5-.6.8-1 .9-.7.1-1.6-1.3-2-1.8-.3-.4-1.2-.1-2.4.5-.8.4-2.6 1.4-3.2 1.4-.2-.6 1.4-5.1 1.4-5.1s1.2-4.1 4.6-4.4c2.8-.2 3.3-.6 4.1-1.5.3-.3.5-.6 1-1 .6-.5 1.5-.9 2.4-1.3 1.6-.7 3.2-1.5 3.5-2.9.2-.9-.1-1.3-.4-1.5-.5-.4-1.2-.3-1.6-.1l-1.8-1.5c1-.3 2.5-.7 3.9 0 1.4.8 2.3.5 3 .2.2-.1.4-.2.5-.1.5.1 1.7 1.2 1.7 1.5-.1.1-1.7.5-2 1zM31.796 41.692l-2 3.5c-.3.5-.8 1.4-1.5 2.1-1 1.3-1.9 1-2.4 1-.3 0-.8-.2-1-.4.3-.3.6-.8 1.1-1 .3.2.6.3.9.3.6 0 1.4-.7 1.4-1.9 0-1.5-.2-2.5-.5-4.3-.3-1.7-.6-1.9-1-1.9l-.4-.1.4-.5c.9-.2 1.7-.2 1.7-.2.1.2.3.9.6 2.4.3 1.9.6 3.6.6 3.6s.9-1.5 1.4-2.8c.7-1.8.8-2.5.8-2.8v-.2c.3-.2.5-.3.9-.3.1 0 .3.1.3.1-.3.6-.6 2.1-1.3 3.4zm43.3-2.4c-.4.2-.8.3-1.2.3-.8 0-1-.3-1.3-1l-.8-2s.7-.7 1.3-1.4c1.4-1.6 1.5-2.2 1.6-2.5 0 0-.2-.1-.4-.1-.4 0-1 .1-1.3.3 0 0 .2.2.2.4 0 .5-.3 1.2-.9 1.9l-.8.8-.5-1.5c-.1-.2-.6-1.6-.7-1.9 0 0-.9 0-2 .2l-.4.7.5.1c.4.1.8.4 1.2 1.2l.8 2.3s-.8.8-1.7 1.6c-1.2 1.2-1.8 2-1.8 2s.3.1.6.1.7 0 1-.2c0 0 .3-.8 1.4-2.2l.6-.7.6 1.6c.5 1.4.9 1.4 1.5 1.4s1.4-.3 2.4-.7c.2-.4.1-.6.1-.7z"/><path fill="#1E1E40" d="M93.297 73.792l-8.8-12c-.1-.1-.3-.2-.4-.2-.6-.3-1.3-.2-2.2.4-.2.2-.5.4-.7.6l-5.5-4c.2-.2.4-.4.6-.7.3-.6.3-1.2.1-1.8-.4-.9-1.5-1.4-2.5-1.2l-2.5.6-5.5-4.1c.3-.2.5-.4.6-.7.3-.6.3-1.2.1-1.8-.4-.9-1.5-1.4-2.5-1.2l-2.4.5-6.9-5.1 2.8-3.8c.2.3.5.5.8.6.6.3 1.2.3 1.8 0 .9-.5 1.3-1.6 1-2.6l-.6-2 5.9-7.9c.3.3.6.5.9.6.6.2 1.3.1 1.8-.2.8-.5 1.2-1.5.9-2.4l-.6-1.9 6.3-8.4c.4.1.8.3 1.1.3.2.1.5.1.7.1.6 0 1.1-.2 1.4-.5.1 0 .2-.2.3-.3l4.7-13.6c0-.2 0-.5-.2-.6-.2-.1-.4-.1-.6 0l-12 8.8c-.1.1-.2.2-.2.4v.1c-.4.8.2 2 1.3 3l-4.5 5.9c-.6-.7-1.4-1.2-2.3-1.2h-.1c-.5.1-.9.5-1.2 1-.3.5-.4 1.1-.2 1.6l.8 2.6-5.7 7.8c-.5-.7-1.3-1.1-2.1-1-.6 0-1.2.4-1.5.9-.4.5-.5 1.1-.3 1.7l.8 2.5-4.5 6.1-5.1-3.8c.8-.4 1.3-1.2 1.3-2 0-.6-.3-1.2-.8-1.6-.5-.4-1.1-.5-1.7-.4l-3.2.7-5.4-4c.8-.4 1.2-1.2 1.2-2 0-.6-.3-1.2-.8-1.6-.5-.4-1.1-.5-1.7-.4l-3.1.7-11-8.2c-.1-.1-.3-.1-.4-.1-1.3.3-2.3 1.4-2.3 2.7v.2c0 .1.1.3.2.4l8.6 6.7c-.5.6-.6 1.5-.2 2.2.4.9 1.4 1.3 2.4 1.1l1.7-.4.2.2c0 .1.1.1.1.1l5.6 4.1c-.4.6-.5 1.5-.1 2.2.5.8 1.4 1.2 2.4 1l1.7-.4 8 5.9-3.7 5c-.1.2-.1.5.1.7l2.4 2.1c.1.1.3.1.4.1.1 0 .2-.1.3-.2l3.9-5.2 4.2 3.1c-.3.2-.5.5-.6.8-.2.6-.2 1.2.1 1.8.4.8 1.4 1.2 2.3 1l2.3-.5 5.6 4.2c-.2.2-.4.5-.5.8-.2.5-.1 1.2.2 1.7.4.8 1.4 1.2 2.3 1l2.2-.5 8.3 6.1c-.6 1.5-.8 2.9 0 3.6.1.1.2.2.3.2l13.6 4.7h.2c.2 0 .3 0 .3-.1.1-.2.1-.4 0-.6zm-15-59.5c-.1.2-.4.3-1.2.2-.2-.1-.5-.1-.8-.2l1.2-1.6v-.1c.1.2.3.3.4.5.5.6.5 1 .4 1.2zm4.3-12.1l-3.7 10.5c0-.1-.1-.2-.1-.2-.5-.7-1.4-1.5-2.4-2.2-1-.7-2.2-1.1-3.2-1.3l9.4-6.8zm-10.7 7.9c.1-.1.4-.2.7-.2.4 0 1 .1 1.6.4l-1.3 1.8c-.8-1-1.2-1.8-1-2zm-.9 48.9c-.1-.1-2.5.5-2.5.5-.5.1-1.4 0-1.6-.4-.2-.3-.2-.6-.1-.9.1-.3.3-.6.6-.7.2-.1.7-.3.7-.5s-.1-.4-.2-.5l-6.4-4.7c-.1-.1-.3-.1-.4-.1l-2.5.5c-.6.1-1.1-.1-1.3-.5-.2-.3-.2-.6-.1-.9.1-.3.4-.5.7-.6.1-.1.3-.2.3-.4s0-.4-.2-.5l-5.3-3.9c-.1-.1-.3-.1-.4-.1-.1 0-.2.1-.3.2l-3.8 5.2c-.7-.2-1.3-.7-1.6-1.4l3.7-5.1c.2-.2.1-.5-.1-.7l-8.6-6.4c-.1-.1-.3-.1-.4-.1l-1.9.4c-.6.1-1.1-.1-1.3-.5-.3-.6-.1-1.1.3-1.4.1-.1.2-.2.2-.4s-.1-.3-.2-.4l-6.3-4.7-.3-.2c-.1-.1-.3-.1-.4-.1l-2 .4c-.5.2-1.1-.1-1.3-.5-.3-.5-.1-1.1.3-1.4.1-.1.2-.2.2-.4s-.1-.3-.2-.4l-8.8-6.7c.1-.8.6-1.4 1.3-1.7l10.8 8.3c.1.1.3.1.4.1l3.3-.7c.3-.1.6 0 .9.2.2.2.4.5.4.8 0 .5-.4 1-1 1.1l-.4.1c-.2.1-.4.2-.4.4s0 .4.2.5l6.4 4.7c.1.1.3.1.4.1l3.4-.7c.3-.1.6 0 .9.2.2.2.4.5.4.8 0 .5-.4 1-1 1.1l-.5.1c-.2.1-.4.2-.4.4s0 .4.2.5l6.4 4.7c.1.1.3.1.4.1.1 0 .2-.1.3-.2l4.9-6.7c.1-.1.1-.2.1-.4l-.8-2.7c-.1-.3-.1-.6.1-.9.2-.3.5-.5.8-.5.5 0 1 .3 1.2.9l.1.4c.1.1.2.3.4.3s.4 0 .5-.2l6.4-8.7c.1-.1.1-.2.1-.4l-.9-2.9c-.1-.2 0-.5.1-.8.1-.2.4-.4.6-.5.7 0 1.4.6 1.6 1.3.1.1.2.3.4.3s.4-.1.5-.2l4.9-6.6.6-.8 1.5-2c.3.1.6.3.9.5.4.2.7.5 1 .8l-1.5 1.9-.6.8-.1.1-.1.1-6.3 8.3c-.1.1-.1.2-.1.4l.6 2.1c.2.5 0 1-.4 1.3-.2.2-.6.2-.9.1-.3-.1-.6-.4-.7-.7-.1-.1-.2-.3-.4-.3s-.4.1-.5.2l-6.4 8.7c-.1.1-.1.2-.1.4l.7 2.2c.2.6 0 1.2-.5 1.4-.3.1-.6.1-.9 0-.3-.1-.5-.4-.6-.7-.1-.1-.2-.3-.4-.3s-.4 0-.5.2l-3.5 4.8c-.2.2-.1.5.1.7l7.4 5.7c.1.1.3.1.4.1l2.7-.6c.5-.2 1.1.1 1.3.6.2.3.2.6 0 .9-.1.3-.4.5-.7.6-.2.1-.4.2-.4.4s0 .4.2.5l6.4 4.7c.1.1.3.1.4.1l2.8-.6c.5-.2 1.1.1 1.3.6.2.3.2.6 0 .9-.1.3-.4.5-.7.6h-.1c-.2.1-.4.2-.4.4s0 .4.2.5l5.9 4.4c-.3.3-.6.7-.8 1-.1.2-.3.5-.4.7l-8.3-6zm8.6 9.9c-.4-.4-.2-2 1-3.9.6-.9 1.3-1.6 2-2.1s1.1-.5 1.2-.4l.1.1 7.8 10.5-12.1-4.2z"/></svg>