<svg width="100" height="100" viewBox="0 0 100 100" xmlns="http://www.w3.org/2000/svg"><path fill="#A9A09F" d="M18.11 78.69L50 97.32l31.89-18.63V20.74L50 17.45l-31.89 3.29z"/><path fill="#fff" d="M56.18 44.61v-3.12c1.58 0 2.86-1.23 2.86-2.74v-1.32c0-.95.79-1.7 1.78-1.7V19.15l-10.17-1.89-.59.09v37.1c1.88.09 3.36 1.51 3.36 3.31 0 1.51-1.09 2.74-2.57 3.22v24.04h.69l2.17-1.14c0-11.36 11.16-17.89 11.16-28.2-.01-10.41-8.69-11.07-8.69-11.07z"/><path fill="#BDBEC0" d="M43.05 44.61v-3.12c-1.58 0-2.86-1.23-2.86-2.74v-1.32c0-.95-.79-1.7-1.78-1.7V19.15l10.17-1.89 1.68-.66-.1 37.85c-1.88.09-4.15 1.51-4.15 3.31 0 1.51 1.09 2.74 2.57 3.22v24.04h-.69l-2.17-1.14c0-11.36-11.16-17.89-11.16-28.3-.2-10.31 8.49-10.97 8.49-10.97z"/><path fill="#4751A2" d="M50.75 17.26l-.2.19-.01.42c-.55-.44-1.26-.74-1.87-.7-1.97.09-3.85.38-5.63 1.14-.3.09-.69.28-.89.57-1.18-.47-2.86.09-2.76 1.61 0 4.54 0 9.18-.1 13.72 0 .57-.26 1.46.33 1.65.59.28 1.25.81 1.35 1.38.1 1.04.1 1.99.59 2.93 1.09 2.18 4.24 1.51 6.22 1.42 1.09 0 9.77-.38 9.77-.38.89-.47 1.58-1.42 1.58-2.46v-1.32c0-.95.79-1.7 1.78-1.7V19.15l-10.16-1.89z"/><path fill="#151841" d="M43.05 45.36h14.12c.89 0 .89-1.23 0-1.23H43.05c-.79 0-.79 1.23 0 1.23zm13.82-1.32v-1.99c1.58-.28 2.86-1.7 2.86-3.31v-1.32c0-.66.59-1.14 1.18-1.14h.49v-17.7l-11.65-2.56-11.65 2.56v17.98h.69c.69 0 1.18.57 1.18 1.14v1.32c0 1.61 1.18 3.03 2.86 3.31v1.99c-2.07.38-8.69 2.37-8.69 11.55 0 5.2 2.86 9.56 5.53 13.72 2.86 4.35 5.73 8.8 5.73 14.48v.38l2.67 1.32h1.38V60.6l-.39-.19c-1.28-.47-2.07-1.61-1.88-2.93.2-1.23 1.18-2.27 2.47-2.37h.3c1.58 0 2.86 1.23 2.86 2.74 0 1.14-.89 2.27-2.07 2.56l-.49.09v25.17h1.48l2.57-1.51v-.38c0-5.68 2.96-10.13 5.73-14.48 2.76-4.16 5.53-8.52 5.53-13.72-.01-9.17-6.62-11.16-8.69-11.54zm-16.52-8.61c-.2-.12-.42-.22-.66-.28V19.62l10.37-1.42 10.27 1.42v15.61c-.18.05-.35.13-.51.22l-.18-.03c-6.44.01-12.87.01-19.29.01zm1.12 3.31v-1.32c0-.28-.06-.56-.15-.82l17.42.06c-.12.27-.19.56-.19.85v1.32c0 1.15-.95 2.04-2.05 2.15a.756.756 0 0 0-.32-.07H43.74c-1.29.01-2.27-1.03-2.27-2.17zm17.47 30.09c-2.86 4.35-5.82 8.9-5.92 14.76l-1.48.76v-22.9c1.48-.66 2.47-2.08 2.57-3.6 0-2.18-1.88-3.97-4.15-3.97h-.49c-1.88.19-3.46 1.61-3.65 3.41-.2 1.7.79 3.31 2.37 4.07v22.81l-1.39-.67c-.2-5.77-3.06-10.41-5.92-14.76-2.76-4.16-5.33-8.14-5.33-13.06 0-9.65 7.8-10.41 8.09-10.41l.79-.09v-3.03h11.16v3.12l.59.09c.39 0 8.09.76 8.09 10.41 0 4.83-2.57 8.8-5.33 13.06z"/><path fill="#fff" d="M60.91 26.15H39v3.79h21.92v-3.79z"/><path fill="#656461" d="M50.45 26.15H39v3.79h11.45v-3.79z" opacity=".37"/><path fill="#151841" d="M61.12 30.51H38.31V25.5h22.82l-.01 5.01zm-21.43-1.33h20.53v-2.46H39.69v2.46zM50 100L16 80.14V19.5L50 16l34 3.5v60.64L50 100zM19.04 78.44L50 96.53l30.96-18.09V22.19L50 19l-30.96 3.19v56.25z"/></svg>