<svg width="100" height="100" viewBox="0 0 100 100" xmlns="http://www.w3.org/2000/svg"><path fill="#A9A09F" d="M18.11 78.69L50 97.32l31.89-18.63V20.74L50 17.45l-31.89 3.29z"/><path fill="#151841" d="M50 100L16 80.14V19.5L50 16l34 3.5v60.64L50 100zM19.04 78.44L50 96.53l30.96-18.09V22.19L50 19l-30.96 3.19v56.25z"/><path fill="#4751A2" d="M69.53 28.66h-7.54v-.83c0-.28-.28-.55-.55-.55h-6.9v-1.56c0-.55-.55-1.01-1.1-1.01h-6.71c-.64 0-1.1.46-1.1 1.01v1.56h-6.9c-.28 0-.55.28-.55.55v.83h-7.54c-.28 0-.55.28-.55.55v47.02c0 .28.28.55.55.55h38.89c.28 0 .55-.28.55-.55V29.21c0-.28-.27-.55-.55-.55z"/><path fill="#151841" d="M69.53 77.88H30.55c-1.01 0-1.75-.73-1.75-1.74V29.21c0-.92.83-1.74 1.75-1.74h6.34c.18-.73.92-1.37 1.75-1.37h5.7v-.37c0-1.28 1.01-2.29 2.3-2.29h6.71c1.29 0 2.3 1.01 2.3 2.29v.37h5.7c.83 0 1.56.55 1.75 1.37h6.34c1.01 0 1.75.73 1.75 1.74v47.02c.09.91-.64 1.65-1.66 1.65zm-38.24-2.39h37.6V29.85H60.8v-1.37h-7.45v-2.57h-6.53v2.57h-7.45v1.37h-8.09l.01 45.64z"/><path fill="#fff" d="M32.48 30.58H67.6v44H32.48v-44z"/><path fill="#151841" d="M67.97 74.94H32.11V30.21h35.86v44.73zm-35.12-.73h34.3V30.95h-34.3v43.26z"/><path fill="#4751A2" d="M69.53 28.66h-7.54v-.83c0-.28-.28-.55-.55-.55h-6.9v-1.56c0-.55-.55-1.01-1.1-1.01h-6.71c-.64 0-1.1.46-1.1 1.01v1.56h-6.9c-.28 0-.55.28-.55.55v.83h-7.54c-.28 0-.55.28-.55.55v47.02c0 .28.28.55.55.55h38.89c.28 0 .55-.28.55-.55V29.21c0-.28-.27-.55-.55-.55zm-3.67 44.08c0 .28-.28.55-.55.55H34.78c-.28 0-.55-.28-.55-.55V32.6c0-.28.28-.55.55-.55h2.76l.28.92c0 .28.55.46.92.46h22.71c.28 0 .55-.28.55-.55l.63-.69 2.68-.14c.28 0 .55.28.55.55v40.14z"/><path fill="#151841" d="M38.18 38H59.7v1.19H38.18V38zm0 3.12H59.7v1.19H38.18v-1.19zm0 3.21h16.46v1.19H38.18v-1.19zm0 6.41H59.7v1.19H38.18v-1.19zm0 3.12H59.7v1.19H38.18v-1.19zm0 3.21h16.46v1.19H38.18v-1.19zM49.968 28.3c-.736 0-1.381-.64-1.381-1.37 0-.73.645-1.37 1.381-1.37s1.381.64 1.381 1.37c.01.694-.552 1.37-1.381 1.37zm0-2.102c-.369 0-.736.274-.736.64s.159.857.741.813c.581-.042.733-.448.733-.813 0-.274-.276-.64-.737-.64z"/></svg>