<svg width="205" height="63" viewBox="0 0 205 63" xmlns="http://www.w3.org/2000/svg"><path fill="#7657de" d="M17.552 42.512a35.387 35.387 0 0 0 6.56-.653 31.012 31.012 0 0 0 6.653-2.048q2.976-1.3 2.976-4.05a2.47 2.47 0 0 0-.36-1.4 1.216 1.216 0 0 0-1.082-.54 3.178 3.178 0 0 0-1.127.27 46.15 46.15 0 0 1-6.65 2.272 24.61 24.61 0 0 1-5.93.742q-5.91 0-8.93-2.947t-3.02-8.34a21.885 21.885 0 0 1 1.667-8.933 13.533 13.533 0 0 1 4.374-5.693 9.622 9.622 0 0 1 5.683-1.935q4.374 0 4.374 4.1a11.59 11.59 0 0 1-.27 2.16 10.817 10.817 0 0 0-.18 1.484 2.07 2.07 0 0 0 .72 1.71 3.313 3.313 0 0 0 4.76-1.08 8.722 8.722 0 0 0 .97-4.41A8.86 8.86 0 0 0 26.21 6.63q-2.525-2.5-7.4-2.5A16.97 16.97 0 0 0 9.3 6.94a19.423 19.423 0 0 0-6.787 7.944 26.457 26.457 0 0 0-2.5 11.745A16.185 16.185 0 0 0 2.133 35a14.11 14.11 0 0 0 6.087 5.556 20.87 20.87 0 0 0 9.332 1.956zm18.218 0q3.562 0 5.907-3.78a6.164 6.164 0 0 0 1.87 2.767 4.216 4.216 0 0 0 2.734 1.012 6.7 6.7 0 0 0 4.014-1.575 22.72 22.72 0 0 0 3.923-3.87 4.133 4.133 0 0 0 .857-2.79 2.786 2.786 0 0 0-.338-1.485 1.043 1.043 0 0 0-.924-.54 1.585 1.585 0 0 0-1.218.63 38.5 38.5 0 0 1-3.292 3.578 3.428 3.428 0 0 1-2.074 1.1 1.092 1.092 0 0 1-.88-.405 1.63 1.63 0 0 1-.337-1.08 43.543 43.543 0 0 1 1.038-7.2 33.692 33.692 0 0 0 .676-4.5q0-1.575-2.21-1.575a10.648 10.648 0 0 0-1.984.18 3.24 3.24 0 0 0-.564-1.373 1.76 1.76 0 0 0-1.33-.383 10.032 10.032 0 0 0-5.885 1.957 14.222 14.222 0 0 0-4.44 5.176 14.6 14.6 0 0 0-1.67 6.818 8.08 8.08 0 0 0 1.67 5.31 5.488 5.488 0 0 0 4.46 2.028zm1.623-4.545a1.917 1.917 0 0 1-1.556-.675 3.18 3.18 0 0 1-.564-2.07 12.173 12.173 0 0 1 .947-4.77 9.553 9.553 0 0 1 2.548-3.622 5.47 5.47 0 0 1 3.496-1.418l-1.668 8.28a7.58 7.58 0 0 1-1.308 3.1 2.476 2.476 0 0 1-1.894 1.17zm17.226 4.545a2.6 2.6 0 0 0 2.05-.742 7.02 7.02 0 0 0 1.15-2.858 30.92 30.92 0 0 1 1.782-5.22 24.163 24.163 0 0 1 2.165-3.98q1.06-1.507 1.646-1.508.5 0 .5.72a23.3 23.3 0 0 1-.586 3.915 27.987 27.987 0 0 0-.63 4.5 5.635 5.635 0 0 0 1.172 3.847 4.388 4.388 0 0 0 3.466 1.325 8.76 8.76 0 0 0 5.073-1.53 19.92 19.92 0 0 0 4.17-3.913 4.133 4.133 0 0 0 .858-2.79 2.786 2.786 0 0 0-.338-1.486 1.043 1.043 0 0 0-.924-.54 1.585 1.585 0 0 0-1.218.63 36.152 36.152 0 0 1-3.315 3.578 3.525 3.525 0 0 1-2.142 1.1q-1.308 0-1.307-1.8a31.155 31.155 0 0 1 .857-5.175 36.144 36.144 0 0 0 .992-6.345 2.588 2.588 0 0 0-2.93-2.925 6.612 6.612 0 0 0-3.27 1.035 13.072 13.072 0 0 0-3.63 3.465 25.56 25.56 0 0 0-3.337 6.3 32.094 32.094 0 0 1 .45-3.33q.27-1.35.722-3.15a17.12 17.12 0 0 0 .676-3.24.93.93 0 0 0-.36-.855 2.55 2.55 0 0 0-1.264-.225 4.7 4.7 0 0 0-2.594.608 3.385 3.385 0 0 0-1.33 1.913 36.573 36.573 0 0 0-1.67 11.115 17.2 17.2 0 0 0 .7 5.76 2.463 2.463 0 0 0 2.414 1.8zm44.778-10.26a1.585 1.585 0 0 0-1.218.63 32.907 32.907 0 0 1-3.382 3.6 3.86 3.86 0 0 1-2.48 1.08 1.785 1.785 0 0 1-1.556-1.125 9.8 9.8 0 0 1-.79-3.735 87.53 87.53 0 0 0 6.63-13.86 34.963 34.963 0 0 0 2.48-11.788 8.984 8.984 0 0 0-1.286-5.31A3.862 3.862 0 0 0 94.572-.01q-3.923 0-6.336 6.186a56.453 56.453 0 0 0-3.27 14.918 12.273 12.273 0 0 0-6.02 2.317 13.657 13.657 0 0 0-4.215 5.04 14.8 14.8 0 0 0-1.532 6.684 7.83 7.83 0 0 0 1.783 5.332 5.74 5.74 0 0 0 4.53 2.046 6.576 6.576 0 0 0 3.316-.81 12.935 12.935 0 0 0 3.314-3.19q1.8 4.006 5.23 4.005a7.458 7.458 0 0 0 4.375-1.6 21.735 21.735 0 0 0 4.058-3.847 4.132 4.132 0 0 0 .857-2.79 2.79 2.79 0 0 0-.338-1.485 1.043 1.043 0 0 0-.924-.54zM94.08 4.4a1.063 1.063 0 0 1 .7.944A9.387 9.387 0 0 1 95.075 8q0 6.66-5.05 17.64.27-5.356.878-10.26a55.344 55.344 0 0 1 1.466-7.944Q93.218 4.4 94.08 4.4zM81.09 37.97q-2.256 0-2.256-3.286a10.17 10.17 0 0 1 1.647-5.648 7.554 7.554 0 0 1 4.127-3.308q-.09 2.43-.09 3.51a29.952 29.952 0 0 0 .45 5.445 13.223 13.223 0 0 1-2.164 2.588 2.716 2.716 0 0 1-1.714.7zm39.006-5.626a2.048 2.048 0 0 0-1.037.36q-3.294 2.16-6.765 4.77l1.172-7.245q1.17-6.616 1.173-7.74a1 1 0 0 0-.406-.9 2.77 2.77 0 0 0-1.443-.27 3.578 3.578 0 0 0-2.232.584 3.535 3.535 0 0 0-1.1 1.935 54.592 54.592 0 0 1-2.233 6.75 19.815 19.815 0 0 1-2.164 4.094 2.713 2.713 0 0 1-1.69 1.35q-.948 0-.947-1.71a18.222 18.222 0 0 1 .27-2.767q.27-1.687.632-3.532.27-1.35.72-3.015a18.55 18.55 0 0 0 .5-2.43 1.154 1.154 0 0 0-.382-.945 2.233 2.233 0 0 0-1.382-.316 4.457 4.457 0 0 0-2.57.584 3.763 3.763 0 0 0-1.263 1.935 38.692 38.692 0 0 0-1.488 5.96 39.183 39.183 0 0 0-.452 6.188 8.023 8.023 0 0 0 1.285 4.658 3.877 3.877 0 0 0 3.314 1.867 4.753 4.753 0 0 0 3.427-1.687 11.423 11.423 0 0 0 2.526-4.928q-.406 3.1-.722 4.77l-.135 1.035a59.61 59.61 0 0 0-7.463 6.547 19.54 19.54 0 0 0-3.608 5.062 10.673 10.673 0 0 0-.97 4.32 4.97 4.97 0 0 0 1.443 3.712 5.113 5.113 0 0 0 3.742 1.418q4.284 0 7.058-5.333t4.487-14.648l8.658-5.8a2.94 2.94 0 0 0 .992-1.035 3.448 3.448 0 0 0 .316-1.62 2.71 2.71 0 0 0-.34-1.417 1.036 1.036 0 0 0-.923-.562zM100.344 58.4a1.038 1.038 0 0 1-.97-.496 2.44 2.44 0 0 1-.292-1.26 8.092 8.092 0 0 1 1.556-4.207 25.584 25.584 0 0 1 5.028-5.333 38.165 38.165 0 0 1-2.8 8.685q-1.4 2.608-2.526 2.61zm25.75-14.9a6.413 6.413 0 0 0 4.284-1.53 12.25 12.25 0 0 0 5.073-1.1 13.744 13.744 0 0 0 4.307-3.8 4.354 4.354 0 0 0 .857-2.79 2.79 2.79 0 0 0-.338-1.486 1.044 1.044 0 0 0-.925-.54 1.584 1.584 0 0 0-1.216.63q-2.976 3.69-5.186 4.545a12.187 12.187 0 0 0 .09-1.26 5.838 5.838 0 0 0-.744-2.9 28.624 28.624 0 0 0-2.187-3.22 16.835 16.835 0 0 1-1.466-2.024 3 3 0 0 1-.472-1.485 6.4 6.4 0 0 1 .812-2.744 6.56 6.56 0 0 0 .5-1.17 3.352 3.352 0 0 0 .18-.855.752.752 0 0 0-.5-.72 4.746 4.746 0 0 0-1.76-.224q-2.7 0-3.56 1.98-.994 2.34-2.03 4.522t-1.8 3.488a58.21 58.21 0 0 1-3.743 5.04l-.586.72a2.564 2.564 0 0 0-.63 1.665 1.884 1.884 0 0 0 .45 1.284 1.482 1.482 0 0 0 1.173.517 2.415 2.415 0 0 0 1.713-.81 32.887 32.887 0 0 0 3-3.33 29.365 29.365 0 0 0 2.773-4.41q.63.72 1.352 1.69a11 11 0 0 1 1.2 2 5.78 5.78 0 0 1 .52 2.2q-.407-.045-1.196-.158a10 10 0 0 0-1.375-.113 3.43 3.43 0 0 0-2.525.854 2.766 2.766 0 0 0-.857 2.025 3.173 3.173 0 0 0 1.24 2.43 5.3 5.3 0 0 0 3.586 1.08zm35.894-11.25a1.584 1.584 0 0 0-1.217.63 36.07 36.07 0 0 1-3.314 3.577 3.525 3.525 0 0 1-2.142 1.1q-1.308 0-1.307-1.8a31.167 31.167 0 0 1 .856-5.175 36.163 36.163 0 0 0 .993-6.345 2.59 2.59 0 0 0-2.932-2.925 6.61 6.61 0 0 0-3.27 1.035 12.938 12.938 0 0 0-3.607 3.443 25.838 25.838 0 0 0-3.314 6.233q0-2.474.135-4.815a60.966 60.966 0 0 0 8.658-11.408 19.683 19.683 0 0 0 2.66-9.428 7.687 7.687 0 0 0-1.284-4.613 3.966 3.966 0 0 0-3.36-1.778q-3.88 0-6.65 5.107a43.347 43.347 0 0 0-4.195 12.622 77.79 77.79 0 0 0-1.416 14.452l-.044 3.6q-.045.855-.045 2.295a9.664 9.664 0 0 0 .43 3.487 1.74 1.74 0 0 0 1.78.968q3.383 0 4.24-3.6a32.26 32.26 0 0 1 1.76-5.22 22.134 22.134 0 0 1 2.163-3.983q1.083-1.507 1.67-1.508.5 0 .5.72a23.25 23.25 0 0 1-.588 3.915 28.02 28.02 0 0 0-.63 4.5 5.63 5.63 0 0 0 1.172 3.847 4.387 4.387 0 0 0 3.472 1.328 8.482 8.482 0 0 0 4.982-1.53 23.73 23.73 0 0 0 4.26-3.915 4.132 4.132 0 0 0 .858-2.79 2.79 2.79 0 0 0-.338-1.485 1.044 1.044 0 0 0-.925-.54zM148.595 4.443a1.007 1.007 0 0 1 .9.765 6.023 6.023 0 0 1 .316 2.2 16.674 16.674 0 0 1-1.826 7.02 32.15 32.15 0 0 1-4.622 7.154 83.274 83.274 0 0 1 1.51-8.573 39.248 39.248 0 0 1 1.917-6.254q.99-2.317 1.8-2.317zm34 24.03a2.67 2.67 0 0 0-.632.09 27.35 27.35 0 0 1-5.05.9 10.112 10.112 0 0 0-2.458-5.828 7.03 7.03 0 0 0-5.524-2.363 9.1 9.1 0 0 0-5.1 1.508 10.26 10.26 0 0 0-3.606 4.186 13.7 13.7 0 0 0-1.308 6.1 11.066 11.066 0 0 0 .992 4.68 8.28 8.28 0 0 0 2.91 3.465 8.01 8.01 0 0 0 4.62 1.3 8.33 8.33 0 0 0 5.728-2.272 11.226 11.226 0 0 0 3.382-6.053 20.564 20.564 0 0 0 5.952-1.08q1.308-.405 1.308-2.565a3.114 3.114 0 0 0-.315-1.485.986.986 0 0 0-.9-.585zm-14.79 9.27a2.8 2.8 0 0 1-2.28-1.3 6.263 6.263 0 0 1-.968-3.78 8.526 8.526 0 0 1 1.2-4.882 3.542 3.542 0 0 1 3-1.733h.224a7.8 7.8 0 0 0-.134 1.44 7.312 7.312 0 0 0 .744 3.24 6.214 6.214 0 0 0 2.142 2.474 6.5 6.5 0 0 1-1.42 3.375 3.27 3.27 0 0 1-2.5 1.17zm36.21-5.49a1.582 1.582 0 0 0-1.218.63 27.322 27.322 0 0 1-3.473 3.6 4.493 4.493 0 0 1-2.84 1.08 5.97 5.97 0 0 1-1.58-.27 15.11 15.11 0 0 0 2.12-4.095 14.274 14.274 0 0 0 .767-4.636 8.315 8.315 0 0 0-1.6-5.31 5.025 5.025 0 0 0-4.125-2.025 5.97 5.97 0 0 0-2.976.787 10.293 10.293 0 0 0-2.842 2.587q-.045-.54-.045-1.665a2.13 2.13 0 0 0-.474-1.51 2.038 2.038 0 0 0-1.376-.382 4.576 4.576 0 0 0-2.706.765 2.3 2.3 0 0 0-1.037 2.07q.09 2.565.09 9.135a70.206 70.206 0 0 0-6.267 12.938 32.127 32.127 0 0 0-2.03 10.282 8.68 8.68 0 0 0 1.173 4.86 4.037 4.037 0 0 0 3.608 1.755q4.013 0 6.088-5.828a54.9 54.9 0 0 0 2.66-14.512 10.032 10.032 0 0 0 5.366-1.71 4.9 4.9 0 0 0 3.883 1.71 8.758 8.758 0 0 0 5.074-1.53 19.923 19.923 0 0 0 4.17-3.916 4.132 4.132 0 0 0 .858-2.79 2.79 2.79 0 0 0-.338-1.485 1.045 1.045 0 0 0-.925-.54zm-17.858 5.94q.044-1.124.045-3.195 0-3.825.045-5.806 2.3-3.42 3.923-3.42a1.735 1.735 0 0 1 1.443.7 3.3 3.3 0 0 1 .54 2.048 12.028 12.028 0 0 1-.81 4.387 10.344 10.344 0 0 1-2.188 3.51 5.98 5.98 0 0 1-3 1.777zm-8.613 20.25a1.008 1.008 0 0 1-.79-.765 5.658 5.658 0 0 1-.338-2.2 26.786 26.786 0 0 1 1.128-6.886A66.083 66.083 0 0 1 180.61 40a109.933 109.933 0 0 1-1.037 13.162q-.812 5.287-2.03 5.288z"/></svg>
