<svg xmlns="http://www.w3.org/2000/svg" width="33" height="33" viewBox="239.665 239.757 33 33"><path fill="#60d3bc" d="M242.56 272.243h12.504v-13.91H242.56v13.91zm28.182-23.62h-7.335c.52-.267.984-.55 1.396-.845 1.588-1.133 2.424-2.57 2.42-4 .002-1.168-.556-2.2-1.36-2.9-.804-.704-1.868-1.12-3.015-1.12-1.22-.002-2.352.42-3.32 1.068-1.46.98-2.606 2.45-3.424 4.067-.04.08-.078.157-.115.236-.3-.624-.648-1.227-1.042-1.793-.69-.985-1.523-1.86-2.497-2.51-.97-.647-2.102-1.07-3.32-1.07-1.214.004-2.324.514-3.156 1.295-.828.783-1.41 1.885-1.412 3.135-.002.73.21 1.494.65 2.188.55.872 1.423 1.628 2.632 2.248h-6.588c-.878 0-1.59.712-1.59 1.59v5.897h15.395v-7.488h1.874v7.488h15.396v-5.897c.003-.88-.71-1.59-1.588-1.59m-22.362-2.34c-.622-.39-1-.784-1.22-1.134-.22-.355-.294-.663-.296-.964-.004-.504.248-1.042.69-1.46.438-.416 1.03-.668 1.563-.668h.013c.685 0 1.366.23 2.046.683 1.018.672 1.975 1.85 2.645 3.188.343.676.61 1.39.79 2.087-3.082-.32-5.078-1.002-6.23-1.73m10.537-1.628c.557-.797 1.21-1.466 1.887-1.916.68-.45 1.362-.682 2.047-.682h.007c.574 0 1.117.22 1.494.55.378.336.572.74.574 1.17-.004.513-.272 1.26-1.467 2.133-1.138.826-3.1 1.674-6.127 2.266.29-1.202.847-2.472 1.587-3.52m-1.98 27.587h12.506v-13.91h-12.506v13.91z"/></svg>
