<svg xmlns="http://www.w3.org/2000/svg" width="32" height="37" viewBox="8.014 4.35 32 37"><path fill="#60d3bc" d="M24 41.65c8.827 0 15.986-7.16 15.986-15.986C31.158 25.664 24 32.822 24 41.65zM12.64 20.78c0 2.45 1.99 4.44 4.44 4.44.933 0 1.804-.293 2.514-.78l-.036.336c0 2.45 1.99 4.44 4.44 4.44s4.44-1.99 4.44-4.44l-.035-.337c.72.496 1.582.78 2.514.78 2.45 0 4.44-1.99 4.44-4.44 0-1.768-1.038-3.286-2.54-3.997 1.492-.71 2.54-2.23 2.54-3.997 0-2.45-1.99-4.44-4.44-4.44-.932 0-1.803.293-2.514.78l.037-.336c0-2.45-1.99-4.44-4.44-4.44s-4.44 1.99-4.44 4.44l.035.337c-.72-.497-1.58-.78-2.513-.78-2.45 0-4.44 1.99-4.44 4.44 0 1.767 1.04 3.285 2.54 3.996-1.502.71-2.54 2.23-2.54 3.997zM24 12.343c2.45 0 4.44 1.99 4.44 4.44s-1.99 4.44-4.44 4.44-4.44-1.99-4.44-4.44 1.99-4.44 4.44-4.44zM8.014 25.663c0 8.828 7.158 15.987 15.986 15.987 0-8.828-7.158-15.986-15.986-15.986z"/></svg>
