<svg xmlns="http://www.w3.org/2000/svg" width="34" height="34" viewBox="0 0 34 34"><path fill="#60d3bc" d="M.286 14.07c-.382 2.072-.384 4.21.008 6.3l4.12-3.21-4.128-3.09zM24.403 1.585C19.62-.623 13.96-.56 9.15 1.992l7.512 5.625 7.74-6.032zM33.9 13.175l-4.81 3.748 4.936 3.695c.496-2.445.463-4.988-.125-7.443zM9.21 32.414c4.843 2.534 10.723 2.65 15.73.113l-8.097-6.062-7.634 5.95zM7.914 14.433L1.68 9.767c-.32.67-.594 1.356-.824 2.056l5.308 3.974 1.75-1.364zM18.593 25.102l8.336 6.242c.276-.19.55-.39.82-.6.317-.25.624-.506.92-.772l-8.327-6.234-1.75 1.364zM11.413 11.707l-7.41-5.55c-.463.552-.886 1.128-1.27 1.724l6.93 5.19 1.75-1.363zM22.093 22.375l8.092 6.06c.47-.545.904-1.113 1.297-1.702l-7.64-5.72-1.75 1.362zM14.913 8.98L7.196 3.203c-.193.138-.384.28-.573.426-.396.308-.774.63-1.136.967l7.676 5.747 1.75-1.364zM25.592 19.65l6.972 5.22c.33-.662.615-1.34.855-2.033l-6.078-4.55-1.75 1.362zM26.448 2.706L.88 22.626c.233.698.513 1.386.84 2.06L28.24 4.02c-.573-.48-1.172-.92-1.792-1.316zM30.743 6.624c-.3-.386-.614-.754-.94-1.106L2.787 26.568c.262.4.542.796.843 1.182.14.183.287.36.435.534l27.09-21.108c-.134-.186-.27-.37-.412-.552zM32.298 9L5.552 29.837c.544.5 1.114.962 1.708 1.382l25.962-20.228c-.263-.678-.57-1.344-.924-1.993z"/></svg>
